<svg xmlns="http://www.w3.org/2000/svg" viewBox="0 0 2160 720">
  <defs>
    <style>
      .cls-1, .cls-10, .cls-11, .cls-12, .cls-13, .cls-14, .cls-15, .cls-16, .cls-17, .cls-18, .cls-19, .cls-2, .cls-20, .cls-21, .cls-22, .cls-25, .cls-26, .cls-3, .cls-7, .cls-8, .cls-9 {
        fill: none;
      }

      .cls-1 {
        stroke: #bcbcbc;
      }

      .cls-1, .cls-10, .cls-11, .cls-2, .cls-20, .cls-21, .cls-25, .cls-3, .cls-9 {
        stroke-miterlimit: 10;
      }

      .cls-1, .cls-15, .cls-16, .cls-19 {
        stroke-width: 0.5px;
      }

      .cls-2 {
        stroke: #4c4c4c;
        stroke-width: 0.6px;
      }

      .cls-12, .cls-13, .cls-14, .cls-15, .cls-18, .cls-20, .cls-3 {
        stroke: #000;
      }

      .cls-11, .cls-14, .cls-17, .cls-3 {
        stroke-width: 0.75px;
      }

      .cls-4 {
        fill: #c69c6d;
        opacity: 0.15;
      }

      .cls-5 {
        fill: #a67c52;
        opacity: 0.1;
      }

      .cls-6 {
        fill: #603813;
        opacity: 0.32;
      }

      .cls-16, .cls-7, .cls-9 {
        stroke: #999;
      }

      .cls-12, .cls-13, .cls-14, .cls-15, .cls-16, .cls-17, .cls-18, .cls-19, .cls-22, .cls-26, .cls-7, .cls-8 {
        stroke-linecap: round;
        stroke-linejoin: round;
      }

      .cls-10, .cls-18, .cls-7, .cls-8, .cls-9 {
        stroke-width: 0.15px;
      }

      .cls-8 {
        stroke: #ccc;
      }

      .cls-10 {
        stroke: #666;
      }

      .cls-11 {
        stroke: #4d4d4d;
      }

      .cls-12 {
        stroke-width: 0.25px;
      }

      .cls-17 {
        stroke: #333;
      }

      .cls-19 {
        stroke: #1a1a1a;
      }

      .cls-21, .cls-22 {
        stroke: #0071bc;
      }

      .cls-21, .cls-22, .cls-25, .cls-26 {
        stroke-width: 1.5px;
      }

      .cls-23 {
        font-size: 10px;
      }

      .cls-23, .cls-27 {
        fill: #4d4d4d;
        font-family: Avenir-Heavy, Avenir;
        font-weight: 800;
      }

      .cls-24 {
        letter-spacing: -0.09em;
      }

      .cls-25, .cls-26 {
        stroke: #39b54a;
      }

      .cls-27 {
        font-size: 10.22px;
      }

      .cls-28 {
        letter-spacing: -0.09em;
      }
    </style>
  </defs>
  <g id="Layer_1" data-name="Layer 1">
    <path class="cls-1" d="M1848.75,402.46c1.23.71,2,2.24,2,4.42"/>
    <path class="cls-1" d="M1944,542.07l-118.21-68.25"/>
    <path class="cls-1" d="M1944,552.57l-122.76-70.88"/>
    <path class="cls-1" d="M1803,460.69l22.74,13.13"/>
    <path class="cls-1" d="M1798.46,468.57l22.73,13.12"/>
    <line class="cls-1" x1="1859.84" y1="551.25" x2="1859.84" y2="522.38"/>
    <path class="cls-1" d="M1859.84,551.25c0,2.9,2,4.08,4.54,2.63"/>
    <line class="cls-1" x1="1850.74" y1="506.63" x2="1807.55" y2="481.69"/>
    <path class="cls-1" d="M1859.84,522.38c0-5.8-4.07-12.85-9.1-15.75"/>
    <line class="cls-1" x1="1864.38" y1="553.88" x2="1857.56" y2="549.94"/>
    <line class="cls-1" x1="1864.38" y1="556.5" x2="1857.56" y2="552.57"/>
    <line class="cls-1" x1="1864.38" y1="556.63" x2="1864.38" y2="553.77"/>
    <path class="cls-1" d="M1843.92,405.56c2.51-1.45,4.55-.27,4.55,2.63"/>
    <path class="cls-1" d="M1798.46,437.06a10,10,0,0,1,4.54-7.87"/>
    <line class="cls-1" x1="1841.65" y1="422.63" x2="1834.83" y2="418.69"/>
    <line class="cls-1" x1="1798.46" y1="465.94" x2="1798.46" y2="437.06"/>
    <path class="cls-1" d="M1807.55,481.69c-5-2.9-9.09-9.95-9.09-15.75"/>
    <path class="cls-1" d="M1837.1,417.38a18.64,18.64,0,0,1-6.43-6.79"/>
    <path class="cls-1" d="M1834.83,418.69a18.64,18.64,0,0,1-6.43-6.79"/>
    <line class="cls-1" x1="1843.92" y1="421.31" x2="1837.1" y2="417.38"/>
    <path class="cls-1" d="M1850.74,417.38c0,4.35-3,6.11-6.82,3.93"/>
    <path class="cls-1" d="M1848.47,418.69c0,4.35-3,6.11-6.82,3.94"/>
    <line class="cls-1" x1="1848.75" y1="421.79" x2="1846.47" y2="423.1"/>
    <line class="cls-1" x1="1850.74" y1="406.88" x2="1850.74" y2="417.38"/>
    <line class="cls-1" x1="1848.47" y1="408.19" x2="1848.47" y2="418.69"/>
    <line class="cls-1" x1="1798.46" y1="116.81" x2="1730.25" y2="156.18"/>
    <line class="cls-1" x1="1725.71" y1="164.06" x2="1725.71" y2="505.32"/>
    <line class="cls-1" x1="1748.44" y1="497.44" x2="1730.25" y2="507.94"/>
    <path class="cls-1" d="M1730.25,507.94c-2.51,1.45-4.54.28-4.54-2.62"/>
    <path class="cls-1" d="M1730.25,156.18a10.05,10.05,0,0,0-4.54,7.88"/>
    <line class="cls-1" x1="1803" y1="119.43" x2="1803" y2="140.43"/>
    <path class="cls-1" d="M1798.46,116.81c2.51-1.45,4.54-.28,4.54,2.62"/>
    <line class="cls-1" x1="1803" y1="426.56" x2="1803" y2="460.69"/>
    <path class="cls-1" d="M1798.46,471.19a15.08,15.08,0,0,0,6.82-11.81"/>
    <line class="cls-1" x1="1798.46" y1="471.19" x2="1730.25" y2="510.57"/>
    <path class="cls-1" d="M1730.25,510.57c-1.88,1.08-3.58,1.19-4.82.47"/>
    <line class="cls-1" x1="1805.28" y1="118.12" x2="1805.28" y2="459.38"/>
    <path class="cls-1" d="M1803.26,113.69c1.24.71,2,2.24,2,4.43"/>
    <path class="cls-1" d="M1798.46,468.57a10.05,10.05,0,0,0,4.54-7.88"/>
    <line class="cls-1" x1="1798.46" y1="468.57" x2="1796.42" y2="469.74"/>
    <line class="cls-1" x1="1803" y1="426.56" x2="1803" y2="429.19"/>
    <line class="cls-1" x1="1843.92" y1="405.56" x2="1803" y2="429.19"/>
    <path class="cls-1" d="M1859.56,557c1.24.72,2.94.61,4.82-.48"/>
    <line class="cls-2" x1="1993.97" y1="570.94" x2="1993.97" y2="492.19"/>
    <line class="cls-2" x1="1943.95" y1="521.07" x2="1943.95" y2="599.82"/>
    <line class="cls-2" x1="1948.5" y1="513.19" x2="1989.42" y2="489.57"/>
    <path class="cls-2" d="M1994,492.19c0-2.9-2-4.07-4.55-2.62"/>
    <path class="cls-2" d="M1948.5,513.19a10.06,10.06,0,0,0-4.55,7.88"/>
    <path class="cls-2" d="M1948.5,602.44c-2.51,1.45-4.55.28-4.55-2.62"/>
    <path class="cls-2" d="M1994,570.94a10.06,10.06,0,0,1-4.55,7.88"/>
    <line class="cls-2" x1="1948.5" y1="602.44" x2="1989.42" y2="578.82"/>
    <path class="cls-2" d="M1994,570.94l-50-28.87"/>
    <path class="cls-2" d="M1989.42,578.82,1944,552.57"/>
    <line class="cls-2" x1="1857.56" y1="549.94" x2="1853.02" y2="547.32"/>
    <path class="cls-2" d="M1809.82,551.25c5,2.9,13.17,2.9,18.19,0"/>
    <line class="cls-2" x1="1752.99" y1="169.31" x2="1821.19" y2="129.93"/>
    <line class="cls-2" x1="1748.44" y1="518.44" x2="1748.44" y2="177.18"/>
    <path class="cls-2" d="M1748.44,518.44c0,2.9,2,4.08,4.55,2.63"/>
    <path class="cls-2" d="M1748.44,177.18a10,10,0,0,1,4.55-7.87"/>
    <line class="cls-2" x1="1834.83" y1="547.32" x2="1828.01" y2="551.25"/>
    <path class="cls-2" d="M1834.83,547.32c5-2.9,13.16-2.9,18.19,0"/>
    <line class="cls-2" x1="1757.54" y1="521.07" x2="1809.82" y2="551.25"/>
    <path class="cls-2" d="M1753,521.07a5,5,0,0,1,4.55,0"/>
    <path class="cls-2" d="M1825.74,132.56c0-2.9-2-4.08-4.55-2.63"/>
    <line class="cls-2" x1="1825.74" y1="402.94" x2="1825.74" y2="132.56"/>
    <path class="cls-2" d="M1828.4,411.9a18.52,18.52,0,0,1-2.66-9h0"/>
    <line class="cls-3" x1="1723.43" y1="165.37" x2="1723.43" y2="506.63"/>
    <line class="cls-3" x1="1798.46" y1="114.18" x2="1730.25" y2="153.56"/>
    <path class="cls-3" d="M1730.25,153.56a15.08,15.08,0,0,0-6.82,11.81"/>
    <path class="cls-3" d="M1725.43,511c-1.23-.71-2-2.24-2-4.41"/>
    <path class="cls-3" d="M1748.17,524.17c1.23.71,2.94.61,4.82-.48"/>
    <path class="cls-3" d="M1746.17,519.75c0,2.18.76,3.71,2,4.42"/>
    <line class="cls-3" x1="1757.54" y1="523.69" x2="1809.82" y2="553.88"/>
    <path class="cls-3" d="M1753,523.69a5.06,5.06,0,0,1,4.55,0"/>
    <line class="cls-3" x1="1725.43" y1="511.04" x2="1748.17" y2="524.17"/>
    <line class="cls-3" x1="1857.56" y1="552.57" x2="1853.02" y2="549.94"/>
    <path class="cls-3" d="M1809.82,553.88c5,2.9,13.17,2.9,18.19,0"/>
    <line class="cls-3" x1="1834.83" y1="549.94" x2="1828.01" y2="553.88"/>
    <path class="cls-3" d="M1834.83,549.94c5-2.9,13.16-2.9,18.19,0"/>
    <line class="cls-3" x1="1996.24" y1="569.63" x2="1996.24" y2="490.88"/>
    <path class="cls-3" d="M1996.24,569.63a15.05,15.05,0,0,1-6.82,11.81"/>
    <line class="cls-3" x1="1948.5" y1="605.07" x2="1989.42" y2="581.44"/>
    <path class="cls-3" d="M1996.24,490.88c0-2.18-.76-3.7-2-4.42"/>
    <path class="cls-3" d="M1948.5,605.07c-1.88,1.09-3.59,1.19-4.82.48"/>
    <path class="cls-3" d="M1994.24,486.46c-1.24-.71-2.94-.6-4.82.48l-40.93,23.63a15.08,15.08,0,0,0-6.82,11.81v78.75c0,2.18.77,3.71,2,4.41L1859.56,557c-1.23-.71-2-2.24-2-4.42V523.69c0-5.8-4.06-12.85-9.09-15.75L1805.27,483c-5-2.9-9.08-9.95-9.08-15.75V438.37a15,15,0,0,1,6.82-11.8l40.92-23.63a6,6,0,0,1,3.25-.93,3.45,3.45,0,0,1,1.57.45Z"/>
    <line class="cls-3" x1="1746.17" y1="519.75" x2="1746.17" y2="178.5"/>
    <line class="cls-3" x1="1752.99" y1="166.68" x2="1821.19" y2="127.31"/>
    <path class="cls-3" d="M1746.17,178.5a15.09,15.09,0,0,1,6.82-11.82"/>
    <line class="cls-3" x1="1828.01" y1="401.63" x2="1828.01" y2="131.24"/>
    <line class="cls-3" x1="1826.01" y1="126.83" x2="1803.28" y2="113.7"/>
    <path class="cls-3" d="M1826,126.83c-1.23-.71-2.94-.61-4.82.48"/>
    <path class="cls-3" d="M1828,131.24c0-2.17-.76-3.7-2-4.41"/>
    <path class="cls-3" d="M1798.46,114.18a5.82,5.82,0,0,1,3.4-.91"/>
    <path class="cls-3" d="M1830.67,410.59a18.63,18.63,0,0,1-2.66-9"/>
    <line class="cls-3" x1="1803" y1="140.43" x2="1803" y2="426.56"/>
    <line class="cls-3" x1="1796.42" y1="469.74" x2="1748.44" y2="497.44"/>
    <path class="cls-3" d="M1801.86,113.27a3.46,3.46,0,0,1,1.4.42"/>
    <path class="cls-4" d="M1994.24,486.46c-1.24-.71-2.94-.6-4.82.48l-40.93,23.63a15.08,15.08,0,0,0-6.82,11.81v78.75c0,2.18.77,3.71,2,4.41L1859.56,557c-1.23-.71-2-2.24-2-4.42V523.69c0-5.8-4.06-12.85-9.09-15.75L1805.27,483c-5-2.9-9.08-9.95-9.08-15.75V438.37a15,15,0,0,1,6.82-11.8l40.92-23.63a6,6,0,0,1,3.25-.93,3.45,3.45,0,0,1,1.57.45Z"/>
    <path class="cls-5" d="M1803.26,113.69a3.46,3.46,0,0,0-1.4-.42,5.82,5.82,0,0,0-3.4.91l-68.21,39.38a15.08,15.08,0,0,0-6.82,11.81V506.63c0,2.17.77,3.7,2,4.41l22.74,13.13c-1.24-.71-2-2.24-2-4.42V178.5a15.09,15.09,0,0,1,6.82-11.82l68.2-39.37c1.88-1.09,3.59-1.19,4.82-.48l-22.73-13.13Z"/>
    <path class="cls-6" d="M1993.69,570.94V492.19c0-2.9-2-4.07-4.55-2.62l-40.92,23.62a10.05,10.05,0,0,0-4.54,7.88v78.75c0,2.9,2,4.07,4.54,2.62l40.92-23.62A10.06,10.06,0,0,0,1993.69,570.94Z"/>
    <path class="cls-6" d="M1857.56,549.94V523.69c0-5.8-4.06-12.85-9.09-15.75L1805.27,483c-4.31-2.49-7.93-8.06-8.85-13.26l-48,27.7v21c0,2.9,2,4.08,4.55,2.63a5,5,0,0,1,4.55,0l52.28,30.18c5,2.9,13.17,2.9,18.19,0l6.82-3.93c5-2.9,13.16-2.9,18.19,0l4.54,2.62"/>
    <path class="cls-6" d="M1803,426.57l25.39-14.67h0a18.52,18.52,0,0,1-2.66-9h0V132.56c0-2.9-2-4.08-4.55-2.63L1803,140.43V426.56"/>
  </g>
  <g id="Layer_2" data-name="Layer 2">
    <path class="cls-7" d="M357.37,534.15v8.76s.05.07,0,.06"/>
    <line class="cls-7" x1="179.44" y1="534.15" x2="179.44" y2="143.04"/>
    <path class="cls-7" d="M317.67,445.92V438.2a3.13,3.13,0,0,1,0-1.1"/>
    <path class="cls-7" d="M179.44,534.15v8.76s0,.06,0,.06"/>
    <path class="cls-7" d="M179.44,534.15V543"/>
    <line class="cls-8" x1="194.15" y1="490.04" x2="235.32" y2="490.04"/>
    <line class="cls-7" x1="194.15" y1="490.04" x2="411.78" y2="490.04"/>
    <line class="cls-9" x1="302.96" y1="534.15" x2="302.96" y2="445.92"/>
    <line class="cls-7" x1="291.2" y1="490.04" x2="411.78" y2="490.04"/>
    <line class="cls-7" x1="291.2" y1="490.04" x2="411.78" y2="490.04"/>
    <line class="cls-7" x1="411.78" y1="540.39" x2="302.96" y2="540.39"/>
    <line class="cls-7" x1="411.78" y1="540.39" x2="302.96" y2="540.39"/>
    <line class="cls-9" x1="276.5" y1="540.03" x2="276.5" y2="542.97"/>
    <line class="cls-9" x1="235.32" y1="542.97" x2="235.32" y2="540.03"/>
    <line class="cls-9" x1="264.73" y1="540.03" x2="264.73" y2="542.97"/>
    <line class="cls-10" x1="276.5" y1="542.97" x2="276.5" y2="540.03"/>
    <line class="cls-9" x1="288.26" y1="542.97" x2="288.26" y2="540.03"/>
    <line class="cls-9" x1="197.09" y1="540.03" x2="197.09" y2="542.97"/>
    <line class="cls-11" x1="273.05" y1="540.03" x2="273.05" y2="542.97"/>
    <line class="cls-9" x1="288.26" y1="541.5" x2="302.96" y2="541.5"/>
    <line class="cls-9" x1="289.73" y1="542.97" x2="289.73" y2="540.03"/>
    <line class="cls-9" x1="279.94" y1="542.97" x2="279.94" y2="540.03"/>
    <path class="cls-9" d="M276.5,541.5h11.76"/>
    <line class="cls-9" x1="195.01" y1="540.03" x2="195.01" y2="542.97"/>
    <path class="cls-9" d="M197.09,541.5h-2.86s-.09.06-.08,0"/>
    <line class="cls-12" x1="194.15" y1="534.15" x2="194.15" y2="466.51"/>
    <line class="cls-12" x1="302.96" y1="542.97" x2="288.26" y2="542.97"/>
    <line class="cls-7" x1="223.56" y1="445.92" x2="411.78" y2="445.92"/>
    <line class="cls-7" x1="411.78" y1="534.15" x2="194.15" y2="534.15"/>
    <line class="cls-12" x1="223.56" y1="445.92" x2="223.56" y2="457.68"/>
    <line class="cls-12" x1="411.78" y1="534.15" x2="411.78" y2="445.92"/>
    <line class="cls-7" x1="411.78" y1="445.92" x2="223.56" y2="445.92"/>
    <line class="cls-7" x1="411.78" y1="534.15" x2="302.96" y2="534.15"/>
    <line class="cls-12" x1="302.96" y1="534.15" x2="302.96" y2="501.8"/>
    <line class="cls-12" x1="411.78" y1="445.92" x2="411.78" y2="534.15"/>
    <line class="cls-12" x1="411.78" y1="437.1" x2="223.56" y2="437.1"/>
    <line class="cls-13" x1="223.56" y1="437.1" x2="411.78" y2="437.1"/>
    <line class="cls-12" x1="411.78" y1="437.1" x2="411.78" y2="437.1"/>
    <line class="cls-12" x1="223.56" y1="437.1" x2="223.56" y2="437.1"/>
    <path class="cls-12" d="M411.78,534.15v8.76s0,.06,0,.06"/>
    <line class="cls-12" x1="411.78" y1="542.97" x2="302.96" y2="542.97"/>
    <line class="cls-13" x1="411.78" y1="542.97" x2="194.15" y2="542.97"/>
    <line class="cls-12" x1="411.78" y1="542.97" x2="411.78" y2="542.97"/>
    <line class="cls-12" x1="194.15" y1="542.97" x2="194.15" y2="542.97"/>
    <path class="cls-12" d="M223.56,437.1a14.69,14.69,0,0,1,0,2.2v6.62"/>
    <path class="cls-12" d="M411.78,445.92v-8.56c0-.09-.13-.18,0-.26"/>
    <path class="cls-12" d="M223.56,445.92v-8.76s0-.08,0-.06"/>
    <path class="cls-12" d="M411.78,437.1s0,0,0,.06v8.76"/>
    <path class="cls-12" d="M303,534.15v8.76s0,.07,0,.06"/>
    <path class="cls-12" d="M411.78,543s0,0,0-.06v-8.76"/>
    <path class="cls-12" d="M194.15,534.15v8.76s0,.07,0,.06"/>
    <line class="cls-12" x1="194.15" y1="534.15" x2="194.15" y2="466.51"/>
    <path class="cls-7" d="M223.56,445.92H411.78"/>
    <path class="cls-7" d="M411.78,534.15H194.15"/>
    <line class="cls-12" x1="223.56" y1="445.92" x2="223.56" y2="457.68"/>
    <line class="cls-12" x1="411.78" y1="534.15" x2="411.78" y2="445.92"/>
    <path class="cls-7" d="M411.78,445.92H223.56"/>
    <path class="cls-7" d="M411.78,534.15H303"/>
    <line class="cls-12" x1="302.96" y1="534.15" x2="302.96" y2="501.8"/>
    <line class="cls-12" x1="411.78" y1="445.92" x2="411.78" y2="534.15"/>
    <path class="cls-7" d="M411.78,440H223.56"/>
    <path class="cls-7" d="M223.56,440H411.78"/>
    <line class="cls-12" x1="411.78" y1="440.04" x2="411.78" y2="440.04"/>
    <line class="cls-12" x1="223.56" y1="440.04" x2="223.56" y2="440.04"/>
    <path class="cls-12" d="M223.56,440c.05-.11,0,.11,0,.17v5.71"/>
    <path class="cls-12" d="M411.78,445.92v-5.71c0-.06.11-.21,0-.17"/>
    <path class="cls-12" d="M223.56,445.92v-5.71c0-.06,0-.28,0-.17"/>
    <path class="cls-13" d="M411.78,440c-.07-.09,0,.11,0,.17v5.71"/>
    <path class="cls-7" d="M411.78,540H303"/>
    <path class="cls-12" d="M303,534.15v5.71c0,.06-.11.17,0,.17"/>
    <path class="cls-12" d="M411.78,540c.12,0,0-.11,0-.17v-5.71"/>
    <path class="cls-12" d="M411.78,534.15v5.71c0,.06-.11.17,0,.17"/>
    <path class="cls-7" d="M411.78,540H194.15"/>
    <path class="cls-12" d="M194.15,534.15v5.15a1.79,1.79,0,0,1,0,.73"/>
    <line class="cls-12" x1="302.96" y1="540.03" x2="288.26" y2="540.03"/>
    <line class="cls-12" x1="411.78" y1="540.03" x2="411.78" y2="540.03"/>
    <line class="cls-12" x1="194.15" y1="540.03" x2="194.15" y2="540.03"/>
    <line class="cls-12" x1="223.56" y1="445.92" x2="223.56" y2="445.92"/>
    <line class="cls-13" x1="302.96" y1="542.97" x2="302.96" y2="540.03"/>
    <line class="cls-12" x1="302.96" y1="534.15" x2="302.96" y2="534.15"/>
    <line class="cls-12" x1="223.56" y1="445.92" x2="223.56" y2="445.92"/>
    <line class="cls-12" x1="223.56" y1="437.1" x2="223.56" y2="440.04"/>
    <line class="cls-13" x1="223.56" y1="440.04" x2="223.56" y2="437.1"/>
    <line class="cls-12" x1="411.78" y1="445.92" x2="411.78" y2="445.92"/>
    <line class="cls-12" x1="411.78" y1="437.1" x2="411.78" y2="440.04"/>
    <line class="cls-13" x1="411.78" y1="440.04" x2="411.78" y2="437.1"/>
    <line class="cls-12" x1="411.78" y1="445.92" x2="411.78" y2="445.92"/>
    <line class="cls-12" x1="411.78" y1="534.15" x2="411.78" y2="534.15"/>
    <line class="cls-12" x1="411.78" y1="540.03" x2="411.78" y2="542.97"/>
    <line class="cls-12" x1="411.78" y1="542.97" x2="411.78" y2="540.03"/>
    <line class="cls-12" x1="411.78" y1="534.15" x2="411.78" y2="534.15"/>
    <line class="cls-12" x1="214.73" y1="466.51" x2="205.91" y2="466.51"/>
    <line class="cls-12" x1="214.73" y1="466.51" x2="205.91" y2="466.51"/>
    <line class="cls-12" x1="223.56" y1="457.68" x2="223.56" y2="457.68"/>
    <line class="cls-12" x1="214.73" y1="466.51" x2="214.73" y2="466.51"/>
    <path class="cls-12" d="M223.56,457.68a8.83,8.83,0,0,1-8.83,8.83"/>
    <path class="cls-12" d="M223.56,457.68a8.83,8.83,0,0,1-8.83,8.83"/>
    <path class="cls-12" d="M264.73,543h11.68s.09.06.09,0"/>
    <path class="cls-12" d="M264.73,540h11.68s.09.06.09,0"/>
    <line class="cls-7" x1="164.74" y1="534.15" x2="194.15" y2="534.15"/>
    <line class="cls-7" x1="164.74" y1="151.82" x2="194.15" y2="151.82"/>
    <line class="cls-12" x1="194.15" y1="534.15" x2="194.15" y2="151.82"/>
    <line class="cls-12" x1="164.74" y1="151.82" x2="164.74" y2="534.15"/>
    <line class="cls-12" x1="164.74" y1="142.99" x2="194.15" y2="142.99"/>
    <line class="cls-12" x1="194.15" y1="142.99" x2="164.74" y2="142.99"/>
    <line class="cls-12" x1="194.15" y1="142.99" x2="194.15" y2="142.99"/>
    <line class="cls-12" x1="164.74" y1="142.99" x2="164.74" y2="142.99"/>
    <line class="cls-7" x1="194.15" y1="151.82" x2="164.74" y2="151.82"/>
    <line class="cls-7" x1="164.74" y1="534.15" x2="194.15" y2="534.15"/>
    <line class="cls-12" x1="164.74" y1="151.82" x2="164.74" y2="534.15"/>
    <line class="cls-12" x1="164.74" y1="542.97" x2="194.15" y2="542.97"/>
    <line class="cls-12" x1="164.74" y1="542.97" x2="194.15" y2="542.97"/>
    <line class="cls-12" x1="194.15" y1="542.97" x2="194.15" y2="542.97"/>
    <line class="cls-12" x1="164.74" y1="542.97" x2="164.74" y2="542.97"/>
    <path class="cls-12" d="M164.74,543s0,0,0-.06v-8.76"/>
    <path class="cls-12" d="M194.15,534.15v8.56c0,.09.11.18,0,.26"/>
    <path class="cls-12" d="M194.15,151.82c0-2.94,0-5.88,0-8.83"/>
    <path class="cls-12" d="M164.74,143c0-.17,0,.18,0,.27v8.56"/>
    <path class="cls-12" d="M164.74,143c0-.17,0,.18,0,.27v8.56"/>
    <path class="cls-12" d="M164.74,543c-.14-.07,0-.17,0-.26v-8.56"/>
    <path class="cls-7" d="M164.74,145.94h29.41"/>
    <path class="cls-7" d="M194.15,145.94H164.74"/>
    <line class="cls-12" x1="194.15" y1="145.94" x2="194.15" y2="145.94"/>
    <line class="cls-12" x1="164.74" y1="145.94" x2="164.74" y2="145.94"/>
    <path class="cls-7" d="M194.15,151.82H164.74"/>
    <path class="cls-7" d="M164.74,534.15h29.41"/>
    <line class="cls-12" x1="164.74" y1="151.82" x2="164.74" y2="534.15"/>
    <path class="cls-7" d="M164.74,534.15h29.41"/>
    <path class="cls-7" d="M164.74,151.82h29.41"/>
    <line class="cls-12" x1="194.15" y1="534.15" x2="194.15" y2="151.82"/>
    <line class="cls-12" x1="164.74" y1="151.82" x2="164.74" y2="534.15"/>
    <path class="cls-7" d="M164.74,540h29.41"/>
    <path class="cls-7" d="M164.74,540h29.41"/>
    <line class="cls-12" x1="194.15" y1="540.03" x2="194.15" y2="540.03"/>
    <line class="cls-12" x1="164.74" y1="540.03" x2="164.74" y2="540.03"/>
    <path class="cls-12" d="M164.74,540c-.12,0,0-.11,0-.17v-5.71"/>
    <path class="cls-12" d="M194.15,534.15v5.71c0,.06.09.24,0,.17"/>
    <path class="cls-12" d="M194.15,151.82c0-2,0-3.92,0-5.88"/>
    <path class="cls-12" d="M164.74,145.94c-.11.25,0,.49,0,.73v5.15"/>
    <path class="cls-12" d="M194.15,151.82c0-2,.07-3.92,0-5.88"/>
    <path class="cls-12" d="M164.74,145.94c.08,1,0,2,0,2.94v2.94"/>
    <path class="cls-12" d="M164.74,540c-.12,0,0-.11,0-.17v-5.71"/>
    <line class="cls-12" x1="164.74" y1="534.15" x2="164.74" y2="534.15"/>
    <line class="cls-12" x1="164.74" y1="151.82" x2="164.74" y2="151.82"/>
    <line class="cls-12" x1="164.74" y1="542.97" x2="164.74" y2="540.03"/>
    <line class="cls-12" x1="164.74" y1="540.03" x2="164.74" y2="542.97"/>
    <line class="cls-12" x1="164.74" y1="534.15" x2="164.74" y2="534.15"/>
    <line class="cls-12" x1="164.74" y1="151.82" x2="164.74" y2="151.82"/>
    <line class="cls-12" x1="164.74" y1="142.99" x2="164.74" y2="145.94"/>
    <line class="cls-12" x1="164.74" y1="145.94" x2="164.74" y2="142.99"/>
    <line class="cls-12" x1="194.15" y1="151.82" x2="194.15" y2="151.82"/>
    <line class="cls-12" x1="194.15" y1="534.15" x2="194.15" y2="534.15"/>
    <line class="cls-12" x1="194.15" y1="142.99" x2="194.15" y2="145.94"/>
    <line class="cls-12" x1="194.15" y1="142.99" x2="194.15" y2="145.94"/>
    <line class="cls-12" x1="194.15" y1="151.82" x2="194.15" y2="151.82"/>
    <line class="cls-13" x1="194.15" y1="540.03" x2="194.15" y2="542.97"/>
    <line class="cls-12" x1="194.15" y1="466.51" x2="194.15" y2="454.74"/>
    <line class="cls-12" x1="276.5" y1="540.03" x2="276.5" y2="540.03"/>
    <line class="cls-12" x1="276.5" y1="542.97" x2="276.5" y2="542.97"/>
    <path class="cls-12" d="M276.5,543h11.76"/>
    <path class="cls-12" d="M276.5,540h11.76"/>
    <line class="cls-12" x1="291.2" y1="490.04" x2="235.32" y2="490.04"/>
    <line class="cls-12" x1="223.56" y1="478.27" x2="223.56" y2="445.92"/>
    <line class="cls-12" x1="291.2" y1="490.04" x2="235.32" y2="490.04"/>
    <line class="cls-13" x1="223.56" y1="478.27" x2="223.56" y2="445.92"/>
    <line class="cls-12" x1="302.96" y1="501.8" x2="302.96" y2="501.8"/>
    <line class="cls-12" x1="235.32" y1="490.04" x2="235.32" y2="490.04"/>
    <line class="cls-12" x1="291.2" y1="490.04" x2="291.2" y2="490.04"/>
    <line class="cls-12" x1="223.56" y1="478.27" x2="223.56" y2="478.27"/>
    <path class="cls-12" d="M303,501.8A11.75,11.75,0,0,0,291.2,490"/>
    <path class="cls-13" d="M303,501.8A11.75,11.75,0,0,0,291.2,490"/>
    <path class="cls-12" d="M235.32,490a11.76,11.76,0,0,1-11.76-11.77"/>
    <path class="cls-13" d="M235.32,490a11.76,11.76,0,0,1-11.76-11.77"/>
    <line class="cls-12" x1="194.15" y1="454.74" x2="194.15" y2="151.82"/>
    <line class="cls-12" x1="194.15" y1="454.74" x2="194.15" y2="466.51"/>
    <line class="cls-12" x1="194.15" y1="454.74" x2="194.15" y2="454.74"/>
    <line class="cls-12" x1="205.91" y1="466.51" x2="205.91" y2="466.51"/>
    <line class="cls-12" x1="194.15" y1="454.74" x2="194.15" y2="454.74"/>
    <line class="cls-12" x1="194.15" y1="454.74" x2="194.15" y2="151.82"/>
    <path class="cls-12" d="M205.91,466.51a11.76,11.76,0,0,1-11.76-11.77"/>
    <path class="cls-12" d="M205.91,466.51a11.76,11.76,0,0,1-11.76-11.77h0"/>
    <line class="cls-12" x1="197.09" y1="542.97" x2="264.73" y2="542.97"/>
    <line class="cls-12" x1="197.09" y1="540.03" x2="264.73" y2="540.03"/>
    <path class="cls-12" d="M194.15,543c0,.06,0,0,.08,0h2.86"/>
    <path class="cls-12" d="M194.15,540c0,.06,0,0,.08,0h2.86"/>
    <line class="cls-7" x1="317.67" y1="445.92" x2="317.67" y2="534.15"/>
    <line class="cls-12" x1="317.67" y1="437.1" x2="317.67" y2="437.1"/>
    <line class="cls-7" x1="223.56" y1="439.68" x2="411.78" y2="439.68"/>
    <line class="cls-7" x1="411.78" y1="439.68" x2="223.56" y2="439.68"/>
    <line class="cls-14" x1="302.96" y1="540.39" x2="194.15" y2="540.39"/>
    <line class="cls-12" x1="302.86" y1="542.97" x2="302.86" y2="542.97"/>
    <line class="cls-13" x1="235.32" y1="490.04" x2="291.2" y2="490.04"/>
    <line class="cls-13" x1="302.96" y1="534.15" x2="302.96" y2="501.8"/>
    <line class="cls-7" x1="317.67" y1="445.92" x2="317.67" y2="534.15"/>
    <line class="cls-7" x1="223.56" y1="440.04" x2="411.78" y2="440.04"/>
    <line class="cls-7" x1="223.56" y1="441.76" x2="411.78" y2="441.76"/>
    <line class="cls-7" x1="411.78" y1="441.76" x2="223.56" y2="441.76"/>
    <line class="cls-7" x1="411.78" y1="538.31" x2="302.96" y2="538.31"/>
    <path class="cls-7" d="M357.37,534.15v5.71c0,.06.12.17,0,.17"/>
    <line class="cls-7" x1="411.78" y1="538.31" x2="194.15" y2="538.31"/>
    <path class="cls-13" d="M303,540c-.1,0,0-.11,0-.17v-5.71"/>
    <line class="cls-12" x1="302.86" y1="540.03" x2="302.86" y2="540.03"/>
    <line class="cls-12" x1="223.56" y1="445.92" x2="223.56" y2="457.68"/>
    <line class="cls-12" x1="223.56" y1="456.21" x2="223.56" y2="456.21"/>
    <line class="cls-12" x1="302.96" y1="540.39" x2="302.96" y2="538.31"/>
    <line class="cls-12" x1="302.96" y1="512.09" x2="302.96" y2="512.09"/>
    <line class="cls-12" x1="223.56" y1="467.98" x2="223.56" y2="467.98"/>
    <path class="cls-13" d="M223.56,445.92v-7.14c0-.07.14-.24,0-.21"/>
    <line class="cls-12" x1="223.56" y1="439.68" x2="223.56" y2="441.76"/>
    <line class="cls-12" x1="223.56" y1="438.57" x2="223.56" y2="438.57"/>
    <line class="cls-13" x1="411.78" y1="534.15" x2="411.78" y2="445.92"/>
    <line class="cls-12" x1="411.78" y1="490.04" x2="411.78" y2="490.04"/>
    <line class="cls-12" x1="411.78" y1="490.04" x2="411.78" y2="490.04"/>
    <path class="cls-12" d="M411.78,541.5c-.14,0,0-.14,0-.21v-7.14"/>
    <line class="cls-12" x1="411.78" y1="540.39" x2="411.78" y2="538.31"/>
    <line class="cls-12" x1="411.78" y1="541.5" x2="411.78" y2="541.5"/>
    <line class="cls-13" x1="411.78" y1="542.97" x2="411.78" y2="534"/>
    <line class="cls-13" x1="411.78" y1="540.39" x2="411.78" y2="538.31"/>
    <line class="cls-15" x1="214.73" y1="466.51" x2="205.91" y2="466.51"/>
    <line class="cls-12" x1="208.85" y1="466.51" x2="208.85" y2="466.51"/>
    <line class="cls-12" x1="220.97" y1="463.92" x2="220.97" y2="463.92"/>
    <path class="cls-15" d="M223.56,457.68a8.83,8.83,0,0,1-8.83,8.83"/>
    <line class="cls-9" x1="197.09" y1="541.5" x2="264.73" y2="541.5"/>
    <path class="cls-9" d="M264.73,541.5h11.68s.09.06.09,0"/>
    <line class="cls-13" x1="164.74" y1="142.99" x2="194.15" y2="142.99"/>
    <line class="cls-12" x1="179.44" y1="142.99" x2="179.44" y2="142.99"/>
    <line class="cls-7" x1="164.74" y1="342.98" x2="194.15" y2="342.98"/>
    <line class="cls-7" x1="179.44" y1="534.15" x2="179.44" y2="151.82"/>
    <line class="cls-7" x1="179.44" y1="534.15" x2="179.44" y2="151.82"/>
    <line class="cls-13" x1="164.74" y1="542.97" x2="194.15" y2="542.97"/>
    <line class="cls-12" x1="179.44" y1="542.97" x2="179.44" y2="542.97"/>
    <line class="cls-7" x1="164.74" y1="540.39" x2="194.15" y2="540.39"/>
    <line class="cls-7" x1="164.74" y1="145.58" x2="194.15" y2="145.58"/>
    <line class="cls-7" x1="194.15" y1="145.58" x2="164.74" y2="145.58"/>
    <line class="cls-7" x1="164.74" y1="540.39" x2="194.15" y2="540.39"/>
    <line class="cls-7" x1="164.74" y1="145.94" x2="194.15" y2="145.94"/>
    <line class="cls-7" x1="179.44" y1="534.15" x2="179.44" y2="151.82"/>
    <line class="cls-7" x1="164.74" y1="540.03" x2="194.15" y2="540.03"/>
    <line class="cls-7" x1="179.44" y1="540.03" x2="179.44" y2="540.03"/>
    <line class="cls-7" x1="164.74" y1="538.31" x2="194.15" y2="538.31"/>
    <path class="cls-7" d="M179.44,534.15v5.71c0,.06-.11.16,0,.17"/>
    <line class="cls-7" x1="164.74" y1="147.66" x2="194.15" y2="147.66"/>
    <line class="cls-7" x1="194.15" y1="147.66" x2="164.74" y2="147.66"/>
    <line class="cls-7" x1="164.74" y1="538.31" x2="194.15" y2="538.31"/>
    <path class="cls-7" d="M179.44,534.15v5.15a2.55,2.55,0,0,1,0,.73"/>
    <line class="cls-12" x1="164.74" y1="151.82" x2="164.74" y2="534.15"/>
    <line class="cls-12" x1="164.74" y1="342.98" x2="164.74" y2="342.98"/>
    <path class="cls-12" d="M164.74,541.5c-.14,0,0-.14,0-.21v-7.14"/>
    <line class="cls-12" x1="164.74" y1="540.39" x2="164.74" y2="538.31"/>
    <line class="cls-12" x1="164.74" y1="541.5" x2="164.74" y2="541.5"/>
    <line class="cls-13" x1="164.74" y1="542.97" x2="164.74" y2="534"/>
    <line class="cls-12" x1="164.74" y1="540.39" x2="164.74" y2="538.31"/>
    <line class="cls-13" x1="164.74" y1="143.04" x2="164.74" y2="534.15"/>
    <line class="cls-12" x1="164.74" y1="342.98" x2="164.74" y2="342.98"/>
    <line class="cls-12" x1="164.74" y1="144.46" x2="164.74" y2="144.46"/>
    <path class="cls-13" d="M194.15,534.15v7.14c0,.07.08.14,0,.21"/>
    <line class="cls-12" x1="194.15" y1="540.39" x2="194.15" y2="538.31"/>
    <line class="cls-13" x1="194.15" y1="534.15" x2="194.15" y2="151.82"/>
    <line class="cls-12" x1="194.15" y1="342.98" x2="194.15" y2="342.98"/>
    <path class="cls-12" d="M194.15,151.82c0-2.45,0-4.9,0-7.36"/>
    <line class="cls-12" x1="194.15" y1="145.58" x2="194.15" y2="147.66"/>
    <line class="cls-12" x1="194.15" y1="144.46" x2="194.15" y2="144.46"/>
    <line class="cls-13" x1="194.15" y1="142.99" x2="194.15" y2="152.6"/>
    <line class="cls-12" x1="263.26" y1="490.04" x2="263.26" y2="490.04"/>
    <line class="cls-12" x1="299.52" y1="493.48" x2="299.52" y2="493.48"/>
    <line class="cls-12" x1="227" y1="486.59" x2="227" y2="486.59"/>
    <line class="cls-12" x1="194.15" y1="454.74" x2="194.15" y2="151.82"/>
    <line class="cls-12" x1="194.15" y1="342.98" x2="194.15" y2="342.98"/>
    <line class="cls-12" x1="197.59" y1="463.06" x2="197.59" y2="463.06"/>
    <path class="cls-15" d="M205.91,466.51a11.76,11.76,0,0,1-11.76-11.77"/>
  </g>
  <g id="Layer_5" data-name="Layer 5">
    <line class="cls-7" x1="870.95" y1="534.37" x2="1088.19" y2="534.37"/>
    <line class="cls-7" x1="870.95" y1="534.37" x2="979.57" y2="534.37"/>
    <path class="cls-7" d="M871,534.37h217.24"/>
    <path class="cls-7" d="M871,525.18H979.57"/>
    <path class="cls-7" d="M871,540.24H979.57"/>
    <path class="cls-7" d="M871,540.24h217.24"/>
    <line class="cls-7" x1="870.95" y1="540.6" x2="979.57" y2="540.6"/>
    <line class="cls-7" x1="870.95" y1="540.6" x2="1088.19" y2="540.6"/>
    <line class="cls-7" x1="870.95" y1="538.52" x2="979.57" y2="538.52"/>
    <line class="cls-7" x1="870.95" y1="538.52" x2="1088.19" y2="538.52"/>
    <line class="cls-7" x1="1117.55" y1="152.73" x2="1088.19" y2="152.73"/>
    <line class="cls-7" x1="1088.19" y1="152.73" x2="1117.55" y2="152.73"/>
    <path class="cls-7" d="M1117.55,146.86h-29.36"/>
    <path class="cls-7" d="M1088.19,146.86h29.36"/>
    <path class="cls-7" d="M1088.19,152.73h29.36"/>
    <path class="cls-7" d="M1117.55,152.73h-29.36"/>
    <line class="cls-7" x1="1102.87" y1="534.37" x2="1102.87" y2="152.73"/>
    <line class="cls-7" x1="1102.87" y1="534.37" x2="1102.87" y2="152.73"/>
    <line class="cls-7" x1="1117.55" y1="146.5" x2="1088.19" y2="146.5"/>
    <path class="cls-7" d="M1102.87,152.73V145a4.05,4.05,0,0,1,0-1.1"/>
    <line class="cls-7" x1="1088.19" y1="146.5" x2="1117.55" y2="146.5"/>
    <path class="cls-7" d="M1102.87,143.92c0-.17,0,.18,0,.26v8.55"/>
    <line class="cls-7" x1="1117.55" y1="146.86" x2="1088.19" y2="146.86"/>
    <line class="cls-7" x1="1102.87" y1="146.86" x2="1102.87" y2="146.86"/>
    <line class="cls-7" x1="1102.87" y1="534.37" x2="1102.87" y2="152.73"/>
    <line class="cls-7" x1="1102.87" y1="534.37" x2="1102.87" y2="152.73"/>
    <line class="cls-7" x1="1117.55" y1="148.58" x2="1088.19" y2="148.58"/>
    <path class="cls-7" d="M1102.87,152.73v-5.14c0-.24.1-1.21,0-.73"/>
    <line class="cls-7" x1="1088.19" y1="148.58" x2="1117.55" y2="148.58"/>
    <path class="cls-7" d="M1102.87,146.86c.08-.48,0,.49,0,.73v5.14"/>
    <path class="cls-7" d="M1117.55,540.24h-29.36"/>
    <path class="cls-7" d="M1117.55,540.24h-29.36"/>
    <line class="cls-7" x1="1117.55" y1="540.6" x2="1088.19" y2="540.6"/>
    <path class="cls-7" d="M1102.87,534.37v8.74s0,.07,0,.07"/>
    <line class="cls-7" x1="1117.55" y1="540.6" x2="1088.19" y2="540.6"/>
    <path class="cls-7" d="M1102.87,534.37v8.81"/>
    <line class="cls-7" x1="1117.55" y1="540.24" x2="1088.19" y2="540.24"/>
    <line class="cls-7" x1="1102.87" y1="540.24" x2="1102.87" y2="540.24"/>
    <line class="cls-7" x1="1117.55" y1="538.52" x2="1088.19" y2="538.52"/>
    <line class="cls-7" x1="1117.55" y1="538.52" x2="1088.19" y2="538.52"/>
    <line class="cls-7" x1="1047.09" y1="543.18" x2="1047.09" y2="540.24"/>
    <line class="cls-7" x1="1087.33" y1="540.24" x2="1087.33" y2="543.18"/>
    <line class="cls-7" x1="1009.43" y1="540.24" x2="1009.43" y2="543.18"/>
    <line class="cls-7" x1="992.78" y1="543.18" x2="992.78" y2="540.24"/>
    <line class="cls-7" x1="1002.55" y1="543.18" x2="1002.55" y2="540.24"/>
    <line class="cls-7" x1="1088.19" y1="534.37" x2="1088.19" y2="466.85"/>
    <line class="cls-12" x1="979.57" y1="543.18" x2="994.25" y2="543.18"/>
    <line class="cls-7" x1="1058.83" y1="446.3" x2="870.95" y2="446.3"/>
    <line class="cls-12" x1="1058.83" y1="446.3" x2="1058.83" y2="458.04"/>
    <line class="cls-12" x1="870.95" y1="534.37" x2="870.95" y2="446.3"/>
    <line class="cls-7" x1="870.95" y1="446.3" x2="1058.83" y2="446.3"/>
    <line class="cls-7" x1="979.57" y1="534.37" x2="979.57" y2="502.08"/>
    <line class="cls-12" x1="870.95" y1="446.3" x2="870.95" y2="534.37"/>
    <line class="cls-12" x1="870.95" y1="437.49" x2="1058.83" y2="437.49"/>
    <line class="cls-12" x1="1058.83" y1="437.49" x2="870.95" y2="437.49"/>
    <line class="cls-12" x1="870.95" y1="437.49" x2="870.95" y2="437.49"/>
    <line class="cls-12" x1="1058.83" y1="437.49" x2="1058.83" y2="437.49"/>
    <path class="cls-12" d="M871,534.37v8.74s0,.07,0,.07"/>
    <line class="cls-12" x1="870.95" y1="543.18" x2="979.57" y2="543.18"/>
    <line class="cls-12" x1="870.95" y1="543.18" x2="1088.19" y2="543.18"/>
    <line class="cls-12" x1="870.95" y1="543.18" x2="870.95" y2="543.18"/>
    <line class="cls-12" x1="1088.19" y1="543.18" x2="1088.19" y2="543.18"/>
    <path class="cls-12" d="M1058.83,437.49a14.69,14.69,0,0,0,0,2.2v6.61"/>
    <path class="cls-12" d="M871,446.3v-8.55c0-.08.13-.18,0-.26"/>
    <path class="cls-12" d="M1058.83,446.3v-8.75s0-.07,0-.06"/>
    <path class="cls-13" d="M871,437.49s0,0,0,.06v8.75"/>
    <path class="cls-7" d="M979.57,534.37v8.74s0,.07,0,.07"/>
    <path class="cls-13" d="M871,543.18s0,0,0-.07v-8.74"/>
    <path class="cls-7" d="M1088.19,534.37v8.74s0,.08,0,.07"/>
    <line class="cls-7" x1="1088.19" y1="534.37" x2="1088.19" y2="466.85"/>
    <path class="cls-7" d="M1058.83,446.3H871"/>
    <line class="cls-12" x1="1058.83" y1="446.3" x2="1058.83" y2="458.04"/>
    <line class="cls-12" x1="870.95" y1="534.37" x2="870.95" y2="446.3"/>
    <path class="cls-7" d="M871,446.3h187.88"/>
    <line class="cls-7" x1="979.57" y1="534.37" x2="979.57" y2="502.08"/>
    <line class="cls-12" x1="870.95" y1="446.3" x2="870.95" y2="534.37"/>
    <path class="cls-7" d="M871,440.43h187.88"/>
    <path class="cls-7" d="M1058.83,440.43H871"/>
    <line class="cls-12" x1="870.95" y1="440.43" x2="870.95" y2="440.43"/>
    <line class="cls-12" x1="1058.83" y1="440.43" x2="1058.83" y2="440.43"/>
    <path class="cls-12" d="M1058.83,440.43c0-.11,0,.11,0,.17v5.7"/>
    <path class="cls-12" d="M1058.83,446.3v-5.7c0-.06,0-.28,0-.17"/>
    <path class="cls-7" d="M979.57,534.37v5.7c0,.06.11.16,0,.17"/>
    <path class="cls-7" d="M1088.19,534.37v5.14a1.79,1.79,0,0,0,0,.73"/>
    <line class="cls-7" x1="979.57" y1="540.24" x2="994.25" y2="540.24"/>
    <line class="cls-12" x1="870.95" y1="540.24" x2="870.95" y2="540.24"/>
    <line class="cls-7" x1="1088.19" y1="540.24" x2="1088.19" y2="540.24"/>
    <line class="cls-12" x1="1058.83" y1="446.3" x2="1058.83" y2="446.3"/>
    <line class="cls-7" x1="979.57" y1="543.18" x2="979.57" y2="540.24"/>
    <line class="cls-7" x1="979.57" y1="534.37" x2="979.57" y2="534.37"/>
    <line class="cls-12" x1="1058.83" y1="446.3" x2="1058.83" y2="446.3"/>
    <line class="cls-12" x1="1058.83" y1="437.49" x2="1058.83" y2="440.43"/>
    <line class="cls-12" x1="1058.83" y1="440.43" x2="1058.83" y2="437.49"/>
    <line class="cls-12" x1="870.95" y1="446.3" x2="870.95" y2="446.3"/>
    <line class="cls-12" x1="870.95" y1="446.3" x2="870.95" y2="446.3"/>
    <line class="cls-12" x1="870.95" y1="534.37" x2="870.95" y2="534.37"/>
    <line class="cls-12" x1="870.95" y1="540.24" x2="870.95" y2="543.18"/>
    <line class="cls-12" x1="870.95" y1="543.18" x2="870.95" y2="540.24"/>
    <line class="cls-12" x1="870.95" y1="534.37" x2="870.95" y2="534.37"/>
    <line class="cls-12" x1="1067.64" y1="466.85" x2="1076.45" y2="466.85"/>
    <line class="cls-12" x1="1067.64" y1="466.85" x2="1076.45" y2="466.85"/>
    <line class="cls-12" x1="1058.83" y1="458.04" x2="1058.83" y2="458.04"/>
    <line class="cls-12" x1="1067.64" y1="466.85" x2="1067.64" y2="466.85"/>
    <path class="cls-12" d="M1058.83,458a8.8,8.8,0,0,0,8.81,8.81"/>
    <path class="cls-12" d="M1058.83,458a8.8,8.8,0,0,0,8.81,8.81"/>
    <line class="cls-7" x1="1017.73" y1="540.24" x2="1017.73" y2="543.18"/>
    <line class="cls-7" x1="1005.99" y1="540.24" x2="1005.99" y2="543.18"/>
    <path class="cls-12" d="M1017.73,543.18h-11.66s-.08.05-.08,0"/>
    <path class="cls-7" d="M1017.73,540.24h-11.66s-.08.06-.08,0"/>
    <line class="cls-7" x1="1117.55" y1="534.37" x2="1088.19" y2="534.37"/>
    <line class="cls-7" x1="1088.19" y1="534.37" x2="1088.19" y2="152.73"/>
    <line class="cls-12" x1="1117.55" y1="152.73" x2="1117.55" y2="534.37"/>
    <line class="cls-12" x1="1117.55" y1="143.92" x2="1088.19" y2="143.92"/>
    <line class="cls-13" x1="1088.19" y1="143.92" x2="1117.55" y2="143.92"/>
    <line class="cls-12" x1="1088.19" y1="143.92" x2="1088.19" y2="143.92"/>
    <line class="cls-12" x1="1117.55" y1="143.92" x2="1117.55" y2="143.92"/>
    <line class="cls-7" x1="1117.55" y1="534.37" x2="1088.19" y2="534.37"/>
    <line class="cls-12" x1="1117.55" y1="152.73" x2="1117.55" y2="534.37"/>
    <line class="cls-12" x1="1117.55" y1="543.18" x2="1088.19" y2="543.18"/>
    <line class="cls-12" x1="1117.55" y1="543.18" x2="1088.19" y2="543.18"/>
    <line class="cls-12" x1="1088.19" y1="543.18" x2="1088.19" y2="543.18"/>
    <line class="cls-12" x1="1117.55" y1="543.18" x2="1117.55" y2="543.18"/>
    <path class="cls-12" d="M1117.55,543.18s0,0,0-.07v-8.74"/>
    <path class="cls-7" d="M1088.19,534.37v8.55c0,.08-.11.17,0,.26"/>
    <path class="cls-12" d="M1088.19,152.73c0-2.94,0-5.87,0-8.81"/>
    <path class="cls-12" d="M1117.55,143.92c0-.17,0,.18,0,.26v8.55"/>
    <path class="cls-12" d="M1088.19,152.73c0-2.94-.12-5.87,0-8.81"/>
    <path class="cls-13" d="M1117.55,144.05v8.68"/>
    <path class="cls-13" d="M1117.55,543.18c.13-.07,0-.18,0-.26v-8.55"/>
    <line class="cls-12" x1="1088.19" y1="146.86" x2="1088.19" y2="146.86"/>
    <line class="cls-12" x1="1117.55" y1="146.86" x2="1117.55" y2="146.86"/>
    <path class="cls-7" d="M1117.55,534.37h-29.36"/>
    <line class="cls-12" x1="1117.55" y1="152.73" x2="1117.55" y2="534.37"/>
    <path class="cls-7" d="M1117.55,534.37h-29.36"/>
    <line class="cls-7" x1="1088.19" y1="534.37" x2="1088.19" y2="152.73"/>
    <line class="cls-12" x1="1117.55" y1="152.73" x2="1117.55" y2="534.37"/>
    <line class="cls-7" x1="1088.19" y1="540.24" x2="1088.19" y2="540.24"/>
    <line class="cls-12" x1="1117.55" y1="540.24" x2="1117.55" y2="540.24"/>
    <path class="cls-7" d="M1088.19,534.37v5.7c0,.06-.09.24,0,.17"/>
    <path class="cls-12" d="M1088.19,152.73c0-2,0-3.92,0-5.87"/>
    <path class="cls-12" d="M1088.19,152.73c0-2-.07-3.91,0-5.87"/>
    <line class="cls-12" x1="1117.55" y1="534.37" x2="1117.55" y2="534.37"/>
    <line class="cls-12" x1="1117.55" y1="152.73" x2="1117.55" y2="152.73"/>
    <line class="cls-12" x1="1117.55" y1="543.18" x2="1117.55" y2="540.24"/>
    <line class="cls-13" x1="1117.55" y1="540.24" x2="1117.55" y2="543.18"/>
    <line class="cls-12" x1="1117.55" y1="534.37" x2="1117.55" y2="534.37"/>
    <line class="cls-12" x1="1117.55" y1="152.73" x2="1117.55" y2="152.73"/>
    <line class="cls-12" x1="1088.19" y1="152.73" x2="1088.19" y2="152.73"/>
    <line class="cls-7" x1="1088.19" y1="534.37" x2="1088.19" y2="534.37"/>
    <line class="cls-12" x1="1088.19" y1="143.92" x2="1088.19" y2="146.86"/>
    <line class="cls-12" x1="1088.19" y1="143.92" x2="1088.19" y2="146.86"/>
    <line class="cls-12" x1="1088.19" y1="152.73" x2="1088.19" y2="152.73"/>
    <line class="cls-7" x1="1088.19" y1="540.24" x2="1088.19" y2="543.18"/>
    <line class="cls-7" x1="1088.19" y1="466.85" x2="1088.19" y2="455.11"/>
    <line class="cls-7" x1="1005.99" y1="540.24" x2="1005.99" y2="540.24"/>
    <line class="cls-12" x1="1005.99" y1="543.18" x2="1005.99" y2="543.18"/>
    <line class="cls-7" x1="1005.99" y1="543.18" x2="1005.99" y2="540.24"/>
    <line class="cls-7" x1="994.25" y1="543.18" x2="994.25" y2="540.24"/>
    <path class="cls-12" d="M1006,543.18H994.25"/>
    <path class="cls-7" d="M1006,540.24H994.25"/>
    <line class="cls-7" x1="991.31" y1="490.33" x2="1047.09" y2="490.33"/>
    <line class="cls-7" x1="1058.83" y1="478.59" x2="1058.83" y2="446.3"/>
    <line class="cls-7" x1="991.31" y1="490.33" x2="1047.09" y2="490.33"/>
    <line class="cls-7" x1="1058.83" y1="478.59" x2="1058.83" y2="446.3"/>
    <line class="cls-7" x1="979.57" y1="502.08" x2="979.57" y2="502.08"/>
    <line class="cls-12" x1="1047.09" y1="490.33" x2="1047.09" y2="490.33"/>
    <line class="cls-7" x1="991.31" y1="490.33" x2="991.31" y2="490.33"/>
    <line class="cls-7" x1="1058.83" y1="478.59" x2="1058.83" y2="478.59"/>
    <path class="cls-7" d="M979.57,502.08a11.75,11.75,0,0,1,11.74-11.75"/>
    <path class="cls-7" d="M979.57,502.08a11.75,11.75,0,0,1,11.74-11.75"/>
    <path class="cls-7" d="M1047.09,490.33a11.74,11.74,0,0,0,11.74-11.74"/>
    <path class="cls-7" d="M1047.09,490.33a11.74,11.74,0,0,0,11.74-11.74"/>
    <line class="cls-12" x1="1088.19" y1="455.11" x2="1088.19" y2="152.73"/>
    <line class="cls-7" x1="1088.19" y1="455.11" x2="1088.19" y2="466.85"/>
    <line class="cls-12" x1="1088.19" y1="455.11" x2="1088.19" y2="455.11"/>
    <line class="cls-12" x1="1076.45" y1="466.85" x2="1076.45" y2="466.85"/>
    <line class="cls-12" x1="1088.19" y1="455.11" x2="1088.19" y2="455.11"/>
    <line class="cls-12" x1="1088.19" y1="455.11" x2="1088.19" y2="152.73"/>
    <path class="cls-12" d="M1076.45,466.85a11.74,11.74,0,0,0,11.74-11.74"/>
    <path class="cls-12" d="M1076.45,466.85a11.74,11.74,0,0,0,11.74-11.74h0"/>
    <line class="cls-12" x1="1085.25" y1="543.18" x2="1017.73" y2="543.18"/>
    <line class="cls-7" x1="1085.25" y1="540.24" x2="1017.73" y2="540.24"/>
    <line class="cls-7" x1="1085.25" y1="540.24" x2="1085.25" y2="543.18"/>
    <path class="cls-12" d="M1088.19,543.18c0,.06-.06,0-.09,0h-2.85"/>
    <path class="cls-7" d="M1088.19,540.24c0,.06-.06,0-.09,0h-2.85"/>
    <line class="cls-7" x1="1088.19" y1="490.33" x2="870.95" y2="490.33"/>
    <line class="cls-7" x1="979.57" y1="534.37" x2="979.57" y2="446.3"/>
    <line class="cls-7" x1="991.31" y1="490.33" x2="870.95" y2="490.33"/>
    <line class="cls-7" x1="964.89" y1="446.3" x2="964.89" y2="534.37"/>
    <line class="cls-13" x1="1058.83" y1="437.49" x2="870.95" y2="437.49"/>
    <line class="cls-12" x1="964.89" y1="437.49" x2="964.89" y2="437.49"/>
    <line class="cls-7" x1="1058.83" y1="440.07" x2="870.95" y2="440.07"/>
    <path class="cls-7" d="M964.89,446.3v-7.71a3.13,3.13,0,0,0,0-1.1"/>
    <line class="cls-7" x1="870.95" y1="440.07" x2="1058.83" y2="440.07"/>
    <path class="cls-7" d="M964.89,446.3v-8.75s0-.07,0-.06"/>
    <path class="cls-7" d="M925.26,534.37v8.74s0,.07,0,.07"/>
    <path class="cls-7" d="M979.57,543.18v-8.81"/>
    <line class="cls-12" x1="979.68" y1="543.18" x2="979.68" y2="543.18"/>
    <line class="cls-13" x1="1088.19" y1="543.18" x2="870.95" y2="543.18"/>
    <line class="cls-7" x1="1088.19" y1="490.33" x2="870.95" y2="490.33"/>
    <line class="cls-7" x1="979.57" y1="534.37" x2="979.57" y2="446.3"/>
    <line class="cls-7" x1="991.31" y1="490.33" x2="870.95" y2="490.33"/>
    <line class="cls-7" x1="964.89" y1="446.3" x2="964.89" y2="534.37"/>
    <line class="cls-7" x1="1058.83" y1="440.43" x2="870.95" y2="440.43"/>
    <line class="cls-7" x1="964.89" y1="440.43" x2="964.89" y2="440.43"/>
    <line class="cls-7" x1="1058.83" y1="442.15" x2="870.95" y2="442.15"/>
    <path class="cls-7" d="M964.89,446.3v-5.7c0-.06-.09-.25,0-.17"/>
    <line class="cls-7" x1="870.95" y1="442.15" x2="1058.83" y2="442.15"/>
    <path class="cls-7" d="M964.89,446.3v-5.7c0-.06.09-.25,0-.17"/>
    <path class="cls-7" d="M925.26,534.37v5.7c0,.06-.12.17,0,.17"/>
    <path class="cls-7" d="M979.57,540.24c.11,0,0-.11,0-.17v-5.7"/>
    <line class="cls-7" x1="979.68" y1="540.24" x2="979.68" y2="540.24"/>
    <line class="cls-12" x1="1058.83" y1="446.3" x2="1058.83" y2="458.04"/>
    <line class="cls-12" x1="1058.83" y1="456.57" x2="1058.83" y2="456.57"/>
    <line class="cls-7" x1="1005.99" y1="541.71" x2="1005.99" y2="541.71"/>
    <path class="cls-7" d="M979.57,534.37v7.12c0,.08.14.23,0,.22"/>
    <line class="cls-7" x1="979.57" y1="540.6" x2="979.57" y2="538.52"/>
    <line class="cls-7" x1="979.57" y1="534.37" x2="979.57" y2="502.08"/>
    <line class="cls-13" x1="1058.83" y1="458.04" x2="1058.83" y2="446.3"/>
    <line class="cls-7" x1="1058.83" y1="478.59" x2="1058.83" y2="458.04"/>
    <line class="cls-7" x1="1058.83" y1="468.32" x2="1058.83" y2="468.32"/>
    <path class="cls-12" d="M1058.83,446.3v-7.12c0-.08-.14-.25,0-.22"/>
    <line class="cls-12" x1="1058.83" y1="440.07" x2="1058.83" y2="442.15"/>
    <line class="cls-12" x1="1058.83" y1="438.96" x2="1058.83" y2="438.96"/>
    <line class="cls-13" x1="1058.83" y1="437.49" x2="1058.83" y2="447.25"/>
    <line class="cls-12" x1="1058.83" y1="440.07" x2="1058.83" y2="442.15"/>
    <line class="cls-12" x1="870.95" y1="534.37" x2="870.95" y2="446.3"/>
    <line class="cls-12" x1="870.95" y1="490.33" x2="870.95" y2="490.33"/>
    <line class="cls-12" x1="870.95" y1="438.96" x2="870.95" y2="438.96"/>
    <line class="cls-13" x1="870.95" y1="446.3" x2="870.95" y2="534.37"/>
    <line class="cls-12" x1="870.95" y1="490.33" x2="870.95" y2="490.33"/>
    <line class="cls-13" x1="1067.64" y1="466.85" x2="1076.45" y2="466.85"/>
    <line class="cls-12" x1="1073.51" y1="466.85" x2="1073.51" y2="466.85"/>
    <line class="cls-12" x1="1061.41" y1="464.27" x2="1061.41" y2="464.27"/>
    <path class="cls-13" d="M1058.83,458a8.8,8.8,0,0,0,8.81,8.81"/>
    <line class="cls-7" x1="1085.25" y1="541.71" x2="1017.73" y2="541.71"/>
    <path class="cls-7" d="M1017.73,541.71h-11.66s-.08.06-.08,0"/>
    <line class="cls-12" x1="1102.87" y1="143.92" x2="1102.87" y2="143.92"/>
    <line class="cls-7" x1="1117.55" y1="343.55" x2="1088.19" y2="343.55"/>
    <line class="cls-7" x1="1117.55" y1="343.55" x2="1088.19" y2="343.55"/>
    <line class="cls-13" x1="1117.55" y1="543.18" x2="1088.19" y2="543.18"/>
    <line class="cls-12" x1="1102.87" y1="543.18" x2="1102.87" y2="543.18"/>
    <line class="cls-7" x1="1117.55" y1="343.55" x2="1088.19" y2="343.55"/>
    <line class="cls-7" x1="1117.55" y1="343.55" x2="1088.19" y2="343.55"/>
    <line class="cls-12" x1="1117.55" y1="152.73" x2="1117.55" y2="534.37"/>
    <line class="cls-12" x1="1117.55" y1="343.55" x2="1117.55" y2="343.55"/>
    <line class="cls-12" x1="1117.55" y1="541.71" x2="1117.55" y2="541.71"/>
    <line class="cls-13" x1="1117.55" y1="152.73" x2="1117.55" y2="534.37"/>
    <line class="cls-12" x1="1117.55" y1="343.55" x2="1117.55" y2="343.55"/>
    <line class="cls-12" x1="1117.55" y1="145.39" x2="1117.55" y2="145.39"/>
    <path class="cls-7" d="M1088.19,534.37v7.12c0,.08-.08.14,0,.22"/>
    <line class="cls-7" x1="1088.19" y1="540.6" x2="1088.19" y2="538.52"/>
    <line class="cls-7" x1="1088.19" y1="534.37" x2="1088.19" y2="152.73"/>
    <line class="cls-12" x1="1088.19" y1="343.55" x2="1088.19" y2="343.55"/>
    <path class="cls-12" d="M1088.19,152.73c0-2.45,0-4.89,0-7.34"/>
    <line class="cls-12" x1="1088.19" y1="146.5" x2="1088.19" y2="148.58"/>
    <line class="cls-12" x1="1088.19" y1="145.39" x2="1088.19" y2="145.39"/>
    <line class="cls-13" x1="1088.19" y1="144" x2="1088.19" y2="146.91"/>
    <path class="cls-13" d="M1088.19,152.73v-3.64c0-1.21-.08-2.42,0-3.63"/>
    <line class="cls-12" x1="1088.19" y1="146.5" x2="1088.19" y2="148.58"/>
    <line class="cls-7" x1="994.25" y1="541.71" x2="979.57" y2="541.71"/>
    <path class="cls-7" d="M1006,541.71H994.25"/>
    <line class="cls-12" x1="1019.2" y1="490.33" x2="1019.2" y2="490.33"/>
    <line class="cls-7" x1="983.01" y1="493.77" x2="983.01" y2="493.77"/>
    <path class="cls-7" d="M979.57,502.08a11.75,11.75,0,0,1,11.74-11.75"/>
    <line class="cls-12" x1="1055.39" y1="486.9" x2="1055.39" y2="486.9"/>
    <path class="cls-7" d="M1047.09,490.33a11.74,11.74,0,0,0,11.74-11.74"/>
    <line class="cls-13" x1="1088.19" y1="455.11" x2="1088.19" y2="152.73"/>
    <line class="cls-12" x1="1088.19" y1="343.55" x2="1088.19" y2="343.55"/>
    <line class="cls-12" x1="1084.75" y1="463.41" x2="1084.75" y2="463.41"/>
    <path class="cls-13" d="M1076.45,466.85a11.74,11.74,0,0,0,11.74-11.74"/>
    <path class="cls-7" d="M1085.25,541.71h2.85s.09.06.09,0"/>
  </g>
  <g id="Layer_3" data-name="Layer 3">
    <path class="cls-16" d="M616.46,539.68H623"/>
    <line class="cls-7" x1="684.73" y1="457.33" x2="681.78" y2="457.33"/>
    <line class="cls-7" x1="684.73" y1="466.15" x2="681.78" y2="466.15"/>
    <line class="cls-7" x1="684.73" y1="466.15" x2="681.78" y2="466.15"/>
    <line class="cls-7" x1="684.73" y1="454.39" x2="681.78" y2="454.39"/>
    <line class="cls-7" x1="684.73" y1="455.86" x2="681.78" y2="455.86"/>
    <line class="cls-7" x1="684.73" y1="489.68" x2="681.78" y2="489.68"/>
    <line class="cls-7" x1="684.73" y1="466.15" x2="681.78" y2="466.15"/>
    <line class="cls-7" x1="684.73" y1="463.57" x2="681.78" y2="463.57"/>
    <line class="cls-7" x1="684.73" y1="462.71" x2="681.78" y2="462.71"/>
    <line class="cls-7" x1="682.14" y1="540.04" x2="680.06" y2="537.96"/>
    <line class="cls-7" x1="682.14" y1="540.04" x2="680.06" y2="537.96"/>
    <line class="cls-7" x1="649.43" y1="542.62" x2="649.43" y2="539.68"/>
    <line class="cls-7" x1="616.72" y1="540.04" x2="618.8" y2="537.96"/>
    <line class="cls-7" x1="587.67" y1="539.68" x2="675.9" y2="539.68"/>
    <line class="cls-7" x1="616.72" y1="540.04" x2="618.8" y2="537.96"/>
    <line class="cls-7" x1="590.61" y1="539.68" x2="675.9" y2="539.68"/>
    <line class="cls-7" x1="675.9" y1="539.68" x2="587.67" y2="539.68"/>
    <line class="cls-7" x1="631.79" y1="542.62" x2="631.79" y2="539.68"/>
    <path class="cls-7" d="M615.61,533.8a7.35,7.35,0,0,0,7.35,7.35"/>
    <path class="cls-7" d="M623,541.15a7.35,7.35,0,0,1-7.35-7.35"/>
    <line class="cls-7" x1="675.9" y1="541.15" x2="587.67" y2="541.15"/>
    <line class="cls-7" x1="622.96" y1="542.62" x2="622.96" y2="539.68"/>
    <line class="cls-7" x1="622.96" y1="539.68" x2="622.96" y2="542.62"/>
    <line class="cls-7" x1="622.96" y1="542.62" x2="622.96" y2="539.68"/>
    <line class="cls-7" x1="622.96" y1="541.15" x2="675.9" y2="541.15"/>
    <line class="cls-7" x1="622.96" y1="541.15" x2="622.96" y2="541.15"/>
    <line class="cls-7" x1="622.96" y1="542.62" x2="622.96" y2="539.68"/>
    <line class="cls-7" x1="683.25" y1="454.39" x2="683.25" y2="151.46"/>
    <line class="cls-7" x1="683.25" y1="151.46" x2="683.25" y2="533.8"/>
    <line class="cls-7" x1="684.73" y1="342.63" x2="681.78" y2="342.63"/>
    <line class="cls-7" x1="684.73" y1="342.63" x2="681.78" y2="342.63"/>
    <line class="cls-7" x1="616.72" y1="439.33" x2="618.8" y2="441.41"/>
    <line class="cls-7" x1="616.72" y1="439.33" x2="618.8" y2="441.41"/>
    <line class="cls-7" x1="649.43" y1="436.74" x2="649.43" y2="439.68"/>
    <line class="cls-7" x1="649.43" y1="436.74" x2="649.43" y2="439.68"/>
    <line class="cls-7" x1="675.9" y1="436.74" x2="675.9" y2="439.68"/>
    <line class="cls-7" x1="675.9" y1="439.68" x2="675.9" y2="436.74"/>
    <line class="cls-7" x1="681.78" y1="151.46" x2="681.78" y2="533.8"/>
    <line class="cls-7" x1="681.78" y1="533.8" x2="681.78" y2="151.46"/>
    <line class="cls-7" x1="682.14" y1="439.33" x2="680.06" y2="441.41"/>
    <line class="cls-7" x1="682.14" y1="439.33" x2="680.06" y2="441.41"/>
    <line class="cls-7" x1="681.78" y1="445.57" x2="681.78" y2="438.99"/>
    <path class="cls-7" d="M675.9,438.21a7.36,7.36,0,0,1,7.35,7.36"/>
    <path class="cls-7" d="M683.25,445.57a7.36,7.36,0,0,0-7.35-7.36"/>
    <line class="cls-7" x1="617.08" y1="445.57" x2="617.08" y2="533.8"/>
    <line class="cls-7" x1="617.08" y1="489.68" x2="617.08" y2="489.68"/>
    <line class="cls-7" x1="617.08" y1="477.92" x2="617.08" y2="445.57"/>
    <line class="cls-7" x1="617.08" y1="489.68" x2="614.14" y2="489.68"/>
    <line class="cls-7" x1="614.14" y1="489.68" x2="617.08" y2="489.68"/>
    <line class="cls-7" x1="617.08" y1="477.92" x2="614.14" y2="477.92"/>
    <path class="cls-7" d="M617.08,501.45V489.77s-.05-.09,0-.09"/>
    <path class="cls-7" d="M617.08,489.68c.06,0,0-.05,0-.08V477.92"/>
    <line class="cls-7" x1="617.08" y1="489.68" x2="617.08" y2="489.68"/>
    <line class="cls-7" x1="615.61" y1="477.92" x2="615.61" y2="445.57"/>
    <line class="cls-7" x1="614.14" y1="467.62" x2="617.08" y2="467.62"/>
    <line class="cls-7" x1="615.61" y1="445.57" x2="615.61" y2="533.8"/>
    <line class="cls-7" x1="614.14" y1="489.68" x2="617.08" y2="489.68"/>
    <line class="cls-7" x1="615.61" y1="489.68" x2="615.61" y2="489.68"/>
    <line class="cls-7" x1="614.14" y1="489.68" x2="617.08" y2="489.68"/>
    <line class="cls-7" x1="614.14" y1="493.13" x2="617.08" y2="493.13"/>
    <path class="cls-7" d="M615.61,501.45V489.77s-.05-.09,0-.09"/>
    <line class="cls-7" x1="617.08" y1="486.24" x2="614.14" y2="486.24"/>
    <path class="cls-7" d="M615.61,489.68c.06,0,0-.05,0-.08V477.92"/>
    <path class="cls-7" d="M681.78,533.8a5.88,5.88,0,0,1-5.88,5.88"/>
    <path class="cls-7" d="M681.78,533.8a5.88,5.88,0,0,1-5.88,5.88"/>
    <path class="cls-7" d="M675.9,539.68a5.88,5.88,0,0,0,5.88-5.88"/>
    <path class="cls-7" d="M675.9,539.68a5.88,5.88,0,0,0,5.88-5.88"/>
    <path class="cls-7" d="M683.25,533.8a7.35,7.35,0,0,1-7.35,7.35"/>
    <path class="cls-17" d="M681.78,533.8a5.88,5.88,0,0,1-5.88,5.88"/>
    <path class="cls-7" d="M675.9,541.15a7.35,7.35,0,0,0,7.35-7.35"/>
    <line class="cls-7" x1="681.78" y1="533.8" x2="681.78" y2="466.15"/>
    <line class="cls-7" x1="681.78" y1="533.8" x2="681.78" y2="533.8"/>
    <line class="cls-7" x1="681.78" y1="533.8" x2="681.78" y2="445.57"/>
    <line class="cls-7" x1="681.78" y1="533.8" x2="684.73" y2="533.8"/>
    <line class="cls-7" x1="681.78" y1="533.8" x2="681.78" y2="533.8"/>
    <line class="cls-7" x1="684.73" y1="533.8" x2="681.78" y2="533.8"/>
    <line class="cls-17" x1="681.78" y1="533.8" x2="681.78" y2="445.57"/>
    <path class="cls-7" d="M617.08,533.8a5.88,5.88,0,0,0,5.88,5.88"/>
    <path class="cls-7" d="M623,539.68a5.88,5.88,0,0,1-5.88-5.88"/>
    <path class="cls-17" d="M617.08,533.8a5.88,5.88,0,0,0,5.88,5.88"/>
    <line class="cls-7" x1="619.52" y1="542.62" x2="619.52" y2="539.68"/>
    <line class="cls-7" x1="622.96" y1="539.68" x2="622.96" y2="539.68"/>
    <line class="cls-7" x1="675.9" y1="539.68" x2="675.9" y2="539.68"/>
    <line class="cls-7" x1="622.96" y1="539.68" x2="622.96" y2="539.68"/>
    <line class="cls-7" x1="622.96" y1="539.68" x2="675.9" y2="539.68"/>
    <line class="cls-7" x1="675.9" y1="542.62" x2="675.9" y2="539.68"/>
    <line class="cls-7" x1="675.9" y1="539.68" x2="675.9" y2="539.68"/>
    <line class="cls-7" x1="675.9" y1="539.68" x2="675.9" y2="542.62"/>
    <line class="cls-17" x1="675.9" y1="539.68" x2="622.96" y2="539.68"/>
    <path class="cls-7" d="M675.9,439.68a5.89,5.89,0,0,1,5.88,5.89"/>
    <path class="cls-7" d="M681.78,445.57a5.89,5.89,0,0,0-5.88-5.89"/>
    <line class="cls-18" x1="680.06" y1="441.41" x2="680.06" y2="441.41"/>
    <path class="cls-17" d="M681.78,445.57a5.89,5.89,0,0,0-5.88-5.89"/>
    <line class="cls-7" x1="622.96" y1="439.68" x2="675.9" y2="439.68"/>
    <line class="cls-7" x1="675.9" y1="439.68" x2="622.96" y2="439.68"/>
    <line class="cls-7" x1="649.43" y1="439.68" x2="649.43" y2="439.68"/>
    <line class="cls-17" x1="622.96" y1="439.68" x2="675.9" y2="439.68"/>
    <line class="cls-7" x1="675.9" y1="438.21" x2="622.96" y2="438.21"/>
    <line class="cls-7" x1="578.85" y1="342.63" x2="581.79" y2="342.63"/>
    <line class="cls-7" x1="578.85" y1="342.63" x2="581.79" y2="342.63"/>
    <line class="cls-7" x1="682.14" y1="145.22" x2="680.06" y2="147.3"/>
    <line class="cls-7" x1="682.14" y1="145.22" x2="680.06" y2="147.3"/>
    <path class="cls-7" d="M587.67,541.15a7.35,7.35,0,0,1-7.35-7.35"/>
    <path class="cls-7" d="M580.32,533.8a7.35,7.35,0,0,0,7.35,7.35"/>
    <line class="cls-7" x1="581.43" y1="540.04" x2="583.51" y2="537.96"/>
    <line class="cls-7" x1="581.43" y1="540.04" x2="583.51" y2="537.96"/>
    <line class="cls-7" x1="590.61" y1="539.68" x2="590.61" y2="542.62"/>
    <line class="cls-7" x1="602.38" y1="539.68" x2="602.38" y2="542.62"/>
    <line class="cls-7" x1="587.67" y1="539.68" x2="587.67" y2="539.68"/>
    <line class="cls-7" x1="587.67" y1="539.68" x2="590.61" y2="539.68"/>
    <path class="cls-7" d="M587.67,539.68a5.88,5.88,0,0,1-5.88-5.88"/>
    <line class="cls-7" x1="587.67" y1="542.62" x2="587.67" y2="539.68"/>
    <line class="cls-7" x1="587.67" y1="539.68" x2="587.67" y2="542.62"/>
    <line class="cls-7" x1="611.2" y1="542.62" x2="611.2" y2="539.68"/>
    <line class="cls-7" x1="590.61" y1="539.68" x2="590.61" y2="539.68"/>
    <line class="cls-7" x1="590.61" y1="539.68" x2="590.61" y2="542.62"/>
    <line class="cls-7" x1="602.38" y1="541.15" x2="611.2" y2="541.15"/>
    <line class="cls-7" x1="590.61" y1="541.15" x2="590.61" y2="541.15"/>
    <line class="cls-7" x1="594.06" y1="539.68" x2="594.06" y2="542.62"/>
    <path class="cls-7" d="M590.61,541.15c0,.06.06,0,.09,0h11.68"/>
    <line class="cls-7" x1="589.75" y1="539.68" x2="589.75" y2="542.62"/>
    <path class="cls-7" d="M590.61,541.15c0,.06-.06,0-.08,0h-2.86"/>
    <line class="cls-8" x1="631.79" y1="142.64" x2="631.79" y2="145.58"/>
    <line class="cls-7" x1="581.43" y1="145.22" x2="583.51" y2="147.3"/>
    <line class="cls-12" x1="684.73" y1="533.8" x2="684.73" y2="466.15"/>
    <line class="cls-12" x1="622.96" y1="542.62" x2="622.96" y2="542.62"/>
    <line class="cls-12" x1="684.73" y1="445.57" x2="684.73" y2="445.57"/>
    <line class="cls-12" x1="684.73" y1="533.8" x2="684.73" y2="533.8"/>
    <line class="cls-12" x1="684.73" y1="445.57" x2="684.73" y2="457.33"/>
    <line class="cls-12" x1="684.73" y1="533.8" x2="684.73" y2="445.57"/>
    <line class="cls-12" x1="614.14" y1="445.57" x2="614.14" y2="445.57"/>
    <line class="cls-12" x1="614.14" y1="533.8" x2="614.14" y2="533.8"/>
    <line class="cls-12" x1="614.14" y1="533.8" x2="614.14" y2="501.45"/>
    <line class="cls-12" x1="614.14" y1="445.57" x2="614.14" y2="533.8"/>
    <line class="cls-12" x1="622.96" y1="436.74" x2="622.96" y2="436.74"/>
    <line class="cls-12" x1="675.9" y1="436.74" x2="675.9" y2="436.74"/>
    <line class="cls-12" x1="622.96" y1="436.74" x2="675.9" y2="436.74"/>
    <line class="cls-12" x1="675.9" y1="436.74" x2="622.96" y2="436.74"/>
    <path class="cls-12" d="M684.73,533.8a8.83,8.83,0,0,1-8.83,8.82"/>
    <line class="cls-12" x1="622.96" y1="542.62" x2="622.96" y2="542.62"/>
    <line class="cls-12" x1="675.9" y1="542.62" x2="675.9" y2="542.62"/>
    <line class="cls-12" x1="622.96" y1="542.62" x2="675.9" y2="542.62"/>
    <line class="cls-12" x1="590.61" y1="542.62" x2="675.9" y2="542.62"/>
    <path class="cls-12" d="M675.9,436.74a8.83,8.83,0,0,1,8.83,8.83"/>
    <path class="cls-12" d="M684.73,445.57a8.83,8.83,0,0,0-8.83-8.83"/>
    <path class="cls-12" d="M614.14,445.57a8.82,8.82,0,0,1,8.82-8.83"/>
    <path class="cls-12" d="M623,436.74a8.82,8.82,0,0,0-8.82,8.83"/>
    <path class="cls-12" d="M614.14,533.8a8.82,8.82,0,0,0,8.82,8.82"/>
    <path class="cls-12" d="M623,542.62a8.82,8.82,0,0,1-8.82-8.82"/>
    <path class="cls-12" d="M684.73,533.8a8.83,8.83,0,0,1-8.83,8.82"/>
    <line class="cls-7" x1="681.78" y1="445.57" x2="681.78" y2="445.57"/>
    <line class="cls-7" x1="681.78" y1="445.57" x2="681.78" y2="457.33"/>
    <line class="cls-7" x1="617.08" y1="445.57" x2="617.08" y2="445.57"/>
    <line class="cls-7" x1="617.08" y1="533.8" x2="617.08" y2="533.8"/>
    <line class="cls-7" x1="617.08" y1="533.8" x2="617.08" y2="501.45"/>
    <line class="cls-7" x1="622.96" y1="439.68" x2="622.96" y2="439.68"/>
    <path class="cls-7" d="M617.08,445.57a5.89,5.89,0,0,1,5.88-5.89"/>
    <path class="cls-7" d="M623,439.68a5.89,5.89,0,0,0-5.88,5.89"/>
    <line class="cls-7" x1="681.78" y1="445.57" x2="684.73" y2="445.57"/>
    <line class="cls-7" x1="617.08" y1="533.8" x2="614.14" y2="533.8"/>
    <line class="cls-7" x1="614.14" y1="445.57" x2="617.08" y2="445.57"/>
    <line class="cls-7" x1="622.96" y1="436.74" x2="622.96" y2="439.68"/>
    <line class="cls-7" x1="684.73" y1="445.57" x2="681.78" y2="445.57"/>
    <line class="cls-7" x1="622.96" y1="439.68" x2="622.96" y2="436.74"/>
    <line class="cls-7" x1="614.14" y1="445.57" x2="617.08" y2="445.57"/>
    <line class="cls-7" x1="614.14" y1="533.8" x2="617.08" y2="533.8"/>
    <line class="cls-12" x1="684.73" y1="466.15" x2="684.73" y2="466.15"/>
    <line class="cls-7" x1="681.78" y1="466.15" x2="681.78" y2="466.15"/>
    <path class="cls-12" d="M684.73,457.33v8.76s-.05.07,0,.06"/>
    <path class="cls-7" d="M681.78,457.33v8.76s0,.06,0,.06"/>
    <path class="cls-12" d="M590.61,542.62c0,.06.06,0,.09,0h11.68"/>
    <line class="cls-12" x1="578.85" y1="533.8" x2="578.85" y2="533.8"/>
    <line class="cls-12" x1="578.85" y1="151.46" x2="578.85" y2="151.46"/>
    <line class="cls-12" x1="578.85" y1="533.8" x2="578.85" y2="151.46"/>
    <line class="cls-12" x1="578.85" y1="151.46" x2="578.85" y2="533.8"/>
    <line class="cls-12" x1="587.67" y1="142.64" x2="587.67" y2="142.64"/>
    <line class="cls-12" x1="675.9" y1="142.64" x2="675.9" y2="142.64"/>
    <line class="cls-12" x1="587.67" y1="142.64" x2="675.9" y2="142.64"/>
    <line class="cls-12" x1="675.9" y1="142.64" x2="587.67" y2="142.64"/>
    <line class="cls-12" x1="684.73" y1="151.46" x2="684.73" y2="151.46"/>
    <line class="cls-12" x1="684.73" y1="533.8" x2="684.73" y2="533.8"/>
    <line class="cls-12" x1="684.73" y1="151.46" x2="684.73" y2="533.8"/>
    <line class="cls-12" x1="675.9" y1="542.62" x2="675.9" y2="542.62"/>
    <line class="cls-12" x1="587.67" y1="542.62" x2="587.67" y2="542.62"/>
    <line class="cls-12" x1="587.67" y1="542.62" x2="590.61" y2="542.62"/>
    <line class="cls-12" x1="675.9" y1="542.62" x2="587.67" y2="542.62"/>
    <path class="cls-12" d="M587.67,542.62a8.82,8.82,0,0,1-8.82-8.82"/>
    <path class="cls-12" d="M578.85,533.8a8.82,8.82,0,0,0,8.82,8.82"/>
    <path class="cls-12" d="M578.85,151.46a8.82,8.82,0,0,1,8.82-8.82"/>
    <path class="cls-12" d="M587.67,142.64a8.82,8.82,0,0,0-8.82,8.82"/>
    <path class="cls-12" d="M684.73,151.46a8.83,8.83,0,0,0-8.83-8.82"/>
    <path class="cls-12" d="M675.9,142.64a8.83,8.83,0,0,1,8.83,8.82"/>
    <path class="cls-12" d="M675.9,542.62a8.83,8.83,0,0,0,8.83-8.82"/>
    <line class="cls-7" x1="587.67" y1="145.58" x2="587.67" y2="145.58"/>
    <line class="cls-7" x1="675.9" y1="145.58" x2="675.9" y2="145.58"/>
    <line class="cls-7" x1="587.67" y1="145.58" x2="675.9" y2="145.58"/>
    <line class="cls-7" x1="675.9" y1="145.58" x2="587.67" y2="145.58"/>
    <line class="cls-7" x1="681.78" y1="151.46" x2="681.78" y2="151.46"/>
    <line class="cls-7" x1="581.79" y1="533.8" x2="581.79" y2="533.8"/>
    <line class="cls-7" x1="581.79" y1="151.46" x2="581.79" y2="151.46"/>
    <line class="cls-7" x1="581.79" y1="533.8" x2="581.79" y2="151.46"/>
    <line class="cls-7" x1="581.79" y1="151.46" x2="581.79" y2="533.8"/>
    <path class="cls-7" d="M581.79,151.46a5.88,5.88,0,0,1,5.88-5.88"/>
    <path class="cls-7" d="M587.67,145.58a5.88,5.88,0,0,0-5.88,5.88"/>
    <path class="cls-7" d="M681.78,151.46a5.88,5.88,0,0,0-5.88-5.88"/>
    <path class="cls-7" d="M675.9,145.58a5.88,5.88,0,0,1,5.88,5.88"/>
    <line class="cls-7" x1="578.85" y1="533.8" x2="581.79" y2="533.8"/>
    <line class="cls-7" x1="581.79" y1="151.46" x2="578.85" y2="151.46"/>
    <line class="cls-7" x1="681.78" y1="151.46" x2="684.73" y2="151.46"/>
    <line class="cls-7" x1="587.67" y1="142.64" x2="587.67" y2="145.58"/>
    <line class="cls-7" x1="675.9" y1="145.58" x2="675.9" y2="142.64"/>
    <line class="cls-7" x1="578.85" y1="151.46" x2="581.79" y2="151.46"/>
    <line class="cls-7" x1="581.79" y1="533.8" x2="578.85" y2="533.8"/>
    <line class="cls-7" x1="675.9" y1="142.64" x2="675.9" y2="145.58"/>
    <line class="cls-7" x1="681.78" y1="151.46" x2="684.73" y2="151.46"/>
    <line class="cls-12" x1="684.73" y1="466.15" x2="684.73" y2="454.39"/>
    <line class="cls-12" x1="611.2" y1="542.62" x2="602.38" y2="542.62"/>
    <path class="cls-12" d="M611.2,542.62H623"/>
    <line class="cls-12" x1="614.14" y1="489.68" x2="614.14" y2="489.68"/>
    <line class="cls-12" x1="614.14" y1="477.92" x2="614.14" y2="445.57"/>
    <line class="cls-7" x1="614.14" y1="501.45" x2="617.08" y2="501.45"/>
    <path class="cls-12" d="M614.14,501.45V489.77s-.06-.09,0-.09"/>
    <path class="cls-12" d="M614.14,489.68c.06,0,0-.05,0-.08V477.92"/>
    <line class="cls-17" x1="681.78" y1="438.99" x2="681.78" y2="151.46"/>
    <line class="cls-17" x1="681.78" y1="454.39" x2="681.78" y2="445.57"/>
    <line class="cls-7" x1="681.78" y1="454.39" x2="681.78" y2="466.15"/>
    <line class="cls-7" x1="681.78" y1="454.39" x2="681.78" y2="454.39"/>
    <line class="cls-12" x1="684.73" y1="454.39" x2="684.73" y2="151.46"/>
    <path class="cls-12" d="M684.73,466.15s0,0,0-.08V454.39"/>
    <path class="cls-17" d="M681.78,466.15c.06,0,0,0,0-.08V454.39h0"/>
    <line class="cls-12" x1="590.61" y1="542.62" x2="590.61" y2="542.62"/>
    <path class="cls-12" d="M587.67,542.62h2.86s.08.06.08,0"/>
    <line class="cls-12" x1="684.73" y1="489.68" x2="684.73" y2="489.68"/>
    <line class="cls-12" x1="684.73" y1="533.8" x2="684.73" y2="445.57"/>
    <line class="cls-12" x1="614.14" y1="489.68" x2="614.14" y2="489.68"/>
    <line class="cls-13" x1="614.14" y1="445.57" x2="614.14" y2="533.8"/>
    <line class="cls-12" x1="649.43" y1="436.74" x2="649.43" y2="436.74"/>
    <line class="cls-13" x1="622.96" y1="436.74" x2="675.9" y2="436.74"/>
    <line class="cls-12" x1="682.14" y1="439.33" x2="682.14" y2="439.33"/>
    <path class="cls-13" d="M684.73,445.57a8.83,8.83,0,0,0-8.83-8.83"/>
    <line class="cls-12" x1="616.72" y1="439.33" x2="616.72" y2="439.33"/>
    <path class="cls-13" d="M614.14,445.57a8.82,8.82,0,0,1,8.82-8.83"/>
    <line class="cls-12" x1="616.72" y1="540.04" x2="616.72" y2="540.04"/>
    <line class="cls-12" x1="682.14" y1="540.04" x2="682.14" y2="540.04"/>
    <path class="cls-12" d="M675.9,542.62a8.83,8.83,0,0,0,8.83-8.82"/>
    <line class="cls-12" x1="675.9" y1="542.62" x2="622.96" y2="542.62"/>
    <line class="cls-12" x1="631.79" y1="542.62" x2="631.79" y2="542.62"/>
    <line class="cls-7" x1="618.8" y1="441.41" x2="618.8" y2="441.41"/>
    <path class="cls-17" d="M617.08,445.57a5.89,5.89,0,0,1,5.88-5.89"/>
    <line class="cls-7" x1="683.25" y1="445.57" x2="683.25" y2="457.33"/>
    <line class="cls-7" x1="615.61" y1="533.8" x2="615.61" y2="501.45"/>
    <line class="cls-7" x1="614.14" y1="511.74" x2="617.08" y2="511.74"/>
    <path class="cls-7" d="M615.61,445.57a7.36,7.36,0,0,1,7.35-7.36"/>
    <line class="cls-7" x1="683.25" y1="533.8" x2="683.25" y2="445.57"/>
    <path class="cls-7" d="M623,438.21a7.36,7.36,0,0,0-7.35,7.36"/>
    <line class="cls-7" x1="683.25" y1="466.15" x2="683.25" y2="466.15"/>
    <path class="cls-7" d="M683.25,457.33v8.76s0,.07,0,.06"/>
    <line class="cls-12" x1="631.79" y1="142.64" x2="631.79" y2="142.64"/>
    <line class="cls-13" x1="587.67" y1="142.64" x2="675.9" y2="142.64"/>
    <line class="cls-12" x1="684.73" y1="342.63" x2="684.73" y2="342.63"/>
    <line class="cls-13" x1="684.73" y1="533.8" x2="684.73" y2="151.46"/>
    <line class="cls-12" x1="578.85" y1="342.63" x2="578.85" y2="342.63"/>
    <line class="cls-13" x1="578.85" y1="533.8" x2="578.85" y2="151.46"/>
    <line class="cls-12" x1="631.79" y1="542.62" x2="631.79" y2="542.62"/>
    <line class="cls-13" x1="622.96" y1="542.62" x2="675.9" y2="542.62"/>
    <line class="cls-12" x1="581.43" y1="540.04" x2="581.43" y2="540.04"/>
    <path class="cls-13" d="M578.85,533.8a8.82,8.82,0,0,0,8.82,8.82"/>
    <line class="cls-12" x1="581.43" y1="145.22" x2="581.43" y2="145.22"/>
    <path class="cls-13" d="M578.85,151.46a8.82,8.82,0,0,1,8.82-8.82"/>
    <line class="cls-12" x1="682.14" y1="145.22" x2="682.14" y2="145.22"/>
    <path class="cls-13" d="M675.9,142.64a8.83,8.83,0,0,1,8.83,8.82"/>
    <line class="cls-12" x1="682.14" y1="540.04" x2="682.14" y2="540.04"/>
    <path class="cls-13" d="M684.73,533.8a8.83,8.83,0,0,1-8.83,8.82"/>
    <line class="cls-12" x1="631.79" y1="145.58" x2="631.79" y2="145.58"/>
    <line class="cls-17" x1="587.67" y1="145.58" x2="675.9" y2="145.58"/>
    <line class="cls-18" x1="581.79" y1="342.63" x2="581.79" y2="342.63"/>
    <line class="cls-17" x1="581.79" y1="533.8" x2="581.79" y2="151.46"/>
    <line class="cls-7" x1="583.51" y1="537.96" x2="583.51" y2="537.96"/>
    <line class="cls-7" x1="583.51" y1="147.3" x2="583.51" y2="147.3"/>
    <path class="cls-17" d="M581.79,151.46a5.88,5.88,0,0,1,5.88-5.88"/>
    <line class="cls-7" x1="680.06" y1="147.3" x2="680.06" y2="147.3"/>
    <path class="cls-17" d="M675.9,145.58a5.88,5.88,0,0,1,5.88,5.88"/>
    <line class="cls-7" x1="580.32" y1="151.46" x2="580.32" y2="533.8"/>
    <path class="cls-7" d="M675.9,144.11a7.35,7.35,0,0,1,7.35,7.35"/>
    <line class="cls-7" x1="675.9" y1="144.11" x2="587.67" y2="144.11"/>
    <path class="cls-8" d="M587.67,144.11a7.35,7.35,0,0,0-7.35,7.35"/>
    <line class="cls-7" x1="580.32" y1="533.8" x2="580.32" y2="151.46"/>
    <path class="cls-7" d="M580.32,151.46a7.35,7.35,0,0,1,7.35-7.35"/>
    <path class="cls-7" d="M683.25,151.46a7.35,7.35,0,0,0-7.35-7.35"/>
    <path class="cls-7" d="M683.25,466.15c.06,0,0,0,0-.08V454.39"/>
    <line class="cls-17" x1="617.08" y1="445.57" x2="617.08" y2="533.8"/>
    <path class="cls-17" d="M611.2,539.68h5.26"/>
    <path class="cls-17" d="M590.61,539.68c0,.06.06,0,.09,0h11.68"/>
    <path class="cls-17" d="M581.79,533.8a5.88,5.88,0,0,0,5.88,5.88"/>
    <line class="cls-17" x1="611.2" y1="539.68" x2="602.38" y2="539.68"/>
    <path class="cls-17" d="M587.67,539.68h2.86s.08.06.08,0"/>
    <path class="cls-13" d="M614.14,533.8a8.82,8.82,0,0,0,8.82,8.82"/>
    <line class="cls-17" x1="590.61" y1="542.62" x2="590.61" y2="539.68"/>
    <line class="cls-13" x1="587.67" y1="542.62" x2="622.96" y2="542.62"/>
  </g>
  <g id="Layer_4" data-name="Layer 4">
    <line class="cls-7" x1="1328.56" y1="436.02" x2="1328.56" y2="438.96"/>
    <line class="cls-7" x1="1319.74" y1="436.02" x2="1319.74" y2="438.96"/>
    <line class="cls-7" x1="1322.68" y1="436.02" x2="1322.68" y2="438.96"/>
    <line class="cls-7" x1="1334.8" y1="436.02" x2="1334.8" y2="438.96"/>
    <line class="cls-7" x1="1311.42" y1="436.02" x2="1311.42" y2="438.96"/>
    <path class="cls-7" d="M1319.74,437.49h-11.68s-.08-.06-.08,0"/>
    <line class="cls-7" x1="1525.61" y1="444.84" x2="1307.98" y2="444.84"/>
    <path class="cls-7" d="M1525.61,444.84H1308"/>
    <line class="cls-7" x1="1525.61" y1="440.68" x2="1307.98" y2="440.68"/>
    <path class="cls-7" d="M1525.61,439H1308"/>
    <line class="cls-7" x1="1307.98" y1="438.96" x2="1525.61" y2="438.96"/>
    <line class="cls-7" x1="1293.27" y1="533.07" x2="1293.27" y2="444.84"/>
    <line class="cls-7" x1="1293.27" y1="533.07" x2="1293.27" y2="444.84"/>
    <line class="cls-7" x1="1293.27" y1="533.07" x2="1293.27" y2="444.84"/>
    <line class="cls-7" x1="1293.27" y1="533.07" x2="1293.27" y2="444.84"/>
    <line class="cls-7" x1="1307.98" y1="530.13" x2="1307.98" y2="444.84"/>
    <path class="cls-7" d="M1308,436s0,0,0,.06v8.76"/>
    <line class="cls-7" x1="1307.98" y1="438.96" x2="1307.98" y2="438.96"/>
    <line class="cls-7" x1="1307.98" y1="530.13" x2="1307.98" y2="444.84"/>
    <line class="cls-19" x1="1328.56" y1="438.96" x2="1319.74" y2="438.96"/>
    <path class="cls-19" d="M1337.39,439s-.05,0-.07,0h-8.76"/>
    <line class="cls-7" x1="1307.98" y1="444.84" x2="1278.57" y2="444.84"/>
    <line class="cls-7" x1="1307.98" y1="533.07" x2="1307.98" y2="444.84"/>
    <line class="cls-7" x1="1278.57" y1="444.84" x2="1307.98" y2="444.84"/>
    <path class="cls-7" d="M1308,436c-.08-.16,0,.17,0,.26v8.56"/>
    <path class="cls-7" d="M1308,444.84h-29.41"/>
    <line class="cls-7" x1="1307.98" y1="533.07" x2="1307.98" y2="444.84"/>
    <path class="cls-7" d="M1308,439h-29.41"/>
    <path class="cls-7" d="M1278.57,439H1308"/>
    <path class="cls-7" d="M1278.57,444.84H1308"/>
    <path class="cls-13" d="M1308,439v5.88"/>
    <line class="cls-7" x1="1307.98" y1="444.84" x2="1307.98" y2="444.84"/>
    <line class="cls-7" x1="1307.98" y1="438.96" x2="1307.98" y2="436.02"/>
    <line class="cls-7" x1="1307.98" y1="438.96" x2="1307.98" y2="438.96"/>
    <line class="cls-7" x1="1307.98" y1="438.96" x2="1307.98" y2="438.96"/>
    <line class="cls-7" x1="1307.98" y1="438.96" x2="1307.98" y2="438.96"/>
    <line class="cls-7" x1="1307.98" y1="436.02" x2="1307.98" y2="438.96"/>
    <path class="cls-19" d="M1319.74,439h-11.68s-.08-.06-.08,0h0"/>
    <line class="cls-7" x1="1328.56" y1="437.49" x2="1319.74" y2="437.49"/>
    <path class="cls-7" d="M1337.39,437.49s-.05,0-.07,0h-8.76"/>
    <line class="cls-7" x1="1307.98" y1="438.6" x2="1278.57" y2="438.6"/>
    <path class="cls-7" d="M1293.27,444.84v-7.72a4.5,4.5,0,0,1,0-1.1"/>
    <line class="cls-7" x1="1278.57" y1="438.6" x2="1307.98" y2="438.6"/>
    <path class="cls-7" d="M1293.27,436s0,0,0,.06v8.76"/>
    <line class="cls-7" x1="1293.27" y1="438.96" x2="1293.27" y2="438.96"/>
    <line class="cls-7" x1="1307.98" y1="440.68" x2="1278.57" y2="440.68"/>
    <path class="cls-7" d="M1293.27,444.84v-5.71c0-.05.08-.12,0-.17"/>
    <line class="cls-7" x1="1278.57" y1="440.68" x2="1307.98" y2="440.68"/>
    <path class="cls-7" d="M1293.27,439c-.13.17,0,.58,0,.73v5.15"/>
    <line class="cls-13" x1="1307.98" y1="533.07" x2="1307.98" y2="444.84"/>
    <line class="cls-13" x1="1307.98" y1="438.6" x2="1307.98" y2="440.68"/>
    <line class="cls-7" x1="1307.98" y1="437.49" x2="1307.98" y2="437.49"/>
    <line class="cls-13" x1="1307.98" y1="436.02" x2="1307.98" y2="438.96"/>
    <path class="cls-7" d="M1471.2,506.6s0,0,0-.06v-8.76"/>
    <line class="cls-7" x1="1337.39" y1="444.84" x2="1525.61" y2="444.84"/>
    <path class="cls-7" d="M1337.39,444.84h188.22"/>
    <line class="cls-7" x1="1431.5" y1="497.78" x2="1431.5" y2="444.84"/>
    <path class="cls-7" d="M1431.5,436s0,0,0,.06v8.76"/>
    <path class="cls-7" d="M1416.79,444.84v-8.76s0-.05,0-.06"/>
    <line class="cls-7" x1="1416.69" y1="444.84" x2="1416.69" y2="497.78"/>
    <line class="cls-7" x1="1431.5" y1="497.78" x2="1431.5" y2="444.84"/>
    <line class="cls-7" x1="1337.39" y1="440.68" x2="1525.61" y2="440.68"/>
    <path class="cls-7" d="M1431.5,439c-.09-.07,0,.12,0,.17v5.71"/>
    <line class="cls-7" x1="1416.69" y1="444.84" x2="1416.69" y2="497.78"/>
    <path class="cls-7" d="M1337.39,439h188.22"/>
    <line class="cls-7" x1="1337.39" y1="438.6" x2="1525.61" y2="438.6"/>
    <line class="cls-7" x1="1416.79" y1="497.78" x2="1402.09" y2="497.78"/>
    <line class="cls-7" x1="1525.61" y1="497.78" x2="1337.39" y2="497.78"/>
    <line class="cls-7" x1="1525.61" y1="497.78" x2="1416.79" y2="497.78"/>
    <path class="cls-7" d="M1416.79,506.6s0,0,0-.06v-8.76"/>
    <path class="cls-7" d="M1525.61,503.66H1337.39"/>
    <path class="cls-7" d="M1525.61,503.66H1416.79"/>
    <line class="cls-7" x1="1416.79" y1="503.66" x2="1416.79" y2="503.66"/>
    <path class="cls-7" d="M1525.61,497.78H1337.39"/>
    <path class="cls-7" d="M1525.61,497.78H1416.79"/>
    <path class="cls-7" d="M1416.79,503.66c.12,0,0-.11,0-.17v-5.71"/>
    <line class="cls-7" x1="1416.79" y1="497.78" x2="1402.09" y2="497.78"/>
    <line class="cls-7" x1="1416.79" y1="497.78" x2="1416.79" y2="497.78"/>
    <line class="cls-7" x1="1416.79" y1="503.66" x2="1416.79" y2="506.6"/>
    <line class="cls-7" x1="1402.09" y1="497.78" x2="1402.09" y2="497.78"/>
    <path class="cls-7" d="M1390.32,509.54a11.77,11.77,0,0,1,11.77-11.76"/>
    <path class="cls-7" d="M1390.32,509.54a11.77,11.77,0,0,1,11.77-11.76"/>
    <line class="cls-7" x1="1405.03" y1="503.66" x2="1349.15" y2="503.66"/>
    <line class="cls-7" x1="1416.79" y1="506.6" x2="1416.79" y2="503.66"/>
    <line class="cls-7" x1="1349.15" y1="503.66" x2="1349.15" y2="506.6"/>
    <line class="cls-7" x1="1405.03" y1="506.6" x2="1405.03" y2="503.66"/>
    <path class="cls-7" d="M1416.79,503.66c0,.06,0,0-.08,0H1405"/>
    <path class="cls-7" d="M1349.15,503.66h-11.68s-.08-.05-.08,0"/>
    <line class="cls-7" x1="1337.39" y1="471.31" x2="1525.61" y2="471.31"/>
    <line class="cls-7" x1="1525.61" y1="504.02" x2="1337.39" y2="504.02"/>
    <path class="cls-7" d="M1431.5,506.6s0,0,0-.06v-8.76"/>
    <line class="cls-7" x1="1525.61" y1="504.02" x2="1416.79" y2="504.02"/>
    <line class="cls-7" x1="1307.98" y1="488.96" x2="1525.61" y2="488.96"/>
    <line class="cls-7" x1="1405.03" y1="503.66" x2="1525.61" y2="503.66"/>
    <line class="cls-7" x1="1431.5" y1="503.66" x2="1431.5" y2="503.66"/>
    <line class="cls-7" x1="1337.39" y1="471.31" x2="1525.61" y2="471.31"/>
    <line class="cls-7" x1="1525.61" y1="501.94" x2="1337.39" y2="501.94"/>
    <path class="cls-7" d="M1431.5,503.66c-.09.08,0-.11,0-.17v-5.71"/>
    <line class="cls-7" x1="1525.61" y1="501.94" x2="1416.79" y2="501.94"/>
    <line class="cls-7" x1="1307.98" y1="488.96" x2="1525.61" y2="488.96"/>
    <path class="cls-7" d="M1416.79,505.13c.15,0,0-.14,0-.21v-7.14"/>
    <line class="cls-7" x1="1416.79" y1="504.02" x2="1416.79" y2="501.94"/>
    <line class="cls-7" x1="1416.79" y1="505.13" x2="1416.79" y2="505.13"/>
    <line class="cls-7" x1="1416.79" y1="506.6" x2="1416.79" y2="503.66"/>
    <line class="cls-7" x1="1402.09" y1="497.78" x2="1416.79" y2="497.78"/>
    <line class="cls-7" x1="1403.56" y1="497.78" x2="1403.56" y2="497.78"/>
    <line class="cls-7" x1="1393.77" y1="501.23" x2="1393.77" y2="501.23"/>
    <path class="cls-7" d="M1390.7,506.6a11.76,11.76,0,0,1,11.39-8.82"/>
    <line class="cls-7" x1="1405.03" y1="505.13" x2="1349.15" y2="505.13"/>
    <line class="cls-7" x1="1377.09" y1="506.6" x2="1377.09" y2="503.66"/>
    <line class="cls-7" x1="1413.35" y1="506.6" x2="1413.35" y2="503.66"/>
    <path class="cls-7" d="M1416.79,505.13c0,.06,0,0-.08,0H1405"/>
    <line class="cls-7" x1="1340.83" y1="503.66" x2="1340.83" y2="506.6"/>
    <path class="cls-7" d="M1349.15,505.13h-11.68s-.09-.05-.08,0"/>
    <line class="cls-7" x1="1278.57" y1="533.07" x2="1307.98" y2="533.07"/>
    <line class="cls-7" x1="1278.57" y1="533.07" x2="1307.98" y2="533.07"/>
    <path class="cls-7" d="M1278.57,533.07H1308"/>
    <path class="cls-7" d="M1278.57,539H1308"/>
    <path class="cls-7" d="M1278.57,539H1308"/>
    <path class="cls-7" d="M1278.57,533.07H1308"/>
    <line class="cls-7" x1="1278.57" y1="539.31" x2="1307.98" y2="539.31"/>
    <path class="cls-7" d="M1293.27,541.9v-8.83"/>
    <line class="cls-7" x1="1278.57" y1="539.31" x2="1307.98" y2="539.31"/>
    <path class="cls-7" d="M1293.27,541.9v-8.83"/>
    <line class="cls-7" x1="1278.57" y1="538.96" x2="1307.98" y2="538.96"/>
    <line class="cls-7" x1="1293.27" y1="538.96" x2="1293.27" y2="538.96"/>
    <line class="cls-7" x1="1278.57" y1="537.23" x2="1307.98" y2="537.23"/>
    <path class="cls-7" d="M1293.27,539c-.11,0,0-.12,0-.18v-5.71"/>
    <line class="cls-7" x1="1278.57" y1="537.23" x2="1307.98" y2="537.23"/>
    <path class="cls-7" d="M1293.27,539c-.1.47,0-.5,0-.74v-5.15"/>
    <line class="cls-12" x1="1307.98" y1="436.02" x2="1307.98" y2="436.02"/>
    <line class="cls-12" x1="1337.39" y1="436.02" x2="1525.61" y2="436.02"/>
    <line class="cls-12" x1="1525.61" y1="436.02" x2="1307.98" y2="436.02"/>
    <line class="cls-12" x1="1337.39" y1="436.02" x2="1337.39" y2="436.02"/>
    <line class="cls-12" x1="1525.61" y1="436.02" x2="1525.61" y2="436.02"/>
    <line class="cls-12" x1="1525.61" y1="506.6" x2="1337.39" y2="506.6"/>
    <line class="cls-12" x1="1525.61" y1="506.6" x2="1416.79" y2="506.6"/>
    <line class="cls-12" x1="1416.79" y1="506.6" x2="1416.79" y2="506.6"/>
    <line class="cls-12" x1="1525.61" y1="506.6" x2="1525.61" y2="506.6"/>
    <line class="cls-12" x1="1525.61" y1="497.78" x2="1525.61" y2="444.84"/>
    <line class="cls-12" x1="1337.39" y1="444.84" x2="1337.39" y2="497.78"/>
    <path class="cls-12" d="M1525.61,436s0,0,0,.06v8.76"/>
    <line class="cls-12" x1="1525.61" y1="497.78" x2="1525.61" y2="444.84"/>
    <path class="cls-13" d="M1525.61,436c-.14.07,0,.17,0,.26v8.56"/>
    <path class="cls-12" d="M1337.39,506.6s0,0,0-.06v-8.76"/>
    <path class="cls-12" d="M1525.61,497.78v8.76s0,.06,0,.06"/>
    <path class="cls-13" d="M1525.61,497.78v8.76s0,.06,0,.06"/>
    <line class="cls-12" x1="1337.39" y1="438.96" x2="1337.39" y2="438.96"/>
    <line class="cls-12" x1="1525.61" y1="438.96" x2="1525.61" y2="438.96"/>
    <line class="cls-12" x1="1525.61" y1="503.66" x2="1525.61" y2="503.66"/>
    <line class="cls-12" x1="1525.61" y1="497.78" x2="1525.61" y2="444.84"/>
    <line class="cls-12" x1="1337.39" y1="444.84" x2="1337.39" y2="497.78"/>
    <path class="cls-12" d="M1337.39,444.84v-5.71c0-.05-.08-.26,0-.17"/>
    <path class="cls-12" d="M1337.39,503.66c.11,0,0-.11,0-.17v-5.71"/>
    <line class="cls-12" x1="1525.61" y1="497.78" x2="1525.61" y2="444.84"/>
    <line class="cls-12" x1="1337.39" y1="438.96" x2="1337.39" y2="436.02"/>
    <line class="cls-12" x1="1337.39" y1="506.6" x2="1337.39" y2="503.66"/>
    <line class="cls-12" x1="1337.39" y1="497.78" x2="1337.39" y2="497.78"/>
    <line class="cls-12" x1="1337.39" y1="444.84" x2="1337.39" y2="444.84"/>
    <line class="cls-12" x1="1525.61" y1="436.02" x2="1525.61" y2="438.96"/>
    <line class="cls-12" x1="1525.61" y1="444.84" x2="1525.61" y2="444.84"/>
    <line class="cls-12" x1="1525.61" y1="497.78" x2="1525.61" y2="497.78"/>
    <line class="cls-12" x1="1525.61" y1="506.6" x2="1525.61" y2="503.66"/>
    <line class="cls-12" x1="1525.61" y1="506.6" x2="1525.61" y2="503.66"/>
    <line class="cls-12" x1="1525.61" y1="497.78" x2="1525.61" y2="497.78"/>
    <line class="cls-12" x1="1525.61" y1="444.84" x2="1525.61" y2="444.84"/>
    <line class="cls-12" x1="1525.61" y1="438.96" x2="1525.61" y2="436.02"/>
    <line class="cls-12" x1="1328.56" y1="436.02" x2="1319.74" y2="436.02"/>
    <line class="cls-13" x1="1337.39" y1="436.02" x2="1337.39" y2="445.23"/>
    <path class="cls-12" d="M1337.39,436s-.05,0-.07,0h-8.76"/>
    <line class="cls-12" x1="1378.56" y1="530.13" x2="1378.56" y2="530.13"/>
    <line class="cls-12" x1="1390.32" y1="518.37" x2="1390.32" y2="518.37"/>
    <path class="cls-12" d="M1378.56,530.13a11.76,11.76,0,0,0,11.76-11.76"/>
    <path class="cls-12" d="M1378.56,530.13a11.76,11.76,0,0,0,11.76-11.76"/>
    <line class="cls-12" x1="1278.57" y1="541.9" x2="1307.98" y2="541.9"/>
    <line class="cls-12" x1="1278.57" y1="541.9" x2="1307.98" y2="541.9"/>
    <line class="cls-12" x1="1307.98" y1="541.9" x2="1307.98" y2="541.9"/>
    <line class="cls-12" x1="1278.57" y1="541.9" x2="1278.57" y2="541.9"/>
    <line class="cls-12" x1="1278.57" y1="444.84" x2="1278.57" y2="533.07"/>
    <line class="cls-12" x1="1307.98" y1="436.02" x2="1278.57" y2="436.02"/>
    <line class="cls-12" x1="1278.57" y1="436.02" x2="1307.98" y2="436.02"/>
    <line class="cls-12" x1="1278.57" y1="436.02" x2="1278.57" y2="436.02"/>
    <line class="cls-12" x1="1307.98" y1="533.07" x2="1307.98" y2="530.13"/>
    <line class="cls-12" x1="1278.57" y1="444.84" x2="1278.57" y2="533.07"/>
    <path class="cls-12" d="M1278.57,533.07v8.76s0,.07,0,.07"/>
    <path class="cls-12" d="M1308,541.9s0,0,0-.07v-8.76"/>
    <path class="cls-13" d="M1308,541.9s0,0,0-.07v-8.76"/>
    <path class="cls-12" d="M1278.57,533.07v8.76s0,.07,0,.07"/>
    <path class="cls-12" d="M1278.57,444.84v-8.76s0-.05,0-.06"/>
    <path class="cls-13" d="M1278.57,444.84v-8.56c0-.09.11-.18,0-.26"/>
    <line class="cls-12" x1="1278.57" y1="444.84" x2="1278.57" y2="533.07"/>
    <line class="cls-12" x1="1278.57" y1="438.96" x2="1278.57" y2="438.96"/>
    <line class="cls-12" x1="1307.98" y1="538.96" x2="1307.98" y2="538.96"/>
    <line class="cls-12" x1="1278.57" y1="538.96" x2="1278.57" y2="538.96"/>
    <line class="cls-12" x1="1307.98" y1="533.07" x2="1307.98" y2="530.13"/>
    <line class="cls-12" x1="1278.57" y1="444.84" x2="1278.57" y2="533.07"/>
    <path class="cls-12" d="M1278.57,533.07v5.71c0,.06.11.18,0,.18"/>
    <path class="cls-13" d="M1278.57,533.07v5.71c0,.06.1.22,0,.18"/>
    <line class="cls-12" x1="1278.57" y1="541.9" x2="1278.57" y2="538.96"/>
    <line class="cls-12" x1="1278.57" y1="538.96" x2="1278.57" y2="541.9"/>
    <line class="cls-12" x1="1278.57" y1="533.07" x2="1278.57" y2="533.07"/>
    <line class="cls-12" x1="1278.57" y1="444.84" x2="1278.57" y2="444.84"/>
    <line class="cls-12" x1="1278.57" y1="533.07" x2="1278.57" y2="533.07"/>
    <line class="cls-12" x1="1278.57" y1="444.84" x2="1278.57" y2="444.84"/>
    <line class="cls-12" x1="1307.98" y1="533.07" x2="1307.98" y2="533.07"/>
    <line class="cls-12" x1="1307.98" y1="533.07" x2="1307.98" y2="533.07"/>
    <line class="cls-12" x1="1307.98" y1="436.02" x2="1307.98" y2="436.02"/>
    <line class="cls-12" x1="1390.32" y1="509.54" x2="1390.32" y2="518.37"/>
    <line class="cls-12" x1="1390.32" y1="509.54" x2="1390.32" y2="518.37"/>
    <line class="cls-12" x1="1390.32" y1="509.54" x2="1390.32" y2="509.54"/>
    <line class="cls-13" x1="1405.03" y1="506.6" x2="1349.15" y2="506.6"/>
    <line class="cls-12" x1="1337.39" y1="506.6" x2="1337.39" y2="506.6"/>
    <line class="cls-12" x1="1337.39" y1="503.66" x2="1337.39" y2="503.66"/>
    <line class="cls-12" x1="1337.39" y1="503.66" x2="1337.39" y2="506.6"/>
    <path class="cls-12" d="M1416.79,506.6c0,.06,0,0-.08,0H1405"/>
    <path class="cls-13" d="M1349.15,506.6h-11.68s-.08-.05-.08,0"/>
    <line class="cls-12" x1="1307.98" y1="436.02" x2="1307.98" y2="436.02"/>
    <path class="cls-12" d="M1319.74,436h-11.68s-.08-.06-.08,0"/>
    <line class="cls-12" x1="1310.92" y1="530.13" x2="1378.56" y2="530.13"/>
    <line class="cls-12" x1="1310.92" y1="530.13" x2="1378.56" y2="530.13"/>
    <line class="cls-12" x1="1310.92" y1="530.13" x2="1310.92" y2="530.13"/>
    <path class="cls-12" d="M1308,533.07a2.94,2.94,0,0,1,2.94-2.94"/>
    <path class="cls-12" d="M1308,533.07a2.94,2.94,0,0,1,2.94-2.94"/>
    <line class="cls-13" x1="1307.98" y1="436.02" x2="1525.61" y2="436.02"/>
    <line class="cls-12" x1="1416.79" y1="436.02" x2="1416.79" y2="436.02"/>
    <line class="cls-13" x1="1405.03" y1="506.6" x2="1525.61" y2="506.6"/>
    <line class="cls-12" x1="1431.5" y1="506.6" x2="1431.5" y2="506.6"/>
    <line class="cls-12" x1="1337.39" y1="437.49" x2="1337.39" y2="437.49"/>
    <line class="cls-13" x1="1390.32" y1="518.37" x2="1390.32" y2="509.54"/>
    <line class="cls-12" x1="1337.39" y1="505.13" x2="1337.39" y2="505.13"/>
    <line class="cls-13" x1="1337.39" y1="506.6" x2="1337.39" y2="503.66"/>
    <path class="cls-20" d="M1337.39,505.13c.14,0,0-.14,0-.21v-7.14"/>
    <line class="cls-20" x1="1337.39" y1="504.02" x2="1337.39" y2="501.94"/>
    <line class="cls-13" x1="1337.39" y1="444.84" x2="1337.39" y2="497.78"/>
    <line class="cls-12" x1="1337.39" y1="471.31" x2="1337.39" y2="471.31"/>
    <line class="cls-12" x1="1337.39" y1="438.6" x2="1337.39" y2="440.68"/>
    <line class="cls-12" x1="1525.61" y1="437.49" x2="1525.61" y2="437.49"/>
    <line class="cls-12" x1="1525.61" y1="436.02" x2="1525.61" y2="438.96"/>
    <line class="cls-12" x1="1525.61" y1="438.6" x2="1525.61" y2="440.68"/>
    <line class="cls-12" x1="1525.61" y1="497.78" x2="1525.61" y2="444.84"/>
    <line class="cls-12" x1="1525.61" y1="471.31" x2="1525.61" y2="471.31"/>
    <line class="cls-12" x1="1525.61" y1="505.13" x2="1525.61" y2="505.13"/>
    <line class="cls-12" x1="1525.61" y1="506.6" x2="1525.61" y2="503.66"/>
    <line class="cls-13" x1="1525.61" y1="497.78" x2="1525.61" y2="444.84"/>
    <line class="cls-12" x1="1525.61" y1="471.31" x2="1525.61" y2="471.31"/>
    <line class="cls-12" x1="1525.61" y1="438.6" x2="1525.61" y2="440.68"/>
    <line class="cls-13" x1="1310.92" y1="530.13" x2="1378.56" y2="530.13"/>
    <line class="cls-12" x1="1349.15" y1="530.13" x2="1349.15" y2="530.13"/>
    <line class="cls-12" x1="1386.88" y1="526.69" x2="1386.88" y2="526.69"/>
    <path class="cls-13" d="M1378.56,530.13a11.76,11.76,0,0,0,11.76-11.76"/>
    <line class="cls-7" x1="1278.57" y1="488.96" x2="1307.98" y2="488.96"/>
    <line class="cls-13" x1="1278.57" y1="436.02" x2="1307.98" y2="436.02"/>
    <line class="cls-12" x1="1293.27" y1="436.02" x2="1293.27" y2="436.02"/>
    <line class="cls-13" x1="1278.57" y1="541.9" x2="1307.98" y2="541.9"/>
    <line class="cls-12" x1="1293.27" y1="541.9" x2="1293.27" y2="541.9"/>
    <line class="cls-7" x1="1278.57" y1="488.96" x2="1307.98" y2="488.96"/>
    <line class="cls-7" x1="1278.57" y1="488.96" x2="1307.98" y2="488.96"/>
    <line class="cls-7" x1="1278.57" y1="488.96" x2="1307.98" y2="488.96"/>
    <line class="cls-12" x1="1278.57" y1="540.43" x2="1278.57" y2="540.43"/>
    <line class="cls-13" x1="1278.57" y1="541.9" x2="1278.57" y2="538.96"/>
    <line class="cls-12" x1="1278.57" y1="539.31" x2="1278.57" y2="537.23"/>
    <line class="cls-12" x1="1278.57" y1="444.84" x2="1278.57" y2="533.07"/>
    <line class="cls-12" x1="1278.57" y1="488.96" x2="1278.57" y2="488.96"/>
    <line class="cls-12" x1="1278.57" y1="437.49" x2="1278.57" y2="437.49"/>
    <line class="cls-13" x1="1278.57" y1="444.84" x2="1278.57" y2="533.07"/>
    <line class="cls-12" x1="1278.57" y1="488.96" x2="1278.57" y2="488.96"/>
    <line class="cls-12" x1="1278.57" y1="539.31" x2="1278.57" y2="537.23"/>
    <line class="cls-12" x1="1307.98" y1="540.43" x2="1307.98" y2="540.43"/>
    <line class="cls-12" x1="1307.98" y1="488.96" x2="1307.98" y2="488.96"/>
    <path class="cls-13" d="M1390.32,509.54a11.45,11.45,0,0,1,.38-2.94"/>
    <line class="cls-12" x1="1308.84" y1="530.99" x2="1308.84" y2="530.99"/>
    <path class="cls-13" d="M1310.92,530.13a2.94,2.94,0,0,0-2.94,2.94"/>
  </g>
  <g id="Layer_6" data-name="Layer 6">
    <line class="cls-21" x1="1010.26" y1="565.6" x2="1119" y2="565.6"/>
    <line class="cls-21" x1="871" y1="565.6" x2="980.26" y2="565.6"/>
    <path class="cls-22" d="M871.5,565.5v0Z"/>
    <path class="cls-22" d="M1118.5,565.5v0Z"/>
    <text class="cls-23" transform="translate(987.23 569.14)">42<tspan class="cls-24" x="11.84" y="0"></tspan><tspan x="13.92" y="0"></tspan></text>
    <line class="cls-21" x1="645.52" y1="119.6" x2="685" y2="119.6"/>
    <line class="cls-21" x1="579" y1="119.6" x2="617.7" y2="119.6"/>
    <path class="cls-22" d="M579.21,119.5v0Z"/>
    <path class="cls-22" d="M684.79,119.5v0Z"/>
    <text class="cls-23" transform="translate(1339.23 569.14)">15<tspan class="cls-24" x="11.84" y="0"></tspan><tspan x="13.92" y="0"></tspan></text>
    <text class="cls-23" transform="translate(1452.23 569.14)">22<tspan class="cls-24" x="11.84" y="0"></tspan><tspan x="13.92" y="0"></tspan></text>
    <line class="cls-21" x1="1362" y1="565.6" x2="1442" y2="565.6"/>
    <line class="cls-21" x1="1308" y1="565.6" x2="1333" y2="565.6"/>
    <line class="cls-21" x1="1475" y1="566" x2="1526" y2="566"/>
    <path class="cls-22" d="M1308.17,565.5v0Z"/>
    <path class="cls-22" d="M1389.83,565.5v0Z"/>
    <path class="cls-22" d="M1526,565.5v0Z"/>
    <line class="cls-25" x1="547.19" y1="355" x2="547.19" y2="543"/>
    <line class="cls-25" x1="547.19" y1="142.79" x2="547.19" y2="330"/>
    <path class="cls-26" d="M547.29,143.6h0Z"/>
    <path class="cls-26" d="M547.29,542.19h0Z"/>
    <line class="cls-21" x1="332.57" y1="412.65" x2="412" y2="412.65"/>
    <line class="cls-21" x1="224" y1="412.65" x2="302.83" y2="412.65"/>
    <path class="cls-22" d="M224.38,412.57v0Z"/>
    <path class="cls-22" d="M411.62,412.57v0Z"/>
    <text class="cls-23" transform="translate(310.07 415.67)">32<tspan class="cls-24" x="11.84" y="0"></tspan><tspan x="13.92" y="0"></tspan></text>
    <text class="cls-23" transform="translate(539.73 345.67)">68<tspan class="cls-24" x="11.84" y="0"></tspan><tspan x="13.92" y="0"></tspan></text>
    <text class="cls-23" transform="translate(703.73 492.67)">20<tspan class="cls-24" x="11.84" y="0"></tspan><tspan x="13.92" y="0"></tspan></text>
    <line class="cls-25" x1="712.19" y1="501" x2="712.19" y2="543"/>
    <line class="cls-25" x1="712.19" y1="437" x2="712.19" y2="478"/>
    <path class="cls-26" d="M712.29,437.21h0Z"/>
    <path class="cls-26" d="M712.29,542.79h0Z"/>
    <text class="cls-23" transform="translate(835.73 492.67)">20<tspan class="cls-24" x="11.84" y="0"></tspan><tspan x="13.92" y="0"></tspan></text>
    <text class="cls-23" transform="translate(1136.69 455.67)">5<tspan class="cls-24" x="5.92" y="0"></tspan><tspan x="8" y="0"></tspan></text>
    <line class="cls-25" x1="844.19" y1="501" x2="844.19" y2="543"/>
    <line class="cls-25" x1="844.19" y1="437" x2="844.19" y2="478"/>
    <path class="cls-26" d="M844.29,437.21h0Z"/>
    <path class="cls-26" d="M844.29,542.79h0Z"/>
    <line class="cls-25" x1="1141.19" y1="461" x2="1141.19" y2="467"/>
    <line class="cls-25" x1="1141.19" y1="437" x2="1141.19" y2="443"/>
    <path class="cls-26" d="M1141.29,437.06h0Z"/>
    <path class="cls-26" d="M1141.29,466.94h0Z"/>
    <text class="cls-23" transform="translate(1236.73 492.67)">19<tspan class="cls-24" x="11.84" y="0"></tspan><tspan x="13.92" y="0"></tspan></text>
    <text class="cls-23" transform="translate(623.73 122.67)">19<tspan class="cls-24" x="11.84" y="0"></tspan><tspan x="13.92" y="0"></tspan></text>
    <line class="cls-21" x1="663.56" y1="565.6" x2="685" y2="565.6"/>
    <line class="cls-21" x1="614" y1="565.6" x2="634.92" y2="565.6"/>
    <path class="cls-22" d="M614.14,565.5v0Z"/>
    <path class="cls-22" d="M684.86,565.5v0Z"/>
    <text class="cls-27" transform="translate(1542.73 485.74) scale(0.98 1)">16<tspan class="cls-28" x="12.09" y="0"></tspan><tspan x="14.22" y="0"></tspan></text>
    <text class="cls-23" transform="translate(640.73 568.67)">12<tspan class="cls-24" x="11.84" y="0"></tspan><tspan x="13.92" y="0"></tspan></text>
    <line class="cls-25" x1="1245.19" y1="501" x2="1245.19" y2="543"/>
    <line class="cls-25" x1="1245.19" y1="437" x2="1245.19" y2="478"/>
    <path class="cls-26" d="M1245.29,437.21h0Z"/>
    <path class="cls-26" d="M1245.29,542.79h0Z"/>
    <line class="cls-25" x1="1550.19" y1="493.23" x2="1550.19" y2="530"/>
    <line class="cls-25" x1="1550.19" y1="435" x2="1550.19" y2="471.75"/>
    <path class="cls-26" d="M1550.29,435.19h0Z"/>
    <path class="cls-26" d="M1550.29,529.81h0Z"/>
    <text class="cls-23" transform="translate(176.03 120.67)">5<tspan class="cls-24" x="5.92" y="0"></tspan><tspan x="8" y="0"></tspan></text>
    <line class="cls-21" x1="189.75" y1="117.65" x2="194" y2="117.65"/>
    <line class="cls-21" x1="165" y1="117.65" x2="170.16" y2="117.65"/>
    <path class="cls-22" d="M165.06,117.57v0Z"/>
    <path class="cls-22" d="M193.94,117.57v0Z"/>
    <text class="cls-23" transform="translate(285.03 565.67)">5<tspan class="cls-24" x="5.92" y="0"></tspan><tspan x="8" y="0"></tspan></text>
    <line class="cls-21" x1="298.75" y1="562.65" x2="303" y2="562.65"/>
    <line class="cls-21" x1="274" y1="562.65" x2="279.16" y2="562.65"/>
    <path class="cls-22" d="M274.06,562.57v0Z"/>
    <path class="cls-22" d="M302.94,562.57v0Z"/>
  </g>
</svg>
