<svg width="750" height="137" viewBox="0 0 750 137" fill="none" xmlns="http://www.w3.org/2000/svg">
<circle cx="38" cy="65" r="16" fill="#7738FF"/>
<circle cx="270" cy="65" r="16" fill="#7738FF"/>
<circle cx="502" cy="65" r="16" fill="#7738FF"/>
<circle cx="734" cy="65" r="16" fill="#7738FF"/>
<path d="M238.707 65.7071C239.098 65.3166 239.098 64.6834 238.707 64.2929L232.343 57.9289C231.953 57.5384 231.319 57.5384 230.929 57.9289C230.538 58.3195 230.538 58.9526 230.929 59.3431L236.586 65L230.929 70.6569C230.538 71.0474 230.538 71.6805 230.929 72.0711C231.319 72.4616 231.953 72.4616 232.343 72.0711L238.707 65.7071ZM68 66H238V64H68V66Z" fill="black" fill-opacity="0.14"/>
<path d="M406.5 60.5L406.243 61.4664L406.243 61.4664L406.5 60.5ZM471.853 65.5225C472.141 65.0516 471.993 64.4359 471.523 64.1473L463.849 59.4443C463.378 59.1557 462.763 59.3034 462.474 59.7743C462.185 60.2452 462.333 60.8609 462.804 61.1495L469.625 65.33L465.444 72.1508C465.156 72.6217 465.304 73.2373 465.774 73.5259C466.245 73.8146 466.861 73.6668 467.15 73.1959L471.853 65.5225ZM360.034 46.3848C360.86 46.8195 361.465 47.7129 361.819 49.2256C362.172 50.7392 362.234 52.7153 362.098 55.051C361.824 59.7436 360.788 65.4787 360.056 71.2491C359.336 76.9243 358.913 82.6327 360.006 86.9486C360.558 89.1282 361.517 91.0377 363.096 92.3998C364.689 93.7733 366.808 94.5 369.5 94.5V92.5C367.182 92.5 365.56 91.8829 364.403 90.8853C363.233 89.8763 362.434 88.3873 361.945 86.4575C360.957 82.5547 361.317 77.2006 362.04 71.5007C362.751 65.8961 363.815 59.9437 364.094 55.1676C364.234 52.7689 364.186 50.5653 363.766 48.7703C363.346 46.9744 362.515 45.4303 360.966 44.615L360.034 46.3848ZM369.5 94.5C375.391 94.5 379.094 91.7821 381.686 87.9149C384.216 84.1387 385.731 79.1913 387.307 74.7031C388.919 70.1119 390.591 66.0059 393.369 63.4332C396.042 60.9579 399.893 59.7785 406.243 61.4664L406.757 59.5335C399.924 57.7172 395.309 58.9107 392.01 61.9658C388.816 64.9235 387.012 69.5056 385.419 74.0405C383.791 78.6784 382.374 83.295 380.024 86.8014C377.735 90.2167 374.609 92.5 369.5 92.5V94.5ZM406.243 61.4664C426.09 66.7423 442.308 67.8762 453.579 67.6873C459.215 67.5929 463.613 67.1677 466.61 66.7644C468.108 66.5628 469.257 66.3666 470.034 66.2199C470.423 66.1465 470.719 66.0856 470.92 66.0425C471.02 66.0209 471.096 66.0038 471.149 65.9919C471.175 65.986 471.195 65.9813 471.209 65.978C471.216 65.9763 471.222 65.975 471.226 65.9741C471.228 65.9736 471.23 65.9732 471.231 65.9729C471.231 65.9728 471.232 65.9726 471.232 65.9726C471.233 65.9724 471.233 65.9723 471 64.9999C470.767 64.0275 470.767 64.0275 470.767 64.0274C470.767 64.0275 470.767 64.0274 470.767 64.0275C470.767 64.0275 470.766 64.0277 470.765 64.0279C470.763 64.0284 470.759 64.0293 470.754 64.0305C470.744 64.0329 470.728 64.0366 470.705 64.0417C470.661 64.0519 470.592 64.0672 470.5 64.087C470.315 64.1267 470.035 64.1844 469.663 64.2546C468.919 64.395 467.806 64.5855 466.343 64.7823C463.418 65.1759 459.098 65.5945 453.546 65.6876C442.442 65.8737 426.41 64.7577 406.757 59.5335L406.243 61.4664ZM301 64.9999C300.629 65.9284 300.629 65.9286 300.63 65.9288C300.63 65.9289 300.63 65.9291 300.631 65.9292C300.632 65.9296 300.633 65.93 300.634 65.9304C300.636 65.9313 300.639 65.9325 300.642 65.9339C300.65 65.9366 300.659 65.9403 300.671 65.9449C300.695 65.9541 300.728 65.9668 300.772 65.9826C300.858 66.0143 300.983 66.0586 301.145 66.1127C301.469 66.2207 301.943 66.3675 302.558 66.5295C303.789 66.8534 305.587 67.238 307.89 67.4938C312.496 68.0057 319.116 68.0016 327.243 65.9701L326.757 64.0298C318.884 65.9983 312.504 65.9942 308.11 65.5061C305.913 65.2619 304.211 64.8965 303.067 64.5954C302.495 64.4448 302.062 64.3104 301.777 64.2153C301.635 64.1678 301.529 64.1301 301.461 64.1051C301.427 64.0927 301.402 64.0834 301.387 64.0776C301.38 64.0748 301.375 64.0728 301.372 64.0717C301.371 64.0712 301.37 64.0709 301.37 64.0709C301.37 64.0709 301.37 64.0709 301.37 64.071C301.37 64.071 301.371 64.0711 301.371 64.0712C301.371 64.0713 301.371 64.0715 301 64.9999ZM327.243 65.9701C335.554 63.8922 341.753 57.5381 346.881 52.5949C349.494 50.0767 351.79 47.9576 353.989 46.7517C356.127 45.5786 358.042 45.3364 360.034 46.3848L360.966 44.615C358.208 43.1633 355.56 43.6087 353.027 44.9981C350.554 46.3547 348.068 48.6731 345.494 51.1549C340.247 56.2118 334.446 62.1077 326.757 64.0298L327.243 65.9701Z" fill="black" fill-opacity="0.14"/>
<path d="M703.707 65.7071C704.098 65.3166 704.098 64.6834 703.707 64.2929L697.343 57.9289C696.953 57.5384 696.319 57.5384 695.929 57.9289C695.538 58.3195 695.538 58.9526 695.929 59.3431L701.586 65L695.929 70.6569C695.538 71.0474 695.538 71.6805 695.929 72.0711C696.319 72.4616 696.953 72.4616 697.343 72.0711L703.707 65.7071ZM533 66H703V64H533V66Z" fill="black" fill-opacity="0.14"/>
<path d="M5.83398 123.004C6.6543 123.004 7.30176 122.84 7.77637 122.512C8.25684 122.184 8.49707 121.592 8.49707 120.736C8.49707 119.816 8.16309 119.189 7.49512 118.855C7.1377 118.68 6.66016 118.592 6.0625 118.592H1.79102V123.004H5.83398ZM0.0419922 117.089H6.01855C7.00293 117.089 7.81445 117.232 8.45312 117.52C9.66602 118.07 10.2725 119.087 10.2725 120.569C10.2725 121.343 10.1113 121.976 9.78906 122.468C9.47266 122.96 9.02734 123.355 8.45312 123.654C8.95703 123.859 9.33496 124.129 9.58691 124.463C9.84473 124.797 9.98828 125.339 10.0176 126.089L10.0791 127.82C10.0967 128.312 10.1377 128.679 10.2021 128.919C10.3076 129.329 10.4951 129.593 10.7646 129.71V130H8.62012C8.56152 129.889 8.51465 129.745 8.47949 129.569C8.44434 129.394 8.41504 129.054 8.3916 128.55L8.28613 126.396C8.24512 125.553 7.93164 124.987 7.3457 124.7C7.01172 124.542 6.4873 124.463 5.77246 124.463H1.79102V130H0.0419922V117.089ZM16.5479 120.376C17.2158 120.376 17.8633 120.534 18.4902 120.851C19.1172 121.161 19.5947 121.565 19.9229 122.063C20.2393 122.538 20.4502 123.092 20.5557 123.725C20.6494 124.158 20.6963 124.85 20.6963 125.799H13.7969C13.8262 126.754 14.0518 127.521 14.4736 128.102C14.8955 128.676 15.5488 128.963 16.4336 128.963C17.2598 128.963 17.9189 128.69 18.4111 128.146C18.6924 127.829 18.8916 127.463 19.0088 127.047H20.5645C20.5234 127.393 20.3857 127.779 20.1514 128.207C19.9229 128.629 19.665 128.975 19.3779 129.244C18.8975 129.713 18.3027 130.029 17.5938 130.193C17.2129 130.287 16.7822 130.334 16.3018 130.334C15.1299 130.334 14.1367 129.909 13.3223 129.06C12.5078 128.204 12.1006 127.009 12.1006 125.474C12.1006 123.962 12.5107 122.734 13.3311 121.791C14.1514 120.848 15.2236 120.376 16.5479 120.376ZM19.0703 124.542C19.0059 123.856 18.8564 123.309 18.6221 122.898C18.1885 122.137 17.4648 121.756 16.4512 121.756C15.7246 121.756 15.1152 122.02 14.623 122.547C14.1309 123.068 13.8701 123.733 13.8408 124.542H19.0703ZM23.5879 127.047C23.6348 127.574 23.7666 127.979 23.9834 128.26C24.3818 128.77 25.0732 129.024 26.0576 129.024C26.6436 129.024 27.1592 128.898 27.6045 128.646C28.0498 128.389 28.2725 127.993 28.2725 127.46C28.2725 127.056 28.0938 126.748 27.7363 126.537C27.5078 126.408 27.0566 126.259 26.3828 126.089L25.126 125.772C24.3232 125.573 23.7314 125.351 23.3506 125.104C22.6709 124.677 22.3311 124.085 22.3311 123.329C22.3311 122.438 22.6504 121.718 23.2891 121.167C23.9336 120.616 24.7979 120.341 25.8818 120.341C27.2998 120.341 28.3223 120.757 28.9492 121.589C29.3418 122.116 29.5322 122.685 29.5205 123.294H28.0264C27.9971 122.937 27.8711 122.611 27.6484 122.318C27.2852 121.902 26.6553 121.694 25.7588 121.694C25.1611 121.694 24.707 121.809 24.3965 122.037C24.0918 122.266 23.9395 122.567 23.9395 122.942C23.9395 123.353 24.1416 123.681 24.5459 123.927C24.7803 124.073 25.126 124.202 25.583 124.313L26.6289 124.568C27.7656 124.844 28.5273 125.11 28.9141 125.368C29.5293 125.772 29.8369 126.408 29.8369 127.275C29.8369 128.113 29.5176 128.837 28.8789 129.446C28.2461 130.056 27.2793 130.36 25.9785 130.36C24.5781 130.36 23.585 130.044 22.999 129.411C22.4189 128.772 22.1084 127.984 22.0674 127.047H23.5879ZM35.5674 120.376C36.2354 120.376 36.8828 120.534 37.5098 120.851C38.1367 121.161 38.6143 121.565 38.9424 122.063C39.2588 122.538 39.4697 123.092 39.5752 123.725C39.6689 124.158 39.7158 124.85 39.7158 125.799H32.8164C32.8457 126.754 33.0713 127.521 33.4932 128.102C33.915 128.676 34.5684 128.963 35.4531 128.963C36.2793 128.963 36.9385 128.69 37.4307 128.146C37.7119 127.829 37.9111 127.463 38.0283 127.047H39.584C39.543 127.393 39.4053 127.779 39.1709 128.207C38.9424 128.629 38.6846 128.975 38.3975 129.244C37.917 129.713 37.3223 130.029 36.6133 130.193C36.2324 130.287 35.8018 130.334 35.3213 130.334C34.1494 130.334 33.1562 129.909 32.3418 129.06C31.5273 128.204 31.1201 127.009 31.1201 125.474C31.1201 123.962 31.5303 122.734 32.3506 121.791C33.1709 120.848 34.2432 120.376 35.5674 120.376ZM38.0898 124.542C38.0254 123.856 37.876 123.309 37.6416 122.898C37.208 122.137 36.4844 121.756 35.4707 121.756C34.7441 121.756 34.1348 122.02 33.6426 122.547C33.1504 123.068 32.8896 123.733 32.8604 124.542H38.0898ZM42.8799 127.495C42.8799 127.952 43.0469 128.312 43.3809 128.576C43.7148 128.84 44.1104 128.972 44.5674 128.972C45.124 128.972 45.6631 128.843 46.1846 128.585C47.0635 128.157 47.5029 127.457 47.5029 126.484V125.21C47.3096 125.333 47.0605 125.436 46.7559 125.518C46.4512 125.6 46.1523 125.658 45.8594 125.693L44.9014 125.816C44.3271 125.893 43.8965 126.013 43.6094 126.177C43.123 126.452 42.8799 126.892 42.8799 127.495ZM46.7119 124.296C47.0752 124.249 47.3184 124.097 47.4414 123.839C47.5117 123.698 47.5469 123.496 47.5469 123.232C47.5469 122.693 47.3535 122.304 46.9668 122.063C46.5859 121.817 46.0381 121.694 45.3232 121.694C44.4971 121.694 43.9111 121.917 43.5654 122.362C43.3721 122.608 43.2461 122.975 43.1875 123.461H41.7109C41.7402 122.301 42.1152 121.495 42.8359 121.044C43.5625 120.587 44.4033 120.358 45.3584 120.358C46.4658 120.358 47.3652 120.569 48.0566 120.991C48.7422 121.413 49.085 122.069 49.085 122.96V128.383C49.085 128.547 49.1172 128.679 49.1816 128.778C49.252 128.878 49.3955 128.928 49.6123 128.928C49.6826 128.928 49.7617 128.925 49.8496 128.919C49.9375 128.907 50.0312 128.893 50.1309 128.875V130.044C49.8848 130.114 49.6973 130.158 49.5684 130.176C49.4395 130.193 49.2637 130.202 49.041 130.202C48.4961 130.202 48.1006 130.009 47.8545 129.622C47.7256 129.417 47.6348 129.127 47.582 128.752C47.2598 129.174 46.7969 129.54 46.1934 129.851C45.5898 130.161 44.9248 130.316 44.1982 130.316C43.3252 130.316 42.6104 130.053 42.0537 129.525C41.5029 128.992 41.2275 128.327 41.2275 127.53C41.2275 126.657 41.5 125.98 42.0449 125.5C42.5898 125.02 43.3047 124.724 44.1895 124.612L46.7119 124.296ZM51.7305 120.587H53.2334V122.213C53.3564 121.896 53.6582 121.513 54.1387 121.062C54.6191 120.604 55.1729 120.376 55.7998 120.376C55.8291 120.376 55.8789 120.379 55.9492 120.385C56.0195 120.391 56.1396 120.402 56.3096 120.42V122.09C56.2158 122.072 56.1279 122.061 56.0459 122.055C55.9697 122.049 55.8848 122.046 55.791 122.046C54.9941 122.046 54.3818 122.304 53.9541 122.819C53.5264 123.329 53.3125 123.918 53.3125 124.586V130H51.7305V120.587ZM61.3105 120.314C62.3711 120.314 63.2324 120.572 63.8945 121.088C64.5625 121.604 64.9639 122.491 65.0986 123.751H63.5605C63.4668 123.171 63.2529 122.69 62.9189 122.31C62.585 121.923 62.0488 121.729 61.3105 121.729C60.3027 121.729 59.582 122.222 59.1484 123.206C58.8672 123.845 58.7266 124.633 58.7266 125.57C58.7266 126.514 58.9258 127.308 59.3242 127.952C59.7227 128.597 60.3496 128.919 61.2051 128.919C61.8613 128.919 62.3799 128.72 62.7607 128.321C63.1475 127.917 63.4141 127.366 63.5605 126.669H65.0986C64.9229 127.917 64.4834 128.831 63.7803 129.411C63.0771 129.985 62.1777 130.272 61.082 130.272C59.8516 130.272 58.8701 129.824 58.1377 128.928C57.4053 128.025 57.0391 126.9 57.0391 125.553C57.0391 123.9 57.4404 122.614 58.2432 121.694C59.0459 120.774 60.0684 120.314 61.3105 120.314ZM66.6807 117.045H68.2627V121.861C68.6377 121.387 68.9746 121.053 69.2734 120.859C69.7832 120.525 70.4189 120.358 71.1807 120.358C72.5459 120.358 73.4717 120.836 73.958 121.791C74.2217 122.312 74.3535 123.036 74.3535 123.962V130H72.7275V124.067C72.7275 123.376 72.6396 122.869 72.4639 122.547C72.1768 122.031 71.6377 121.773 70.8467 121.773C70.1904 121.773 69.5957 121.999 69.0625 122.45C68.5293 122.901 68.2627 123.754 68.2627 125.008V130H66.6807V117.045Z" fill="black"/>
<path d="M246.218 117.089H247.984V130H246.218V117.089ZM251.623 125.403C251.623 126.411 251.837 127.255 252.265 127.935C252.692 128.614 253.378 128.954 254.321 128.954C255.054 128.954 255.654 128.641 256.123 128.014C256.598 127.381 256.835 126.476 256.835 125.298C256.835 124.108 256.592 123.229 256.105 122.661C255.619 122.087 255.019 121.8 254.304 121.8C253.507 121.8 252.859 122.104 252.361 122.714C251.869 123.323 251.623 124.22 251.623 125.403ZM254.005 120.42C254.726 120.42 255.329 120.572 255.815 120.877C256.097 121.053 256.416 121.36 256.773 121.8V117.045H258.294V130H256.87V128.69C256.501 129.271 256.064 129.689 255.561 129.947C255.057 130.205 254.479 130.334 253.829 130.334C252.78 130.334 251.872 129.895 251.104 129.016C250.337 128.131 249.953 126.956 249.953 125.491C249.953 124.12 250.302 122.934 250.999 121.932C251.702 120.924 252.704 120.42 254.005 120.42ZM264.561 120.376C265.229 120.376 265.876 120.534 266.503 120.851C267.13 121.161 267.607 121.565 267.936 122.063C268.252 122.538 268.463 123.092 268.568 123.725C268.662 124.158 268.709 124.85 268.709 125.799H261.81C261.839 126.754 262.064 127.521 262.486 128.102C262.908 128.676 263.562 128.963 264.446 128.963C265.272 128.963 265.932 128.69 266.424 128.146C266.705 127.829 266.904 127.463 267.021 127.047H268.577C268.536 127.393 268.398 127.779 268.164 128.207C267.936 128.629 267.678 128.975 267.391 129.244C266.91 129.713 266.315 130.029 265.606 130.193C265.226 130.287 264.795 130.334 264.314 130.334C263.143 130.334 262.149 129.909 261.335 129.06C260.521 128.204 260.113 127.009 260.113 125.474C260.113 123.962 260.523 122.734 261.344 121.791C262.164 120.848 263.236 120.376 264.561 120.376ZM267.083 124.542C267.019 123.856 266.869 123.309 266.635 122.898C266.201 122.137 265.478 121.756 264.464 121.756C263.737 121.756 263.128 122.02 262.636 122.547C262.144 123.068 261.883 123.733 261.854 124.542H267.083ZM271.873 127.495C271.873 127.952 272.04 128.312 272.374 128.576C272.708 128.84 273.104 128.972 273.561 128.972C274.117 128.972 274.656 128.843 275.178 128.585C276.057 128.157 276.496 127.457 276.496 126.484V125.21C276.303 125.333 276.054 125.436 275.749 125.518C275.444 125.6 275.146 125.658 274.853 125.693L273.895 125.816C273.32 125.893 272.89 126.013 272.603 126.177C272.116 126.452 271.873 126.892 271.873 127.495ZM275.705 124.296C276.068 124.249 276.312 124.097 276.435 123.839C276.505 123.698 276.54 123.496 276.54 123.232C276.54 122.693 276.347 122.304 275.96 122.063C275.579 121.817 275.031 121.694 274.316 121.694C273.49 121.694 272.904 121.917 272.559 122.362C272.365 122.608 272.239 122.975 272.181 123.461H270.704C270.733 122.301 271.108 121.495 271.829 121.044C272.556 120.587 273.396 120.358 274.352 120.358C275.459 120.358 276.358 120.569 277.05 120.991C277.735 121.413 278.078 122.069 278.078 122.96V128.383C278.078 128.547 278.11 128.679 278.175 128.778C278.245 128.878 278.389 128.928 278.605 128.928C278.676 128.928 278.755 128.925 278.843 128.919C278.931 128.907 279.024 128.893 279.124 128.875V130.044C278.878 130.114 278.69 130.158 278.562 130.176C278.433 130.193 278.257 130.202 278.034 130.202C277.489 130.202 277.094 130.009 276.848 129.622C276.719 129.417 276.628 129.127 276.575 128.752C276.253 129.174 275.79 129.54 275.187 129.851C274.583 130.161 273.918 130.316 273.191 130.316C272.318 130.316 271.604 130.053 271.047 129.525C270.496 128.992 270.221 128.327 270.221 127.53C270.221 126.657 270.493 125.98 271.038 125.5C271.583 125.02 272.298 124.724 273.183 124.612L275.705 124.296ZM280.996 117.959H282.596V120.587H284.099V121.879H282.596V128.022C282.596 128.351 282.707 128.57 282.93 128.682C283.053 128.746 283.258 128.778 283.545 128.778C283.621 128.778 283.703 128.778 283.791 128.778C283.879 128.772 283.981 128.764 284.099 128.752V130C283.917 130.053 283.727 130.091 283.527 130.114C283.334 130.138 283.123 130.149 282.895 130.149C282.156 130.149 281.655 129.962 281.392 129.587C281.128 129.206 280.996 128.714 280.996 128.11V121.879H279.722V120.587H280.996V117.959ZM289.609 120.376C290.277 120.376 290.925 120.534 291.552 120.851C292.179 121.161 292.656 121.565 292.984 122.063C293.301 122.538 293.512 123.092 293.617 123.725C293.711 124.158 293.758 124.85 293.758 125.799H286.858C286.888 126.754 287.113 127.521 287.535 128.102C287.957 128.676 288.61 128.963 289.495 128.963C290.321 128.963 290.98 128.69 291.473 128.146C291.754 127.829 291.953 127.463 292.07 127.047H293.626C293.585 127.393 293.447 127.779 293.213 128.207C292.984 128.629 292.727 128.975 292.439 129.244C291.959 129.713 291.364 130.029 290.655 130.193C290.274 130.287 289.844 130.334 289.363 130.334C288.191 130.334 287.198 129.909 286.384 129.06C285.569 128.204 285.162 127.009 285.162 125.474C285.162 123.962 285.572 122.734 286.393 121.791C287.213 120.848 288.285 120.376 289.609 120.376ZM292.132 124.542C292.067 123.856 291.918 123.309 291.684 122.898C291.25 122.137 290.526 121.756 289.513 121.756C288.786 121.756 288.177 122.02 287.685 122.547C287.192 123.068 286.932 123.733 286.902 124.542H292.132Z" fill="black"/>
<path d="M479.791 128.506C480.383 128.506 480.869 128.444 481.25 128.321C481.93 128.093 482.486 127.653 482.92 127.003C483.266 126.481 483.515 125.813 483.667 124.999C483.755 124.513 483.799 124.062 483.799 123.646C483.799 122.046 483.479 120.804 482.841 119.919C482.208 119.034 481.186 118.592 479.773 118.592H476.671V128.506H479.791ZM474.913 117.089H480.143C481.918 117.089 483.295 117.719 484.273 118.979C485.146 120.115 485.583 121.571 485.583 123.347C485.583 124.718 485.325 125.957 484.81 127.064C483.901 129.021 482.34 130 480.125 130H474.913V117.089ZM491.551 120.376C492.219 120.376 492.866 120.534 493.493 120.851C494.12 121.161 494.598 121.565 494.926 122.063C495.242 122.538 495.453 123.092 495.559 123.725C495.652 124.158 495.699 124.85 495.699 125.799H488.8C488.829 126.754 489.055 127.521 489.477 128.102C489.898 128.676 490.552 128.963 491.437 128.963C492.263 128.963 492.922 128.69 493.414 128.146C493.695 127.829 493.895 127.463 494.012 127.047H495.567C495.526 127.393 495.389 127.779 495.154 128.207C494.926 128.629 494.668 128.975 494.381 129.244C493.9 129.713 493.306 130.029 492.597 130.193C492.216 130.287 491.785 130.334 491.305 130.334C490.133 130.334 489.14 129.909 488.325 129.06C487.511 128.204 487.104 127.009 487.104 125.474C487.104 123.962 487.514 122.734 488.334 121.791C489.154 120.848 490.227 120.376 491.551 120.376ZM494.073 124.542C494.009 123.856 493.859 123.309 493.625 122.898C493.191 122.137 492.468 121.756 491.454 121.756C490.728 121.756 490.118 122.02 489.626 122.547C489.134 123.068 488.873 123.733 488.844 124.542H494.073ZM498.591 127.047C498.638 127.574 498.77 127.979 498.986 128.26C499.385 128.77 500.076 129.024 501.061 129.024C501.646 129.024 502.162 128.898 502.607 128.646C503.053 128.389 503.275 127.993 503.275 127.46C503.275 127.056 503.097 126.748 502.739 126.537C502.511 126.408 502.06 126.259 501.386 126.089L500.129 125.772C499.326 125.573 498.734 125.351 498.354 125.104C497.674 124.677 497.334 124.085 497.334 123.329C497.334 122.438 497.653 121.718 498.292 121.167C498.937 120.616 499.801 120.341 500.885 120.341C502.303 120.341 503.325 120.757 503.952 121.589C504.345 122.116 504.535 122.685 504.523 123.294H503.029C503 122.937 502.874 122.611 502.651 122.318C502.288 121.902 501.658 121.694 500.762 121.694C500.164 121.694 499.71 121.809 499.399 122.037C499.095 122.266 498.942 122.567 498.942 122.942C498.942 123.353 499.145 123.681 499.549 123.927C499.783 124.073 500.129 124.202 500.586 124.313L501.632 124.568C502.769 124.844 503.53 125.11 503.917 125.368C504.532 125.772 504.84 126.408 504.84 127.275C504.84 128.113 504.521 128.837 503.882 129.446C503.249 130.056 502.282 130.36 500.981 130.36C499.581 130.36 498.588 130.044 498.002 129.411C497.422 128.772 497.111 127.984 497.07 127.047H498.591ZM506.65 120.631H508.259V130H506.65V120.631ZM506.65 117.089H508.259V118.882H506.65V117.089ZM513.98 120.42C514.719 120.42 515.363 120.602 515.914 120.965C516.213 121.17 516.518 121.469 516.828 121.861V120.675H518.287V129.235C518.287 130.431 518.111 131.374 517.76 132.065C517.104 133.343 515.864 133.981 514.042 133.981C513.028 133.981 512.176 133.753 511.484 133.296C510.793 132.845 510.406 132.136 510.324 131.169H511.933C512.009 131.591 512.161 131.916 512.39 132.145C512.747 132.496 513.31 132.672 514.077 132.672C515.29 132.672 516.084 132.244 516.459 131.389C516.682 130.885 516.784 129.985 516.767 128.69C516.45 129.171 516.069 129.528 515.624 129.763C515.179 129.997 514.59 130.114 513.857 130.114C512.838 130.114 511.944 129.754 511.177 129.033C510.415 128.307 510.034 127.108 510.034 125.438C510.034 123.862 510.418 122.632 511.186 121.747C511.959 120.862 512.891 120.42 513.98 120.42ZM516.828 125.254C516.828 124.088 516.588 123.224 516.107 122.661C515.627 122.099 515.015 121.817 514.271 121.817C513.157 121.817 512.396 122.339 511.985 123.382C511.769 123.938 511.66 124.668 511.66 125.57C511.66 126.631 511.874 127.439 512.302 127.996C512.735 128.547 513.315 128.822 514.042 128.822C515.179 128.822 515.979 128.31 516.441 127.284C516.699 126.704 516.828 126.027 516.828 125.254ZM520.678 120.587H522.181V121.923C522.626 121.372 523.098 120.977 523.596 120.736C524.094 120.496 524.647 120.376 525.257 120.376C526.593 120.376 527.495 120.842 527.964 121.773C528.222 122.283 528.351 123.013 528.351 123.962V130H526.742V124.067C526.742 123.493 526.657 123.03 526.487 122.679C526.206 122.093 525.696 121.8 524.958 121.8C524.583 121.8 524.275 121.838 524.035 121.914C523.602 122.043 523.221 122.301 522.893 122.688C522.629 122.998 522.456 123.32 522.374 123.654C522.298 123.982 522.26 124.454 522.26 125.069V130H520.678V120.587Z" fill="black"/>
<path d="M727.252 117.089V118.627H722.901V130H721.126V118.627H716.775V117.089H727.252ZM730.565 120.376C731.233 120.376 731.881 120.534 732.508 120.851C733.135 121.161 733.612 121.565 733.94 122.063C734.257 122.538 734.468 123.092 734.573 123.725C734.667 124.158 734.714 124.85 734.714 125.799H727.814C727.844 126.754 728.069 127.521 728.491 128.102C728.913 128.676 729.566 128.963 730.451 128.963C731.277 128.963 731.937 128.69 732.429 128.146C732.71 127.829 732.909 127.463 733.026 127.047H734.582C734.541 127.393 734.403 127.779 734.169 128.207C733.94 128.629 733.683 128.975 733.396 129.244C732.915 129.713 732.32 130.029 731.611 130.193C731.23 130.287 730.8 130.334 730.319 130.334C729.147 130.334 728.154 129.909 727.34 129.06C726.525 128.204 726.118 127.009 726.118 125.474C726.118 123.962 726.528 122.734 727.349 121.791C728.169 120.848 729.241 120.376 730.565 120.376ZM733.088 124.542C733.023 123.856 732.874 123.309 732.64 122.898C732.206 122.137 731.482 121.756 730.469 121.756C729.742 121.756 729.133 122.02 728.641 122.547C728.148 123.068 727.888 123.733 727.858 124.542H733.088ZM737.605 127.047C737.652 127.574 737.784 127.979 738.001 128.26C738.399 128.77 739.091 129.024 740.075 129.024C740.661 129.024 741.177 128.898 741.622 128.646C742.067 128.389 742.29 127.993 742.29 127.46C742.29 127.056 742.111 126.748 741.754 126.537C741.525 126.408 741.074 126.259 740.4 126.089L739.144 125.772C738.341 125.573 737.749 125.351 737.368 125.104C736.688 124.677 736.349 124.085 736.349 123.329C736.349 122.438 736.668 121.718 737.307 121.167C737.951 120.616 738.815 120.341 739.899 120.341C741.317 120.341 742.34 120.757 742.967 121.589C743.359 122.116 743.55 122.685 743.538 123.294H742.044C742.015 122.937 741.889 122.611 741.666 122.318C741.303 121.902 740.673 121.694 739.776 121.694C739.179 121.694 738.725 121.809 738.414 122.037C738.109 122.266 737.957 122.567 737.957 122.942C737.957 123.353 738.159 123.681 738.563 123.927C738.798 124.073 739.144 124.202 739.601 124.313L740.646 124.568C741.783 124.844 742.545 125.11 742.932 125.368C743.547 125.772 743.854 126.408 743.854 127.275C743.854 128.113 743.535 128.837 742.896 129.446C742.264 130.056 741.297 130.36 739.996 130.36C738.596 130.36 737.603 130.044 737.017 129.411C736.437 128.772 736.126 127.984 736.085 127.047H737.605ZM745.981 117.959H747.581V120.587H749.084V121.879H747.581V128.022C747.581 128.351 747.692 128.57 747.915 128.682C748.038 128.746 748.243 128.778 748.53 128.778C748.606 128.778 748.688 128.778 748.776 128.778C748.864 128.772 748.967 128.764 749.084 128.752V130C748.902 130.053 748.712 130.091 748.513 130.114C748.319 130.138 748.108 130.149 747.88 130.149C747.142 130.149 746.641 129.962 746.377 129.587C746.113 129.206 745.981 128.714 745.981 128.11V121.879H744.707V120.587H745.981V117.959Z" fill="black"/>
<path d="M734 1H735V0H734V1ZM269 1V0H268V1H269ZM268.293 36.9071C268.683 37.2976 269.317 37.2976 269.707 36.9071L276.071 30.5431C276.462 30.1526 276.462 29.5195 276.071 29.1289C275.681 28.7384 275.047 28.7384 274.657 29.1289L269 34.7858L263.343 29.1289C262.953 28.7384 262.319 28.7384 261.929 29.1289C261.538 29.5195 261.538 30.1526 261.929 30.5431L268.293 36.9071ZM735 36.2C735 36.1899 735 36.1798 735 36.1696C735 36.1594 735 36.1492 735 36.1389C735 36.1287 735 36.1183 735 36.108C735 36.0976 735 36.0872 735 36.0767C735 36.0663 735 36.0558 735 36.0452C735 36.0347 735 36.0241 735 36.0134C735 36.0028 735 35.9921 735 35.9814C735 35.9706 735 35.9598 735 35.949C735 35.9382 735 35.9273 735 35.9164C735 35.9055 735 35.8945 735 35.8835C735 35.8725 735 35.8614 735 35.8503C735 35.8392 735 35.8281 735 35.8169C735 35.8057 735 35.7944 735 35.7831C735 35.7718 735 35.7605 735 35.7491C735 35.7378 735 35.7263 735 35.7149C735 35.7034 735 35.6919 735 35.6803C735 35.6688 735 35.6572 735 35.6455C735 35.6339 735 35.6222 735 35.6104C735 35.5987 735 35.5869 735 35.5751C735 35.5633 735 35.5514 735 35.5395C735 35.5275 735 35.5156 735 35.5036C735 35.4916 735 35.4795 735 35.4674C735 35.4553 735 35.4432 735 35.431C735 35.4188 735 35.4066 735 35.3943C735 35.382 735 35.3697 735 35.3574C735 35.345 735 35.3326 735 35.3202C735 35.3077 735 35.2952 735 35.2827C735 35.2702 735 35.2576 735 35.245C735 35.2323 735 35.2197 735 35.207C735 35.1942 735 35.1815 735 35.1687C735 35.1559 735 35.1431 735 35.1302C735 35.1173 735 35.1044 735 35.0914C735 35.0784 735 35.0654 735 35.0524C735 35.0393 735 35.0262 735 35.0131C735 34.9999 735 34.9868 735 34.9735C735 34.9603 735 34.947 735 34.9337C735 34.9204 735 34.9071 735 34.8937C735 34.8803 735 34.8668 735 34.8534C735 34.8399 735 34.8264 735 34.8128C735 34.7992 735 34.7856 735 34.772C735 34.7583 735 34.7446 735 34.7309C735 34.7172 735 34.7034 735 34.6896C735 34.6758 735 34.6619 735 34.648C735 34.6341 735 34.6202 735 34.6062C735 34.5922 735 34.5782 735 34.5641C735 34.5501 735 34.536 735 34.5218C735 34.5077 735 34.4935 735 34.4792C735 34.465 735 34.4507 735 34.4364C735 34.4221 735 34.4078 735 34.3934C735 34.379 735 34.3646 735 34.3501C735 34.3356 735 34.3211 735 34.3065C735 34.292 735 34.2774 735 34.2627C735 34.2481 735 34.2334 735 34.2187C735 34.204 735 34.1892 735 34.1744C735 34.1596 735 34.1448 735 34.1299C735 34.115 735 34.1001 735 34.0852C735 34.0702 735 34.0552 735 34.0402C735 34.0251 735 34.0101 735 33.9949C735 33.9798 735 33.9647 735 33.9495C735 33.9343 735 33.919 735 33.9038C735 33.8885 735 33.8732 735 33.8578C735 33.8425 735 33.8271 735 33.8116C735 33.7962 735 33.7807 735 33.7652C735 33.7497 735 33.7342 735 33.7186C735 33.703 735 33.6874 735 33.6717C735 33.656 735 33.6403 735 33.6246C735 33.6088 735 33.5931 735 33.5772C735 33.5614 735 33.5456 735 33.5297C735 33.5138 735 33.4978 735 33.4819C735 33.4659 735 33.4499 735 33.4338C735 33.4178 735 33.4017 735 33.3856C735 33.3694 735 33.3533 735 33.3371C735 33.3209 735 33.3046 735 33.2884C735 33.2721 735 33.2558 735 33.2394C735 33.2231 735 33.2067 735 33.1902C735 33.1738 735 33.1573 735 33.1408C735 33.1243 735 33.1078 735 33.0912C735 33.0747 735 33.058 735 33.0414C735 33.0247 735 33.008 735 32.9913C735 32.9746 735 32.9578 735 32.941C735 32.9242 735 32.9074 735 32.8905C735 32.8737 735 32.8567 735 32.8398C735 32.8229 735 32.8059 735 32.7889C735 32.7718 735 32.7548 735 32.7377C735 32.7206 735 32.7035 735 32.6863C735 32.6691 735 32.6519 735 32.6347C735 32.6175 735 32.6002 735 32.5829C735 32.5656 735 32.5482 735 32.5309C735 32.5135 735 32.4961 735 32.4786C735 32.4612 735 32.4437 735 32.4262C735 32.4086 735 32.3911 735 32.3735C735 32.3559 735 32.3383 735 32.3206C735 32.3029 735 32.2852 735 32.2675C735 32.2498 735 32.232 735 32.2142C735 32.1964 735 32.1786 735 32.1607C735 32.1428 735 32.1249 735 32.107C735 32.089 735 32.071 735 32.053C735 32.035 735 32.017 735 31.9989C735 31.9808 735 31.9627 735 31.9445C735 31.9264 735 31.9082 735 31.89C735 31.8718 735 31.8535 735 31.8352C735 31.8169 735 31.7986 735 31.7803C735 31.7619 735 31.7435 735 31.7251C735 31.7067 735 31.6882 735 31.6697C735 31.6512 735 31.6327 735 31.6142C735 31.5956 735 31.577 735 31.5584C735 31.5398 735 31.5211 735 31.5024C735 31.4837 735 31.465 735 31.4462C735 31.4275 735 31.4087 735 31.3899C735 31.371 735 31.3522 735 31.3333C735 31.3144 735 31.2955 735 31.2765C735 31.2576 735 31.2386 735 31.2196C735 31.2005 735 31.1815 735 31.1624C735 31.1433 735 31.1242 735 31.105C735 31.0859 735 31.0667 735 31.0475C735 31.0283 735 31.009 735 30.9898C735 30.9705 735 30.9512 735 30.9318C735 30.9125 735 30.8931 735 30.8737C735 30.8543 735 30.8348 735 30.8154C735 30.7959 735 30.7764 735 30.7569C735 30.7373 735 30.7178 735 30.6982C735 30.6786 735 30.6589 735 30.6393C735 30.6196 735 30.5999 735 30.5802C735 30.5605 735 30.5407 735 30.5209C735 30.5011 735 30.4813 735 30.4615C735 30.4416 735 30.4217 735 30.4018C735 30.3819 735 30.362 735 30.342C735 30.322 735 30.302 735 30.282C735 30.262 735 30.2419 735 30.2218C735 30.2017 735 30.1816 735 30.1614C735 30.1413 735 30.1211 735 30.1009C735 30.0807 735 30.0604 735 30.0401C735 30.0199 735 29.9996 735 29.9792C735 29.9589 735 29.9385 735 29.9181C735 29.8977 735 29.8773 735 29.8569C735 29.8364 735 29.8159 735 29.7954C735 29.7749 735 29.7543 735 29.7338C735 29.7132 735 29.6926 735 29.672C735 29.6513 735 29.6307 735 29.61C735 29.5893 735 29.5686 735 29.5478C735 29.5271 735 29.5063 735 29.4855C735 29.4647 735 29.4438 735 29.423C735 29.4021 735 29.3812 735 29.3603C735 29.3394 735 29.3184 735 29.2975C735 29.2765 735 29.2555 735 29.2344C735 29.2134 735 29.1923 735 29.1712C735 29.1502 735 29.129 735 29.1079C735 29.0867 735 29.0656 735 29.0444C735 29.0231 735 29.0019 735 28.9807C735 28.9594 735 28.9381 735 28.9168C735 28.8955 735 28.8741 735 28.8528C735 28.8314 735 28.81 735 28.7886C735 28.7671 735 28.7457 735 28.7242C735 28.7027 735 28.6812 735 28.6597C735 28.6381 735 28.6166 735 28.595C735 28.5734 735 28.5518 735 28.5301C735 28.5085 735 28.4868 735 28.4651C735 28.4434 735 28.4217 735 28.3999C735 28.3782 735 28.3564 735 28.3346C735 28.3128 735 28.291 735 28.2691C735 28.2473 735 28.2254 735 28.2035C735 28.1816 735 28.1596 735 28.1377C735 28.1157 735 28.0937 735 28.0717C735 28.0497 735 28.0276 735 28.0056C735 27.9835 735 27.9614 735 27.9393C735 27.9172 735 27.895 735 27.8728C735 27.8507 735 27.8285 735 27.8063C735 27.784 735 27.7618 735 27.7395C735 27.7172 735 27.6949 735 27.6726C735 27.6503 735 27.6279 735 27.6056C735 27.5832 735 27.5608 735 27.5384C735 27.516 735 27.4935 735 27.471C735 27.4486 735 27.4261 735 27.4035C735 27.381 735 27.3585 735 27.3359C735 27.3133 735 27.2907 735 27.2681C735 27.2455 735 27.2228 735 27.2002C735 27.1775 735 27.1548 735 27.1321C735 27.1093 735 27.0866 735 27.0638C735 27.0411 735 27.0183 735 26.9955C735 26.9726 735 26.9498 735 26.9269C735 26.9041 735 26.8812 735 26.8583C735 26.8354 735 26.8124 735 26.7895C735 26.7665 735 26.7435 735 26.7205C735 26.6975 735 26.6745 735 26.6514C735 26.6284 735 26.6053 735 26.5822C735 26.5591 735 26.536 735 26.5128C735 26.4897 735 26.4665 735 26.4433C735 26.4201 735 26.3969 735 26.3737C735 26.3504 735 26.3272 735 26.3039C735 26.2806 735 26.2573 735 26.234C735 26.2107 735 26.1873 735 26.1639C735 26.1406 735 26.1172 735 26.0938C735 26.0703 735 26.0469 735 26.0234C735 26 735 25.9765 735 25.953C735 25.9295 735 25.9059 735 25.8824C735 25.8588 735 25.8353 735 25.8117C735 25.7881 735 25.7645 735 25.7408C735 25.7172 735 25.6935 735 25.6698C735 25.6462 735 25.6225 735 25.5987C735 25.575 735 25.5513 735 25.5275C735 25.5037 735 25.4799 735 25.4561C735 25.4323 735 25.4085 735 25.3846C735 25.3608 735 25.3369 735 25.313C735 25.2891 735 25.2652 735 25.2413C735 25.2174 735 25.1934 735 25.1694C735 25.1454 735 25.1215 735 25.0974C735 25.0734 735 25.0494 735 25.0253C735 25.0013 735 24.9772 735 24.9531C735 24.929 735 24.9049 735 24.8807C735 24.8566 735 24.8324 735 24.8083C735 24.7841 735 24.7599 735 24.7357C735 24.7114 735 24.6872 735 24.6629C735 24.6387 735 24.6144 735 24.5901C735 24.5658 735 24.5415 735 24.5172C735 24.4928 735 24.4685 735 24.4441C735 24.4197 735 24.3953 735 24.3709C735 24.3465 735 24.3221 735 24.2976C735 24.2732 735 24.2487 735 24.2242C735 24.1997 735 24.1752 735 24.1507C735 24.1261 735 24.1016 735 24.077C735 24.0525 735 24.0279 735 24.0033C735 23.9787 735 23.954 735 23.9294C735 23.9048 735 23.8801 735 23.8554C735 23.8308 735 23.8061 735 23.7813C735 23.7566 735 23.7319 735 23.7072C735 23.6824 735 23.6576 735 23.6328C735 23.6081 735 23.5833 735 23.5584C735 23.5336 735 23.5088 735 23.4839C735 23.4591 735 23.4342 735 23.4093C735 23.3844 735 23.3595 735 23.3346C735 23.3096 735 23.2847 735 23.2597C735 23.2348 735 23.2098 735 23.1848C735 23.1598 735 23.1348 735 23.1098C735 23.0847 735 23.0597 735 23.0346C735 23.0096 735 22.9845 735 22.9594C735 22.9343 735 22.9092 735 22.8841C735 22.8589 735 22.8338 735 22.8086C735 22.7834 735 22.7583 735 22.7331C735 22.7079 735 22.6827 735 22.6574C735 22.6322 735 22.607 735 22.5817C735 22.5564 735 22.5312 735 22.5059C735 22.4806 735 22.4553 735 22.4299C735 22.4046 735 22.3793 735 22.3539C735 22.3286 735 22.3032 735 22.2778C735 22.2524 735 22.227 735 22.2016C735 22.1762 735 22.1507 735 22.1253C735 22.0998 735 22.0744 735 22.0489C735 22.0234 735 21.9979 735 21.9724C735 21.9469 735 21.9214 735 21.8958C735 21.8703 735 21.8447 735 21.8192C735 21.7936 735 21.768 735 21.7424C735 21.7168 735 21.6912 735 21.6656C735 21.6399 735 21.6143 735 21.5886C735 21.563 735 21.5373 735 21.5116C735 21.4859 735 21.4602 735 21.4345C735 21.4088 735 21.3831 735 21.3573C735 21.3316 735 21.3058 735 21.2801C735 21.2543 735 21.2285 735 21.2027C735 21.1769 735 21.1511 735 21.1253C735 21.0994 735 21.0736 735 21.0478C735 21.0219 735 20.996 735 20.9702C735 20.9443 735 20.9184 735 20.8925C735 20.8666 735 20.8406 735 20.8147C735 20.7888 735 20.7628 735 20.7369C735 20.7109 735 20.6849 735 20.659C735 20.633 735 20.607 735 20.581C735 20.555 735 20.5289 735 20.5029C735 20.4769 735 20.4508 735 20.4247C735 20.3987 735 20.3726 735 20.3465C735 20.3204 735 20.2943 735 20.2682C735 20.2421 735 20.216 735 20.1899C735 20.1637 735 20.1376 735 20.1114C735 20.0853 735 20.0591 735 20.0329C735 20.0067 735 19.9805 735 19.9543C735 19.9281 735 19.9019 735 19.8757C735 19.8494 735 19.8232 735 19.797C735 19.7707 735 19.7444 735 19.7182C735 19.6919 735 19.6656 735 19.6393C735 19.613 735 19.5867 735 19.5604C735 19.5341 735 19.5077 735 19.4814C735 19.455 735 19.4287 735 19.4023C735 19.376 735 19.3496 735 19.3232C735 19.2968 735 19.2704 735 19.244C735 19.2176 735 19.1912 735 19.1648C735 19.1383 735 19.1119 735 19.0855C735 19.059 735 19.0326 735 19.0061C735 18.9796 735 18.9531 735 18.9267C735 18.9002 735 18.8737 735 18.8472C735 18.8206 735 18.7941 735 18.7676C735 18.7411 735 18.7145 735 18.688C735 18.6614 735 18.6349 735 18.6083C735 18.5818 735 18.5552 735 18.5286C735 18.502 735 18.4754 735 18.4488C735 18.4222 735 18.3956 735 18.369C735 18.3423 735 18.3157 735 18.2891C735 18.2624 735 18.2358 735 18.2091C735 18.1825 735 18.1558 735 18.1291C735 18.1025 735 18.0758 735 18.0491C735 18.0224 735 17.9957 735 17.969C735 17.9423 735 17.9155 735 17.8888C735 17.8621 735 17.8354 735 17.8086C735 17.7819 735 17.7551 735 17.7284C735 17.7016 735 17.6748 735 17.6481C735 17.6213 735 17.5945 735 17.5677C735 17.5409 735 17.5141 735 17.4873C735 17.4605 735 17.4337 735 17.4069C735 17.38 735 17.3532 735 17.3264C735 17.2995 735 17.2727 735 17.2458C735 17.219 735 17.1921 735 17.1653C735 17.1384 735 17.1115 735 17.0846C735 17.0578 735 17.0309 735 17.004C735 16.9771 735 16.9502 735 16.9233C735 16.8964 735 16.8695 735 16.8425C735 16.8156 735 16.7887 735 16.7618C735 16.7348 735 16.7079 735 16.6809C735 16.654 735 16.627 735 16.6001C735 16.5731 735 16.5461 735 16.5192C735 16.4922 735 16.4652 735 16.4382C735 16.4112 735 16.3843 735 16.3573C735 16.3303 735 16.3033 735 16.2763C735 16.2492 735 16.2222 735 16.1952C735 16.1682 735 16.1412 735 16.1141C735 16.0871 735 16.0601 735 16.033C735 16.006 735 15.9789 735 15.9519C735 15.9248 735 15.8978 735 15.8707C735 15.8436 735 15.8166 735 15.7895C735 15.7624 735 15.7354 735 15.7083C735 15.6812 735 15.6541 735 15.627C735 15.5999 735 15.5728 735 15.5457C735 15.5186 735 15.4915 735 15.4644C735 15.4373 735 15.4102 735 15.3831C735 15.3559 735 15.3288 735 15.3017C735 15.2746 735 15.2474 735 15.2203C735 15.1932 735 15.166 735 15.1389C735 15.1117 735 15.0846 735 15.0574C735 15.0303 735 15.0031 735 14.976C735 14.9488 735 14.9217 735 14.8945C735 14.8673 735 14.8401 735 14.813C735 14.7858 735 14.7586 735 14.7314C735 14.7043 735 14.6771 735 14.6499C735 14.6227 735 14.5955 735 14.5683C735 14.5411 735 14.5139 735 14.4867C735 14.4595 735 14.4323 735 14.4051C735 14.3779 735 14.3507 735 14.3235C735 14.2963 735 14.2691 735 14.2419C735 14.2147 735 14.1875 735 14.1602C735 14.133 735 14.1058 735 14.0786C735 14.0513 735 14.0241 735 13.9969C735 13.9697 735 13.9424 735 13.9152C735 13.888 735 13.8607 735 13.8335C735 13.8063 735 13.779 735 13.7518C735 13.7245 735 13.6973 735 13.6701C735 13.6428 735 13.6156 735 13.5883C735 13.5611 735 13.5338 735 13.5066C735 13.4793 735 13.4521 735 13.4248C735 13.3976 735 13.3703 735 13.3431C735 13.3158 735 13.2886 735 13.2613C735 13.234 735 13.2068 735 13.1795C735 13.1523 735 13.125 735 13.0977C735 13.0705 735 13.0432 735 13.016C735 12.9887 735 12.9614 735 12.9342C735 12.9069 735 12.8797 735 12.8524C735 12.8251 735 12.7979 735 12.7706C735 12.7433 735 12.7161 735 12.6888C735 12.6616 735 12.6343 735 12.607C735 12.5798 735 12.5525 735 12.5252C735 12.498 735 12.4707 735 12.4435C735 12.4162 735 12.3889 735 12.3617C735 12.3344 735 12.3071 735 12.2799C735 12.2526 735 12.2254 735 12.1981C735 12.1708 735 12.1436 735 12.1163C735 12.0891 735 12.0618 735 12.0346C735 12.0073 735 11.98 735 11.9528C735 11.9255 735 11.8983 735 11.871C735 11.8438 735 11.8165 735 11.7893C735 11.762 735 11.7348 735 11.7075C735 11.6803 735 11.6531 735 11.6258C735 11.5986 735 11.5713 735 11.5441C735 11.5169 735 11.4896 735 11.4624C735 11.4351 735 11.4079 735 11.3807C735 11.3534 735 11.3262 735 11.299C735 11.2718 735 11.2445 735 11.2173C735 11.1901 735 11.1629 735 11.1356C735 11.1084 735 11.0812 735 11.054C735 11.0268 735 10.9996 735 10.9724C735 10.9452 735 10.918 735 10.8908C735 10.8635 735 10.8363 735 10.8092C735 10.782 735 10.7548 735 10.7276C735 10.7004 735 10.6732 735 10.646C735 10.6188 735 10.5916 735 10.5645C735 10.5373 735 10.5101 735 10.4829C735 10.4558 735 10.4286 735 10.4014C735 10.3743 735 10.3471 735 10.3199C735 10.2928 735 10.2656 735 10.2385C735 10.2113 735 10.1842 735 10.157C735 10.1299 735 10.1028 735 10.0756C735 10.0485 735 10.0214 735 9.99424C735 9.96712 735 9.93999 735 9.91288C735 9.88576 735 9.85865 735 9.83154C735 9.80443 735 9.77733 735 9.75023C735 9.72313 735 9.69603 735 9.66894C735 9.64185 735 9.61477 735 9.58769C735 9.56061 735 9.53353 735 9.50646C735 9.47939 735 9.45233 735 9.42527C735 9.39821 735 9.37115 735 9.3441C735 9.31705 735 9.29001 735 9.26297C735 9.23593 735 9.20889 735 9.18187C735 9.15484 735 9.12781 735 9.1008C735 9.07378 735 9.04677 735 9.01976C735 8.99276 735 8.96576 735 8.93876C735 8.91177 735 8.88478 735 8.8578C735 8.83081 735 8.80384 735 8.77687C735 8.7499 735 8.72293 735 8.69598C735 8.66902 735 8.64207 735 8.61512C735 8.58818 735 8.56124 735 8.53431C735 8.50738 735 8.48045 735 8.45353C735 8.42661 735 8.3997 735 8.3728C735 8.34589 735 8.31899 735 8.2921C735 8.26521 735 8.23832 735 8.21145C735 8.18457 735 8.1577 735 8.13084C735 8.10397 735 8.07712 735 8.05027C735 8.02342 735 7.99658 735 7.96974C735 7.94291 735 7.91608 735 7.88926C735 7.86244 735 7.83563 735 7.80883C735 7.78203 735 7.75523 735 7.72844C735 7.70165 735 7.67487 735 7.6481C735 7.62133 735 7.59457 735 7.56781C735 7.54105 735 7.5143 735 7.48756C735 7.46083 735 7.43409 735 7.40737C735 7.38065 735 7.35393 735 7.32723C735 7.30052 735 7.27382 735 7.24713C735 7.22044 735 7.19376 735 7.16709C735 7.14042 735 7.11375 735 7.0871C735 7.06045 735 7.0338 735 7.00716C735 6.98053 735 6.9539 735 6.92728C735 6.90066 735 6.87405 735 6.84745C735 6.82085 735 6.79426 735 6.76768C735 6.7411 735 6.71453 735 6.68797C735 6.6614 735 6.63485 735 6.60831C735 6.58177 735 6.55523 735 6.52871C735 6.50218 735 6.47567 735 6.44917C735 6.42266 735 6.39617 735 6.36968C735 6.3432 735 6.31673 735 6.29026C735 6.2638 735 6.23734 735 6.2109C735 6.18446 735 6.15803 735 6.1316C735 6.10518 735 6.07877 735 6.05237C735 6.02596 735 5.99957 735 5.97319C735 5.94681 735 5.92044 735 5.89408C735 5.86772 735 5.84138 735 5.81504C735 5.7887 735 5.76238 735 5.73606C735 5.70975 735 5.68344 735 5.65715C735 5.63086 735 5.60457 735 5.5783C735 5.55203 735 5.52577 735 5.49953C735 5.47328 735 5.44704 735 5.42082C735 5.39459 735 5.36838 735 5.34218C735 5.31598 735 5.28979 735 5.26361C735 5.23743 735 5.21127 735 5.18511C735 5.15896 735 5.13282 735 5.10669C735 5.08056 735 5.05444 735 5.02834C735 5.00223 735 4.97614 735 4.95006C735 4.92398 735 4.89791 735 4.87185C735 4.8458 735 4.81975 735 4.79372C735 4.76769 735 4.74167 735 4.71567C735 4.68966 735 4.66367 735 4.63769C735 4.61171 735 4.58574 735 4.55979C735 4.53384 735 4.5079 735 4.48197C735 4.45604 735 4.43013 735 4.40423C735 4.37832 735 4.35244 735 4.32656C735 4.30069 735 4.27483 735 4.24898C735 4.22313 735 4.1973 735 4.17148C735 4.14566 735 4.11985 735 4.09406C735 4.06826 735 4.04248 735 4.01672C735 3.99095 735 3.9652 735 3.93947C735 3.91373 735 3.88801 735 3.8623C735 3.83659 735 3.81089 735 3.78521C735 3.75953 735 3.73387 735 3.70821C735 3.68256 735 3.65692 735 3.6313C735 3.60568 735 3.58007 735 3.55448C735 3.52888 735 3.5033 735 3.47774C735 3.45218 735 3.42663 735 3.40109C735 3.37556 735 3.35004 735 3.32454C735 3.29903 735 3.27354 735 3.24807C735 3.2226 735 3.19714 735 3.17169C735 3.14625 735 3.12082 735 3.09541C735 3.07 735 3.0446 735 3.01922C735 2.99384 735 2.96847 735 2.94312C735 2.91777 735 2.89244 735 2.86712C735 2.8418 735 2.8165 735 2.79121C735 2.76592 735 2.74065 735 2.7154C735 2.69015 735 2.66491 735 2.63968C735 2.61446 735 2.58926 735 2.56407C735 2.53888 735 2.5137 735 2.48855C735 2.46339 735 2.43825 735 2.41313C735 2.388 735 2.3629 735 2.33781C735 2.31272 735 2.28764 735 2.26259C735 2.23753 735 2.21249 735 2.18747C735 2.16245 735 2.13744 735 2.11245C735 2.08747 735 2.06249 735 2.03754C735 2.01259 735 1.98765 735 1.96273C735 1.93781 735 1.91291 735 1.88803C735 1.86314 735 1.83828 735 1.81343C735 1.78858 735 1.76375 735 1.73893C735 1.71412 735 1.68932 735 1.66455C735 1.63977 735 1.61501 735 1.59027C735 1.56553 735 1.5408 735 1.5161C735 1.49139 735 1.4667 735 1.44203C735 1.41737 735 1.39271 735 1.36808C735 1.34345 735 1.31884 735 1.29424C735 1.26965 735 1.24507 735 1.22051C735 1.19595 735 1.17142 735 1.14689C735 1.12237 735 1.09787 735 1.07339C735 1.04891 735 1.02444 735 1H733C733 1.02444 733 1.04891 733 1.07339C733 1.09787 733 1.12237 733 1.14689C733 1.17142 733 1.19595 733 1.22051C733 1.24507 733 1.26965 733 1.29424C733 1.31884 733 1.34345 733 1.36808C733 1.39271 733 1.41737 733 1.44203C733 1.4667 733 1.49139 733 1.5161C733 1.5408 733 1.56553 733 1.59027C733 1.61501 733 1.63977 733 1.66455C733 1.68932 733 1.71412 733 1.73893C733 1.76375 733 1.78858 733 1.81343C733 1.83828 733 1.86314 733 1.88803C733 1.91291 733 1.93781 733 1.96273C733 1.98765 733 2.01259 733 2.03754C733 2.06249 733 2.08747 733 2.11245C733 2.13744 733 2.16245 733 2.18747C733 2.21249 733 2.23753 733 2.26259C733 2.28764 733 2.31272 733 2.33781C733 2.3629 733 2.388 733 2.41313C733 2.43825 733 2.46339 733 2.48855C733 2.5137 733 2.53888 733 2.56407C733 2.58926 733 2.61446 733 2.63968C733 2.66491 733 2.69015 733 2.7154C733 2.74065 733 2.76592 733 2.79121C733 2.8165 733 2.8418 733 2.86712C733 2.89244 733 2.91777 733 2.94312C733 2.96847 733 2.99384 733 3.01922C733 3.0446 733 3.07 733 3.09541C733 3.12082 733 3.14625 733 3.17169C733 3.19714 733 3.2226 733 3.24807C733 3.27354 733 3.29903 733 3.32454C733 3.35004 733 3.37556 733 3.40109C733 3.42663 733 3.45218 733 3.47774C733 3.5033 733 3.52888 733 3.55448C733 3.58007 733 3.60568 733 3.6313C733 3.65692 733 3.68256 733 3.70821C733 3.73387 733 3.75953 733 3.78521C733 3.81089 733 3.83659 733 3.8623C733 3.88801 733 3.91373 733 3.93947C733 3.9652 733 3.99095 733 4.01672C733 4.04248 733 4.06826 733 4.09406C733 4.11985 733 4.14566 733 4.17148C733 4.1973 733 4.22313 733 4.24898C733 4.27483 733 4.30069 733 4.32656C733 4.35244 733 4.37832 733 4.40423C733 4.43013 733 4.45604 733 4.48197C733 4.5079 733 4.53384 733 4.55979C733 4.58574 733 4.61171 733 4.63769C733 4.66367 733 4.68966 733 4.71567C733 4.74167 733 4.76769 733 4.79372C733 4.81975 733 4.8458 733 4.87185C733 4.89791 733 4.92398 733 4.95006C733 4.97614 733 5.00223 733 5.02834C733 5.05444 733 5.08056 733 5.10669C733 5.13282 733 5.15896 733 5.18511C733 5.21127 733 5.23743 733 5.26361C733 5.28979 733 5.31598 733 5.34218C733 5.36838 733 5.39459 733 5.42082C733 5.44704 733 5.47328 733 5.49953C733 5.52577 733 5.55203 733 5.5783C733 5.60457 733 5.63086 733 5.65715C733 5.68344 733 5.70975 733 5.73606C733 5.76238 733 5.7887 733 5.81504C733 5.84138 733 5.86772 733 5.89408C733 5.92044 733 5.94681 733 5.97319C733 5.99957 733 6.02596 733 6.05237C733 6.07877 733 6.10518 733 6.1316C733 6.15803 733 6.18446 733 6.2109C733 6.23734 733 6.2638 733 6.29026C733 6.31673 733 6.3432 733 6.36968C733 6.39617 733 6.42266 733 6.44917C733 6.47567 733 6.50218 733 6.52871C733 6.55523 733 6.58177 733 6.60831C733 6.63485 733 6.6614 733 6.68797C733 6.71453 733 6.7411 733 6.76768C733 6.79426 733 6.82085 733 6.84745C733 6.87405 733 6.90066 733 6.92728C733 6.9539 733 6.98053 733 7.00716C733 7.0338 733 7.06045 733 7.0871C733 7.11375 733 7.14042 733 7.16709C733 7.19376 733 7.22044 733 7.24713C733 7.27382 733 7.30052 733 7.32723C733 7.35393 733 7.38065 733 7.40737C733 7.43409 733 7.46083 733 7.48756C733 7.5143 733 7.54105 733 7.56781C733 7.59457 733 7.62133 733 7.6481C733 7.67487 733 7.70165 733 7.72844C733 7.75523 733 7.78203 733 7.80883C733 7.83563 733 7.86244 733 7.88926C733 7.91608 733 7.94291 733 7.96974C733 7.99658 733 8.02342 733 8.05027C733 8.07712 733 8.10397 733 8.13084C733 8.1577 733 8.18457 733 8.21145C733 8.23832 733 8.26521 733 8.2921C733 8.31899 733 8.34589 733 8.3728C733 8.3997 733 8.42661 733 8.45353C733 8.48045 733 8.50738 733 8.53431C733 8.56124 733 8.58818 733 8.61512C733 8.64207 733 8.66902 733 8.69598C733 8.72293 733 8.7499 733 8.77687C733 8.80384 733 8.83081 733 8.8578C733 8.88478 733 8.91177 733 8.93876C733 8.96576 733 8.99276 733 9.01976C733 9.04677 733 9.07378 733 9.1008C733 9.12781 733 9.15484 733 9.18187C733 9.20889 733 9.23593 733 9.26297C733 9.29001 733 9.31705 733 9.3441C733 9.37115 733 9.39821 733 9.42527C733 9.45233 733 9.47939 733 9.50646C733 9.53353 733 9.56061 733 9.58769C733 9.61477 733 9.64185 733 9.66894C733 9.69603 733 9.72313 733 9.75023C733 9.77733 733 9.80443 733 9.83154C733 9.85865 733 9.88576 733 9.91288C733 9.93999 733 9.96712 733 9.99424C733 10.0214 733 10.0485 733 10.0756C733 10.1028 733 10.1299 733 10.157C733 10.1842 733 10.2113 733 10.2385C733 10.2656 733 10.2928 733 10.3199C733 10.3471 733 10.3743 733 10.4014C733 10.4286 733 10.4558 733 10.4829C733 10.5101 733 10.5373 733 10.5645C733 10.5916 733 10.6188 733 10.646C733 10.6732 733 10.7004 733 10.7276C733 10.7548 733 10.782 733 10.8092C733 10.8363 733 10.8635 733 10.8908C733 10.918 733 10.9452 733 10.9724C733 10.9996 733 11.0268 733 11.054C733 11.0812 733 11.1084 733 11.1356C733 11.1629 733 11.1901 733 11.2173C733 11.2445 733 11.2718 733 11.299C733 11.3262 733 11.3534 733 11.3807C733 11.4079 733 11.4351 733 11.4624C733 11.4896 733 11.5169 733 11.5441C733 11.5713 733 11.5986 733 11.6258C733 11.6531 733 11.6803 733 11.7075C733 11.7348 733 11.762 733 11.7893C733 11.8165 733 11.8438 733 11.871C733 11.8983 733 11.9255 733 11.9528C733 11.98 733 12.0073 733 12.0346C733 12.0618 733 12.0891 733 12.1163C733 12.1436 733 12.1708 733 12.1981C733 12.2254 733 12.2526 733 12.2799C733 12.3071 733 12.3344 733 12.3617C733 12.3889 733 12.4162 733 12.4435C733 12.4707 733 12.498 733 12.5252C733 12.5525 733 12.5798 733 12.607C733 12.6343 733 12.6616 733 12.6888C733 12.7161 733 12.7433 733 12.7706C733 12.7979 733 12.8251 733 12.8524C733 12.8797 733 12.9069 733 12.9342C733 12.9614 733 12.9887 733 13.016C733 13.0432 733 13.0705 733 13.0977C733 13.125 733 13.1523 733 13.1795C733 13.2068 733 13.234 733 13.2613C733 13.2886 733 13.3158 733 13.3431C733 13.3703 733 13.3976 733 13.4248C733 13.4521 733 13.4793 733 13.5066C733 13.5338 733 13.5611 733 13.5883C733 13.6156 733 13.6428 733 13.6701C733 13.6973 733 13.7245 733 13.7518C733 13.779 733 13.8063 733 13.8335C733 13.8607 733 13.888 733 13.9152C733 13.9424 733 13.9697 733 13.9969C733 14.0241 733 14.0513 733 14.0786C733 14.1058 733 14.133 733 14.1602C733 14.1875 733 14.2147 733 14.2419C733 14.2691 733 14.2963 733 14.3235C733 14.3507 733 14.3779 733 14.4051C733 14.4323 733 14.4595 733 14.4867C733 14.5139 733 14.5411 733 14.5683C733 14.5955 733 14.6227 733 14.6499C733 14.6771 733 14.7043 733 14.7314C733 14.7586 733 14.7858 733 14.813C733 14.8401 733 14.8673 733 14.8945C733 14.9217 733 14.9488 733 14.976C733 15.0031 733 15.0303 733 15.0574C733 15.0846 733 15.1117 733 15.1389C733 15.166 733 15.1932 733 15.2203C733 15.2474 733 15.2746 733 15.3017C733 15.3288 733 15.3559 733 15.3831C733 15.4102 733 15.4373 733 15.4644C733 15.4915 733 15.5186 733 15.5457C733 15.5728 733 15.5999 733 15.627C733 15.6541 733 15.6812 733 15.7083C733 15.7354 733 15.7624 733 15.7895C733 15.8166 733 15.8436 733 15.8707C733 15.8978 733 15.9248 733 15.9519C733 15.9789 733 16.006 733 16.033C733 16.0601 733 16.0871 733 16.1141C733 16.1412 733 16.1682 733 16.1952C733 16.2222 733 16.2492 733 16.2763C733 16.3033 733 16.3303 733 16.3573C733 16.3843 733 16.4112 733 16.4382C733 16.4652 733 16.4922 733 16.5192C733 16.5461 733 16.5731 733 16.6001C733 16.627 733 16.654 733 16.6809C733 16.7079 733 16.7348 733 16.7618C733 16.7887 733 16.8156 733 16.8425C733 16.8695 733 16.8964 733 16.9233C733 16.9502 733 16.9771 733 17.004C733 17.0309 733 17.0578 733 17.0846C733 17.1115 733 17.1384 733 17.1653C733 17.1921 733 17.219 733 17.2458C733 17.2727 733 17.2995 733 17.3264C733 17.3532 733 17.38 733 17.4069C733 17.4337 733 17.4605 733 17.4873C733 17.5141 733 17.5409 733 17.5677C733 17.5945 733 17.6213 733 17.6481C733 17.6748 733 17.7016 733 17.7284C733 17.7551 733 17.7819 733 17.8086C733 17.8354 733 17.8621 733 17.8888C733 17.9155 733 17.9423 733 17.969C733 17.9957 733 18.0224 733 18.0491C733 18.0758 733 18.1025 733 18.1291C733 18.1558 733 18.1825 733 18.2091C733 18.2358 733 18.2624 733 18.2891C733 18.3157 733 18.3423 733 18.369C733 18.3956 733 18.4222 733 18.4488C733 18.4754 733 18.502 733 18.5286C733 18.5552 733 18.5818 733 18.6083C733 18.6349 733 18.6614 733 18.688C733 18.7145 733 18.7411 733 18.7676C733 18.7941 733 18.8206 733 18.8472C733 18.8737 733 18.9002 733 18.9267C733 18.9531 733 18.9796 733 19.0061C733 19.0326 733 19.059 733 19.0855C733 19.1119 733 19.1383 733 19.1648C733 19.1912 733 19.2176 733 19.244C733 19.2704 733 19.2968 733 19.3232C733 19.3496 733 19.376 733 19.4023C733 19.4287 733 19.455 733 19.4814C733 19.5077 733 19.5341 733 19.5604C733 19.5867 733 19.613 733 19.6393C733 19.6656 733 19.6919 733 19.7182C733 19.7444 733 19.7707 733 19.797C733 19.8232 733 19.8494 733 19.8757C733 19.9019 733 19.9281 733 19.9543C733 19.9805 733 20.0067 733 20.0329C733 20.0591 733 20.0853 733 20.1114C733 20.1376 733 20.1637 733 20.1899C733 20.216 733 20.2421 733 20.2682C733 20.2943 733 20.3204 733 20.3465C733 20.3726 733 20.3987 733 20.4247C733 20.4508 733 20.4769 733 20.5029C733 20.5289 733 20.555 733 20.581C733 20.607 733 20.633 733 20.659C733 20.6849 733 20.7109 733 20.7369C733 20.7628 733 20.7888 733 20.8147C733 20.8406 733 20.8666 733 20.8925C733 20.9184 733 20.9443 733 20.9702C733 20.996 733 21.0219 733 21.0478C733 21.0736 733 21.0994 733 21.1253C733 21.1511 733 21.1769 733 21.2027C733 21.2285 733 21.2543 733 21.2801C733 21.3058 733 21.3316 733 21.3573C733 21.3831 733 21.4088 733 21.4345C733 21.4602 733 21.4859 733 21.5116C733 21.5373 733 21.563 733 21.5886C733 21.6143 733 21.6399 733 21.6656C733 21.6912 733 21.7168 733 21.7424C733 21.768 733 21.7936 733 21.8192C733 21.8447 733 21.8703 733 21.8958C733 21.9214 733 21.9469 733 21.9724C733 21.9979 733 22.0234 733 22.0489C733 22.0744 733 22.0998 733 22.1253C733 22.1507 733 22.1762 733 22.2016C733 22.227 733 22.2524 733 22.2778C733 22.3032 733 22.3286 733 22.3539C733 22.3793 733 22.4046 733 22.4299C733 22.4553 733 22.4806 733 22.5059C733 22.5312 733 22.5564 733 22.5817C733 22.607 733 22.6322 733 22.6574C733 22.6827 733 22.7079 733 22.7331C733 22.7583 733 22.7834 733 22.8086C733 22.8338 733 22.8589 733 22.8841C733 22.9092 733 22.9343 733 22.9594C733 22.9845 733 23.0096 733 23.0346C733 23.0597 733 23.0847 733 23.1098C733 23.1348 733 23.1598 733 23.1848C733 23.2098 733 23.2348 733 23.2597C733 23.2847 733 23.3096 733 23.3346C733 23.3595 733 23.3844 733 23.4093C733 23.4342 733 23.4591 733 23.4839C733 23.5088 733 23.5336 733 23.5584C733 23.5833 733 23.6081 733 23.6328C733 23.6576 733 23.6824 733 23.7072C733 23.7319 733 23.7566 733 23.7813C733 23.8061 733 23.8308 733 23.8554C733 23.8801 733 23.9048 733 23.9294C733 23.954 733 23.9787 733 24.0033C733 24.0279 733 24.0525 733 24.077C733 24.1016 733 24.1261 733 24.1507C733 24.1752 733 24.1997 733 24.2242C733 24.2487 733 24.2732 733 24.2976C733 24.3221 733 24.3465 733 24.3709C733 24.3953 733 24.4197 733 24.4441C733 24.4685 733 24.4928 733 24.5172C733 24.5415 733 24.5658 733 24.5901C733 24.6144 733 24.6387 733 24.6629C733 24.6872 733 24.7114 733 24.7357C733 24.7599 733 24.7841 733 24.8083C733 24.8324 733 24.8566 733 24.8807C733 24.9049 733 24.929 733 24.9531C733 24.9772 733 25.0013 733 25.0253C733 25.0494 733 25.0734 733 25.0974C733 25.1215 733 25.1454 733 25.1694C733 25.1934 733 25.2174 733 25.2413C733 25.2652 733 25.2891 733 25.313C733 25.3369 733 25.3608 733 25.3846C733 25.4085 733 25.4323 733 25.4561C733 25.4799 733 25.5037 733 25.5275C733 25.5513 733 25.575 733 25.5987C733 25.6225 733 25.6462 733 25.6698C733 25.6935 733 25.7172 733 25.7408C733 25.7645 733 25.7881 733 25.8117C733 25.8353 733 25.8588 733 25.8824C733 25.9059 733 25.9295 733 25.953C733 25.9765 733 26 733 26.0234C733 26.0469 733 26.0703 733 26.0938C733 26.1172 733 26.1406 733 26.1639C733 26.1873 733 26.2107 733 26.234C733 26.2573 733 26.2806 733 26.3039C733 26.3272 733 26.3504 733 26.3737C733 26.3969 733 26.4201 733 26.4433C733 26.4665 733 26.4897 733 26.5128C733 26.536 733 26.5591 733 26.5822C733 26.6053 733 26.6284 733 26.6514C733 26.6745 733 26.6975 733 26.7205C733 26.7435 733 26.7665 733 26.7895C733 26.8124 733 26.8354 733 26.8583C733 26.8812 733 26.9041 733 26.9269C733 26.9498 733 26.9726 733 26.9955C733 27.0183 733 27.0411 733 27.0638C733 27.0866 733 27.1093 733 27.1321C733 27.1548 733 27.1775 733 27.2002C733 27.2228 733 27.2455 733 27.2681C733 27.2907 733 27.3133 733 27.3359C733 27.3585 733 27.381 733 27.4035C733 27.4261 733 27.4486 733 27.471C733 27.4935 733 27.516 733 27.5384C733 27.5608 733 27.5832 733 27.6056C733 27.6279 733 27.6503 733 27.6726C733 27.6949 733 27.7172 733 27.7395C733 27.7618 733 27.784 733 27.8063C733 27.8285 733 27.8507 733 27.8728C733 27.895 733 27.9172 733 27.9393C733 27.9614 733 27.9835 733 28.0056C733 28.0276 733 28.0497 733 28.0717C733 28.0937 733 28.1157 733 28.1377C733 28.1596 733 28.1816 733 28.2035C733 28.2254 733 28.2473 733 28.2691C733 28.291 733 28.3128 733 28.3346C733 28.3564 733 28.3782 733 28.3999C733 28.4217 733 28.4434 733 28.4651C733 28.4868 733 28.5085 733 28.5301C733 28.5518 733 28.5734 733 28.595C733 28.6166 733 28.6381 733 28.6597C733 28.6812 733 28.7027 733 28.7242C733 28.7457 733 28.7671 733 28.7886C733 28.81 733 28.8314 733 28.8528C733 28.8741 733 28.8955 733 28.9168C733 28.9381 733 28.9594 733 28.9807C733 29.0019 733 29.0231 733 29.0444C733 29.0656 733 29.0867 733 29.1079C733 29.129 733 29.1502 733 29.1712C733 29.1923 733 29.2134 733 29.2344C733 29.2555 733 29.2765 733 29.2975C733 29.3184 733 29.3394 733 29.3603C733 29.3812 733 29.4021 733 29.423C733 29.4438 733 29.4647 733 29.4855C733 29.5063 733 29.5271 733 29.5478C733 29.5686 733 29.5893 733 29.61C733 29.6307 733 29.6513 733 29.672C733 29.6926 733 29.7132 733 29.7338C733 29.7543 733 29.7749 733 29.7954C733 29.8159 733 29.8364 733 29.8569C733 29.8773 733 29.8977 733 29.9181C733 29.9385 733 29.9589 733 29.9792C733 29.9996 733 30.0199 733 30.0401C733 30.0604 733 30.0807 733 30.1009C733 30.1211 733 30.1413 733 30.1614C733 30.1816 733 30.2017 733 30.2218C733 30.2419 733 30.262 733 30.282C733 30.302 733 30.322 733 30.342C733 30.362 733 30.3819 733 30.4018C733 30.4217 733 30.4416 733 30.4615C733 30.4813 733 30.5011 733 30.5209C733 30.5407 733 30.5605 733 30.5802C733 30.5999 733 30.6196 733 30.6393C733 30.6589 733 30.6786 733 30.6982C733 30.7178 733 30.7373 733 30.7569C733 30.7764 733 30.7959 733 30.8154C733 30.8348 733 30.8543 733 30.8737C733 30.8931 733 30.9125 733 30.9318C733 30.9512 733 30.9705 733 30.9898C733 31.009 733 31.0283 733 31.0475C733 31.0667 733 31.0859 733 31.105C733 31.1242 733 31.1433 733 31.1624C733 31.1815 733 31.2005 733 31.2196C733 31.2386 733 31.2576 733 31.2765C733 31.2955 733 31.3144 733 31.3333C733 31.3522 733 31.371 733 31.3899C733 31.4087 733 31.4275 733 31.4462C733 31.465 733 31.4837 733 31.5024C733 31.5211 733 31.5398 733 31.5584C733 31.577 733 31.5956 733 31.6142C733 31.6327 733 31.6512 733 31.6697C733 31.6882 733 31.7067 733 31.7251C733 31.7435 733 31.7619 733 31.7803C733 31.7986 733 31.8169 733 31.8352C733 31.8535 733 31.8718 733 31.89C733 31.9082 733 31.9264 733 31.9445C733 31.9627 733 31.9808 733 31.9989C733 32.017 733 32.035 733 32.053C733 32.071 733 32.089 733 32.107C733 32.1249 733 32.1428 733 32.1607C733 32.1786 733 32.1964 733 32.2142C733 32.232 733 32.2498 733 32.2675C733 32.2852 733 32.3029 733 32.3206C733 32.3383 733 32.3559 733 32.3735C733 32.3911 733 32.4086 733 32.4262C733 32.4437 733 32.4612 733 32.4786C733 32.4961 733 32.5135 733 32.5309C733 32.5482 733 32.5656 733 32.5829C733 32.6002 733 32.6175 733 32.6347C733 32.6519 733 32.6691 733 32.6863C733 32.7035 733 32.7206 733 32.7377C733 32.7548 733 32.7718 733 32.7889C733 32.8059 733 32.8229 733 32.8398C733 32.8567 733 32.8737 733 32.8905C733 32.9074 733 32.9242 733 32.941C733 32.9578 733 32.9746 733 32.9913C733 33.008 733 33.0247 733 33.0414C733 33.058 733 33.0747 733 33.0912C733 33.1078 733 33.1243 733 33.1408C733 33.1573 733 33.1738 733 33.1902C733 33.2067 733 33.2231 733 33.2394C733 33.2558 733 33.2721 733 33.2884C733 33.3046 733 33.3209 733 33.3371C733 33.3533 733 33.3694 733 33.3856C733 33.4017 733 33.4178 733 33.4338C733 33.4499 733 33.4659 733 33.4819C733 33.4978 733 33.5138 733 33.5297C733 33.5456 733 33.5614 733 33.5772C733 33.5931 733 33.6088 733 33.6246C733 33.6403 733 33.656 733 33.6717C733 33.6874 733 33.703 733 33.7186C733 33.7342 733 33.7497 733 33.7652C733 33.7807 733 33.7962 733 33.8116C733 33.8271 733 33.8425 733 33.8578C733 33.8732 733 33.8885 733 33.9038C733 33.919 733 33.9343 733 33.9495C733 33.9647 733 33.9798 733 33.9949C733 34.0101 733 34.0251 733 34.0402C733 34.0552 733 34.0702 733 34.0852C733 34.1001 733 34.115 733 34.1299C733 34.1448 733 34.1596 733 34.1744C733 34.1892 733 34.204 733 34.2187C733 34.2334 733 34.2481 733 34.2627C733 34.2774 733 34.292 733 34.3065C733 34.3211 733 34.3356 733 34.3501C733 34.3646 733 34.379 733 34.3934C733 34.4078 733 34.4221 733 34.4364C733 34.4507 733 34.465 733 34.4792C733 34.4935 733 34.5077 733 34.5218C733 34.536 733 34.5501 733 34.5641C733 34.5782 733 34.5922 733 34.6062C733 34.6202 733 34.6341 733 34.648C733 34.6619 733 34.6758 733 34.6896C733 34.7034 733 34.7172 733 34.7309C733 34.7446 733 34.7583 733 34.772C733 34.7856 733 34.7992 733 34.8128C733 34.8264 733 34.8399 733 34.8534C733 34.8668 733 34.8803 733 34.8937C733 34.9071 733 34.9204 733 34.9337C733 34.947 733 34.9603 733 34.9735C733 34.9868 733 34.9999 733 35.0131C733 35.0262 733 35.0393 733 35.0524C733 35.0654 733 35.0784 733 35.0914C733 35.1044 733 35.1173 733 35.1302C733 35.1431 733 35.1559 733 35.1687C733 35.1815 733 35.1942 733 35.207C733 35.2197 733 35.2323 733 35.245C733 35.2576 733 35.2702 733 35.2827C733 35.2952 733 35.3077 733 35.3202C733 35.3326 733 35.345 733 35.3574C733 35.3697 733 35.382 733 35.3943C733 35.4066 733 35.4188 733 35.431C733 35.4432 733 35.4553 733 35.4674C733 35.4795 733 35.4916 733 35.5036C733 35.5156 733 35.5275 733 35.5395C733 35.5514 733 35.5633 733 35.5751C733 35.5869 733 35.5987 733 35.6104C733 35.6222 733 35.6339 733 35.6455C733 35.6572 733 35.6688 733 35.6803C733 35.6919 733 35.7034 733 35.7149C733 35.7263 733 35.7378 733 35.7491C733 35.7605 733 35.7718 733 35.7831C733 35.7944 733 35.8057 733 35.8169C733 35.8281 733 35.8392 733 35.8503C733 35.8614 733 35.8725 733 35.8835C733 35.8945 733 35.9055 733 35.9164C733 35.9273 733 35.9382 733 35.949C733 35.9598 733 35.9706 733 35.9814C733 35.9921 733 36.0028 733 36.0134C733 36.0241 733 36.0347 733 36.0452C733 36.0558 733 36.0663 733 36.0767C733 36.0872 733 36.0976 733 36.108C733 36.1183 733 36.1287 733 36.1389C733 36.1492 733 36.1594 733 36.1696C733 36.1798 733 36.1899 733 36.2H735ZM734 0H269V2H734V0ZM268 1V36.2H270V1H268Z" fill="black" fill-opacity="0.16"/>
</svg>
