<svg xmlns="http://www.w3.org/2000/svg" xmlns:xlink="http://www.w3.org/1999/xlink" viewBox="0 0 1190.55 792.74">
  <defs>
    <style>
      .cls-1, .cls-13, .cls-14, .cls-17, .cls-2, .cls-3, .cls-8 {
        fill: #231f20;
      }

      .cls-2 {
        opacity: 0.5;
      }

      .cls-3 {
        opacity: 0.1;
      }

      .cls-4, .cls-5 {
        fill: #2b3990;
      }

      .cls-16, .cls-4 {
        opacity: 0.35;
      }

      .cls-17, .cls-5, .cls-6, .cls-7 {
        opacity: 0.2;
      }

      .cls-6, .cls-9 {
        fill: #006838;
      }

      .cls-16, .cls-19, .cls-20, .cls-7 {
        fill: #2e3192;
      }

      .cls-8 {
        opacity: 0.9;
      }

      .cls-19, .cls-9 {
        opacity: 0.4;
      }

      .cls-10, .cls-14 {
        opacity: 0.25;
      }

      .cls-11 {
        fill: url(#linear-gradient);
      }

      .cls-12 {
        fill: #d1d3d4;
      }

      .cls-13 {
        opacity: 0.15;
      }

      .cls-15 {
        fill: none;
      }

      .cls-18 {
        fill: #006b9e;
      }

      .cls-20 {
        opacity: 0.3;
      }

      .cls-21 {
        fill: #bcbec0;
      }
    </style>
    <linearGradient id="linear-gradient" x1="332.32" y1="460.74" x2="323.41" y2="436.08" gradientUnits="userSpaceOnUse">
      <stop offset="0.36" stop-color="#231f20"/>
      <stop offset="0.44" stop-color="#393637"/>
      <stop offset="0.62" stop-color="#727172"/>
      <stop offset="0.88" stop-color="#cdcfd0"/>
      <stop offset="0.89" stop-color="#d1d3d4"/>
    </linearGradient>
  </defs>
  <g id="Ameebo_Body" data-name="Ameebo Body">
    <path class="cls-1" d="M296.7,627.64a14.92,14.92,0,0,1-2.77,5.42l-4.24,1.17.05-.06Q293.37,630.92,296.7,627.64Z"/>
    <path class="cls-1" d="M866,346.16c-45.4,21.88-67.88,22.69-88.35,23.11-14.91.31-30.57,0-47.55,8.64-36.14,18.39-22.51,54.58-12,79,2.07,4.78,3.86,8.9,5.05,12.4.43,1.28.91,2.66,1.43,4.13,8,23,25.18,73.63-3.53,115.13-15.22,22-27,34.88-82.78,47.93-27.28,4.9-42.81,11.75-48.78,14.84-5,2.61-13.93,5.38-17.24,5.6a16.38,16.38,0,0,1-6-.6,9.16,9.16,0,0,1-6.7-7.38c-1.7-5.63-1.71-13.74,0-16.7,2.24-3.92,5.82-6.89,9.61-10,1.24-1,2.52-2.09,3.75-3.19,5.11-4.57,27.42-28.6,34.94-54.19,17.74-60.34,25.73-67.33,35-75.42,1.49-1.3,3-2.64,4.61-4.24,2.29-2.31,3.77-8.92,2-16.61-1.61-7-7-19.71-25.33-26.16a73.92,73.92,0,0,0-36.6-2.74c-3.13.58-6.6,1.31-10.27,2.09-21.24,4.5-50.33,10.66-80.73.66-12-3.94-78.67-19.68-108,6.94-13.29,12.06-15.64,33-9.92,58.42-.74-.77-1.5-1.53-2.26-2.27a35.56,35.56,0,0,0-2.78-2.39q-7.46-37.5,12.94-56c16.39-14.86,43.36-17.1,63.09-16.37,21.65.81,41.78,5.4,48.14,7.49,29.63,9.75,58.26,3.68,79.17-.75,3.69-.78,7.18-1.52,10.35-2.1a67.67,67.67,0,0,1,38,4.13c19.43,7.56,25.36,20.78,27.1,28.37,1.82,7.92.67,15.89-2.79,19.39-1.66,1.68-3.24,3.06-4.76,4.39-8.9,7.78-16.58,14.5-34.07,74C603,592.2,580.55,616.26,575,621.25c-1.27,1.13-2.57,2.21-3.83,3.26-3.58,3-6.95,5.76-8.93,9.21-1,1.82-1.39,8.8.28,14.34.78,2.58,1.51,4.43,3.15,5.06,6.84,2.61,13.52-1,19.83-4.25,6.08-3.15,22.24-11.51,49.88-16.49C692.6,619,702.57,605,717.67,583.74c28.35-39.86,12-86.79,4.11-109.34-.51-1.48-1-2.87-1.43-4.15-1.15-3.39-2.92-7.46-5-12.18-10.34-23.87-27.65-63.84,11-83.51,17.6-9,30.79-9.23,46.07-9.54,20.17-.42,45.27-.94,90.65-23.37,36.17-17.89,59.33-36.22,70.8-56,11-19.08,10.45-37.7,8.19-55-5.05-38.43-36.17-53.93-95.66-70.6-37.86-10.62-63.67-28.53-76.73-53.24-.37-.7-.75-1.42-.9-1.61s-.41-.55-.61-.84c-1.53-2.18-3.62-5.18-21.83,4-7.47,3.79-12,8.2-13,12.76a9.31,9.31,0,0,0,1.34,7.37c26.69,40.14,25.18,75.46,24.69,87.06,0,1-.08,1.78-.09,2.45,0,1.15-.11,2.73-.22,4.73-.73,13.31-2.43,44.48,9.4,59.69,4.7,6,6.59,12,5.64,17.72-1.39,8.33-12.31,10.61-12.61,10.81a46.85,46.85,0,0,0,6.28-4.66,11.11,11.11,0,0,0,3-4.94c-4.56,4.79-15.26,10.43-40.36,10.43-18.73,0-30.53-6.43-43-13.24-16.14-8.79-34.44-18.77-72.73-18.93h-1c-61.71,0-94,24.25-111.31,37.32-1.75,1.32-3.37,2.53-4.88,3.62-3.1,2.25-7.13,5.58-11.8,9.43-21.67,17.88-57.92,47.79-104.19,58-4.69,1-9.38,2-14.05,3-55,11.6-106.9,22.56-120.55,92.7-11.77,60.46,5.11,76.14,23,92.74a142,142,0,0,1,13.8,14.1c15,18.36,15,30.66,13.06,37.13q-3.33,3.27-7,6.53c.87-1.07,11.88-15.51-8.59-40.56a139.05,139.05,0,0,0-13.51-13.79c-18.51-17.19-35.83-34.63-23.74-96.72,6.31-32.4,21.39-55.38,46.1-70.25C312,399.59,338.62,394,366.78,388c4.66-1,9.35-2,14-3,45.56-10,81.46-39.64,102.92-57.34,4.71-3.89,8.78-7.25,11.95-9.55q2.24-1.62,4.83-3.59c17.65-13.27,50.42-37.92,113.12-37.92h1c39,.17,57.69,10.33,74.14,19.3,12.67,6.91,23.61,12.87,41.58,12.87,38.27,0,40.66-12.9,40.67-14.28h0a23.86,23.86,0,0,0-5-10.23c-12.52-16.09-10.77-48-10-61.7.11-2,.19-3.52.22-4.63,0-.68.05-1.52.09-2.51.54-12.56,2-45.92-24.11-85.16a12.4,12.4,0,0,1-1.86-9.74C731.65,115,736.57,110,745,105.7c19-9.63,22.86-7.09,25.65-3.08.17.24.33.47.51.69a16.39,16.39,0,0,1,1.19,2.07c12.66,24,37.86,41.36,74.89,51.75,60.75,17,92.56,33,97.82,73.1C949.7,265.51,949.25,306,866,346.16Z"/>
    <path class="cls-1" d="M378.64,507.76l-4.37-1.51h0q-.36-1.59-.66-3.15a35.56,35.56,0,0,1,2.78,2.39C377.14,506.23,377.9,507,378.64,507.76Z"/>
    <path class="cls-1" d="M584.64,339.24l-.78-.54c-.26-.18-.53-.34-.79-.5l-.8-.47c-.27-.15-.54-.3-.81-.43l-.81-.4c-.5-.24-1-.45-1.53-.64l-.79-.28h0c-.32-.11-.63-.2-.95-.29l-.12,0-.91-.22h0l-.32-.06a5.67,5.67,0,0,0-.57-.1h0l-.45-.07-.92-.1c-.33,0-.66-.05-1-.05a16.2,16.2,0,0,0-4.21.43h0a37.91,37.91,0,0,0-6.17,2.23.24.24,0,0,0-.1.05,38.15,38.15,0,0,0-6.21,3.64c-.24.17-.48.34-.72.53-10.52,7.88-16.46,20.46-18.66,31.51a54.15,54.15,0,0,0-.57,18.8c0,.27.08.55.13.82.14.8.31,1.59.49,2.36h0c.08.35.17.68.26,1,.14.55.3,1.08.46,1.6l.06.19.12.36c.08.25.17.5.26.74s.18.49.27.73.22.58.34.86l.3.7s0,.07,0,.1c.18.42.38.83.59,1.23,0,0,0,0,0,.05a.25.25,0,0,0,0,.07q.35.68.72,1.32c.11.2.23.4.36.59s.28.47.43.69.49.71.74,1.05.47.62.72.92l0,.05c.26.3.51.6.78.88h0c.28.29.55.58.84.85s.57.55.87.8.61.51.92.75l.53.39.2.14.83.54c.24.15.48.3.74.44s.72.38,1.1.56.61.28.93.41l.08,0c.17.08.35.14.54.21l.55.19.5.16c.17.06.34.1.52.15s.64.17,1,.24l.14,0,.48.09c.34.07.68.12,1,.17l.15,0,.45.06h0c0-.67-.07-1.34-.09-2-.22,0-.43-.05-.64-.09l-.88-.16c-.23,0-.45-.09-.67-.15l-.39-.1a16.51,16.51,0,0,1-3.14-1.19c-.23-.11-.45-.23-.67-.35s-.5-.29-.75-.44h0l-.39-.25-.35-.23c-.2-.14-.4-.28-.59-.43-4.63-3.54-7.72-9.75-9-17.25,0-.29-.09-.59-.13-.89a52.22,52.22,0,0,1,.61-17.43c2.06-10.36,7.52-22.11,17.1-29.7l.75-.59a37.52,37.52,0,0,1,6.08-3.71l.09,0a35.38,35.38,0,0,1,6.38-2.37,15.54,15.54,0,0,1,8.32.42c.37.12.73.25,1.1.39s1,.4,1.44.63c.24.11.48.23.71.36l.26.14c.39.2.77.43,1.15.66.7.44,1.39.92,2.06,1.44l.48-2.11h0Z"/>
    <path class="cls-1" d="M897.16,229c-5.5-6.17-18.82-7.43-36.55-3.46-16.41,3.68-34,11.38-45.81,20.12-10.82,8-16.4,16.22-16.4,23.94a16.54,16.54,0,0,0,2.49,8.62c2.6,4.31,8.74,6.54,17.91,6.54,1.69,0,3.49-.08,5.38-.23,28.21-2.28,68.9-20.65,76.2-38.84C902.77,239.71,901.69,234.1,897.16,229ZM898.52,245c-7,17.58-46.85,35.36-74.5,37.6-1.82.15-3.54.22-5.16.22-8.37,0-14.06-1.93-16.26-5.58-7.28-12.08,5.26-23.93,13.39-29.91,11.64-8.58,28.9-16.16,45.06-19.78a83.14,83.14,0,0,1,17.81-2.22c7.91,0,13.82,1.72,16.81,5.06C899.65,234.82,900.61,239.73,898.52,245Z"/>
    <path class="cls-1" d="M710.4,524a28.59,28.59,0,0,0-4.95-10.08,11.9,11.9,0,0,0-4.4-3.49,9.72,9.72,0,0,0-5.53-.67,8.39,8.39,0,0,0-4.75,2.84,21.67,21.67,0,0,0-3.16,4.61,54.94,54.94,0,0,0-4.15,10.36,109.87,109.87,0,0,0-4,22,86.56,86.56,0,0,0,.86,22.38,27.5,27.5,0,0,0,4.06,10.62A9.86,9.86,0,0,0,689,586.2a8.83,8.83,0,0,0,3,.42,11.59,11.59,0,0,0,2.94-.56,14.1,14.1,0,0,0,5.06-3,23.41,23.41,0,0,0,3.78-4.37,43.78,43.78,0,0,0,4.95-10.24,80,80,0,0,0,4-22.14A70.37,70.37,0,0,0,710.4,524Zm.39,22.22a91.31,91.31,0,0,1-1.27,10.95,74.84,74.84,0,0,1-2.62,10.67,41.6,41.6,0,0,1-4.56,9.87,21.17,21.17,0,0,1-3.42,4.1,12.45,12.45,0,0,1-4.43,2.72,7.92,7.92,0,0,1-5,.21,8.34,8.34,0,0,1-4-3.06,26.33,26.33,0,0,1-4-10,85.58,85.58,0,0,1-1.13-22,109.13,109.13,0,0,1,3.44-21.92,53.36,53.36,0,0,1,3.92-10.39,21.84,21.84,0,0,1,3.19-4.44,8.19,8.19,0,0,1,4.63-2.78,9.47,9.47,0,0,1,5.36.79,11.48,11.48,0,0,1,4,3.61,26.29,26.29,0,0,1,4.38,9.8,61.68,61.68,0,0,1,1.48,10.92A86.22,86.22,0,0,1,710.79,546.23Z"/>
    <path class="cls-1" d="M614.9,283.43l-1,0c.34.63.65,1.28.93,1.93h1Q615.4,284.39,614.9,283.43Zm53.56,13.29c-.53,1.32-1.07,2.64-1.63,3.93a7,7,0,0,0,2.69-2.39h0l.27-.67Z"/>
    <path class="cls-1" d="M335.67,466.63c.59,1.45,1.18,2.81,1.75,4"/>
    <path class="cls-1" d="M310.45,662.35a144.25,144.25,0,0,0-10.3,10.24c-7.41,8.9-15.54,8.81-18.89,7.73s-5.78-4.92-6.51-6.56c-6-13.4-4-21.32,6.59-29.84q6.74-5.4,12.59-10.86c34.86-32.41,47.77-66,51.58-92.74,0-.18.05-.36.08-.54.61-4.44,1-8.68,1.15-12.7,0-.15,0-.29,0-.44l.06-2.12a140,140,0,0,0-.86-19.1,272.58,272.58,0,0,1,6.65,33.86l.06.48c0,.27.07.54.1.81s0,.29.05.43C361.57,614.29,328.44,645.43,310.45,662.35Zm183.49-59a8.84,8.84,0,0,0-10.16-1.6,31.55,31.55,0,0,1-10.87,2.86l-1,0c-14,.5-25.33-9.28-32.71-15.68-1.83-1.59-3.42-3-4.76-3.93-8.19-5.91-15.87-17.89-23.84-31.1l-2.87-4.77c-8.37-14-17.78-29.66-29.08-41.41-.74-.77-1.5-1.53-2.26-2.27a35.56,35.56,0,0,0-2.78-2.39c-2.3-1.78-5-3.55-8-5.5-1.72-1.12-3.54-2.29-5.4-3.56l-1-.67c-6.4-4.42-13.26-9.93-18.88-17.72-.1-.12-.18-.24-.27-.37s-.33-.47-.5-.71a27.29,27.29,0,0,1-2.12-3.88v0c-.57-1.23-1.16-2.59-1.75-4,0-.05-1-2.51-1.88-4.61s-6.41-15.52-6.46-15.68l-.75.23c.2.67,4.72,13.22,5.43,15.35s1.82,5.51,1.84,5.55q3.63,9.7,6.54,18.8h0s0,0,0,.06c0,.21.11.42.16.63a140.34,140.34,0,0,1,3.79,22.64.13.13,0,0,1,0,.06c0,.19,0,.38,0,.57a136.07,136.07,0,0,1,.41,14.33,131.56,131.56,0,0,1-1.27,15.27c0,.17,0,.34-.07.51-3.65,25.23-15.56,56.62-46.78,87.29q-3.33,3.27-7,6.53l0,0q-4.56,4.08-9.61,8.15c-11.2,9-14.5,16.87-7.18,32.2a16,16,0,0,0,6.86,7.49,11.34,11.34,0,0,0,5.63,1.28c2.42,0,10.09-.86,17.82-10.56,1.95-2.45,5.12-5,9.07-8.72,12.48-11.73,32.84-29.59,41.22-63.77,4.64,3.39,8.81,8.21,13.55,13.68,13.1,15.13,29.42,34,68.05,35.86,1,0,1.91.07,2.86.07,10.81,0,22-4.12,32.46-6.9l.81-.22,1.16-.32c7.52-2.06,14.47-4.27,21.61-4.94,3-.28,5.17-2.39,6.39-6.08C503,623.67,500.47,609.19,493.94,603.34Zm4.56,27.46c-1,2.93-2.54,4.51-4.68,4.72a128.09,128.09,0,0,0-20,4l-1.13.29-3,.81c-11.22,3-22.82,6.07-34.27,5.51-37.78-1.84-53.78-20.32-66.64-35.17-5.38-6.21-8.92-10.84-14.46-14.4,3.22-15,4.4-33.11,1.88-54.63l-.19-1.53c-2-16-11.71-49.31-12.85-52.95-1.65-5.31-2.07-6.35-2.69-8.35,5.9,7.44,12.81,12.68,19.13,16.94l1,.66c1.36.91,2.68,1.77,4,2.6a82.83,82.83,0,0,1,9.78,7h0l.71.67c12.13,11.77,21.73,27.78,31,43.27,9.13,15.23,17.76,29.62,27.25,36.47,1.28.92,2.83,2.27,4.63,3.83,7.83,6.78,19.9,17.23,35.12,16.13.32,0,.65,0,1-.09a34,34,0,0,0,10.64-3,6.89,6.89,0,0,1,8,1.27C498.51,610.11,500.82,623.75,498.5,630.8Z"/>
    <path class="cls-1" d="M289,466c-3.12-4.09-6.16-4.07-8.15-3.33-12.57,4.66-18.85,29.44-18.57,51.52.22,17.18,4.66,37,16.46,41a12.25,12.25,0,0,0,3.93.69c3.47,0,6.53-1.74,9-5.16C303.5,534.41,300,480.48,289,466Zm1,83.57c-2.87,4-6.36,5.21-10.65,3.75-10.81-3.7-14.9-22.66-15.11-39.16-.27-20.85,5.69-45.33,17.26-49.62,2-.74,3.93.13,5.87,2.68C297.86,480.93,301.25,534.11,290.08,549.6Z"/>
    <path class="cls-2" d="M344.37,509.67a.13.13,0,0,0,0-.06c-.41-2.73-.87-5.45-1.44-8.15-.83-3.61-1.54-7.25-2-10.92-.16-1.15-.26-2.35-.32-3.57-.05-.21-.11-.42-.16-.63,0,0,0,0,0-.06.08,1.46.19,2.9.39,4.27.51,3.67,1.25,7.31,2.08,10.92.61,2.91,1.11,5.83,1.55,8.77C344.4,510.05,344.39,509.86,344.37,509.67Z"/>
    <path class="cls-2" d="M360.17,494l-1-.67c-.2-1.37-.39-2.69-.59-3.92-.6-3.65-1.27-7.29-2.11-10.89a66.54,66.54,0,0,0-3.32-10.12,19.11,19.11,0,0,0-2.51-4.34c-1.05-1.42-2.51-2.77-4.28-2.72h0a4.44,4.44,0,0,0-.71.06,4.26,4.26,0,0,0-1.76.73,4.65,4.65,0,0,0-1.47,1.75,10.46,10.46,0,0,0-1.49,4.07,44.48,44.48,0,0,0-.62,7.66c-.1-.12-.18-.24-.27-.37a45.4,45.4,0,0,1,.53-7.36,13.21,13.21,0,0,1,1.38-4.78c.16-.29.33-.6.5-.89a4.53,4.53,0,0,1,1.2-1.41,4.37,4.37,0,0,1,1-.57l.37-.13.1,0,.2-.05.11,0a5.58,5.58,0,0,1,.59-.09h.36a4.47,4.47,0,0,1,2.76.87,9,9,0,0,1,2,2,23.9,23.9,0,0,1,2.7,4.93,72.66,72.66,0,0,1,3.35,10.65c.88,3.61,1.6,7.26,2.22,10.92C359.69,490.74,359.93,492.35,360.17,494Z"/>
    <path class="cls-3" d="M362.48,529.84c-.27,3.24-.17,5.29-2,8.42a5.74,5.74,0,0,1-5,3.1,3.64,3.64,0,0,1-.56-.05c-.06-.49-.12-1-.19-1.5h0q.35,0,.69,0a5.25,5.25,0,0,0,4.34-3.11,20.61,20.61,0,0,0,1.52-8.57c.07-3.53,0-11-.26-16.6-.13-3-.7-9.45-1.46-15.53l1,.66c.82,6.25,1.49,12.78,1.58,14.74C362.4,517.85,362.76,526.56,362.48,529.84Z"/>
    <path class="cls-3" d="M352.82,541a29.59,29.59,0,0,0-3.92-.62c-1-.06-2.13-.08-3.39-.06,0-.18.05-.36.08-.54,1,0,2.06-.06,3.08-.07.78,0,1.78,0,2.8,0a6.42,6.42,0,0,1-.64-.53,10.27,10.27,0,0,1-2.7-4.8,72.63,72.63,0,0,1-1.39-7.32c0-.15,0-.29,0-.44.42,2.31.94,4.46,1.56,7a9.84,9.84,0,0,0,2.74,4.62,5.61,5.61,0,0,0,1.55,1.07l.06.48c0,.27.07.54.1.81S352.8,540.86,352.82,541Z"/>
  </g>
  <g id="Fills">
    <path class="cls-4" d="M584.41,355.52a40,40,0,0,1-3,15.47,35.8,35.8,0,0,1-3.74,6.95,22.68,22.68,0,0,1-5.43,5.58,11.89,11.89,0,0,1-3.43,1.68,7,7,0,0,1-3.65.09c-1.06-.32-1.43-1.57-1.43-2.82a18.27,18.27,0,0,1,.48-3.85c.5-2.59,1.23-5.17,1.74-7.81a51.57,51.57,0,0,0,.66-8,67.32,67.32,0,0,0-1.92-15.88c-.51-2.41-1.35-4.73-1.86-7.12a35.38,35.38,0,0,1,6.38-2.37,15.54,15.54,0,0,1,8.32.42,15.24,15.24,0,0,1,2.53,2.73,22.45,22.45,0,0,1,3.32,7.11l.4,1.94.19,1,.13,1A37.25,37.25,0,0,1,584.41,355.52Z"/>
    <path class="cls-5" d="M898.52,245c-7,17.58-46.85,35.36-74.5,37.6-1.82.15-3.54.22-5.16.22-8.37,0-14.06-1.93-16.26-5.58-7.28-12.08,5.26-23.93,13.39-29.91,11.64-8.58,28.9-16.16,45.06-19.78a83.14,83.14,0,0,1,17.81-2.22c7.91,0,13.82,1.72,16.81,5.06C899.65,234.82,900.61,239.73,898.52,245Z"/>
    <path class="cls-5" d="M667.93,296.51c.18,1.4-2.53,3.49-10.67,5.17-10.71,2.21-26,2.88-39.65,1.91l-1-.08c-15.31-1.18-28.29-4.48-29.91-10.07a2.54,2.54,0,0,1,.92-2.73c3.63-3.41,14.52-5.08,27.15-5.32-.28-.65-.59-1.3-.93-1.93l1,0q.5,1,.9,1.95c15.87-.2,34.24,1.82,44.41,5.5C665,292.6,667.69,294.6,667.93,296.51Z"/>
    <path class="cls-5" d="M669.8,297.58l-.27.67h0a7,7,0,0,1-2.69,2.39c.56-1.29,1.1-2.61,1.63-3.93Z"/>
    <path class="cls-5" d="M290.08,549.6c-2.87,4-6.36,5.21-10.65,3.75-10.81-3.7-14.9-22.66-15.11-39.16-.27-20.85,5.69-45.33,17.26-49.62,2-.74,3.93.13,5.87,2.68C297.86,480.93,301.25,534.11,290.08,549.6Z"/>
    <path class="cls-5" d="M710.79,546.23a91.31,91.31,0,0,1-1.27,10.95,74.84,74.84,0,0,1-2.62,10.67,41.6,41.6,0,0,1-4.56,9.87,21.17,21.17,0,0,1-3.42,4.1,12.45,12.45,0,0,1-4.43,2.72,7.92,7.92,0,0,1-5,.21,8.34,8.34,0,0,1-4-3.06,26.33,26.33,0,0,1-4-10,85.58,85.58,0,0,1-1.13-22,109.13,109.13,0,0,1,3.44-21.92,53.36,53.36,0,0,1,3.92-10.39,21.84,21.84,0,0,1,3.19-4.44,8.19,8.19,0,0,1,4.63-2.78,9.47,9.47,0,0,1,5.36.79,11.48,11.48,0,0,1,4,3.61,26.29,26.29,0,0,1,4.38,9.8,61.68,61.68,0,0,1,1.48,10.92A86.22,86.22,0,0,1,710.79,546.23Z"/>
    <path class="cls-5" d="M597.54,372.43c0,.29,0,.58,0,.88-.78,12.29-7.36,25.67-24.23,35.56-5.46,2.71-10.49,4.07-15,4.07-.41,0-.81,0-1.21,0l-.33,0c-.32,0-.64-.05-1-.09s-.43-.05-.64-.09l-.88-.16c-.23,0-.45-.09-.67-.15l-.39-.1a16.51,16.51,0,0,1-3.14-1.19c-.23-.11-.45-.23-.67-.35s-.5-.29-.75-.44h0l-.39-.25-.35-.23c-.2-.14-.4-.28-.59-.43-4.63-3.54-7.72-9.75-9-17.25a24.8,24.8,0,0,0,6.09-4.73,42.43,42.43,0,0,0,7.08-10.47,57.44,57.44,0,0,0,4.34-11.85,51.75,51.75,0,0,0,.82-21.56,37.52,37.52,0,0,1,6.08-3.71c.51,2.4,1.35,4.71,1.85,7.1a78.08,78.08,0,0,1,1.28,7.89,54.24,54.24,0,0,1,.2,8,50.6,50.6,0,0,1-.93,7.88c-.55,2.58-1.34,5.13-1.91,7.76a19.63,19.63,0,0,0-.5,4.08,8.5,8.5,0,0,0,.07.87,3.69,3.69,0,0,0,.08.46h0a2.62,2.62,0,0,0,.11.4.43.43,0,0,0,0,0c0,.12.08.23.13.35a2.83,2.83,0,0,0,1.7,1.6,7.4,7.4,0,0,0,2.63.22l.32,0a9.2,9.2,0,0,0,2.56-.71c.35-.15.69-.32,1-.49h0l0,0,.35-.2.34-.2c.23-.14.45-.29.67-.44a17.66,17.66,0,0,0,1.65-1.32q.25-.22.51-.48a5.44,5.44,0,0,0,.48-.48c.25-.24.48-.49.71-.75,2.24-1.09,4.45-1.93,7.3-3.12,3.41-1.42,8.57-3.12,13.36-5.42Z"/>
    <path class="cls-6" d="M942.1,230.62c-5.05-38.43-36.17-53.93-95.66-70.6-37.86-10.62-63.67-28.53-76.73-53.24-.37-.7-.75-1.42-.9-1.61s-.41-.55-.61-.84c-1.53-2.18-3.62-5.18-21.83,4-7.47,3.79-12,8.2-13,12.76a9.31,9.31,0,0,0,1.34,7.37c26.69,40.14,25.18,75.46,24.69,87.06,0,1-.08,1.78-.09,2.45,0,1.15-.11,2.73-.22,4.73-.73,13.31-2.43,44.48,9.4,59.69,4.7,6,6.59,12,5.64,17.72-1.39,8.33-12.31,10.61-12.61,10.81a46.85,46.85,0,0,0,6.28-4.66,11.11,11.11,0,0,0,3-4.94c-4.56,4.79-15.26,10.43-40.36,10.43-18.73,0-30.53-6.43-43-13.24-16.14-8.79-34.44-18.77-72.73-18.93h-4l-2.49.05-2.49.07-.47,0c-.93,0-1.84.07-2.75.12-.74,0-1.47.07-2.2.12l-.5,0c-.45,0-.89.05-1.33.09l-.52,0-2.68.2-1.78.16-1.66.16-2.14.23c-1.15.13-2.27.26-3.39.41l-1.85.25c-1.3.18-2.59.38-3.86.58l-2.07.35-1.34.23-2.17.41-2.14.43-.24,0c-.71.14-1.41.29-2.11.45l-2.19.5-1.45.34-1.38.34-1.53.4-2,.53-2,.58q-.93.25-1.83.54l-.18.05-1.36.42-.08,0-.88.28c-.83.26-1.64.52-2.45.8-.6.2-1.19.4-1.77.61l-1.13.4-1.74.63c-.64.24-1.27.47-1.89.72s-1.19.46-1.77.7l-1.08.43-1.3.55-1.66.71-1.06.46c-.74.32-1.47.66-2.19,1l-1.57.74-1.54.74q-5.16,2.52-9.64,5.14l-1.33.77c-1.31.78-2.59,1.56-3.82,2.33l-1.22.78c-5.63,3.6-10.38,7.09-14.39,10.1L502.32,317c-1.75,1.32-3.37,2.53-4.88,3.62-3.1,2.25-7.13,5.58-11.8,9.43-21.67,17.88-57.92,47.79-104.19,58-4.69,1-9.38,2-14.05,3-55,11.6-106.9,22.56-120.55,92.7-11.77,60.46,5.11,76.14,23,92.74a142,142,0,0,1,13.8,14.1c15,18.36,15,30.66,13.06,37.13,31.22-30.67,43.13-62.06,46.78-87.29,0-.17,0-.34.07-.51a131.56,131.56,0,0,0,1.27-15.27,136.07,136.07,0,0,0-.41-14.33c0-.19,0-.38,0-.57a.13.13,0,0,0,0-.06A140.34,140.34,0,0,0,340.57,487c-.05-.21-.11-.42-.16-.63,0,0,0,0,0-.06h0q-2.92-9.09-6.54-18.8s-1.14-3.42-1.84-5.55-5.23-14.68-5.43-15.35l.75-.23c.05.16,5.59,13.57,6.46,15.68s1.86,4.56,1.88,4.61c.59,1.45,1.18,2.81,1.75,4v0a27.29,27.29,0,0,0,2.12,3.88c.17.24.33.48.5.71s.17.25.27.37c5.62,7.79,12.48,13.3,18.88,17.72l1,.67c1.86,1.27,3.68,2.44,5.4,3.56,3,1.95,5.73,3.72,8,5.5q-7.46-37.5,12.94-56c16.39-14.86,43.36-17.1,63.09-16.37,21.65.81,41.78,5.4,48.14,7.49,1.3.43,2.6.82,3.89,1.19l1.38.38,1.51.4,1.54.37,1.13.26.1,0,1.16.26.32.06,2,.39h0L513,442l.29.05c1.25.2,2.5.38,3.74.54l.5.06c.63.07,1.25.15,1.88.21l.18,0c.64.07,1.29.13,1.93.18,1.41.13,2.81.22,4.2.29l2.09.08c1.33.05,2.66.07,4,.07h.78c.84,0,1.68,0,2.52,0,1,0,2.08-.06,3.11-.11s2.05-.1,3.07-.17l3-.23,3-.29c1.94-.2,3.84-.44,5.72-.7l.14,0c1-.13,1.92-.27,2.86-.42l1.57-.24.55-.09h.07l1.55-.26,1.84-.32,2.31-.42,3-.58c3.5-.69,6.85-1.39,10-2.07,3.69-.78,7.18-1.52,10.35-2.1a67.67,67.67,0,0,1,38,4.13c19.43,7.56,25.36,20.78,27.1,28.37,1.82,7.92.67,15.89-2.79,19.39-1.66,1.68-3.24,3.06-4.76,4.39-8.9,7.78-16.58,14.5-34.07,74C603,592.2,580.55,616.26,575,621.25c-1.27,1.13-2.57,2.21-3.83,3.26-3.58,3-6.95,5.76-8.93,9.21-1,1.82-1.39,8.8.28,14.34.78,2.58,1.51,4.43,3.15,5.06,6.84,2.61,13.52-1,19.83-4.25,6.08-3.15,22.24-11.51,49.88-16.49C692.6,619,702.57,605,717.67,583.74c28.35-39.86,12-86.79,4.11-109.34-.51-1.48-1-2.87-1.43-4.15-1.15-3.39-2.92-7.46-5-12.18-10.34-23.87-27.65-63.84,11-83.51,17.6-9,30.79-9.23,46.07-9.54,20.17-.42,45.27-.94,90.65-23.37,36.17-17.89,59.33-36.22,70.8-56C944.94,266.52,944.36,247.9,942.1,230.62ZM291.7,550.77c-2.46,3.42-5.52,5.16-9,5.16a12.25,12.25,0,0,1-3.93-.69c-11.8-4-16.24-23.84-16.46-41-.28-22.08,6-46.86,18.57-51.52,2-.74,5-.76,8.15,3.33C300,480.48,303.5,534.41,291.7,550.77ZM669.8,297.58a2.94,2.94,0,0,1-.27.67h0a7,7,0,0,1-2.69,2.39c-12.13,28.25-31.58,50.47-59.55,66.78,0,0-.75.63-7.7,4,0,.3,0,.6,0,.9-.47,13.17-7.22,27.67-25.34,38.29-6.33,3.14-11.59,4.31-15.92,4.31-.47,0-.93,0-1.38,0h-.11c-.31,0-.62,0-.91-.08h0l-.45-.06-.15,0c-.35-.05-.69-.1-1-.17l-.48-.09-.14,0c-.33-.07-.66-.15-1-.24s-.35-.09-.52-.15l-.5-.16-.55-.19c-.19-.07-.37-.13-.54-.21l-.08,0c-.32-.13-.63-.27-.93-.41s-.75-.37-1.1-.56-.5-.29-.74-.44l-.83-.54-.2-.14-.53-.39c-.31-.24-.62-.48-.92-.75s-.59-.52-.87-.8-.57-.55-.84-.85h0c-.27-.28-.52-.58-.78-.88l0-.05c-.25-.3-.49-.61-.72-.92s-.5-.69-.74-1.05-.29-.45-.43-.69-.25-.39-.36-.59q-.37-.64-.72-1.32a.25.25,0,0,1,0-.07s0,0,0-.05c-.21-.4-.41-.81-.59-1.23,0,0,0-.07,0-.1l-.3-.7c-.12-.28-.23-.57-.34-.86s-.19-.48-.27-.73-.18-.49-.26-.74l-.12-.36-.06-.19c-.16-.52-.32-1.05-.46-1.6-.09-.34-.18-.67-.26-1h0c-.18-.77-.35-1.56-.49-2.36-.05-.27-.09-.55-.13-.82a54.15,54.15,0,0,1,.57-18.8c2.2-11.05,8.14-23.63,18.66-31.51.24-.19.48-.36.72-.53a38.15,38.15,0,0,1,6.21-3.64.24.24,0,0,1,.1-.05,37.91,37.91,0,0,1,6.17-2.23h0A16.2,16.2,0,0,1,573,335c.33,0,.66,0,1,.05l.92.1.45.07h0a5.67,5.67,0,0,1,.57.1l.32.06h0l.91.22.12,0c.32.09.63.18.95.29h0l.79.28c.52.19,1,.4,1.53.64.27.12.54.25.81.4s.54.27.81.43.53.3.8.47.53.32.79.5l.78.54.13.09c-2.43-2-3.83-3.11-5.56-4.38a30.43,30.43,0,0,0-5.59-3.21c-1.41-.65-2.85-1.21-4.32-1.72,1.06-1.44,11.64-16,16-34.83a6.73,6.73,0,0,1-.48-1.19,4.59,4.59,0,0,1-.19-1.28,4,4,0,0,1,.07-.75,4.89,4.89,0,0,1,1.59-2.72c3.85-3.61,14.82-5.45,27.59-5.79l1,0c16.3-.35,35.26,1.7,46,5.57,5.64,2,8.68,4.48,9,7.26A2.93,2.93,0,0,1,669.8,297.58Zm35.65,216.35A28.59,28.59,0,0,1,710.4,524a70.37,70.37,0,0,1,2.38,22.33,80,80,0,0,1-4,22.14,43.78,43.78,0,0,1-4.95,10.24,23.41,23.41,0,0,1-3.78,4.37,14.1,14.1,0,0,1-5.06,3,11.59,11.59,0,0,1-2.94.56,8.83,8.83,0,0,1-3-.42,9.86,9.86,0,0,1-4.69-3.65,27.5,27.5,0,0,1-4.06-10.62,86.56,86.56,0,0,1-.86-22.38,109.87,109.87,0,0,1,4-22,54.94,54.94,0,0,1,4.15-10.36,21.67,21.67,0,0,1,3.16-4.61,8.39,8.39,0,0,1,4.75-2.84,9.72,9.72,0,0,1,5.53.67A11.9,11.9,0,0,1,705.45,513.93ZM900.38,245.7c-7.3,18.19-48,36.56-76.2,38.84-1.89.15-3.69.23-5.38.23-9.17,0-15.31-2.23-17.91-6.54a16.54,16.54,0,0,1-2.49-8.62c0-7.72,5.58-16,16.4-23.94,11.85-8.74,29.4-16.44,45.81-20.12,17.73-4,31-2.71,36.55,3.46C901.69,234.1,902.77,239.71,900.38,245.7Z"/>
    <path class="cls-7" d="M597.54,372.43l-.69.33c-4.79,2.3-10,4-13.36,5.42-2.85,1.19-5.06,2-7.3,3.12a27.88,27.88,0,0,0,2.25-2.85,35.94,35.94,0,0,0,3.75-7.16c.17-.42.32-.84.47-1.26s.27-.74.39-1.11c.3-.94.58-1.89.82-2.85.09-.39.19-.79.27-1.18v0c.09-.43.18-.85.25-1.28s.16-.88.22-1.32.13-.88.17-1.32h0c0-.23.05-.45.07-.67s0-.45.06-.68h0c0-.46.06-.91.08-1.37l0-.66c0-.39,0-.78,0-1.17s0-.56,0-.84c0-1.34-.13-2.69-.31-4l-.14-1-.21-1-.42-2a22.81,22.81,0,0,0-3.48-7.27,16.07,16.07,0,0,0-1.83-2q.72.28,1.44.63c.24.11.48.23.71.36l.26.14c.39.21.77.43,1.15.66.7.44,1.39.92,2.06,1.44q.59.46,1.17,1l.78.71,0,0c.15.13.29.28.44.42l.06.06c.26.25.51.5.75.76s.59.64.87,1l.21.24c.25.29.49.59.73.9l.28.35c.22.29.45.59.66.9a4.33,4.33,0,0,1,.27.37c.23.32.45.65.66,1a2.92,2.92,0,0,1,.24.37c.25.39.5.8.73,1.21a.07.07,0,0,1,0,.06c.16.25.3.51.45.78h0q.41.73.78,1.5c.2.4.39.8.58,1.22l.06.14c.23.5.45,1,.66,1.55A40.18,40.18,0,0,1,597.54,372.43Z"/>
    <path class="cls-1" d="M599.58,371.44c0,.3,0,.6,0,.9-.47,13.17-7.22,27.67-25.34,38.29-6.33,3.14-11.59,4.31-15.92,4.31-.47,0-.93,0-1.38,0h-.11c-.31,0-.62,0-.91-.08,0-.67-.07-1.34-.09-2,.31,0,.63.07,1,.09l.33,0c.4,0,.8,0,1.21,0,4.48,0,9.51-1.36,15-4.07,16.87-9.89,23.45-23.27,24.23-35.56,0-.3,0-.59,0-.88A40.18,40.18,0,0,0,594.75,356c-.21-.53-.43-1.05-.66-1.55l-.06-.14c-.19-.42-.38-.82-.58-1.22s-.51-1-.78-1.5h0c-.15-.27-.29-.53-.45-.78a.07.07,0,0,0,0-.06c-.23-.41-.47-.82-.73-1.21a2.92,2.92,0,0,0-.24-.37c-.21-.33-.43-.66-.66-1a4.33,4.33,0,0,0-.27-.37c-.2-.31-.43-.61-.66-.9l-.28-.35c-.23-.31-.48-.61-.73-.9l-.21-.24c-.28-.33-.58-.65-.87-1s-.49-.51-.75-.76l-.06-.06c-.15-.14-.29-.29-.44-.42l0,0-.78-.71q-.59-.5-1.17-1l.48-2.11c.36.26.72.53,1.08.83s.71.57,1.06.88l.73.67a.49.49,0,0,1,.13.12c.2.19.4.38.59.58s.51.51.76.78.34.37.51.57a.86.86,0,0,1,.13.14c.27.3.53.61.79.93s.71.88,1,1.34.52.71.77,1.07c.11.15.22.32.32.48.29.43.58.88.85,1.33.16.25.32.52.47.78s.3.52.44.79l.22.39c.28.54.56,1.09.82,1.65.16.33.32.66.47,1v0c.22.5.44,1,.64,1.51A42.26,42.26,0,0,1,599.58,371.44Z"/>
    <path class="cls-6" d="M666.83,300.65c-12.13,28.25-31.58,50.47-59.55,66.78,0,0-.75.63-7.7,4a42.26,42.26,0,0,0-3-16.23c-.2-.51-.42-1-.64-1.51v0c-.15-.34-.31-.67-.47-1-.26-.56-.54-1.11-.82-1.65l-.22-.39c-.14-.27-.29-.53-.44-.79s-.31-.53-.47-.78c-.27-.46-.55-.9-.85-1.33-.1-.16-.21-.33-.32-.48-.25-.36-.5-.72-.77-1.07s-.68-.91-1-1.34-.52-.63-.79-.93a.86.86,0,0,0-.13-.14q-.25-.3-.51-.57c-.25-.27-.5-.53-.76-.78s-.39-.39-.59-.58a.49.49,0,0,0-.13-.12l-.73-.67c-.35-.31-.7-.6-1.06-.88s-.72-.57-1.08-.83h0c-2.43-2-3.83-3.11-5.56-4.38a30.43,30.43,0,0,0-5.59-3.21c-1.41-.65-2.85-1.21-4.32-1.72,1.06-1.44,11.64-16,16-34.83,3.13,5.9,16.13,9.13,31,10.3l1,.07c4.13.31,8.39.45,12.61.45a145.58,145.58,0,0,0,27.77-2.38A33,33,0,0,0,666.83,300.65Z"/>
    <path class="cls-8" d="M669.8,297.58s-.22,1.53-3,3.07a33,33,0,0,1-9.17,3A145.58,145.58,0,0,1,629.89,306c-4.22,0-8.48-.14-12.61-.45l-1-.07c-14.88-1.17-27.88-4.4-31-10.3a6.73,6.73,0,0,1-.48-1.19,4.59,4.59,0,0,1-.19-1.28,4,4,0,0,1,.07-.75,4.89,4.89,0,0,1,1.59-2.72c3.85-3.61,14.82-5.45,27.59-5.79.34.63.65,1.28.93,1.93-12.63.24-23.52,1.91-27.15,5.32a2.54,2.54,0,0,0-.92,2.73c1.62,5.59,14.6,8.89,29.91,10.07l1,.08c13.63,1,28.94.3,39.65-1.91,8.14-1.68,10.85-3.77,10.67-5.17-.24-1.91-3-3.91-7.72-5.63-10.17-3.68-28.54-5.7-44.41-5.5q-.4-1-.9-1.95c16.3-.35,35.26,1.7,46,5.57,5.64,2,8.68,4.48,9,7.26A2.93,2.93,0,0,1,669.8,297.58Z"/>
    <path class="cls-9" d="M310.45,662.35a144.25,144.25,0,0,0-10.3,10.24c-7.41,8.9-15.54,8.81-18.89,7.73s-5.78-4.92-6.51-6.56c-6-13.4-4-21.32,6.59-29.84q6.74-5.4,12.59-10.86c34.86-32.41,47.77-66,51.58-92.74,0-.18.05-.36.08-.54.61-4.44,1-8.68,1.15-12.7,0-.15,0-.29,0-.44l.06-2.12a140,140,0,0,0-.86-19.1,272.58,272.58,0,0,1,6.65,33.86l.06.48c0,.27.07.54.1.81s0,.29.05.43C361.57,614.29,328.44,645.43,310.45,662.35Z"/>
    <path class="cls-9" d="M498.5,630.8c-1,2.93-2.54,4.51-4.68,4.72a128.09,128.09,0,0,0-20,4l-1.13.29-3,.81c-11.22,3-22.82,6.07-34.27,5.51-37.78-1.84-53.78-20.32-66.64-35.17-5.38-6.21-8.92-10.84-14.46-14.4,3.22-15,4.4-33.11,1.88-54.63l-.19-1.53c-2-16-11.71-49.31-12.85-52.95-1.65-5.31-2.07-6.35-2.69-8.35,5.9,7.44,12.81,12.68,19.13,16.94l1,.66c1.36.91,2.68,1.77,4,2.6a82.83,82.83,0,0,1,9.78,7h0l.71.67c12.13,11.77,21.73,27.78,31,43.27,9.13,15.23,17.76,29.62,27.25,36.47,1.28.92,2.83,2.27,4.63,3.83,7.83,6.78,19.9,17.23,35.12,16.13.32,0,.65,0,1-.09a34,34,0,0,0,10.64-3,6.89,6.89,0,0,1,8,1.27C498.51,610.11,500.82,623.75,498.5,630.8Z"/>
  </g>
  <g id="Contour">
    <g class="cls-10">
      <path class="cls-1" d="M606.26,596.24A55.38,55.38,0,0,0,616,586.8a97.29,97.29,0,0,0,7.89-11,141.84,141.84,0,0,0,11.91-24.39,204.87,204.87,0,0,0,7.84-26c2-8.83,5.55-17.52,11.49-24.49a72.4,72.4,0,0,1,10-9.31c.87-.73,1.73-1.46,2.55-2.23s1.61-1.59,2.39-2.4c1.56-1.64,3.06-3.34,4.45-5.12a42.53,42.53,0,0,0,6.67-11.71,40.81,40.81,0,0,0,2.32-13.28,79.67,79.67,0,0,0-1.05-13.52A57.43,57.43,0,0,0,679,430.18a46.3,46.3,0,0,0-2.93-6.11,57.2,57.2,0,0,0-3.68-5.71c-2.63-3.68-5.56-7.16-8.42-10.67,2.9,3.48,5.86,6.92,8.54,10.58a59.42,59.42,0,0,1,3.75,5.69,43.29,43.29,0,0,1,3,6.12,58.79,58.79,0,0,1,3.44,13.16,81.21,81.21,0,0,1,1.09,13.58,41.34,41.34,0,0,1-2.31,13.4,43,43,0,0,1-6.7,11.85c-1.4,1.8-2.9,3.51-4.46,5.16-.79.82-1.57,1.64-2.4,2.43s-1.7,1.51-2.57,2.24a73.55,73.55,0,0,0-9.87,9.28c-5.89,6.88-9.43,15.48-11.46,24.27a205.59,205.59,0,0,1-7.94,26,141.31,141.31,0,0,1-12,24.4,96.75,96.75,0,0,1-8,11A55.84,55.84,0,0,1,606.26,596.24Z"/>
    </g>
    <path class="cls-11" d="M332.35,460.73c-.41-2.23-1.93-3.71-2.81-5.79-.91-2.62-2.6-7.37-3-8.37a107.68,107.68,0,0,1-3.14-10.5l.66,0c.43,1.73,1.06,3.86,2,6.52.64,1.91.79,2.43,1.27,3.73s2.35,5.73,3.22,7.82A31.81,31.81,0,0,1,332.35,460.73Z"/>
    <path class="cls-12" d="M484.12,350.72A308.21,308.21,0,0,1,438,379.51,205.61,205.61,0,0,1,413,390.09c-2.13.77-4.31,1.41-6.48,2.07s-4.37,1.21-6.57,1.8c-4.39,1.13-8.83,2.05-13.25,3.06-8.85,2-17.65,4.12-26.29,6.84-4.32,1.36-8.62,2.79-12.86,4.37a93.43,93.43,0,0,0-12.48,5.29,25.86,25.86,0,0,0-9.83,8.79,14.42,14.42,0,0,0-1.91,6.1,17.67,17.67,0,0,0,.6,7l.18.72-.66,0c0-.23-.1-.46-.14-.69l0-.13a20.69,20.69,0,0,1-.31-6.8,15.3,15.3,0,0,1,2-6.29,26.23,26.23,0,0,1,9.91-8.91,95.06,95.06,0,0,1,12.51-5.35c4.24-1.6,8.54-3,12.86-4.42,8.64-2.76,17.45-5,26.3-7,4.42-1,8.87-1.9,13.25-3,2.19-.57,4.4-1.08,6.56-1.77s4.34-1.29,6.47-2.05a206.89,206.89,0,0,0,25-10.48c8.12-4,16-8.48,23.7-13.29S476.79,356.05,484.12,350.72Z"/>
    <g class="cls-10">
      <path class="cls-1" d="M346.58,461.22a14.65,14.65,0,0,1-4.15-8.26,14.36,14.36,0,0,1,1.86-8.95,27.1,27.1,0,0,1,5.89-7,54.26,54.26,0,0,1,7.39-5.32,54.43,54.43,0,0,0-7.22,5.51,26.35,26.35,0,0,0-5.61,7,13.74,13.74,0,0,0-1.57,8.61,13.94,13.94,0,0,0,4.08,7.63Z"/>
    </g>
    <g class="cls-10">
      <path class="cls-1" d="M779.13,126.76a55.31,55.31,0,0,0,9.11,11.18,94.37,94.37,0,0,0,11.21,9.12A148.09,148.09,0,0,0,824.73,161,189,189,0,0,0,852,170.49c9.28,2.57,18.9,3.77,28.22,6.39a134.72,134.72,0,0,1,27.07,10.24,80.53,80.53,0,0,1,23.11,17.37,61,61,0,0,1,13.7,25.4,79,79,0,0,1,1.66,28.89l-1-.11a78.18,78.18,0,0,0-1.53-28.56A60.07,60.07,0,0,0,929.83,205,80,80,0,0,0,907,187.7a134.5,134.5,0,0,0-26.92-10.3c-9.26-2.64-18.87-3.88-28.18-6.51a190.9,190.9,0,0,1-27.29-9.63,149.16,149.16,0,0,1-25.24-14.09A94.56,94.56,0,0,1,788.19,138,55.64,55.64,0,0,1,779.13,126.76Z"/>
    </g>
  </g>
  <g id="Ameebo_Inner" data-name="Ameebo Inner">
    <path class="cls-2" d="M688,585.76a83,83,0,0,0-19.11-8.26,34.23,34.23,0,0,0-10.07-1.26c-3.63,0-6.73.44-10.39.46-.57,0-1.14,0-1.71,0h-.5l-.81,0h-.07l-.77,0c-.6,0-1.12-.08-1.62-.14l-.64-.07-1-.15-.12,0-.06,0a5.39,5.39,0,0,1-.95-.27,8.44,8.44,0,0,1-2.43-1.41,12.63,12.63,0,0,1-3.26-4.48,24.6,24.6,0,0,1-1.68-5.26,50.85,50.85,0,0,1-1-10.93,83.3,83.3,0,0,1,.88-10.93,89.27,89.27,0,0,1,5.75-21.1,46.91,46.91,0,0,1,5.28-9.62,22.1,22.1,0,0,1,3.75-4,11.11,11.11,0,0,1,5-2.46,8.23,8.23,0,0,1,2.8,0,2.8,2.8,0,0,1,.28.06l.25,0c.44.11.66.17.93.26l.21.07.27.09.53.18.19.06,2.59.84c.86.28,1.74.49,2.62.74a77.21,77.21,0,0,0,10.66,2.19,71.8,71.8,0,0,0,10.87.78,98.67,98.67,0,0,0,11.07-1.25c-.77.1-.61.31-1.47.57a39.74,39.74,0,0,1-9.62,1,84.77,84.77,0,0,1-21.63-2.88c-.88-.25-1.77-.45-2.64-.73l-2-.63-.62-.2c-.8-.24-1.56-.54-2.34-.69h0l-.24-.05a8,8,0,0,0-2.63,0,10.65,10.65,0,0,0-4.71,2.38,21.74,21.74,0,0,0-3.63,4,46.58,46.58,0,0,0-5.16,9.52,89.48,89.48,0,0,0-5.59,21,83.74,83.74,0,0,0-.93,10.83,49.3,49.3,0,0,0,.87,10.79,24,24,0,0,0,1.6,5.14,12,12,0,0,0,3.09,4.3,8,8,0,0,0,4.86,1.85l1.12.1c1.25.11,2.5.16,3.76.17h.55c3.62,0,7.25-.41,10.91-.4a38.91,38.91,0,0,1,10.83,1.57c4.7,1.41,14.1,4.62,18.38,7C690.39,585.36,689,586.2,688,585.76Z"/>
    <path class="cls-2" d="M879.63,198.7l-.4-1.74-.21-.86c0-.08,0-.15,0-.23a1.42,1.42,0,0,0-.05-.22,1.66,1.66,0,0,0-.06-.21,5.74,5.74,0,0,0-.34-.9c.06.13.11.27.16.41a4.35,4.35,0,0,0-.43-.83,9.63,9.63,0,0,0-4.93-3.3,38.19,38.19,0,0,0-12.3-1.57,79.05,79.05,0,0,0-12.46,1.2,95.57,95.57,0,0,0-23.88,7.39,140,140,0,0,0-21.79,12.42,75.22,75.22,0,0,0-9.64,8,34,34,0,0,0-4,4.73,12,12,0,0,0-2.32,5.55,4.82,4.82,0,0,0,.37,2.29,3.4,3.4,0,0,0,.26.5c.42.65.92,1.33,1.38,2,.13.19.25.38.37.57a59.69,59.69,0,0,1,3.15,5.5,69.8,69.8,0,0,1,4.68,11.73,75.89,75.89,0,0,1,2.59,12.09c.52,4.17.07,5.77,1,9.42.19,2.73-1.47,4-2.09-.17s-1.75-15.13-2.39-18.45c-.49-2.57-2.47-10.62-4.42-14.31a58.25,58.25,0,0,0-3.19-5.39c-.56-.9-1.18-1.69-1.79-2.61a1.38,1.38,0,0,1-.14-.24,5.56,5.56,0,0,1-.63-3,12.65,12.65,0,0,1,2.43-6,34.21,34.21,0,0,1,4.1-4.87,75.18,75.18,0,0,1,9.73-8.1,140.39,140.39,0,0,1,21.9-12.59,96.84,96.84,0,0,1,24.15-7.39,80.55,80.55,0,0,1,12.6-1.17A38.4,38.4,0,0,1,873.59,190a13,13,0,0,1,3.73,2c.17.13.33.27.48.41l0,0a7.94,7.94,0,0,1,.57.59c.17.2.34.42.5.65s.15.26.22.39a2.44,2.44,0,0,1,.14.28c0,.11.1.22.14.33a2,2,0,0,1,.14.39.68.68,0,0,1,.07.23c.07.25.12.49.17.72a.61.61,0,0,1,0,.13h0A6.15,6.15,0,0,1,879.63,198.7Z"/>
    <path class="cls-2" d="M898.48,232.44c-2.69-3.23-4-3.72-6.6-7-1.29-1.66-4.8-7.27-5.14-7.8a62.51,62.51,0,0,1-3.17-5.66A61.25,61.25,0,0,1,879.94,200l-.31-1.32a6.15,6.15,0,0,0,.17-2.54c.05.21.09.42.14.63l.67,3.08a66,66,0,0,0,3.82,12.31c1.68,3.82,10.66,13.95,13.15,17.32S895.86,229.15,898.48,232.44Z"/>
    <path class="cls-13" d="M542.49,319.27a13.26,13.26,0,0,0-2.9-1.3,9.41,9.41,0,0,0-1-.24s.44.46.51.52h0a2.54,2.54,0,0,1,.37.1,12.64,12.64,0,0,1,2.79,1.3,21.61,21.61,0,0,1,4.36,3.68q.64.36,1.32.69A22.37,22.37,0,0,0,542.49,319.27Z"/>
    <path class="cls-2" d="M536.44,317.53a14.76,14.76,0,0,0-6.14,1.38,29.44,29.44,0,0,0-9.74,7.81c-5.45,6.39-9.34,13.93-12.51,21.64,3.22-7.69,7.14-15.21,12.61-21.55a28.66,28.66,0,0,1,9.75-7.65,14.43,14.43,0,0,1,6-1.27,13.93,13.93,0,0,1,1.71.16l-.43-.44C537.29,317.56,536.86,317.54,536.44,317.53Z"/>
    <path class="cls-2" d="M556,340a43.34,43.34,0,0,0-4.85-11.63,35.12,35.12,0,0,0-2.3-3.32c-.42-.21-.83-.43-1.24-.65a34,34,0,0,1,3,4.29,42.23,42.23,0,0,1,4.61,11.51c.14.56.26,1.12.38,1.68.24-.19.48-.36.72-.53C556.17,340.94,556.07,340.49,556,340Z"/>
    <path class="cls-2" d="M520.15,391.23c-.09.12-.24.32-.34.43a27,27,0,0,1-8.06-7.39,34,34,0,0,1-5.39-11.3,38,38,0,0,1,1-22.88,37.89,37.89,0,0,0-.87,22.83A34.12,34.12,0,0,0,512,384.05,26.43,26.43,0,0,0,520.15,391.23Z"/>
    <path class="cls-3" d="M528.68,394.39a18.93,18.93,0,0,1-7.42-2c-.39-.19-.78-.39-1.15-.6h0l-.23-.13.21.09a15,15,0,0,0,1.77.53l.55.12.39.08.12,0,.09,0h0a17.1,17.1,0,0,0,3.78,1l.3.12.85.36Z"/>
    <path class="cls-2" d="M536.45,393.05a17.54,17.54,0,0,1-2.77.89,16.53,16.53,0,0,1-4.13.48c-.49-.27-1-.51-1.52-.75a16.25,16.25,0,0,0,5.47-.47,17.39,17.39,0,0,0,2.82-1C536.36,392.5,536.4,392.78,536.45,393.05Z"/>
    <path class="cls-1" d="M555.88,365.09a57.44,57.44,0,0,1-4.34,11.85,42.43,42.43,0,0,1-7.08,10.47,24.8,24.8,0,0,1-6.09,4.73c0-.29-.09-.59-.13-.89a24.62,24.62,0,0,0,5.57-4.45,41.48,41.48,0,0,0,6.86-10.28A61.52,61.52,0,0,0,555,364.86a51.08,51.08,0,0,0,1-20.74l.75-.59A51.75,51.75,0,0,1,555.88,365.09Z"/>
    <path class="cls-1" d="M585.07,356.35c0,.39,0,.78,0,1.17l0,.66c0,.46,0,.91-.08,1.37h0c0,.22,0,.45-.06.68s0,.44-.07.67h0c0,.44-.11.88-.17,1.32s-.14.89-.22,1.32-.16.85-.25,1.28v0l-.27,1.18c-.24,1-.52,1.91-.82,2.85-.13.38-.25.75-.39,1.11s-.3.84-.47,1.26a35.94,35.94,0,0,1-3.75,7.16,27.88,27.88,0,0,1-2.25,2.85c-.23.26-.46.51-.71.75a5.44,5.44,0,0,1-.48.48q-.25.25-.51.48a17.66,17.66,0,0,1-1.65,1.32c-.22.15-.44.3-.67.44l-.34.2-.35.2,0,0h0c-.33.17-.67.34-1,.49a9.2,9.2,0,0,1-2.56.71l-.32,0a7.4,7.4,0,0,1-2.63-.22,2.83,2.83,0,0,1-1.7-1.6c0-.12-.09-.23-.13-.35a.43.43,0,0,1,0,0,2.62,2.62,0,0,1-.11-.4h0a3.69,3.69,0,0,1-.08-.46,8.5,8.5,0,0,1-.07-.87,19.63,19.63,0,0,1,.5-4.08c.57-2.63,1.36-5.18,1.91-7.76a50.6,50.6,0,0,0,.93-7.88,54.24,54.24,0,0,0-.2-8,78.08,78.08,0,0,0-1.28-7.89c-.5-2.39-1.34-4.7-1.85-7.1l.09,0c.51,2.39,1.35,4.71,1.86,7.12a67.32,67.32,0,0,1,1.92,15.88,51.57,51.57,0,0,1-.66,8c-.51,2.64-1.24,5.22-1.74,7.81a19.33,19.33,0,0,0-.48,3.59v.26a5.42,5.42,0,0,0,.06.81,2.22,2.22,0,0,0,1.37,2,7,7,0,0,0,3.65-.09,11.89,11.89,0,0,0,3.43-1.68l.3-.22.1-.07a23,23,0,0,0,5-5.29,35.8,35.8,0,0,0,3.74-6.95,40.2,40.2,0,0,0,2.51-9.11c.07-.47.13-.95.19-1.43a38.59,38.59,0,0,0,.26-4.93,37.25,37.25,0,0,0-.27-3.95l-.13-1-.19-1-.4-1.94a22.45,22.45,0,0,0-3.32-7.11,15.24,15.24,0,0,0-2.53-2.73c.37.12.73.25,1.1.39a16.07,16.07,0,0,1,1.83,2,22.81,22.81,0,0,1,3.48,7.27l.42,2,.21,1,.14,1c.18,1.33.26,2.68.31,4C585.07,355.79,585.07,356.07,585.07,356.35Z"/>
    <path class="cls-14" d="M564.55,334a2.69,2.69,0,0,1,.93-.26,5.32,5.32,0,0,1,1-.07A17.05,17.05,0,0,1,573,335c.33,0,.66,0,1,.05a17.47,17.47,0,0,0-7.52-1.59,5.66,5.66,0,0,0-1,.09,2.84,2.84,0,0,0-1,.29,3.62,3.62,0,0,0-1.49,1.36,4.69,4.69,0,0,0-.5,2.52.24.24,0,0,1,.1-.05,4.72,4.72,0,0,1,.53-2.4A3.54,3.54,0,0,1,564.55,334Z"/>
    <path class="cls-3" d="M597.54,372.43c0,.29,0,.58,0,.88-2.29,1.07-4,1.84-4,1.84s-8.55,3.39-9.43,3.77a111.09,111.09,0,0,0-11.88,5.85l-.34.2-.35.2,0,0a.18.18,0,0,1-.07.05s0,0,0,0h0c.52-.37.71-1.48,1.17-1.9l.1-.07a38,38,0,0,1,3.51-1.93c2.24-1.09,4.45-1.93,7.3-3.12,3.41-1.42,8.57-3.12,13.36-5.42Z"/>
    <path class="cls-14" d="M669.8,297.58l-.27.67h0c-12.12,30-33.34,53.66-62.72,70.43-1.79,1-4.63,2.42-7.24,3.65,0-.3,0-.6,0-.9,6.95-3.38,7.7-4,7.7-4,28-16.31,47.42-38.53,59.55-66.78.56-1.29,1.48-.39,2-1.71Z"/>
    <path class="cls-14" d="M584.77,339.33h0l-.48,2.11c-1.78-1.54-3.84-3.64-6-5.48h0a20.69,20.69,0,0,0-5-3.38c-1.52-.63-3.07-1.19-4.64-1.71l-.67-.22c-2.22-.72-4.48-1.35-6.76-1.93-2.06-.51-4.13-1-6.21-1.41a25.27,25.27,0,0,1-6.07-2.18l-.1-.05c-.42-.21-.83-.43-1.24-.65a53.28,53.28,0,0,1-9.42-6.39l-.43-.44h.13l.73.11.45.46.08.07.09.09a49.52,49.52,0,0,0,7.43,5q.64.36,1.32.69l1.21.59a24.44,24.44,0,0,0,6,2c2.09.4,4.18.81,6.27,1.27,2.43.54,4.85,1.16,7.22,1.94l.69.23c1.47.51,2.91,1.07,4.32,1.72a30.43,30.43,0,0,1,5.59,3.21C580.94,336.22,582.34,337.29,584.77,339.33Z"/>
    <polyline class="cls-15" points="537.71 317.61 537.77 317.61 537.84 317.62"/>
    <path class="cls-14" d="M548.67,410.31l-1.82,1.2a21.45,21.45,0,0,1-2.17-1.64,14.75,14.75,0,0,1-1.46-1.38c-1-1.06-2-2.09-3-3.2-1.88-2.23-3.63-4.56-5.69-6.6a24.14,24.14,0,0,0-5.76-4.23l-.13-.07-.74-.38-.85-.36-.3-.12a11.49,11.49,0,0,0-1.93-.58c-.53-.12-1.17-.28-1.85-.4h0l-.09,0-.12,0-.39-.08-.55-.12a15,15,0,0,1-1.77-.53l-.21-.09-.05,0c.1-.11.25-.31.34-.43l.16.08a31.14,31.14,0,0,0,4.29,1.26,17.9,17.9,0,0,1,3.34,1.06l.09,0c.52.24,1,.48,1.52.75a37.34,37.34,0,0,1,6.83,4.82,73.23,73.23,0,0,1,5.47,5.22c1,1.08,1.72,2.06,2.75,3.06A15.77,15.77,0,0,0,548.67,410.31Z"/>
    <path class="cls-14" d="M655.83,505.77l-.25,0h.08Z"/>
    <path class="cls-14" d="M641.15,576.19l.06,0-.17,0Z"/>
    <path class="cls-14" d="M646.21,576.67h.48Z"/>
    <path class="cls-14" d="M666,533.24a93.86,93.86,0,0,1-.72,11A65.94,65.94,0,0,1,662.86,555a48.38,48.38,0,0,1-4.38,10.1,31,31,0,0,1-7.09,8.79,22,22,0,0,1-3.52,2.34c-1.26,0-2.51-.06-3.76-.17a15.28,15.28,0,0,0,1.57-.27,11.49,11.49,0,0,0,5.31-2.59c2.46-1.82,5.08-5.33,6.83-8.48a58.38,58.38,0,0,0,6.43-20.61,91.29,91.29,0,0,0,.8-10.84,63.16,63.16,0,0,0-.85-10.82,33.4,33.4,0,0,0-3.41-10.24,19.51,19.51,0,0,0-3.16-4.39c-.33-.31-.65-.63-1-.92a3.89,3.89,0,0,0-1.16-.68c.78.15,1.54.45,2.34.69l.62.2a28,28,0,0,1,4.15,6.91,40.05,40.05,0,0,1,2.36,8.29A56.82,56.82,0,0,1,666,533.24Z"/>
    <path class="cls-14" d="M878.39,193a7.94,7.94,0,0,0-.57-.59A4,4,0,0,1,878.39,193Z"/>
    <path class="cls-14" d="M879.63,198.7a9.38,9.38,0,0,1-.4,1.2,22,22,0,0,1-5,6.75,49.61,49.61,0,0,1-6.15,5,98.65,98.65,0,0,1-13.56,7.94c-4.75,2.26-9.6,4.27-14.53,6.09s-9.94,3.4-15,4.8a141,141,0,0,1-15.55,3.21c-2.59.41-5.2.74-7.83.92a68.1,68.1,0,0,1-7.88-.08,18.53,18.53,0,0,1-4-.82l-.82-.33c-.46-.7-1-1.38-1.38-2a3.4,3.4,0,0,1-.26-.5,6,6,0,0,0,2.78,2.51,16.2,16.2,0,0,0,3.79.81c5.18.47,10.34-.32,15.47-1.2a181.3,181.3,0,0,0,30.15-8.42c9.78-3.65,19.45-7.81,28.16-13.55a49.35,49.35,0,0,0,6.15-4.78,18.82,18.82,0,0,0,4.64-6.13,7.31,7.31,0,0,0,.62-3.71l0-.24.21.86Z"/>
    <path class="cls-14" d="M344.67,460.27a4.37,4.37,0,0,0-1,.57,4.53,4.53,0,0,0-1.2,1.41,10.73,10.73,0,0,0-1.25.52,42.66,42.66,0,0,1-8,2.92,69.54,69.54,0,0,1-8,1.34,49,49,0,0,1-6.95.51c-2.42,0-5.06-.08-10.81-.61-4.54-.4-19.47-1.94-24-2.57-1.21-.18,1.27-1.82.06-2,5.75.59,10.87,2.32,15.26,2.83s7.3.94,9,1.1,7.55.7,10.42.67a52,52,0,0,0,6.94-.56,70.49,70.49,0,0,0,7.9-1.36C337.72,463.94,341.87,461.22,344.67,460.27Z"/>
    <path class="cls-14" d="M343.55,539.84c0,.17,0,.34-.07.51-1.68,0-3.42.14-5,.25a109.91,109.91,0,0,0-17.64,2.32c-8.23,1.64-18,5.37-21.27,6.53s-10.61,4.83-13.8,6c-1.9.5.49-1.32,1.88-3.26a62.1,62.1,0,0,1,12.48-4.77c3.75-1,5.91-1.74,9.14-2.49s7.46-1.88,10.36-2.39a165.05,165.05,0,0,1,18.71-2.47C340.08,540,341.82,539.9,343.55,539.84Z"/>
    <path class="cls-3" d="M567.94,330.66l.67.22c-.57.65-1.28,1.42-1.5,1.65s-.62.64-1,1a4.21,4.21,0,0,0-1.88.49,10.84,10.84,0,0,0,2.38-1.85c.29-.34.72-.79,1-1.13Z"/>
    <path class="cls-14" d="M585.27,295.19c-4.33,18.82-14.91,33.39-16,34.83l-.69-.23.29-.4A96.62,96.62,0,0,0,584.6,292l.07,0a4,4,0,0,0-.07.75,4.59,4.59,0,0,0,.19,1.28A6.73,6.73,0,0,0,585.27,295.19Z"/>
  </g>
  <g id="process">
    <path class="cls-1" d="M882.93,614.68c-6.76-18.72-18.35-32.31-28.34-33.94a13.43,13.43,0,0,0-2-.16,11.48,11.48,0,0,0-1.86.16,18.34,18.34,0,0,0-2.94.72l-.24.08h0c-7,2.47-7.58,8.3-8.28,15.46-.76,7.89-1.72,17.72-10.33,29.17-15.57,20.69-11.45,54,2.64,69.89,4.69,5.31,10.07,8,15.54,8a17.35,17.35,0,0,0,6-1.08h0l.15-.06.77-.3a19.27,19.27,0,0,0,2.27-1.14,70.79,70.79,0,0,0,8.79-6h0a59.56,59.56,0,0,0,21.61-34.69C889.87,646.6,888.52,630.2,882.93,614.68Zm-27.64,85.09c-10.25,5.9-18.33-.61-22.23-5-13.58-15.35-17.55-47.42-2.54-67.37,9-11.9,9.34-23.13,10.09-30.84.7-7.24,1.15-11.93,7.32-13.9l.05,0,.1,0a18.89,18.89,0,0,1,2.37-.55l1.47-.13c9.8-.89,22.12,12.22,29.31,32.17C891.27,641.92,889.59,680,855.29,699.77Z"/>
    <path class="cls-16" d="M855.29,699.77c-10.25,5.9-18.33-.61-22.23-5-13.58-15.35-17.55-47.42-2.54-67.37,9-11.9,9.34-23.13,10.09-30.84.7-7.24,1.15-11.93,7.32-13.9l.05,0,.1,0a18.89,18.89,0,0,1,2.37-.55l1.47-.13c9.8-.89,22.12,12.22,29.31,32.17C891.27,641.92,889.59,680,855.29,699.77Z"/>
    <path class="cls-14" d="M1006,576a4.91,4.91,0,0,1,1.08.13A2.91,2.91,0,0,0,1006,576Zm-5.29,1.39a20.28,20.28,0,0,0-2.62,2.87,62.74,62.74,0,0,0-7.22,13.48c-2,4.7-3.66,9.5-5.24,14.34s-3.05,9.7-4.53,14.56c1.51-4.85,3-9.72,4.61-14.54s3.42-9.57,5.48-14.22a62,62,0,0,1,7.49-13.15c1.57-1.92,3.43-3.77,5.71-4.49a5.91,5.91,0,0,1,1.17-.23c-.87,0-2.06.14-3.49.32A11,11,0,0,0,1000.69,577.4ZM1006,576a4.91,4.91,0,0,1,1.08.13A2.91,2.91,0,0,0,1006,576Z"/>
    <path class="cls-14" d="M1018.34,673.55c-.73.61-2.57,2.07-5.27,3.92a17.72,17.72,0,0,1-6,.43,22.77,22.77,0,0,1-7.47-2.07,32.86,32.86,0,0,1-11.87-9.61,42.59,42.59,0,0,1-7.08-13.5,47.45,47.45,0,0,1-2.08-15.07,56.55,56.55,0,0,1,.74-7.58,63.1,63.1,0,0,1,1.79-7.42,61,61,0,0,0-1.75,7.42,53.55,53.55,0,0,0-.71,7.59,45.66,45.66,0,0,0,2.24,15,40.48,40.48,0,0,0,7.26,13.24,32.24,32.24,0,0,0,11.82,9.16c4.54,2,9.85,2.59,14.44.77A15.59,15.59,0,0,0,1018.34,673.55Z"/>
    <path class="cls-7" d="M1027.69,651a44,44,0,0,1-3.32,14.51,23.27,23.27,0,0,1-4,6.19,20.68,20.68,0,0,1-1.68,1.56l0,0-.09.07a2.16,2.16,0,0,1-.25.2c-.73.61-2.57,2.07-5.27,3.92-5.9,4-15.94,9.93-27.7,12.91-18.92,4.81-53.7,2.49-81.65.62l-.65,0c-21.93-1.46-37.67,4.46-38,4.58a59.56,59.56,0,0,0,21.61-34.69c3.17-14.25,1.82-30.65-3.77-46.17-6.76-18.72-18.35-32.31-28.34-33.94a60.31,60.31,0,0,1,18.08-1.61,102.24,102.24,0,0,1,13,2.34c9.56,2.11,22,4.86,39.13,4.86,3.73,0,7.68-.13,11.87-.43,19.33-1.37,38.49-4.89,52.47-7.46,5-.93,9.64-1.69,12.93-2.1,1.43-.18,2.62-.29,3.49-.32h.44a2.91,2.91,0,0,1,1.08.13,4.32,4.32,0,0,1,.72.23,8.38,8.38,0,0,1,2.91,2,24.68,24.68,0,0,1,4.08,6.17,63.42,63.42,0,0,1,2.88,7c1.66,4.76,3,9.64,4.21,14.56s2.26,9.88,3.21,14.86,1.83,9.95,2.3,15A91.47,91.47,0,0,1,1027.69,651Z"/>
    <path class="cls-1" d="M1029.48,651.15a43.82,43.82,0,0,1-3.72,15,24.5,24.5,0,0,1-4.4,6.48c-.39.4-.79.77-1.22,1.14h0l0,0-.06,0c-1.44,1.29-17,14.4-35.14,19-19.07,4.84-53.94,2.52-82,.65l-.65,0c-19.43-1.3-43.25,7.27-48.26,9.16l-.77.3-.15.06h0l12-7.46h0c.31-.12,16-6,38-4.58l.65,0c27.95,1.87,62.73,4.19,81.65-.62,11.76-3,21.8-8.88,27.7-12.91,2.7-1.85,4.54-3.31,5.27-3.92a2.16,2.16,0,0,0,.25-.2l.09-.07,0,0a20.68,20.68,0,0,0,1.68-1.56,23.27,23.27,0,0,0,4-6.19,44,44,0,0,0,3.32-14.51,91.47,91.47,0,0,0-.32-15.07c-.47-5-1.34-10-2.3-15s-2-9.94-3.21-14.86-2.55-9.8-4.21-14.56a63.42,63.42,0,0,0-2.88-7,24.68,24.68,0,0,0-4.08-6.17,8.38,8.38,0,0,0-2.91-2,4.32,4.32,0,0,0-.72-.23A2.91,2.91,0,0,0,1006,576h-.44c-.87,0-2.06.14-3.49.32-3.29.41-7.88,1.17-12.93,2.1-14,2.57-33.14,6.09-52.47,7.46-4.19.3-8.14.43-11.87.43-17.11,0-29.57-2.75-39.13-4.86a102.24,102.24,0,0,0-13-2.34,60.31,60.31,0,0,0-18.08,1.61,62.44,62.44,0,0,0-6.51,1.85l-.1,0-.05,0-.4-1.09h0l.24-.08c1.89-.64,13.34-4.27,24.94-3.33a103.41,103.41,0,0,1,13.12,2.36c11.58,2.56,27.45,6.06,50.71,4.41,19.28-1.36,38.4-4.87,52.36-7.44,11.28-2.07,16.53-2.72,18.12-2.38a5.81,5.81,0,0,1,1.09.28,9.5,9.5,0,0,1,3.36,2.21A25.32,25.32,0,0,1,1016,584a66,66,0,0,1,3.14,7,140.07,140.07,0,0,1,4.54,14.65c1.27,5,2.35,9.94,3.34,14.94a148,148,0,0,1,2.29,15.17A87,87,0,0,1,1029.48,651.15Z"/>
    <path class="cls-1" d="M1020.14,673.78h0Z"/>
    <path class="cls-1" d="M1110.74,298.62l-.08.1,0,0c-7.5,8.37-13,18.05-18.34,27.43-3.14,5.53-6.2,10.91-9.54,15.81,0,.05-4,5-13.21,6.06a16.05,16.05,0,0,1-12.65-3.8c-12.89-10.86-14.6-40.71-14.62-41l0-1-.77.67c-.1.09-3.86,3.36-9.19,8.81-9.22,9.43-23.14,25.38-30.92,42.6C989,381.67,923.66,413.94,899.25,417l-.36,0-.07.35c-.06.3-6,30.86,22,38.84,12.14,3.47,15.15,14,18.05,24.14,3.51,12.29,7.14,25,26.84,25,.82,0,1.66,0,2.54-.07,38.67-2,86.08-74.21,86.55-74.92l.09-.14V430c0-.14-.22-3.49-.23-8.75v-.06c0-4,.1-9,.48-14.6,1.22-17.69,5.25-40.67,17.47-51.27,8.48-7.36,14.36-17.7,20.58-28.66,5.28-9.26,9.95-18.07,17.22-26.23.44-.5.89-1,1.35-1.49,0-.53.07-1,.13-1.55Zm-38.83,56c-21,18.21-18.27,71.88-18.07,75.34-2.35,3.52-48.06,71.27-85.43,73.18-21.15,1.06-24.65-11.2-28.36-24.19-3-10.42-6.06-21.2-18.74-24.82-25.42-7.27-22.11-32.88-21.57-36.18,24.87-3.32,90.09-35.7,102.5-63.19,11-24.43,34.22-45.57,38.74-49.63.41,5.47,2.91,30.57,14.9,40.69a17,17,0,0,0,13.42,4,23.63,23.63,0,0,0,10.55-3.8A51.12,51.12,0,0,1,1071.91,354.58Z"/>
    <path class="cls-7" d="M1079.85,346a51.12,51.12,0,0,1-7.94,8.57c-21,18.21-18.27,71.88-18.07,75.34-2.35,3.52-48.06,71.27-85.43,73.18-21.15,1.06-24.65-11.2-28.36-24.19-3-10.42-6.06-21.2-18.74-24.82-25.42-7.27-22.11-32.88-21.57-36.18,24.87-3.32,90.09-35.7,102.5-63.19,11-24.43,34.22-45.57,38.74-49.63.41,5.47,2.91,30.57,14.9,40.69a17,17,0,0,0,13.42,4A23.63,23.63,0,0,0,1079.85,346Z"/>
    <path class="cls-1" d="M334.57,178.57c-13.61,1-29.55-5.09-44.07-11.78l-1.37-.63c-3.81-1.77-7.51-3.58-11-5.3-7.62-3.71-14.2-6.91-19.6-8.77a33.18,33.18,0,0,0-9-1.41l-1.23-.05c-9.17-.26-21.56,1.12-34.38,3.08l-1,.16c-7.38,1.14-14.88,2.47-21.95,3.78l-2.1.39-11,2.09c-8.44,1.62-15.73,3-20.57,3.72-9.77,1.42-19.12-1.35-26.13-4.54a62.28,62.28,0,0,1-12.06-7.14l-1.78-1.44,1,2.06c.12.24,12.08,24.74-1.45,45.88-1.93,3-3.72,5.92-5.46,8.72-8.76,14.12-15.49,25-26.59,30.27a122.54,122.54,0,0,1-17.27-8.29c-1.79-1.06-2.78-1.75-2.93-1.86l0,0s0,.09,0,.22l0,.73v.13a31.75,31.75,0,0,0,2.94,1.88,122.85,122.85,0,0,0,16.06,7.78c.36.15.68.29,1.3.52,13,5.07,32.74,9.35,60.15,6.78,54.41-5.1,93,5.44,111,17,14.82,9.52,28.16,11.27,30.72,11.52.59,8.77,1.7,23,16.79,23h.63c2.42-.05,4.53-1.58,6.4-4.17,7.43-10.32,10.88-37.44,13.19-55.07.89-6.81,1.59-12.19,2.22-14.15,2.76-8.61,4.78-22.47,5.32-29.56.05-.67.12-1.33.22-2a54,54,0,0,1,3.57-12.86l.33-.76Zm-.82,1.25-.09.23c-.22.56-.5,1.3-.8,2.19-.06.19-.12.38-.19.58s-.13.4-.2.62-.1.29-.14.44c-.35,1.11-.7,2.37-1,3.71-.08.3-.15.61-.21.92-.15.67-.28,1.36-.4,2.06q-.07.38-.12.75a.17.17,0,0,0,0,.07s0,0,0,0c0,.24-.07.47-.1.7-.09.64-.16,1.28-.21,1.93-.54,7.05-2.53,20.8-5.27,29.33-.66,2-1.33,7.2-2.27,14.33-2.65,20.32-7.6,58.15-18.76,58.36-14.74.27-15.67-13.34-16.27-22.36l0-.58-.44,0c-.14,0-14.5-1-30.68-11.4a89.88,89.88,0,0,0-18.74-8.8h0c-16-5.6-38.07-9.67-65.29-9.67-1.79,0-3.61,0-5.45.06h0q-10.57.19-22.1,1.26C118.26,247,99,243,86.08,238.15c10.84-5.53,17.52-16.31,26.16-30.24,1.74-2.79,3.53-5.68,5.46-8.7,11.72-18.33,4.74-39.08,2.26-45.13,4.84,3.4,20.51,13.22,37.44,10.76,4.85-.71,12.16-2.11,20.61-3.72,26.52-5.08,66.61-12.75,80.16-8.09,5.34,1.84,11.89,5,19.48,8.73,17.16,8.36,38.46,18.74,56.18,17.85C333.8,179.67,333.78,179.74,333.75,179.82Z"/>
    <path class="cls-1" d="M311.68,290.91c0,.06-.42.85-1.14,2-1.85,2.91-5.94,8.09-12.13,9.12a16.44,16.44,0,0,1-2.67.2c-3.78,0-8.2-1.05-13.17-2.24-6-1.42-12.71-3-20-3.24A101.71,101.71,0,0,0,245.72,298c-8.45,1.13-16.42,2.19-25.43,0-14.95-3.61-43.54-16.09-54.66-21.77-5.45-2.77-18.94-4.42-33.21-6.16-14.54-1.77-31-3.78-43.61-7.42-23.08-6.68-24.3-28.92-24.26-34.1v-.13c0-.32,0-.57,0-.73s0-.2,0-.22l3,1.88c0,.11,0,.49,0,1.08-.06,4.74,1.1,23.24,22.15,29.33,12.37,3.58,28.72,5.58,43.14,7.34C148,269,161.07,270.56,167,273.58c10.71,5.46,39.49,18,54,21.53,8.47,2.05,16.17,1,24.33-.06a104.38,104.38,0,0,1,17.33-1.31c7.61.22,14.52,1.87,20.61,3.32,5.88,1.4,10.95,2.61,14.65,2a21.66,21.66,0,0,0,6.22-2h0a12,12,0,0,0,3.84-2.84Z"/>
    <path class="cls-1" d="M266.5,206.24c0,.11,0,.21,0,.32v.07a.49.49,0,0,1,0,.12,68,68,0,0,1-2,14.26,58.86,58.86,0,0,1-5.29,13.91,41.49,41.49,0,0,1-4.08,6.23,35.84,35.84,0,0,1-5.15,5.37,33.61,33.61,0,0,1-6.19,4.11,34.31,34.31,0,0,1-6,2.26l-1,.25.93-.26a30.62,30.62,0,0,0,12.08-6.54,35.24,35.24,0,0,0,5-5.41,41,41,0,0,0,3.94-6.24,57.07,57.07,0,0,0,3.55-8.38c.39-1.13.73-2.28,1-3.43a66.26,66.26,0,0,0,2-10.91c.12-1.17.21-2.34.26-3.52,0-.57.05-1.13.07-1.7v-.2c0-.11,0-.22,0-.33a44,44,0,0,0-.78-9.39,28.62,28.62,0,0,0-1.52-5,37.22,37.22,0,0,0-7.94-12.24,36,36,0,0,0-5.56-4.76,37.48,37.48,0,0,0-6.36-3.64q-1.08-.48-2.19-.9c-.31-.13-.63-.25-.95-.36a33,33,0,0,0-3.79-1.13c-1.17-.34-2.39-.5-3.59-.75s-2.42-.35-3.65-.41a57.68,57.68,0,0,0-19.46,2c-.38.1-.76.2-1.14.32a77.77,77.77,0,0,0-8.16,2.81,101.55,101.55,0,0,0-11.28,5.41c-.66.37-1.31.74-2,1.13a56.45,56.45,0,0,0-10.23,7.84l0,0c-.43.41-.85.84-1.27,1.27a45.37,45.37,0,0,0-12.39,26.2,57,57,0,0,0,.09,14.76A60.62,60.62,0,0,0,167,243.27a.56.56,0,0,0,0,.12.61.61,0,0,1-.05-.12,60.36,60.36,0,0,1-3.67-13.82,56.88,56.88,0,0,1-.33-14.86,45.88,45.88,0,0,1,12.32-26.67c.43-.45.86-.89,1.3-1.33h0a55.84,55.84,0,0,1,10.31-8,97.67,97.67,0,0,1,13.35-6.65c9.18-3.76,19.17-6.05,29.18-5.3,1.25.07,2.49.28,3.73.44s2.47.42,3.67.77a40.51,40.51,0,0,1,7.09,2.47,38.84,38.84,0,0,1,6.5,3.74,37.93,37.93,0,0,1,5.68,4.9,38.42,38.42,0,0,1,8.09,12.55,31,31,0,0,1,1.9,7.26A50.65,50.65,0,0,1,266.5,206.24Z"/>
    <path class="cls-1" d="M248.7,44.93c-14.11,20.65-13.12,41.81-12.65,55.93a42.49,42.49,0,0,1-6.85,25.08c-.38.61-.76,1.2-1.16,1.78-2,3-4.22,5.69-6.33,8.29l-.24.3a36.32,36.32,0,0,0-7.56,17.4c0,.39-.07.61-.07.62l-1-.07s0-.17,0-.39a36.64,36.64,0,0,1,7.81-18.19l.25-.3c6.86-8.47,14.65-18.08,14.11-34.48-.58-17.46-.37-35.44,11.47-54a115.52,115.52,0,0,1-13,6.9c-1,.41-22.33,7.35-26.72,32.19-3.25,18.41-10.79,27.25-13.65,30,.32,1.1,3.55,12.62,2.67,21.48-.43,4.34-2.25,16-4.86,20.19l-.08.13-2.17.44a1.43,1.43,0,0,0,.15-.18c2-2.6,5-15.77,5.47-20.77.86-8.73-2.59-20.68-2.62-20.8s10.22-8.65,14.11-30.69c4.49-25.43,26.79-32.54,27.67-32.94,12.08-5.63,15.45-8.43,15.65-8.6Z"/>
    <path class="cls-1" d="M298.92,143.52l-1.3,1.78c-7.85,10.75-6.87,21.35-6.86,21.45l-.26,0-1.33.22s0-.32,0-.85a35.78,35.78,0,0,1,7.08-21.29l1.3-1.78c8.14-11.11,20.44-27.9,20-39.76-.42-12.12-8.47-20.42-14.94-27.09l-.6-.63c-5.52-5.7-8.42-17.88-9.33-22.29-1.68,4-6.18,15.52-7.15,25.74-1,10-6.29,22.06-10.18,30.85-1.13,2.54-2.19,4.93-3,7-1.41,3.49-5.11,9.3-9.16,15.17-5.55,8-11.77,16.19-13.66,18.65l-.55.71-.79-.61.11-.15c.93-1.2,7.18-9.34,13-17.69.72-1,1.43-2.05,2.12-3.07h0c3.59-5.27,6.73-10.3,8-13.37.82-2,1.89-4.44,3-7,3.86-8.72,9.15-20.66,10.09-30.53,1.21-12.75,7.82-27.4,7.88-27.55l.68-1.48.27,1.61c0,.16,2.92,16.71,9.37,23.36l.6.63c6.59,6.79,14.78,15.25,15.22,27.75C319,115.51,307.14,132.3,298.92,143.52Z"/>
    <path class="cls-1" d="M263.44,129.86h0l-.26,2.16c-.11.06-.78.41-1.86.91-3.15,1.44-9.76,4.07-16.13,4.07a18.66,18.66,0,0,1-2.61-.17c-7.66-1.09-12.9-7-14.54-9.12-.33-.42-.51-.68-.55-.74l1.65-1.13.06.09c.63.87,5.87,7.82,13.66,8.92C251.27,136.05,263.33,129.92,263.44,129.86Z"/>
    <path class="cls-1" d="M507.72,182.23a12.55,12.55,0,0,0-4.46-2.23,10,10,0,0,0-1.3-.27l-.4,0-.4,0a12,12,0,0,0-5.76,1.17l0,0c-9.62,4.47-16.32,19.64-18.76,35.3,0,.18-.06.36-.08.54-1.68,11.15-1.19,22.48,1.93,30.31a20.6,20.6,0,0,0,3.66,6.16,13.05,13.05,0,0,0,5.1,3.63l.71.25a13.1,13.1,0,0,0,4.05.61,18.93,18.93,0,0,0,6-1c11.26-3.78,18.82-14.13,21.29-29.15C522.16,209.55,517,189.27,507.72,182.23Zm9.52,44.89c-1.35,8.26-5.75,22.82-19.94,27.58-8,2.67-13.69-.17-17-8.44s-3.46-21.3-1.05-33.36l.18-.85c2.82-13.42,8.76-25.67,16.77-29.39a10.2,10.2,0,0,1,4.38-1,7.7,7.7,0,0,1,1.35.12,10.26,10.26,0,0,1,4.58,2.06C515.11,190.35,520,210.18,517.24,227.12Z"/>
    <path class="cls-1" d="M501.9,179.73l-.33,2c-1.85-.32-4.07-.62-6.17-.87s-4.25-.44-5.66-.56a58.51,58.51,0,0,0-10.8-.13,103.2,103.2,0,0,0-11,1.67c-1.82.36-3.65.62-5.52.85a55.45,55.45,0,0,1-5.62.4c-1.74.05-3.47,0-5.21-.07l-.93,0c-1.7-.1-3.4-.26-5.1-.45-3.72-.42-7.42-1-11.09-1.82a156.41,156.41,0,0,1-21.4-6.14c-6.09,1.41-12,5-15.38,10.22a21.82,21.82,0,0,0-3.26,8.82,37.76,37.76,0,0,0-.34,4.79c0,1.62,0,3.24.05,4.85a39.83,39.83,0,0,0,1.4,9.47,14.06,14.06,0,0,0,4.86,7.63c2.43,1.84,5.59,2.67,8.67,3.83a69.64,69.64,0,0,1,9.15,3.9,27.71,27.71,0,0,1,8,6.19c.57.7,1,1.23,1.56,1.84s1.09,1.14,1.67,1.68a41.64,41.64,0,0,0,3.71,3A53.13,53.13,0,0,0,450.43,249a34.46,34.46,0,0,0,4.74.75l4.86.54c3.25.35,6.52.7,9.76,1.18,6.45.93,8.51.82,12.32,1.67l.08,0,5.73,3.86-.71-.25a67.08,67.08,0,0,0-7.93-2.66,95.21,95.21,0,0,0-9.63-1.59c-3.23-.38-6.48-.63-9.74-.88l-4.9-.39a33.09,33.09,0,0,1-4.95-.69,50.6,50.6,0,0,1-9.4-3.29,56.17,56.17,0,0,1-8.66-4.93,37.88,37.88,0,0,1-3.93-3.12c-.62-.57-1.21-1.18-1.8-1.79l-1.62-1.88a25.75,25.75,0,0,0-7.46-5.69,66.59,66.59,0,0,0-8.85-3.84c-1.52-.57-3.06-1.11-4.61-1.73a18.32,18.32,0,0,1-4.52-2.47,13.6,13.6,0,0,1-3.45-3.92,19.83,19.83,0,0,1-2-4.73,41.85,41.85,0,0,1-1.35-9.9c0-1.66,0-3.31,0-5a36.74,36.74,0,0,1,.41-5,23.34,23.34,0,0,1,3.57-9.39,23.84,23.84,0,0,1,7.24-6.94,28.21,28.21,0,0,1,9.28-3.76l.15,0,.18.07a158.05,158.05,0,0,0,21.37,6.36A110.59,110.59,0,0,0,451,182.13l.93.06c1.6.09,3.2.13,4.8.11a54.19,54.19,0,0,0,5.55-.33c1.85-.2,3.65-.56,5.5-.9a104,104,0,0,1,11.12-1.55,93.38,93.38,0,0,1,11.22-.3c3.5.14,7.22,0,11,.44l.4,0Z"/>
    <path class="cls-1" d="M515.76,118.09a7.12,7.12,0,0,0-.32-.85,5.51,5.51,0,0,0-1.6-2,6.62,6.62,0,0,0-3.41-1.34c-18.63-2.33-49.9,25-54.1,39.84a10.26,10.26,0,0,0-.32,5,6.25,6.25,0,0,0,2.56,3.91,8.1,8.1,0,0,0,1.33.76,23.19,23.19,0,0,0,9.74,2.11c10.79,0,20.75-7.06,26.45-12.08,10.77-9.47,19-22.65,19.93-31.1A10.29,10.29,0,0,0,515.76,118.09Zm-21,33.82c-7,6.19-20.82,15.67-34,9.65-2.71-1.23-3.52-3.63-2.48-7.33,3.8-13.42,32.15-38.52,49.84-38.52a17.67,17.67,0,0,1,2.09.12,4,4,0,0,1,3.66,2.85C515.73,124.79,508,140.3,494.77,151.91Z"/>
    <path class="cls-3" d="M476.6,216.15c0,.18-.06.36-.08.54l-6.43,8.86Z"/>
    <path class="cls-3" d="M500.59,181.64a7.7,7.7,0,0,1,1.35.12c-.42.56-.79,1-1.11,1.4L479.26,212.9l.18-.85L500,182.43C500.15,182.21,500.36,181.94,500.59,181.64Z"/>
    <path class="cls-1" d="M520,147.6c-3.91,12.81-12.06,25.92-16.73,32.4a10,10,0,0,0-1.3-.27c4.35-6.31,12.24-20,16.12-32.71,3.06-10,.2-19.48-2.06-24.71a32,32,0,0,0-2.1-4.18l1.52-.89,0,0C515.83,117.83,524.83,131.79,520,147.6Z"/>
    <path class="cls-3" d="M450.62,183l.93,0-5.88,10.31Z"/>
    <path class="cls-1" d="M457.81,169.49c-1.09,2.71-2.19,5.12-3.58,7.94-.77,1.58-1.59,3.31-2.28,4.76l-.93-.06c.75-1.47,1.57-3.42,2.38-5.23a58.31,58.31,0,0,0,3-8.08c.92-3.33-.41-10-.43-10.1h0l1.78-1a32.54,32.54,0,0,1,.78,4.93A16,16,0,0,1,457.81,169.49Z"/>
    <path class="cls-14" d="M444.59,199.1a25,25,0,0,1-1.4,9.31,63,63,0,0,1-3.66,8.74c-1.4,2.83-2.94,5.59-4.38,8.4a10.86,10.86,0,0,0-1.14,4.51,7.41,7.41,0,0,0,1.13,4.44,7,7,0,0,0,3.68,2.7,14.07,14.07,0,0,0,4.61.67,34.42,34.42,0,0,0,9.27-1.56,38.57,38.57,0,0,0,8.6-3.78,31.36,31.36,0,0,0,7.23-5.94,18.46,18.46,0,0,0,1.5-1.81l1.35-1.92a44.58,44.58,0,0,0,2.14-4.19,50.92,50.92,0,0,0,3.05-8.91,28.29,28.29,0,0,0,.73-9.34,15.09,15.09,0,0,0-3.54-8.53,15.5,15.5,0,0,0-8-4.6,23.56,23.56,0,0,0-4.66-.65,23.17,23.17,0,0,0-4.71.21,15.88,15.88,0,0,0-8.53,3.71,9.62,9.62,0,0,0-2.62,3.88A12.25,12.25,0,0,0,444.59,199.1Zm0,0a12.31,12.31,0,0,1,.58-4.67,9.7,9.7,0,0,1,2.61-3.91,13.84,13.84,0,0,1,4-2.54,20.1,20.1,0,0,1,4.57-1.25,24.13,24.13,0,0,1,4.73-.25,23.31,23.31,0,0,1,4.71.63,15.67,15.67,0,0,1,8.17,4.61,15.29,15.29,0,0,1,3.67,8.66,29,29,0,0,1-.67,9.47,51.74,51.74,0,0,1-3,9,44.62,44.62,0,0,1-2.14,4.26l-1.36,2a6.66,6.66,0,0,1-.73,1l-.79.9a32.21,32.21,0,0,1-7.37,6,39.69,39.69,0,0,1-8.73,3.76,35,35,0,0,1-9.37,1.51,14.2,14.2,0,0,1-4.7-.72,7.25,7.25,0,0,1-3.8-2.82,7.65,7.65,0,0,1-1.14-4.59,11.12,11.12,0,0,1,1.19-4.59c1.47-2.8,3-5.55,4.44-8.37a62.7,62.7,0,0,0,3.71-8.69A25,25,0,0,0,444.59,199.1Z"/>
    <path class="cls-14" d="M413.61,173.8a17.56,17.56,0,0,1,6.34,4.09,15,15,0,0,1,2.61,3.57,16.7,16.7,0,0,1,1.47,3.86,31,31,0,0,1,.85,8.19,43.35,43.35,0,0,1-.92,8.19,34.71,34.71,0,0,1-2.63,7.81,30.55,30.55,0,0,1-4.56,6.93,24.44,24.44,0,0,1-6.38,5.45,13.68,13.68,0,0,1-6.63,1.64c-.58,0-.52-1.66-1.09-1.81a8,8,0,0,0,7.49-.48,22.87,22.87,0,0,0,6.25-5.17,30.66,30.66,0,0,0,4.51-6.76,33.7,33.7,0,0,0,2.55-7.71,38.27,38.27,0,0,0,.19-16.19,17.82,17.82,0,0,0-1.57-3.84,13,13,0,0,0-2.49-3.19,17.63,17.63,0,0,0-6.57-3.84C412.68,174.43,414,173.94,413.61,173.8Z"/>
    <path class="cls-1" d="M210.1,175.4l-.82-.15c-.15,0-15.32-2.66-32.1,11.9l0,0-.52-.59h0a55.35,55.35,0,0,1,12.72-8.4c9.48-4.45,17-4.24,19.34-4a9.2,9.2,0,0,1,.1-4.21,8,8,0,0,1,.28-.9l.93.38s0,.07-.07.2a8.32,8.32,0,0,0-.09,5Z"/>
    <path class="cls-1" d="M266.49,206.56v.19h-.77v-.2c0-9.11-2.33-11.43-7.14-16.46-1.85-1.93-4.15-4.34-6.81-7.68-5.44-6.85-15.5-5.28-15.6-5.26l-2.07.34,1.7-1.24c3.55-2.6,4.42-5.29,4.63-6.33a4.32,4.32,0,0,0,.06-.44l1,0a4.12,4.12,0,0,1-.11.77,11,11,0,0,1-3.67,5.72c3.24-.18,10.37.16,14.85,5.79,2.62,3.3,4.9,5.69,6.74,7.61,2.59,2.71,4.46,4.71,5.65,7.43C266,199.2,266.48,202.13,266.49,206.56Z"/>
    <path class="cls-16" d="M1101.91,344.43a164.64,164.64,0,0,1-12.16,13.25c-13,13.28-29.72,30-34.65,48.93,1.22-17.69,5.25-40.67,17.47-51.27,8.48-7.36,14.36-17.7,20.58-28.66,5.28-9.26,9.95-18.07,17.22-26.23C1109.45,309.48,1113.35,329.47,1101.91,344.43Z"/>
    <path class="cls-1" d="M1103.62,345.56a168.32,168.32,0,0,1-12.4,13.53c-14.83,15.19-36.13,40.19-36.6,62.12v.06l-.95-4.63a42.9,42.9,0,0,1,1.43-10c4.93-19,21.7-35.65,34.65-48.93a164.64,164.64,0,0,0,12.16-13.25c11.44-15,7.54-34.95,8.46-44a12.88,12.88,0,0,1,.25-1.69l0,0,.08-.1,1.11-1.21c-.06.5-.1,1-.13,1.55C1110.86,311.26,1115.66,329.81,1103.62,345.56Z"/>
    <path class="cls-17" d="M462.83,186.61a43.2,43.2,0,0,0,3-4.85,39.24,39.24,0,0,0,2.32-5.17,32.86,32.86,0,0,0,1.3-5.36,14.81,14.81,0,0,0,.05-3.18c-.09-1.14-.28-2.09-.23-2.56.13-1,.67-.55,1.13,0a21.27,21.27,0,0,1-.22,5.63,29.32,29.32,0,0,1-1.56,5.66,36.58,36.58,0,0,1-2.45,5.18A29.41,29.41,0,0,1,462.83,186.61Z"/>
  </g>
  <g id="Arrove">
    <polygon class="cls-18" points="397.39 251.99 389.16 273.57 374.59 255.65 397.39 251.99"/>
    <path class="cls-18" d="M379.41,260s-18.08,15.31-33.2,13.63c1.48,7.48,5.48,12.52,7.8,13.6,14.95-.8,31-19.05,31-19.05Z"/>
    <polygon class="cls-18" points="598.06 255.94 597.38 232.86 577.73 245 598.06 255.94"/>
    <path class="cls-18" d="M583.93,241.92s-15.32-25-36.84-23.88c4.4-6.23,9.79-9.75,14-10.81,21.41.32,31.22,29.48,31.22,29.48Z"/>
    <polygon class="cls-18" points="1032.94 553.94 1053.57 543.57 1034.27 530.89 1032.94 553.94"/>
    <path class="cls-18" d="M1039.68,535.2s16.18-24.44,6.08-43.47c7.51,1.35,13,4.76,15.73,8.16,8.76,19.54-13.53,40.75-13.53,40.75Z"/>
    <polygon class="cls-18" points="749.5 565.3 758.66 586.5 772.44 567.96 749.5 565.3"/>
    <path class="cls-18" d="M768.82,572.11s35.17,11.79,43,26.16A20.29,20.29,0,0,1,800.09,612c-10.41-17.72-37.81-31.39-37.81-31.39Z"/>
  </g>
  <g id="process_fills" data-name="process fills">
    <path class="cls-7" d="M333.83,179.61A53.18,53.18,0,0,0,330.27,194c-.54,7.05-2.53,20.8-5.27,29.33-.66,2-1.33,7.2-2.27,14.33-2.65,20.32-7.6,58.15-18.76,58.36-14.74.27-15.67-13.34-16.27-22.36l0-.58-.44,0c-.14,0-14.5-1-30.68-11.4a89.88,89.88,0,0,0-18.74-8.8,34.31,34.31,0,0,0,6-2.26,33.61,33.61,0,0,0,6.19-4.11,35.84,35.84,0,0,0,5.15-5.37,41.49,41.49,0,0,0,4.08-6.23A58.86,58.86,0,0,0,264.52,221a68,68,0,0,0,2-14.26.49.49,0,0,0,0-.12v-.06c0-.11,0-.22,0-.33a50.65,50.65,0,0,0-.36-7.48,31,31,0,0,0-1.9-7.26A38.42,38.42,0,0,0,256.15,179a37.93,37.93,0,0,0-5.68-4.9,38.84,38.84,0,0,0-6.5-3.74,40.51,40.51,0,0,0-7.09-2.47c-1.2-.35-2.44-.52-3.67-.77s-2.48-.37-3.73-.44c-10-.75-20,1.54-29.18,5.3A97.67,97.67,0,0,0,187,178.58a55.84,55.84,0,0,0-10.31,8h0c-.44.44-.87.88-1.3,1.33A45.88,45.88,0,0,0,163,214.59a56.88,56.88,0,0,0,.33,14.86A60.36,60.36,0,0,0,167,243.27q-10.57.19-22.1,1.26C118.26,247,99,243,86.08,238.15c10.84-5.53,17.52-16.31,26.16-30.24,1.74-2.79,3.53-5.68,5.46-8.7,11.72-18.33,4.74-39.08,2.26-45.13,4.84,3.4,20.51,13.22,37.44,10.76,4.85-.71,12.16-2.11,20.61-3.72,26.52-5.08,66.61-12.75,80.16-8.09,5.34,1.84,11.89,5,19.48,8.73C294.81,170.12,316.11,180.5,333.83,179.61Z"/>
    <path class="cls-19" d="M265.72,206.55v.08a64.07,64.07,0,0,1-6.92,28.06,41,41,0,0,1-3.94,6.24,35.24,35.24,0,0,1-5,5.41,30.62,30.62,0,0,1-12.08,6.54c-16-5.6-38.07-9.67-65.29-9.67-1.79,0-3.61,0-5.45.06a60.62,60.62,0,0,1-3.44-13.86,57,57,0,0,1-.09-14.76,45.37,45.37,0,0,1,12.39-26.2c.42-.43.84-.86,1.27-1.27l0,0c16.78-14.56,31.95-11.93,32.1-11.9l.82.15-.25-.79a8.32,8.32,0,0,1,.09-5,57.68,57.68,0,0,1,19.46-2c1.23.06,2.44.26,3.65.41s2.42.41,3.59.75a33,33,0,0,1,3.79,1.13c-.21,1-1.08,3.73-4.63,6.33l-1.7,1.24,2.07-.34c.1,0,10.16-1.59,15.6,5.26,2.66,3.34,5,5.75,6.81,7.68C263.39,195.12,265.71,197.44,265.72,206.55Z"/>
    <path class="cls-19" d="M304.13,297.07a21.66,21.66,0,0,1-6.22,2c-3.7.61-8.77-.6-14.65-2-6.09-1.45-13-3.1-20.61-3.32a104.38,104.38,0,0,0-17.33,1.31c-8.16,1.08-15.86,2.11-24.33.06-14.51-3.51-43.29-16.07-54-21.53-5.92-3-19-4.61-34.21-6.46-14.42-1.76-30.77-3.76-43.14-7.34-21-6.09-22.21-24.59-22.15-29.33a122.85,122.85,0,0,0,16.06,7.78c.36.15.68.29,1.3.52,13,5.07,32.74,9.35,60.15,6.78,54.41-5.1,93,5.44,111,17,14.82,9.52,28.16,11.27,30.72,11.52.59,8.77,1.7,23,16.79,23Z"/>
    <path class="cls-19" d="M261.32,132.94c-5.85,8.35-12.1,16.49-13,17.69-9.17-.26-21.56,1.12-34.38,3.08a36.32,36.32,0,0,1,7.56-17.4l.24-.3c2.11-2.6,4.31-5.31,6.33-8.29,1.64,2.11,6.88,8,14.54,9.12a18.66,18.66,0,0,0,2.61.17C251.56,137,258.17,134.38,261.32,132.94Z"/>
    <path class="cls-7" d="M297.51,143.09l-1.3,1.78a35.78,35.78,0,0,0-7.08,21.29c-3.81-1.77-7.51-3.58-11-5.3-7.62-3.71-14.2-6.91-19.6-8.77a33.18,33.18,0,0,0-9-1.41c1.89-2.46,8.11-10.61,13.66-18.65,4.05-5.87,7.75-11.68,9.16-15.17.81-2,1.87-4.41,3-7,3.89-8.79,9.22-20.82,10.18-30.85,1-10.22,5.47-21.71,7.15-25.74.91,4.41,3.81,16.59,9.33,22.29l.6.63c6.47,6.67,14.52,15,14.94,27.09C318,115.19,305.65,132,297.51,143.09Z"/>
    <path class="cls-7" d="M235.05,100.9c.54,16.4-7.25,26-14.11,34.48l-.25.3a36.64,36.64,0,0,0-7.81,18.19c-7.38,1.14-14.88,2.47-21.95,3.78,2.61-4.17,4.43-15.85,4.86-20.19.88-8.86-2.35-20.38-2.67-21.48,2.86-2.78,10.4-11.62,13.65-30,4.39-24.84,25.75-31.78,26.72-32.19a115.52,115.52,0,0,0,13-6.9C234.68,65.46,234.47,83.44,235.05,100.9Z"/>
    <path class="cls-7" d="M208.7,174.17c-2.35-.23-9.86-.44-19.34,4a101.55,101.55,0,0,1,11.28-5.41A77.77,77.77,0,0,1,208.8,170,9.2,9.2,0,0,0,208.7,174.17Z"/>
    <path class="cls-7" d="M265,196.83c-1.19-2.72-3.06-4.72-5.65-7.43-1.84-1.92-4.12-4.31-6.74-7.61-4.48-5.63-11.61-6-14.85-5.79a11,11,0,0,0,3.67-5.72q1.11.42,2.19.9a37.48,37.48,0,0,1,6.36,3.64,36,36,0,0,1,5.56,4.76,37.22,37.22,0,0,1,7.94,12.24A28.62,28.62,0,0,1,265,196.83Z"/>
    <path class="cls-20" d="M517.24,227.12c-1.35,8.26-5.75,22.82-19.94,27.58-8,2.67-13.69-.17-17-8.44s-3.46-21.3-1.05-33.36l.18-.85c2.82-13.42,8.76-25.67,16.77-29.39a10.2,10.2,0,0,1,4.38-1,7.7,7.7,0,0,1,1.35.12,10.26,10.26,0,0,1,4.58,2.06C515.11,190.35,520,210.18,517.24,227.12Z"/>
    <path class="cls-7" d="M495.4,180.83l0,0c-9.62,4.47-16.32,19.64-18.76,35.3,0,.18-.06.36-.08.54-1.68,11.15-1.19,22.48,1.93,30.31a20.6,20.6,0,0,0,3.66,6.16c-3.81-.85-5.87-.74-12.32-1.67-3.24-.48-6.51-.83-9.76-1.18l-4.86-.54a34.46,34.46,0,0,1-4.74-.75,53.13,53.13,0,0,1-17.29-8.25,41.64,41.64,0,0,1-3.71-3c-.58-.54-1.13-1.11-1.67-1.68s-1-1.14-1.56-1.84a27.71,27.71,0,0,0-8-6.19,69.64,69.64,0,0,0-9.15-3.9c-3.08-1.16-6.24-2-8.67-3.83a14.06,14.06,0,0,1-4.86-7.63,39.83,39.83,0,0,1-1.4-9.47c-.06-1.61-.08-3.23-.05-4.85a37.76,37.76,0,0,1,.34-4.79,21.82,21.82,0,0,1,3.26-8.82c3.42-5.27,9.29-8.81,15.38-10.22a156.41,156.41,0,0,0,21.4,6.14c3.67.78,7.37,1.4,11.09,1.82,1.7.19,3.4.35,5.1.45l.93,0c1.74.09,3.47.12,5.21.07a55.45,55.45,0,0,0,5.62-.4c1.87-.23,3.7-.49,5.52-.85a103.2,103.2,0,0,1,11-1.67,58.51,58.51,0,0,1,10.8.13C491.15,180.39,493.21,180.59,495.4,180.83Z"/>
    <path class="cls-20" d="M494.77,151.91c-7,6.19-20.82,15.67-34,9.65-2.71-1.23-3.52-3.63-2.48-7.33,3.8-13.42,32.15-38.52,49.84-38.52a17.67,17.67,0,0,1,2.09.12,4,4,0,0,1,3.66,2.85C515.73,124.79,508,140.3,494.77,151.91Z"/>
    <path class="cls-7" d="M518.08,147c-3.88,12.68-11.77,26.4-16.12,32.71l-.4,0-.4,0c-3.8-.4-7.52-.3-11-.44a93.38,93.38,0,0,0-11.22.3,104,104,0,0,0-11.12,1.55c-1.85.34-3.65.7-5.5.9a54.19,54.19,0,0,1-5.55.33c-1.6,0-3.2,0-4.8-.11.69-1.45,1.51-3.18,2.28-4.76,1.39-2.82,2.49-5.23,3.58-7.94a16,16,0,0,0,.76-6.87,8.1,8.1,0,0,0,1.33.76,23.19,23.19,0,0,0,9.74,2.11c10.79,0,20.75-7.06,26.45-12.08,10.77-9.47,19-22.65,19.93-31.1C518.28,127.54,521.14,137,518.08,147Z"/>
  </g>
  <g id="thread">
    <path class="cls-1" d="M349.52,487.72a14.75,14.75,0,0,1-3.15,1l-1.57.34a4.7,4.7,0,0,0-1.5.52,2.25,2.25,0,0,1,1.23-1.25,7.43,7.43,0,0,1,1.61-.59A7.86,7.86,0,0,1,349.52,487.72Z"/>
    <path class="cls-1" d="M345.74,499.78a10.65,10.65,0,0,0,3.67.19,12.23,12.23,0,0,0,3.35-1.34c1.12-.56,2.25-1.11,3.43-1.58a9.15,9.15,0,0,1,3.71-.89,7.48,7.48,0,0,0-1.72.73l-1.65.88c-1.1.6-2.2,1.2-3.34,1.75-.57.26-1.15.54-1.76.76a5.81,5.81,0,0,1-1.95.42A7.82,7.82,0,0,1,345.74,499.78Z"/>
    <path class="cls-1" d="M342.09,494.72a10.88,10.88,0,0,0,3.67.19,12.4,12.4,0,0,0,3.34-1.35c1.12-.55,2.26-1.1,3.43-1.58a9.49,9.49,0,0,1,3.71-.89,7.63,7.63,0,0,0-1.71.74l-1.65.88c-1.1.6-2.2,1.2-3.35,1.74-.57.27-1.14.54-1.75.76a5.64,5.64,0,0,1-2,.42A7.74,7.74,0,0,1,342.09,494.72Z"/>
    <path class="cls-1" d="M348.82,517.44a12.17,12.17,0,0,1,4.89-4.43,13.59,13.59,0,0,1,3.15-1.18c1.11-.28,2.16-.41,3.24-.63,2.15-.4,4.28-.81,6.39-1.32a25.1,25.1,0,0,0,3.09-.95,6.63,6.63,0,0,0,2.75-1.65,6.23,6.23,0,0,1-2.54,2.11,24.9,24.9,0,0,1-3.09,1.24,49.18,49.18,0,0,1-6.42,1.55c-1.07.19-2.19.35-3.21.56a16.2,16.2,0,0,0-3,.94,14.26,14.26,0,0,0-2.79,1.59A12.75,12.75,0,0,0,348.82,517.44Z"/>
    <path class="cls-1" d="M347.2,508.8a2.28,2.28,0,0,1,.73-1.22,5.53,5.53,0,0,1,1.15-.89,12.93,12.93,0,0,1,2.66-1.12,27.54,27.54,0,0,1,2.77-.62l2.73-.57c1.81-.41,3.61-.86,5.37-1.43a25.1,25.1,0,0,0,2.58-1,6.84,6.84,0,0,0,2.26-1.58,6,6,0,0,1-2,2,15.56,15.56,0,0,1-2.53,1.31,33.7,33.7,0,0,1-5.42,1.7c-1.83.46-3.73.68-5.51,1.05a15.54,15.54,0,0,0-2.62.79A3.89,3.89,0,0,0,347.2,508.8Z"/>
    <path class="cls-1" d="M349.17,532.82A82.48,82.48,0,0,1,358,529a42.92,42.92,0,0,1,4.63-1.46,23.5,23.5,0,0,1,4.85-.61c3.24-.11,6.44.05,9.64.12,1.59,0,3.19,0,4.78-.07a15.3,15.3,0,0,0,4.67-.91,13.76,13.76,0,0,1-4.62,1.4c-1.61.21-3.22.29-4.83.35-3.22.11-6.43,0-9.6.11a23.55,23.55,0,0,0-4.68.53c-1.54.33-3.07.8-4.59,1.26s-3,1-4.55,1.53S350.68,532.29,349.17,532.82Z"/>
    <path class="cls-1" d="M348.22,524.92a51.15,51.15,0,0,1,7.28-4.23,27.68,27.68,0,0,1,3.94-1.58,18.45,18.45,0,0,1,4.21-.76c2.82-.24,5.63-.14,8.41-.14a33.73,33.73,0,0,0,4.15-.2,14.5,14.5,0,0,0,4-1,12.57,12.57,0,0,1-4,1.45,37.17,37.17,0,0,1-4.21.49c-2.8.16-5.6.11-8.35.34a20.15,20.15,0,0,0-4,.65,38.55,38.55,0,0,0-3.9,1.38C353.23,522.42,350.72,523.65,348.22,524.92Z"/>
    <path class="cls-1" d="M393,535c-1.94.36-3.88.7-5.81,1.09s-3.86.76-5.77,1.2-3.82.88-5.69,1.45c-.93.29-1.86.59-2.75.95a16.68,16.68,0,0,1-8.9,1.17c-2-.18-3.93-.48-5.86-.61a16.36,16.36,0,0,0-5.74.59,18.94,18.94,0,0,0-5.24,2.58,17.25,17.25,0,0,1,5.09-3,16.54,16.54,0,0,1,5.92-.89c2,0,4,.34,5.9.47a19.25,19.25,0,0,0,5.73-.31,20.23,20.23,0,0,0,2.75-.85c.94-.36,1.89-.66,2.85-.93,1.91-.53,3.84-1,5.78-1.33A108,108,0,0,1,393,535Z"/>
    <path class="cls-1" d="M394.55,543.38a90.47,90.47,0,0,1-11.65,3.43,46.81,46.81,0,0,1-6,1,26.36,26.36,0,0,1-3.08.14c-.52,0-1.05-.06-1.56-.11l-1.5-.15a43.49,43.49,0,0,0-12,.36c-4,.6-7.72,2.16-11.58,3.39,1.87-.78,3.68-1.66,5.58-2.41a37.89,37.89,0,0,1,5.85-1.75,33.67,33.67,0,0,1,6.08-.74,43.11,43.11,0,0,1,6.12.17c4,.7,7.95,0,11.92-.63S390.64,544.4,394.55,543.38Z"/>
    <path class="cls-1" d="M346.36,563.22a51.31,51.31,0,0,0,14.79-1,45,45,0,0,0,7.06-2.16,51.19,51.19,0,0,0,6.56-3.43,35.84,35.84,0,0,1,6.76-3.37,16.88,16.88,0,0,1,7.56-.77c2.55.26,4.89,1.23,7.3,1.7a25.46,25.46,0,0,0,7.38.66A15.54,15.54,0,0,1,400,555a31,31,0,0,1-3.74-.37c-2.5-.39-4.86-1.25-7.3-1.41a16.31,16.31,0,0,0-7.17.85,40.1,40.1,0,0,0-6.57,3.32,52.77,52.77,0,0,1-6.71,3.4,37.86,37.86,0,0,1-7.26,2A45.11,45.11,0,0,1,346.36,563.22Z"/>
    <path class="cls-21" d="M540.82,705.53l-17.16,1.65a63.33,63.33,0,0,1-11.18.19,18.61,18.61,0,0,0-3.69.1c-4.13.51-7.33,2.17-7.14,3.71s3.7,2.39,7.82,1.88a18.18,18.18,0,0,0,3.56-.79,64.2,64.2,0,0,1,11-2.54l17-2.58,29.36-4.45Zm-32.31,6.3c-2.39.29-4.41-.13-4.51-.94s1.76-1.69,4.15-2,4.42.13,4.52.92S510.91,711.53,508.51,711.83Z"/>
    <path class="cls-1" d="M457.42,589.53a118.85,118.85,0,0,0-13.36-8.27,22.48,22.48,0,0,1-6.37-4.78,11.38,11.38,0,0,1-2.89-7.38,25.8,25.8,0,0,1,1.42-7.82c.38-1.26.76-2.51,1-3.78a10.48,10.48,0,0,0,.27-3.81,5.38,5.38,0,0,0-1.74-3.26,10.5,10.5,0,0,0-3.28-2,14.67,14.67,0,0,0-7.66-.78,27.75,27.75,0,0,0-7.47,2.3,39.4,39.4,0,0,0-6.79,4,39.07,39.07,0,0,1,6.72-4.1,27.51,27.51,0,0,1,7.5-2.46,14.94,14.94,0,0,1,7.86.67,10.85,10.85,0,0,1,3.46,2,6,6,0,0,1,1.92,3.55,11,11,0,0,1-.26,4c-.28,1.3-.66,2.56-1,3.82a24.94,24.94,0,0,0-1.36,7.64,10.71,10.71,0,0,0,2.77,7,22.13,22.13,0,0,0,6.21,4.61,118.48,118.48,0,0,1,13.48,8.24,59.9,59.9,0,0,1,11.61,10.77,41.29,41.29,0,0,1,3.43,4.93c.37.63.73,1.28,1.06,1.93-.32,0-.65.07-1,.09-.34-.67-.71-1.33-1.1-2a41.39,41.39,0,0,0-3.09-4.44A59.2,59.2,0,0,0,457.42,589.53Z"/>
    <path class="cls-1" d="M501.65,711.18a88.25,88.25,0,0,1-15.76.16,66.5,66.5,0,0,1-15.48-3,35.1,35.1,0,0,1-13.62-7.92,21.74,21.74,0,0,1-4.53-6.53,21.41,21.41,0,0,1-1.77-7.75,35.36,35.36,0,0,1,3.43-15.41,78.08,78.08,0,0,1,8-13.63c1.57-2.13,3.14-4.21,4.59-6.39a77.69,77.69,0,0,0,4.06-6.71l.63-1.21c.5-1,1-2,1.42-3l1.13-.29c-.44,1-.9,2-1.39,3-.33.65-.67,1.31-1,1.95a77.74,77.74,0,0,1-4.13,6.76c-1.48,2.19-3.09,4.3-4.64,6.39a76.63,76.63,0,0,0-8,13.45,34.64,34.64,0,0,0-3.45,15.09,20.79,20.79,0,0,0,1.68,7.54,21.12,21.12,0,0,0,4.38,6.37,35.13,35.13,0,0,0,13.36,7.89,66.46,66.46,0,0,0,15.36,3.22A88,88,0,0,0,501.65,711.18Z"/>
    <path class="cls-1" d="M501.41,711.2a1.3,1.3,0,0,1,1.12-1.29,1.5,1.5,0,0,1,.92.17,1.44,1.44,0,0,1,.59.63,6.35,6.35,0,0,0-1.39-.06A3.09,3.09,0,0,0,501.41,711.2Z"/>
    <path class="cls-1" d="M501.41,711.2a3.18,3.18,0,0,1,1.28-.43,2.92,2.92,0,0,1,1.35.13,2,2,0,0,1-1.26.62A1.91,1.91,0,0,1,501.41,711.2Z"/>
    <path class="cls-1" d="M501.41,711.2a2,2,0,0,0,.74.25,3.44,3.44,0,0,0,.69.09,1.46,1.46,0,0,0,1.25-.46,1,1,0,0,1-.32.9,1.4,1.4,0,0,1-1,.31,1.8,1.8,0,0,1-.9-.31A1,1,0,0,1,501.41,711.2Z"/>
    <path class="cls-1" d="M504,710.9a9.36,9.36,0,0,0-3.92,1.15,14,14,0,0,0-3.29,2.43,10.27,10.27,0,0,0-2.29,3.33,7.21,7.21,0,0,0-.49,3.94c.42,2.68,2.32,4.92,4.41,6.56a14.79,14.79,0,0,0,7.63,2.52c5.46.47,11-.66,16.52,0a15.21,15.21,0,0,1,4,1.08,9.8,9.8,0,0,1,3.35,2.46,14.67,14.67,0,0,1,3,7.63,14.51,14.51,0,0,0-3.17-7.48,9.58,9.58,0,0,0-3.3-2.33,14.25,14.25,0,0,0-3.95-1c-5.46-.58-11,.51-16.52.08a14.86,14.86,0,0,1-7.87-2.62,14.08,14.08,0,0,1-2.91-3,8.78,8.78,0,0,1-1.63-3.86,7.53,7.53,0,0,1,.58-4.14,10.66,10.66,0,0,1,2.42-3.39,13.14,13.14,0,0,1,3.42-2.36A9.44,9.44,0,0,1,504,710.9Z"/>
    <path class="cls-1" d="M854.76,580.12a3.52,3.52,0,0,1,1.68-2,4.13,4.13,0,0,1,2.66-.39,4.66,4.66,0,0,1,2.47,1,4.46,4.46,0,0,1,1.3,2.24,8.59,8.59,0,0,0-1.77-1.62,5.6,5.6,0,0,0-2.14-.68,4.44,4.44,0,0,0-2.21.11A5.37,5.37,0,0,0,854.76,580.12Z"/>
    <path class="cls-1" d="M864.15,579.24a3.52,3.52,0,0,1,1.54-1.91,3.93,3.93,0,0,1,2.52-.49,4,4,0,0,1,2.39,1,2.71,2.71,0,0,1,.81,2.35,3.7,3.7,0,0,0-1.32-1.73,4.89,4.89,0,0,0-2-.61A4.26,4.26,0,0,0,866,578,5.59,5.59,0,0,0,864.15,579.24Z"/>
    <path class="cls-1" d="M874.57,579.08a1.34,1.34,0,0,1,.59-1,2.92,2.92,0,0,1,1.06-.49,4.56,4.56,0,0,1,2.29,0,3.08,3.08,0,0,1,1.88,1.44,3.9,3.9,0,0,1,.44,2.17,7.23,7.23,0,0,0-1-1.75,3,3,0,0,0-1.53-.91,7.45,7.45,0,0,0-1.9-.12A2.41,2.41,0,0,0,874.57,579.08Z"/>
    <path class="cls-1" d="M885,581.07a.9.9,0,0,1,.35-1.09,2.61,2.61,0,0,1,1.08-.48,4.14,4.14,0,0,1,2.28.11,2.75,2.75,0,0,1,1.7,1.63,3.74,3.74,0,0,1,.09,2.19,6.69,6.69,0,0,0-.73-1.87,2.49,2.49,0,0,0-1.37-1,6.54,6.54,0,0,0-1.86-.17,3.76,3.76,0,0,0-.9.11A.81.81,0,0,0,885,581.07Z"/>
    <path class="cls-1" d="M893.15,583.1a2.14,2.14,0,0,1,1.54-1.77,4.37,4.37,0,0,1,2.43-.09,2.85,2.85,0,0,1,1.94,1.6,3.57,3.57,0,0,1,.13,2.34,6.17,6.17,0,0,0-.8-2,2.44,2.44,0,0,0-1.52-1,5.49,5.49,0,0,0-2-.1A2.53,2.53,0,0,0,893.15,583.1Z"/>
    <path class="cls-1" d="M901.69,584.52a1.32,1.32,0,0,1,.27-1.16,2.35,2.35,0,0,1,1-.7,4.54,4.54,0,0,1,2.37-.1,2.92,2.92,0,0,1,2,1.39,3.08,3.08,0,0,1,.24,2.29,4.37,4.37,0,0,0-.86-1.87,2.7,2.7,0,0,0-1.59-.85,6.78,6.78,0,0,0-2,0A1.73,1.73,0,0,0,901.69,584.52Z"/>
    <path class="cls-1" d="M910.2,585.47a2,2,0,0,1,1.35-2,4.24,4.24,0,0,1,2.49-.19,2.9,2.9,0,0,1,2,1.56,3.46,3.46,0,0,1,.19,2.38,5.62,5.62,0,0,0-.84-2,2.51,2.51,0,0,0-1.59-1,5.18,5.18,0,0,0-2,0A2.26,2.26,0,0,0,910.2,585.47Z"/>
    <path class="cls-1" d="M918.91,586a2.07,2.07,0,0,1,1.25-2,3.85,3.85,0,0,1,2.48-.27,3.13,3.13,0,0,1,2,1.52,4,4,0,0,1,.47,2.32,8.39,8.39,0,0,0-1.1-1.89,2.89,2.89,0,0,0-1.61-1,4.51,4.51,0,0,0-2,0A2.39,2.39,0,0,0,918.91,586Z"/>
    <path class="cls-1" d="M926.24,586.46a3.32,3.32,0,0,1,1.62-1.92,4.41,4.41,0,0,1,2.57-.49,3.59,3.59,0,0,1,1.32.4,2.55,2.55,0,0,1,1,1A3.37,3.37,0,0,1,933,588a5.22,5.22,0,0,0-.91-2.08,2.59,2.59,0,0,0-1.78-.84A4.8,4.8,0,0,0,926.24,586.46Z"/>
    <path class="cls-1" d="M934.45,586.09a3.32,3.32,0,0,1,1.62-1.92,4.42,4.42,0,0,1,2.57-.49,3.54,3.54,0,0,1,1.32.4,2.64,2.64,0,0,1,1,1,3.42,3.42,0,0,1,.26,2.53,5.37,5.37,0,0,0-.91-2.08,2.64,2.64,0,0,0-1.79-.84A4.77,4.77,0,0,0,934.45,586.09Z"/>
    <path class="cls-1" d="M942.68,585.27a3.32,3.32,0,0,1,1.62-1.92,4.42,4.42,0,0,1,2.57-.49,3.52,3.52,0,0,1,1.32.39,2.74,2.74,0,0,1,1,1,3.42,3.42,0,0,1,.26,2.53,5.37,5.37,0,0,0-.91-2.08,2.59,2.59,0,0,0-1.79-.84A4.77,4.77,0,0,0,942.68,585.27Z"/>
    <path class="cls-1" d="M950.7,584.37a3.32,3.32,0,0,1,1.62-1.92,4.42,4.42,0,0,1,2.57-.49,3.57,3.57,0,0,1,1.32.39,2.64,2.64,0,0,1,1,1,3.37,3.37,0,0,1,.27,2.53,5.37,5.37,0,0,0-.92-2.08,2.55,2.55,0,0,0-1.78-.84A4.77,4.77,0,0,0,950.7,584.37Z"/>
    <path class="cls-1" d="M959.46,583a3.32,3.32,0,0,1,1.62-1.92,4.42,4.42,0,0,1,2.57-.49A3.57,3.57,0,0,1,965,581a2.64,2.64,0,0,1,1,1,3.37,3.37,0,0,1,.26,2.53,5.22,5.22,0,0,0-.91-2.08,2.55,2.55,0,0,0-1.78-.84A4.77,4.77,0,0,0,959.46,583Z"/>
    <path class="cls-1" d="M968.74,581.85a3.38,3.38,0,0,1,1.44-2.07,4.38,4.38,0,0,1,2.51-.72,3.42,3.42,0,0,1,1.35.27,2.7,2.7,0,0,1,1.09.88,3.44,3.44,0,0,1,.5,2.5,5.43,5.43,0,0,0-1.1-2,2.62,2.62,0,0,0-1.86-.67A4.81,4.81,0,0,0,968.74,581.85Z"/>
    <path class="cls-1" d="M977.64,580.27a3.28,3.28,0,0,1,1.43-2.06,4.38,4.38,0,0,1,2.51-.73,3.39,3.39,0,0,1,1.35.27,2.64,2.64,0,0,1,1.09.89,3.36,3.36,0,0,1,.5,2.49,5.29,5.29,0,0,0-1.1-2,2.59,2.59,0,0,0-1.85-.66A4.75,4.75,0,0,0,977.64,580.27Z"/>
    <path class="cls-1" d="M986.94,578.63a1.84,1.84,0,0,1,.77-2.13,4.1,4.1,0,0,1,2.24-.69,3,3,0,0,1,2.28.78,2.58,2.58,0,0,1,.67,2.17,3.58,3.58,0,0,0-1.17-1.59,2.89,2.89,0,0,0-1.74-.37,5.66,5.66,0,0,0-1.87.38A2,2,0,0,0,986.94,578.63Z"/>
    <path class="cls-1" d="M995.13,577.17a2.3,2.3,0,0,1,1.12-2.07,4.39,4.39,0,0,1,2.33-.7,2.85,2.85,0,0,1,2.3,1,3.52,3.52,0,0,1,.73,2.24,5.87,5.87,0,0,0-1.27-1.71,2.48,2.48,0,0,0-1.74-.55,5.92,5.92,0,0,0-2,.42A3,3,0,0,0,995.13,577.17Z"/>
    <path class="cls-1" d="M413.07,175.65a2.21,2.21,0,0,1,.47-1.58,2.43,2.43,0,0,1,1.52-.89,1.94,1.94,0,0,1,1.76.47,1.52,1.52,0,0,1,.31,1.65,1.75,1.75,0,0,0-.78-1.07,1.6,1.6,0,0,0-1.11-.08A3.82,3.82,0,0,0,413.07,175.65Z"/>
    <path class="cls-1" d="M417.13,177a2.26,2.26,0,0,1,.47-1.58,2.39,2.39,0,0,1,1.52-.89,1.94,1.94,0,0,1,1.76.47,1.47,1.47,0,0,1,.31,1.64,1.72,1.72,0,0,0-.78-1.06,1.6,1.6,0,0,0-1.11-.08A3.77,3.77,0,0,0,417.13,177Z"/>
    <path class="cls-1" d="M421.77,178.23a2.18,2.18,0,0,1,.53-1.56,2.42,2.42,0,0,1,1.54-.84,2,2,0,0,1,1.75.54,1.52,1.52,0,0,1,.25,1.66,1.81,1.81,0,0,0-.74-1.1,1.65,1.65,0,0,0-1.11-.12A3.8,3.8,0,0,0,421.77,178.23Z"/>
    <path class="cls-1" d="M426.54,179.35a2.21,2.21,0,0,1,.67-1.51,2.39,2.39,0,0,1,1.61-.69,2,2,0,0,1,1.69.7,1.49,1.49,0,0,1,.1,1.67,1.78,1.78,0,0,0-.64-1.16,1.57,1.57,0,0,0-1.09-.22A3.81,3.81,0,0,0,426.54,179.35Z"/>
    <path class="cls-1" d="M431.52,181a2.45,2.45,0,0,1,.25-1.71,2.18,2.18,0,0,1,1.56-1.11,2.33,2.33,0,0,1,1.84.46,1.42,1.42,0,0,1,.41,1.71,1.57,1.57,0,0,0-.85-1.07,2.35,2.35,0,0,0-1.24-.11C432.68,179.27,432.07,180,431.52,181Z"/>
    <path class="cls-1" d="M436.86,182.19a2.42,2.42,0,0,1,.26-1.71,2.16,2.16,0,0,1,1.55-1.1,2.36,2.36,0,0,1,1.84.45,1.42,1.42,0,0,1,.41,1.72,1.54,1.54,0,0,0-.84-1.07,2.39,2.39,0,0,0-1.25-.11C438,180.45,437.41,181.2,436.86,182.19Z"/>
    <path class="cls-1" d="M442.08,183a2.52,2.52,0,0,1,.26-1.71,2.19,2.19,0,0,1,1.56-1.11,2.33,2.33,0,0,1,1.84.46,1.42,1.42,0,0,1,.41,1.71,1.59,1.59,0,0,0-.85-1.07,2.35,2.35,0,0,0-1.24-.11C443.25,181.2,442.64,182,442.08,183Z"/>
    <path class="cls-1" d="M447,183.48a2.46,2.46,0,0,1,.25-1.71,2.17,2.17,0,0,1,1.56-1.1,2.36,2.36,0,0,1,1.84.45,1.43,1.43,0,0,1,.41,1.72,1.52,1.52,0,0,0-.85-1.07,2.35,2.35,0,0,0-1.24-.12C448.18,181.74,447.57,182.49,447,183.48Z"/>
    <path class="cls-1" d="M452.79,183.81a2.46,2.46,0,0,1,.23-1.67,2.14,2.14,0,0,1,1.47-1.12,2.39,2.39,0,0,1,1.83.32,1.41,1.41,0,0,1,.54.81,1.88,1.88,0,0,1,0,.85c-.3-.48-.59-.87-.94-1a2.64,2.64,0,0,0-1.22,0C453.92,182.1,453.32,182.84,452.79,183.81Z"/>
    <path class="cls-1" d="M458.63,184.12a2.31,2.31,0,0,1,.06-1.73,2.28,2.28,0,0,1,1.37-1.28,2.83,2.83,0,0,1,1.84,0,1.76,1.76,0,0,1,.79.53,1.05,1.05,0,0,1,.24.87,1.42,1.42,0,0,0-1.21-.64,3.77,3.77,0,0,0-1.33.2A3.07,3.07,0,0,0,458.63,184.12Z"/>
    <path class="cls-1" d="M465,183.12a2.31,2.31,0,0,1,.05-1.71,2.28,2.28,0,0,1,1.35-1.28,2.81,2.81,0,0,1,1.81-.06,1.81,1.81,0,0,1,.81.5,1.09,1.09,0,0,1,.28.84,1.45,1.45,0,0,0-1.24-.56,3.92,3.92,0,0,0-1.32.21A3.08,3.08,0,0,0,465,183.12Z"/>
    <path class="cls-1" d="M470.5,182.37a2.35,2.35,0,0,1,0-1.69,2.28,2.28,0,0,1,1.3-1.28,2.89,2.89,0,0,1,1.79-.11,1.44,1.44,0,0,1,1.12,1.3,1.7,1.7,0,0,0-1.25-.51,4.22,4.22,0,0,0-1.29.24A3.06,3.06,0,0,0,470.5,182.37Z"/>
    <path class="cls-1" d="M475.48,181.77a2.35,2.35,0,0,1,0-1.69,2.25,2.25,0,0,1,1.3-1.28,2.86,2.86,0,0,1,1.78-.11,1.43,1.43,0,0,1,1.13,1.3,1.72,1.72,0,0,0-1.26-.51,4.27,4.27,0,0,0-1.29.24A3.07,3.07,0,0,0,475.48,181.77Z"/>
    <path class="cls-1" d="M480.32,181.48a2.33,2.33,0,0,1,.11-1.75,2.44,2.44,0,0,1,1.42-1.25,3.27,3.27,0,0,1,1.83-.09,1.51,1.51,0,0,1,1.22,1.3,1.72,1.72,0,0,0-1.33-.51,5,5,0,0,0-1.39.24A3,3,0,0,0,480.32,181.48Z"/>
    <path class="cls-1" d="M485.76,181.51a2.24,2.24,0,0,1,.25-1.87,2.76,2.76,0,0,1,1.62-1.18,3.91,3.91,0,0,1,1.92-.06,1.68,1.68,0,0,1,1.39,1.28,2,2,0,0,0-1.48-.5,7.35,7.35,0,0,0-1.56.24A3,3,0,0,0,485.76,181.51Z"/>
    <path class="cls-1" d="M491.79,181.63a2.82,2.82,0,0,1,.6-2.2,3.4,3.4,0,0,1,2.08-1.19,5.06,5.06,0,0,1,2.32.13,2.05,2.05,0,0,1,1.56,1.63,2.43,2.43,0,0,0-1.73-.87,7.62,7.62,0,0,0-2,.09,3.68,3.68,0,0,0-1.7.74A4.31,4.31,0,0,0,491.79,181.63Z"/>
    <path class="cls-1" d="M468.52,165.86a6.62,6.62,0,0,0,.7.06h.62a6.71,6.71,0,0,1,1.37.17,1.74,1.74,0,0,1-1.4.58A1.36,1.36,0,0,1,468.52,165.86Z"/>
    <path class="cls-1" d="M468.71,167.59a2.51,2.51,0,0,0,.65,0h.56a4.39,4.39,0,0,1,1.29.12,1.63,1.63,0,0,1-1.28.63,1.5,1.5,0,0,1-.74-.18A.91.91,0,0,1,468.71,167.59Z"/>
    <path class="cls-1" d="M468.72,169.26a3.28,3.28,0,0,0,.64.08h.56a4.51,4.51,0,0,1,1.28.17,1.57,1.57,0,0,1-1.3.57,1.46,1.46,0,0,1-.73-.2A.86.86,0,0,1,468.72,169.26Z"/>
    <path class="cls-1" d="M468.29,172.64a3,3,0,0,0,.63.13c.19,0,.37,0,.56.06a5,5,0,0,1,1.27.29,1.61,1.61,0,0,1-1.36.46,1.57,1.57,0,0,1-.7-.28A.85.85,0,0,1,468.29,172.64Z"/>
    <path class="cls-1" d="M468.62,171.09a3.37,3.37,0,0,0,.64.09l.56,0a4.71,4.71,0,0,1,1.28.21,1.61,1.61,0,0,1-1.32.53,1.59,1.59,0,0,1-.73-.22A.88.88,0,0,1,468.62,171.09Z"/>
    <path class="cls-1" d="M467.9,174.51a3.73,3.73,0,0,0,.63.13l.56.06a4.88,4.88,0,0,1,1.26.29,1.59,1.59,0,0,1-1.35.45,1.48,1.48,0,0,1-.71-.27A.88.88,0,0,1,467.9,174.51Z"/>
    <path class="cls-1" d="M467.06,176.37a3,3,0,0,0,.64.13c.19,0,.37.05.56.06a4.72,4.72,0,0,1,1.26.3,1.63,1.63,0,0,1-1.35.45,1.55,1.55,0,0,1-.71-.27A.91.91,0,0,1,467.06,176.37Z"/>
    <path class="cls-1" d="M466.17,178.47a3,3,0,0,0,.63.13c.19,0,.37.05.56.06a5,5,0,0,1,1.26.29,1.56,1.56,0,0,1-1.35.45,1.44,1.44,0,0,1-.71-.27A.88.88,0,0,1,466.17,178.47Z"/>
  </g>
</svg>
