<svg xmlns="http://www.w3.org/2000/svg" xmlns:xlink="http://www.w3.org/1999/xlink" viewBox="0 0 3024 1080"><defs><style>.cls-1,.cls-10,.cls-11,.cls-15,.cls-16,.cls-2,.cls-7,.cls-8,.cls-9{fill:none;}.cls-10,.cls-11,.cls-12,.cls-13,.cls-14,.cls-15,.cls-16,.cls-2,.cls-7,.cls-8,.cls-9{stroke:#000;}.cls-10,.cls-11,.cls-12,.cls-13,.cls-14,.cls-15,.cls-2,.cls-8,.cls-9{stroke-linecap:round;stroke-linejoin:round;}.cls-3{clip-path:url(#clip-path);}.cls-4{font-size:30px;}.cls-4,.cls-6{font-family:HelveticaNeue-Bold, Helvetica Neue;font-weight:700;}.cls-5{letter-spacing:-0.02em;}.cls-6{font-size:27px;}.cls-16,.cls-7{stroke-miterlimit:10;}.cls-7{stroke-width:4px;}.cls-8{stroke-width:2px;}.cls-9{stroke-width:3px;}.cls-10,.cls-12{stroke-width:0.75px;}.cls-11,.cls-14,.cls-15{stroke-width:0.5px;}.cls-12,.cls-13,.cls-14{fill:#fff;}.cls-15{opacity:0.4;}.cls-16{stroke-width:0.25px;}</style><clipPath id="clip-path"><rect class="cls-1" x="3078.5" y="-1061.5" width="2304" height="1152"/></clipPath></defs><g id="Layer_2" data-name="Layer 2"><polyline class="cls-2" points="1964.18 374.74 1964.18 378.58 1934.68 395.61 1934.68 259.33 1915.36 270.48 1949.43 182.67 1983.5 231.14 1964.18 242.3 1964.18 281.04"/></g><g id="Layer_1" data-name="Layer 1"><g class="cls-3"><image width="6400" height="3600" transform="translate(2948.5 -1243.5) scale(0.4)" xlink:href="../../../../Documents/School/Spring2021/INDU%20404/Origami%20Furniture%20Finl/persentation/contextrender.jpg"/></g><text class="cls-4" transform="translate(293.76 817.74)">Fold body into a loop.</text><path d="M896.57,802a4.71,4.71,0,0,0-1.05-1.18,4.87,4.87,0,0,0-3.09-1.08,5.5,5.5,0,0,0-2.7.61,5.1,5.1,0,0,0-1.8,1.65,7.27,7.27,0,0,0-1,2.36,11.72,11.72,0,0,0-.31,2.73,10.86,10.86,0,0,0,.31,2.62,7.13,7.13,0,0,0,1,2.3,5.14,5.14,0,0,0,1.8,1.63,5.5,5.5,0,0,0,2.7.62A4.35,4.35,0,0,0,895.8,813a6.11,6.11,0,0,0,1.49-3.48h4.56a10.89,10.89,0,0,1-.93,3.63,8.69,8.69,0,0,1-2,2.76,8.42,8.42,0,0,1-2.88,1.74,10.55,10.55,0,0,1-3.63.6,11,11,0,0,1-4.43-.86,9.45,9.45,0,0,1-3.31-2.35,10.45,10.45,0,0,1-2.07-3.53,12.91,12.91,0,0,1-.72-4.36,13.41,13.41,0,0,1,.72-4.46,10.68,10.68,0,0,1,2.07-3.58,9.45,9.45,0,0,1,3.31-2.4,11.49,11.49,0,0,1,7.77-.36,9,9,0,0,1,2.82,1.48,8.06,8.06,0,0,1,2.06,2.42,8.63,8.63,0,0,1,1,3.3h-4.56A3.87,3.87,0,0,0,896.57,802Z"/><path d="M904.7,806.62a7.09,7.09,0,0,1,4.14-4.23,8.86,8.86,0,0,1,3.3-.58,9,9,0,0,1,3.31.58,7.05,7.05,0,0,1,4.16,4.23,9.55,9.55,0,0,1,.57,3.38,9.4,9.4,0,0,1-.57,3.36,7.27,7.27,0,0,1-1.62,2.56,7.09,7.09,0,0,1-2.54,1.64,9.16,9.16,0,0,1-3.31.57,9.07,9.07,0,0,1-3.3-.57,7.1,7.1,0,0,1-2.52-1.64,7.27,7.27,0,0,1-1.62-2.56,9.4,9.4,0,0,1-.57-3.36A9.55,9.55,0,0,1,904.7,806.62Zm3.87,5.19a4.83,4.83,0,0,0,.61,1.59,3.3,3.3,0,0,0,1.16,1.13,3.53,3.53,0,0,0,1.8.42,3.59,3.59,0,0,0,1.81-.42,3.25,3.25,0,0,0,1.17-1.13,4.84,4.84,0,0,0,.62-1.59,9,9,0,0,0,.18-1.81,9.31,9.31,0,0,0-.18-1.83,4.67,4.67,0,0,0-.62-1.59,3.42,3.42,0,0,0-1.17-1.13,3.49,3.49,0,0,0-1.81-.43,3.43,3.43,0,0,0-1.8.43,3.48,3.48,0,0,0-1.16,1.13,4.66,4.66,0,0,0-.61,1.59,9.31,9.31,0,0,0-.18,1.83A9,9,0,0,0,908.57,811.81Z"/><path d="M927,802.23v2.16h.09a4.9,4.9,0,0,1,2.1-2,6.07,6.07,0,0,1,2.64-.61,7.22,7.22,0,0,1,2.8.46,4.18,4.18,0,0,1,1.73,1.29,5,5,0,0,1,.88,2,12.54,12.54,0,0,1,.26,2.63v9.54h-4.26V809a5.46,5.46,0,0,0-.6-2.87,2.32,2.32,0,0,0-2.13-.94,3,3,0,0,0-2.52,1,5.77,5.77,0,0,0-.78,3.41v8.13h-4.26V802.23Z"/><path d="M944.77,802.23v2.16h.09a4.9,4.9,0,0,1,2.1-2,6.1,6.1,0,0,1,2.64-.61,7.24,7.24,0,0,1,2.81.46,4.14,4.14,0,0,1,1.72,1.29,4.87,4.87,0,0,1,.89,2,12.56,12.56,0,0,1,.25,2.63v9.54H951V809a5.55,5.55,0,0,0-.6-2.87,2.33,2.33,0,0,0-2.13-.94,2.92,2.92,0,0,0-2.52,1,5.69,5.69,0,0,0-.79,3.41v8.13h-4.25V802.23Z"/><path d="M963.07,814a4.35,4.35,0,0,0,5,.28,2.67,2.67,0,0,0,1.14-1.36h3.75a7.12,7.12,0,0,1-2.76,4,8.12,8.12,0,0,1-4.5,1.2,8.86,8.86,0,0,1-3.3-.59,6.85,6.85,0,0,1-2.49-1.66,7.48,7.48,0,0,1-1.57-2.58,9.44,9.44,0,0,1-.56-3.3,9,9,0,0,1,.57-3.24,7.45,7.45,0,0,1,4.13-4.32,8,8,0,0,1,3.22-.63,7.37,7.37,0,0,1,3.45.76,6.92,6.92,0,0,1,2.42,2.06,8.44,8.44,0,0,1,1.36,2.94,11,11,0,0,1,.3,3.45H962A4.31,4.31,0,0,0,963.07,814Zm4.82-8.16a3,3,0,0,0-2.33-.84,3.69,3.69,0,0,0-1.69.34,3.24,3.24,0,0,0-1.08.86,3.13,3.13,0,0,0-.57,1.08,4.93,4.93,0,0,0-.2,1H969A4.92,4.92,0,0,0,967.89,805.86Z"/><path d="M983.14,805a3,3,0,0,0-1.71.46,3.68,3.68,0,0,0-1.12,1.2,5.19,5.19,0,0,0-.62,1.62,8.84,8.84,0,0,0-.18,1.76,8.43,8.43,0,0,0,.18,1.71,5.27,5.27,0,0,0,.59,1.57,3.36,3.36,0,0,0,1.09,1.16,3,3,0,0,0,1.68.45,3.14,3.14,0,0,0,2.36-.86,4,4,0,0,0,1-2.29h4.11a7,7,0,0,1-2.4,4.71,7.75,7.75,0,0,1-5.07,1.62,8.46,8.46,0,0,1-3.19-.59,7.09,7.09,0,0,1-2.48-1.63,7.47,7.47,0,0,1-1.59-2.51,8.66,8.66,0,0,1-.57-3.19,10.36,10.36,0,0,1,.53-3.35,7.52,7.52,0,0,1,1.54-2.67,7.06,7.06,0,0,1,2.49-1.75,8.46,8.46,0,0,1,3.36-.63,9.76,9.76,0,0,1,2.66.36,7.08,7.08,0,0,1,2.28,1.09,5.68,5.68,0,0,1,2.35,4.43h-4.17A2.86,2.86,0,0,0,983.14,805Z"/><path d="M1001.47,802.23v2.85h-3.12v7.68a1.44,1.44,0,0,0,1.8,1.8q.36,0,.69,0a6,6,0,0,0,.63-.09v3.3a10.14,10.14,0,0,1-1.2.12l-1.29,0a12.35,12.35,0,0,1-1.87-.14,4.42,4.42,0,0,1-1.56-.52,2.79,2.79,0,0,1-1.07-1.11,4,4,0,0,1-.39-1.89v-9.15h-2.58v-2.85h2.58v-4.65h4.26v4.65Z"/><path d="M1019,805.44h-7.47v-3.21h13.08v3.21l-8.07,9.09h8.64v3.21h-14.25v-3.21Z"/><path d="M1027.54,799.83v-3.51h4.26v3.51Zm4.26,2.4v15.51h-4.26V802.23Z"/><path d="M1039.21,802.23v2h.06a4.69,4.69,0,0,1,2-1.83,6.07,6.07,0,0,1,2.64-.57,6.72,6.72,0,0,1,3.15.69,6.5,6.5,0,0,1,2.19,1.83,7.7,7.7,0,0,1,1.29,2.65,11.83,11.83,0,0,1,.42,3.17,10.66,10.66,0,0,1-.42,3,7.63,7.63,0,0,1-1.27,2.55,6.32,6.32,0,0,1-2.13,1.77,6.43,6.43,0,0,1-3,.66,6,6,0,0,1-2.65-.59,5,5,0,0,1-2-1.72h-.06v7.35h-4.26V802.23Zm5.54,12.3a3.43,3.43,0,0,0,1.14-1.1,4.48,4.48,0,0,0,.61-1.57,9.31,9.31,0,0,0,.18-1.83,8.61,8.61,0,0,0-.19-1.83,4.91,4.91,0,0,0-.65-1.61,3.58,3.58,0,0,0-1.15-1.14,3.74,3.74,0,0,0-3.48,0,3.52,3.52,0,0,0-1.14,1.13,4.67,4.67,0,0,0-.62,1.59,9.46,9.46,0,0,0-.18,1.86,8.62,8.62,0,0,0,.2,1.83,4.7,4.7,0,0,0,.63,1.57,3.63,3.63,0,0,0,4.65,1.1Z"/><path d="M1057.54,802.23v2h.06a4.69,4.69,0,0,1,2-1.83,6.07,6.07,0,0,1,2.64-.57,6.72,6.72,0,0,1,3.15.69,6.5,6.5,0,0,1,2.19,1.83,7.7,7.7,0,0,1,1.29,2.65,11.83,11.83,0,0,1,.42,3.17,10.66,10.66,0,0,1-.42,3,7.63,7.63,0,0,1-1.27,2.55,6.32,6.32,0,0,1-2.13,1.77,6.43,6.43,0,0,1-3,.66,6,6,0,0,1-2.65-.59,5,5,0,0,1-2-1.72h-.06v7.35h-4.26V802.23Zm5.54,12.3a3.43,3.43,0,0,0,1.14-1.1,4.48,4.48,0,0,0,.61-1.57A9.31,9.31,0,0,0,1065,810a8.61,8.61,0,0,0-.19-1.83,4.91,4.91,0,0,0-.65-1.61,3.58,3.58,0,0,0-1.15-1.14,3.74,3.74,0,0,0-3.48,0,3.52,3.52,0,0,0-1.14,1.13,4.67,4.67,0,0,0-.62,1.59,9.46,9.46,0,0,0-.18,1.86,8.62,8.62,0,0,0,.2,1.83,4.7,4.7,0,0,0,.63,1.57,3.63,3.63,0,0,0,4.65,1.1Z"/><path d="M1076.38,814a4.35,4.35,0,0,0,5,.28,2.67,2.67,0,0,0,1.14-1.36h3.75a7.12,7.12,0,0,1-2.76,4,8.12,8.12,0,0,1-4.5,1.2,8.86,8.86,0,0,1-3.3-.59,6.85,6.85,0,0,1-2.49-1.66,7.48,7.48,0,0,1-1.57-2.58,9.44,9.44,0,0,1-.56-3.3,9,9,0,0,1,.57-3.24,7.45,7.45,0,0,1,4.13-4.32,8,8,0,0,1,3.22-.63,7.37,7.37,0,0,1,3.45.76,6.92,6.92,0,0,1,2.42,2.06,8.44,8.44,0,0,1,1.36,2.94,11,11,0,0,1,.3,3.45h-11.19A4.31,4.31,0,0,0,1076.38,814Zm4.82-8.16a3,3,0,0,0-2.33-.84,3.69,3.69,0,0,0-1.69.34,3.24,3.24,0,0,0-1.08.86,3.13,3.13,0,0,0-.57,1.08,4.93,4.93,0,0,0-.2,1h6.93A4.92,4.92,0,0,0,1081.2,805.86Z"/><path d="M1093.09,802.23v2.88h.06a5.33,5.33,0,0,1,2-2.39,5.7,5.7,0,0,1,1.41-.67,5.09,5.09,0,0,1,1.56-.24,3.32,3.32,0,0,1,.93.15v4c-.2,0-.44-.08-.72-.11a7.57,7.57,0,0,0-.81,0,4.54,4.54,0,0,0-2,.39,3.4,3.4,0,0,0-1.3,1.06,4.3,4.3,0,0,0-.71,1.58,8.57,8.57,0,0,0-.21,2v7H1089V802.23Z"/><path d="M1108.87,807a5,5,0,0,1,.75-2.49,5.11,5.11,0,0,1,1.68-1.59,7.36,7.36,0,0,1,2.3-.86,13,13,0,0,1,2.56-.25,17.37,17.37,0,0,1,2.37.16,7.25,7.25,0,0,1,2.19.65,4.3,4.3,0,0,1,1.62,1.33,3.75,3.75,0,0,1,.63,2.27v8.07a16.21,16.21,0,0,0,.12,2,3.63,3.63,0,0,0,.42,1.44h-4.32a6.17,6.17,0,0,1-.19-.74,6.32,6.32,0,0,1-.11-.76,5.55,5.55,0,0,1-2.4,1.47,9.63,9.63,0,0,1-2.82.42,7.62,7.62,0,0,1-2.07-.27,4.74,4.74,0,0,1-1.68-.84,3.9,3.9,0,0,1-1.12-1.44,4.87,4.87,0,0,1-.41-2.07,4.54,4.54,0,0,1,.47-2.18,3.87,3.87,0,0,1,1.2-1.36,5.39,5.39,0,0,1,1.68-.77,17.82,17.82,0,0,1,1.9-.4q1-.15,1.89-.24a11.37,11.37,0,0,0,1.65-.27,2.88,2.88,0,0,0,1.14-.53,1.14,1.14,0,0,0,.39-1,2.29,2.29,0,0,0-.22-1.1,1.65,1.65,0,0,0-.6-.63,2.36,2.36,0,0,0-.87-.3,7.21,7.21,0,0,0-1.07-.07,3.23,3.23,0,0,0-2,.54,2.41,2.41,0,0,0-.84,1.8Zm9.84,3.15a1.88,1.88,0,0,1-.67.37,6.88,6.88,0,0,1-.87.23c-.31.06-.64.11-1,.15l-1,.15a7.62,7.62,0,0,0-.94.24,2.79,2.79,0,0,0-.81.4,2,2,0,0,0-.56.65,2.07,2.07,0,0,0-.21,1,2,2,0,0,0,.21,1,1.6,1.6,0,0,0,.57.61,2.41,2.41,0,0,0,.84.32,5.36,5.36,0,0,0,1,.09,3.77,3.77,0,0,0,2-.42,2.82,2.82,0,0,0,1-1,3.2,3.2,0,0,0,.41-1.18,8,8,0,0,0,.07-1Z"/><path d="M1130.32,802.23v2.16h.09a4.9,4.9,0,0,1,2.1-2,6.07,6.07,0,0,1,2.64-.61,7.27,7.27,0,0,1,2.81.46,4.14,4.14,0,0,1,1.72,1.29,5,5,0,0,1,.89,2,12.56,12.56,0,0,1,.25,2.63v9.54h-4.26V809a5.46,5.46,0,0,0-.6-2.87,2.32,2.32,0,0,0-2.13-.94,3,3,0,0,0-2.52,1,5.77,5.77,0,0,0-.78,3.41v8.13h-4.26V802.23Z"/><path d="M1155.07,815.76a4.37,4.37,0,0,1-2,1.81,6.56,6.56,0,0,1-2.75.56,6.63,6.63,0,0,1-3.06-.68,6.13,6.13,0,0,1-2.17-1.83,8.28,8.28,0,0,1-1.29-2.65,11.15,11.15,0,0,1-.44-3.12,10.51,10.51,0,0,1,.44-3,7.81,7.81,0,0,1,1.29-2.56,6.21,6.21,0,0,1,5.14-2.46,6.12,6.12,0,0,1,2.63.58,4.57,4.57,0,0,1,2,1.73h.06v-7.8h4.26v21.42h-4v-2Zm-.18-7.67a4.5,4.5,0,0,0-.61-1.56,3.46,3.46,0,0,0-1.13-1.09,3.3,3.3,0,0,0-1.74-.42,3.46,3.46,0,0,0-1.77.42,3.31,3.31,0,0,0-1.15,1.11,4.88,4.88,0,0,0-.63,1.57,8.6,8.6,0,0,0-.2,1.85,7.9,7.9,0,0,0,.21,1.8,4.9,4.9,0,0,0,.68,1.6,3.74,3.74,0,0,0,1.17,1.14,3.15,3.15,0,0,0,1.69.44,3.4,3.4,0,0,0,1.76-.42,3.19,3.19,0,0,0,1.12-1.13,5,5,0,0,0,.6-1.6,9.46,9.46,0,0,0,.18-1.86A9.29,9.29,0,0,0,1154.89,808.09Z"/><path d="M889.79,841a3,3,0,0,0-1.71.46,3.71,3.71,0,0,0-1.13,1.2,5.18,5.18,0,0,0-.61,1.62,8.84,8.84,0,0,0-.18,1.76,8.43,8.43,0,0,0,.18,1.71,5.25,5.25,0,0,0,.58,1.57,3.39,3.39,0,0,0,1.1,1.16,3,3,0,0,0,1.68.45,3.11,3.11,0,0,0,2.35-.86,4,4,0,0,0,1-2.29h4.11a7,7,0,0,1-2.4,4.71,7.75,7.75,0,0,1-5.07,1.62,8.52,8.52,0,0,1-3.2-.59,7.05,7.05,0,0,1-2.47-1.63,7.47,7.47,0,0,1-1.59-2.51,8.66,8.66,0,0,1-.57-3.19,10.36,10.36,0,0,1,.52-3.35,7.54,7.54,0,0,1,1.55-2.67,7.06,7.06,0,0,1,2.49-1.75,8.46,8.46,0,0,1,3.36-.63,9.69,9.69,0,0,1,2.65.36,7.08,7.08,0,0,1,2.28,1.09,5.65,5.65,0,0,1,2.36,4.43h-4.17A2.86,2.86,0,0,0,889.79,841Z"/><path d="M899.69,842.62a7.09,7.09,0,0,1,4.14-4.23,8.86,8.86,0,0,1,3.3-.58,9,9,0,0,1,3.31.58,7.05,7.05,0,0,1,4.16,4.23,9.55,9.55,0,0,1,.57,3.38,9.4,9.4,0,0,1-.57,3.36,7.27,7.27,0,0,1-1.62,2.56,7.09,7.09,0,0,1-2.54,1.64,9.16,9.16,0,0,1-3.31.57,9.07,9.07,0,0,1-3.3-.57,7.1,7.1,0,0,1-2.52-1.64,7.27,7.27,0,0,1-1.62-2.56,9.4,9.4,0,0,1-.57-3.36A9.55,9.55,0,0,1,899.69,842.62Zm3.87,5.19a4.83,4.83,0,0,0,.61,1.59,3.3,3.3,0,0,0,1.16,1.13,3.53,3.53,0,0,0,1.8.42,3.59,3.59,0,0,0,1.81-.42,3.25,3.25,0,0,0,1.17-1.13,4.84,4.84,0,0,0,.62-1.59,9,9,0,0,0,.18-1.81,9.31,9.31,0,0,0-.18-1.83,4.67,4.67,0,0,0-.62-1.59,3.42,3.42,0,0,0-1.17-1.13,3.49,3.49,0,0,0-1.81-.43,3.43,3.43,0,0,0-1.8.43,3.48,3.48,0,0,0-1.16,1.13,4.66,4.66,0,0,0-.61,1.59,9.31,9.31,0,0,0-.18,1.83A9,9,0,0,0,903.56,847.81Z"/><path d="M922,838.23v2.16h.08a4.92,4.92,0,0,1,2.11-2,6,6,0,0,1,2.64-.61,7.22,7.22,0,0,1,2.8.46,4.08,4.08,0,0,1,1.72,1.29,4.87,4.87,0,0,1,.89,2,12.54,12.54,0,0,1,.26,2.63v9.54h-4.26V845a5.46,5.46,0,0,0-.6-2.87,2.33,2.33,0,0,0-2.13-.94,2.94,2.94,0,0,0-2.52,1,5.7,5.7,0,0,0-.78,3.41v8.13h-4.26V838.23Z"/><path d="M939.3,849.88a2.48,2.48,0,0,0,.73.81,3.19,3.19,0,0,0,1,.47,4.83,4.83,0,0,0,1.21.15,4.62,4.62,0,0,0,1-.11,3.21,3.21,0,0,0,.9-.33,2,2,0,0,0,.67-.6,1.56,1.56,0,0,0,.27-.94c0-.64-.42-1.12-1.27-1.44a25.56,25.56,0,0,0-3.56-1c-.62-.14-1.22-.31-1.81-.5a6.24,6.24,0,0,1-1.58-.75,3.65,3.65,0,0,1-1.11-1.17,3.3,3.3,0,0,1-.42-1.72,4.67,4.67,0,0,1,.59-2.46,4.31,4.31,0,0,1,1.54-1.52,6.77,6.77,0,0,1,2.16-.78,13.32,13.32,0,0,1,2.46-.22,12.34,12.34,0,0,1,2.45.24,6.44,6.44,0,0,1,2.11.81,4.85,4.85,0,0,1,1.55,1.51,5.11,5.11,0,0,1,.73,2.39h-4a1.87,1.87,0,0,0-.93-1.67,4.25,4.25,0,0,0-2-.43,7.28,7.28,0,0,0-.78,0,2.57,2.57,0,0,0-.76.2,1.58,1.58,0,0,0-.59.43A1.29,1.29,0,0,0,940,843a3.26,3.26,0,0,0,1.1.58,13.53,13.53,0,0,0,1.54.41l1.77.39a18.09,18.09,0,0,1,1.82.51,5.93,5.93,0,0,1,1.57.79,3.84,3.84,0,0,1,1.11,1.23,3.63,3.63,0,0,1,.42,1.82,4.7,4.7,0,0,1-2.22,4.23,6.55,6.55,0,0,1-2.26.88,13.25,13.25,0,0,1-2.6.26,12.85,12.85,0,0,1-2.64-.27,6.94,6.94,0,0,1-2.29-.9A5,5,0,0,1,935,848.7h4A2.32,2.32,0,0,0,939.3,849.88Z"/><path d="M960.34,838.23v2.85h-3.12v7.68a1.44,1.44,0,0,0,1.8,1.8q.36,0,.69,0a6,6,0,0,0,.63-.09v3.3a10.14,10.14,0,0,1-1.2.12l-1.29,0a12.35,12.35,0,0,1-1.87-.14,4.42,4.42,0,0,1-1.56-.52,2.79,2.79,0,0,1-1.07-1.11,4,4,0,0,1-.39-1.89v-9.15h-2.58v-2.85H953v-4.65h4.26v4.65Z"/><path d="M966.43,838.23v2.88h.06a5.33,5.33,0,0,1,2-2.39,5.7,5.7,0,0,1,1.41-.67,5.09,5.09,0,0,1,1.56-.24,3.32,3.32,0,0,1,.93.15v4c-.2,0-.44-.08-.72-.11a7.57,7.57,0,0,0-.81,0,4.54,4.54,0,0,0-2,.39,3.4,3.4,0,0,0-1.3,1.06,4.3,4.3,0,0,0-.71,1.58,8.57,8.57,0,0,0-.21,2v7h-4.26V838.23Z"/><path d="M984.55,853.74v-2.16h-.09a4.79,4.79,0,0,1-2.1,1.95,6.2,6.2,0,0,1-2.64.6,7.42,7.42,0,0,1-2.8-.45,4.07,4.07,0,0,1-1.73-1.28,5,5,0,0,1-.88-2,12.44,12.44,0,0,1-.26-2.62v-9.54h4.26V847a5.42,5.42,0,0,0,.6,2.86,2.33,2.33,0,0,0,2.13.95,3,3,0,0,0,2.52-1,5.74,5.74,0,0,0,.78-3.4v-8.13h4.26v15.51Z"/><path d="M999.25,841a3,3,0,0,0-1.71.46,3.68,3.68,0,0,0-1.12,1.2,5.19,5.19,0,0,0-.62,1.62,8.84,8.84,0,0,0-.18,1.76,8.43,8.43,0,0,0,.18,1.71,5.27,5.27,0,0,0,.59,1.57,3.36,3.36,0,0,0,1.09,1.16,3,3,0,0,0,1.68.45,3.14,3.14,0,0,0,2.36-.86,4,4,0,0,0,1-2.29h4.11a7,7,0,0,1-2.4,4.71,7.75,7.75,0,0,1-5.07,1.62,8.46,8.46,0,0,1-3.19-.59,7.09,7.09,0,0,1-2.48-1.63,7.47,7.47,0,0,1-1.59-2.51,8.66,8.66,0,0,1-.57-3.19,10.36,10.36,0,0,1,.53-3.35,7.52,7.52,0,0,1,1.54-2.67,7.06,7.06,0,0,1,2.49-1.75,8.46,8.46,0,0,1,3.36-.63,9.76,9.76,0,0,1,2.66.36,7.08,7.08,0,0,1,2.28,1.09,5.68,5.68,0,0,1,2.35,4.43h-4.17A2.86,2.86,0,0,0,999.25,841Z"/><path d="M1017.58,838.23v2.85h-3.12v7.68a1.44,1.44,0,0,0,1.8,1.8q.36,0,.69,0a6,6,0,0,0,.63-.09v3.3a10.14,10.14,0,0,1-1.2.12l-1.29,0a12.35,12.35,0,0,1-1.87-.14,4.42,4.42,0,0,1-1.56-.52,2.79,2.79,0,0,1-1.07-1.11,4,4,0,0,1-.39-1.89v-9.15h-2.58v-2.85h2.58v-4.65h4.26v4.65Z"/><path d="M1032.22,832.32v7.8h.06a4.57,4.57,0,0,1,2.12-1.76,7.13,7.13,0,0,1,2.77-.55,5.94,5.94,0,0,1,4.37,2,7.48,7.48,0,0,1,1.48,2.53,12.13,12.13,0,0,1,0,7.35,7.53,7.53,0,0,1-1.48,2.54,5.94,5.94,0,0,1-4.37,2,8.18,8.18,0,0,1-3.06-.54,3.88,3.88,0,0,1-2-1.83H1032v2h-4V832.32Zm6.9,11.79a4.94,4.94,0,0,0-.66-1.59,3.46,3.46,0,0,0-1.12-1.1,3.52,3.52,0,0,0-3.26,0,3.42,3.42,0,0,0-1.14,1.1,4.94,4.94,0,0,0-.66,1.59,8.29,8.29,0,0,0-.21,1.89,8.16,8.16,0,0,0,.21,1.86,4.94,4.94,0,0,0,.66,1.59,3.39,3.39,0,0,0,1.14,1.09,3.45,3.45,0,0,0,3.26,0,3.43,3.43,0,0,0,1.12-1.09,4.94,4.94,0,0,0,.66-1.59,8.16,8.16,0,0,0,.21-1.86A8.29,8.29,0,0,0,1039.12,844.11Z"/><path d="M1046.38,842.62a7.09,7.09,0,0,1,4.14-4.23,8.86,8.86,0,0,1,3.3-.58,9,9,0,0,1,3.32.58,7.07,7.07,0,0,1,4.15,4.23,9.55,9.55,0,0,1,.57,3.38,9.4,9.4,0,0,1-.57,3.36,7.27,7.27,0,0,1-1.62,2.56,7.05,7.05,0,0,1-2.53,1.64,9.21,9.21,0,0,1-3.32.57,9.07,9.07,0,0,1-3.3-.57,7.1,7.1,0,0,1-2.52-1.64,7.27,7.27,0,0,1-1.62-2.56,9.4,9.4,0,0,1-.57-3.36A9.55,9.55,0,0,1,1046.38,842.62Zm3.87,5.19a4.84,4.84,0,0,0,.62,1.59,3.28,3.28,0,0,0,1.15,1.13,3.53,3.53,0,0,0,1.8.42,3.63,3.63,0,0,0,1.82-.42,3.25,3.25,0,0,0,1.17-1.13,4.83,4.83,0,0,0,.61-1.59,9,9,0,0,0,.18-1.81,9.31,9.31,0,0,0-.18-1.83,4.66,4.66,0,0,0-.61-1.59,3.42,3.42,0,0,0-1.17-1.13,3.53,3.53,0,0,0-1.82-.43,3.23,3.23,0,0,0-3,1.56,4.67,4.67,0,0,0-.62,1.59,9.31,9.31,0,0,0-.18,1.83A9,9,0,0,0,1050.25,847.81Z"/><path d="M1075.63,851.76a4.37,4.37,0,0,1-2,1.81,6.56,6.56,0,0,1-2.75.56,6.63,6.63,0,0,1-3.06-.68,6.13,6.13,0,0,1-2.17-1.83,8.28,8.28,0,0,1-1.29-2.65,11.15,11.15,0,0,1-.44-3.12,10.51,10.51,0,0,1,.44-3,7.81,7.81,0,0,1,1.29-2.56,6.21,6.21,0,0,1,5.14-2.46,6.12,6.12,0,0,1,2.63.58,4.57,4.57,0,0,1,2,1.73h.06v-7.8h4.26v21.42h-4v-2Zm-.18-7.67a4.5,4.5,0,0,0-.61-1.56,3.46,3.46,0,0,0-1.13-1.09A3.3,3.3,0,0,0,1072,841a3.46,3.46,0,0,0-1.77.42,3.31,3.31,0,0,0-1.15,1.11,4.88,4.88,0,0,0-.63,1.57,8.6,8.6,0,0,0-.2,1.85,7.9,7.9,0,0,0,.21,1.8,4.9,4.9,0,0,0,.68,1.6,3.74,3.74,0,0,0,1.17,1.14,3.15,3.15,0,0,0,1.69.44,3.4,3.4,0,0,0,1.76-.42,3.19,3.19,0,0,0,1.12-1.13,5,5,0,0,0,.6-1.6,9.46,9.46,0,0,0,.18-1.86A9.29,9.29,0,0,0,1075.45,844.09Z"/><path d="M1088.68,858.36a6.18,6.18,0,0,1-3.42.81c-.44,0-.87,0-1.3,0l-1.31-.1v-3.51l1.23.12a8.84,8.84,0,0,0,1.26,0,1.67,1.67,0,0,0,1.25-.66,2.12,2.12,0,0,0,.4-1.26,2.56,2.56,0,0,0-.18-1l-5.43-14.55h4.53l3.51,10.62h.06l3.39-10.62h4.41l-6.48,17.43A5.25,5.25,0,0,1,1088.68,858.36Z"/><path d="M1101.19,849.12v4.62h-4.71v-4.62Z"/><text class="cls-4" transform="translate(1395.76 814.74)">D<tspan class="cls-5" x="22.23" y="0">r</tspan><tspan x="33.36" y="0">op in lid and cable.</tspan></text><path d="M1937.89,793.32v4h-10.35v5h9v3.66h-9v8.85h-4.71V793.32Z"/><path d="M1944.55,793.32v21.42h-4.26V793.32Z"/><path d="M1948,796.83v-3.51h4.26v3.51Zm4.26,2.4v15.51H1948V799.23Z"/><path d="M1959.69,799.23v2h.06a4.69,4.69,0,0,1,2-1.83,6.12,6.12,0,0,1,2.65-.57,6.7,6.7,0,0,1,3.14.69,6.5,6.5,0,0,1,2.19,1.83A7.7,7.7,0,0,1,1971,804a11.83,11.83,0,0,1,.42,3.17,10.66,10.66,0,0,1-.42,3,7.63,7.63,0,0,1-1.27,2.55,6.32,6.32,0,0,1-2.13,1.77,6.43,6.43,0,0,1-3,.66,6,6,0,0,1-2.65-.59,5,5,0,0,1-2-1.72h-.06v7.35h-4.25V799.23Zm5.54,12.3a3.43,3.43,0,0,0,1.14-1.1,4.48,4.48,0,0,0,.61-1.57,9.32,9.32,0,0,0,.19-1.83,8.62,8.62,0,0,0-.2-1.83,4.91,4.91,0,0,0-.65-1.61,3.58,3.58,0,0,0-1.15-1.14,3.74,3.74,0,0,0-3.48,0,3.52,3.52,0,0,0-1.14,1.13,4.47,4.47,0,0,0-.61,1.59,8.76,8.76,0,0,0-.19,1.86,8.62,8.62,0,0,0,.2,1.83,4.7,4.7,0,0,0,.63,1.57,3.37,3.37,0,0,0,1.15,1.1,3.86,3.86,0,0,0,3.5,0Z"/><path d="M1986.57,793.32v7.8h.06a4.57,4.57,0,0,1,2.12-1.76,7.13,7.13,0,0,1,2.77-.55,5.94,5.94,0,0,1,4.37,2,7.48,7.48,0,0,1,1.48,2.53,12.13,12.13,0,0,1,0,7.35,7.53,7.53,0,0,1-1.48,2.54,5.94,5.94,0,0,1-4.37,2,8.18,8.18,0,0,1-3.06-.54,3.88,3.88,0,0,1-2-1.83h-.06v2h-4V793.32Zm6.9,11.79a4.94,4.94,0,0,0-.66-1.59,3.46,3.46,0,0,0-1.12-1.1,3.52,3.52,0,0,0-3.26,0,3.42,3.42,0,0,0-1.14,1.1,4.94,4.94,0,0,0-.66,1.59,8.29,8.29,0,0,0-.21,1.89,8.16,8.16,0,0,0,.21,1.86,4.94,4.94,0,0,0,.66,1.59,3.39,3.39,0,0,0,1.14,1.09,3.45,3.45,0,0,0,3.26,0,3.43,3.43,0,0,0,1.12-1.09,4.94,4.94,0,0,0,.66-1.59,8.16,8.16,0,0,0,.21-1.86A8.29,8.29,0,0,0,1993.47,805.11Z"/><path d="M2000.73,803.62a7.09,7.09,0,0,1,4.14-4.23,8.86,8.86,0,0,1,3.3-.58,9,9,0,0,1,3.32.58,7.07,7.07,0,0,1,4.15,4.23,9.55,9.55,0,0,1,.57,3.38,9.4,9.4,0,0,1-.57,3.36,7.27,7.27,0,0,1-1.62,2.56,7.05,7.05,0,0,1-2.53,1.64,9.21,9.21,0,0,1-3.32.57,9.07,9.07,0,0,1-3.3-.57,7.1,7.1,0,0,1-2.52-1.64,7.27,7.27,0,0,1-1.62-2.56,9.4,9.4,0,0,1-.57-3.36A9.55,9.55,0,0,1,2000.73,803.62Zm3.87,5.19a4.84,4.84,0,0,0,.62,1.59,3.28,3.28,0,0,0,1.15,1.13,3.53,3.53,0,0,0,1.8.42,3.63,3.63,0,0,0,1.82-.42,3.25,3.25,0,0,0,1.17-1.13,4.83,4.83,0,0,0,.61-1.59A9,9,0,0,0,2012,807a9.31,9.31,0,0,0-.18-1.83,4.66,4.66,0,0,0-.61-1.59,3.42,3.42,0,0,0-1.17-1.13,3.53,3.53,0,0,0-1.82-.43,3.23,3.23,0,0,0-3,1.56,4.67,4.67,0,0,0-.62,1.59,9.31,9.31,0,0,0-.18,1.83A9,9,0,0,0,2004.6,808.81Z"/><path d="M2030,812.76a4.37,4.37,0,0,1-2,1.81,6.56,6.56,0,0,1-2.75.56,6.63,6.63,0,0,1-3.06-.68,6.13,6.13,0,0,1-2.17-1.83,8.28,8.28,0,0,1-1.29-2.65,11.15,11.15,0,0,1-.44-3.12,10.51,10.51,0,0,1,.44-3,7.81,7.81,0,0,1,1.29-2.56,6.21,6.21,0,0,1,5.14-2.46,6.12,6.12,0,0,1,2.63.58,4.57,4.57,0,0,1,2,1.73h.06v-7.8h4.26v21.42h-4v-2Zm-.18-7.67a4.5,4.5,0,0,0-.61-1.56,3.46,3.46,0,0,0-1.13-1.09,3.3,3.3,0,0,0-1.74-.42,3.46,3.46,0,0,0-1.77.42,3.31,3.31,0,0,0-1.15,1.11,4.88,4.88,0,0,0-.63,1.57,8.6,8.6,0,0,0-.2,1.85,7.9,7.9,0,0,0,.21,1.8,4.9,4.9,0,0,0,.68,1.6,3.74,3.74,0,0,0,1.17,1.14,3.15,3.15,0,0,0,1.69.44,3.4,3.4,0,0,0,1.76-.42,3.19,3.19,0,0,0,1.12-1.13,5,5,0,0,0,.6-1.6,9.46,9.46,0,0,0,.18-1.86A9.29,9.29,0,0,0,2029.8,805.09Z"/><path d="M2043,819.36a6.18,6.18,0,0,1-3.42.81c-.44,0-.87,0-1.3,0L2037,820v-3.51l1.23.12a8.84,8.84,0,0,0,1.26,0,1.67,1.67,0,0,0,1.25-.66,2.12,2.12,0,0,0,.4-1.26,2.56,2.56,0,0,0-.18-1l-5.43-14.55h4.53l3.51,10.62h.06l3.39-10.62h4.41L2045,816.66A5.25,5.25,0,0,1,2043,819.36Z"/><path d="M2061,804a5,5,0,0,1,.75-2.49,5.11,5.11,0,0,1,1.68-1.59,7.36,7.36,0,0,1,2.3-.86,13,13,0,0,1,2.56-.25,17.37,17.37,0,0,1,2.37.16,7.25,7.25,0,0,1,2.19.65,4.3,4.3,0,0,1,1.62,1.33,3.75,3.75,0,0,1,.63,2.27v8.07a16.21,16.21,0,0,0,.12,2,3.63,3.63,0,0,0,.42,1.44h-4.32a6.17,6.17,0,0,1-.19-.74,6.32,6.32,0,0,1-.11-.76,5.55,5.55,0,0,1-2.4,1.47,9.63,9.63,0,0,1-2.82.42,7.62,7.62,0,0,1-2.07-.27,4.74,4.74,0,0,1-1.68-.84,3.9,3.9,0,0,1-1.12-1.44,4.87,4.87,0,0,1-.41-2.07,4.54,4.54,0,0,1,.47-2.18,3.87,3.87,0,0,1,1.2-1.36,5.39,5.39,0,0,1,1.68-.77,17.82,17.82,0,0,1,1.9-.4q1-.15,1.89-.24a11.37,11.37,0,0,0,1.65-.27,2.88,2.88,0,0,0,1.14-.53,1.14,1.14,0,0,0,.39-1,2.29,2.29,0,0,0-.22-1.1,1.65,1.65,0,0,0-.6-.63,2.36,2.36,0,0,0-.87-.3,7.21,7.21,0,0,0-1.07-.07,3.23,3.23,0,0,0-2,.54,2.41,2.41,0,0,0-.84,1.8Zm9.84,3.15a1.88,1.88,0,0,1-.67.37,6.88,6.88,0,0,1-.87.23c-.31.06-.64.11-1,.15l-1,.15a7.62,7.62,0,0,0-.94.24,2.79,2.79,0,0,0-.81.4,2,2,0,0,0-.56.65,2.07,2.07,0,0,0-.21,1,2,2,0,0,0,.21,1,1.6,1.6,0,0,0,.57.61,2.41,2.41,0,0,0,.84.32,5.36,5.36,0,0,0,1,.09,3.77,3.77,0,0,0,1.95-.42,2.82,2.82,0,0,0,1-1,3.2,3.2,0,0,0,.41-1.18,8,8,0,0,0,.07-1Z"/><path d="M2082.48,799.23v2.16h.09a4.9,4.9,0,0,1,2.1-2,6.07,6.07,0,0,1,2.64-.61,7.27,7.27,0,0,1,2.81.46,4.14,4.14,0,0,1,1.72,1.29,5,5,0,0,1,.89,2,12.56,12.56,0,0,1,.25,2.63v9.54h-4.26V806a5.46,5.46,0,0,0-.6-2.87,2.32,2.32,0,0,0-2.13-.94,3,3,0,0,0-2.52,1,5.77,5.77,0,0,0-.78,3.41v8.13h-4.26V799.23Z"/><path d="M2107.23,812.76a4.37,4.37,0,0,1-2,1.81,6.56,6.56,0,0,1-2.75.56,6.63,6.63,0,0,1-3.06-.68,6.13,6.13,0,0,1-2.17-1.83A8.28,8.28,0,0,1,2096,810a11.15,11.15,0,0,1-.44-3.12,10.51,10.51,0,0,1,.44-3,7.81,7.81,0,0,1,1.29-2.56,6.21,6.21,0,0,1,5.14-2.46,6.12,6.12,0,0,1,2.63.58,4.57,4.57,0,0,1,2,1.73h.06v-7.8h4.26v21.42h-4.05v-2Zm-.18-7.67a4.5,4.5,0,0,0-.61-1.56,3.46,3.46,0,0,0-1.13-1.09,3.3,3.3,0,0,0-1.74-.42,3.46,3.46,0,0,0-1.77.42,3.31,3.31,0,0,0-1.15,1.11,4.88,4.88,0,0,0-.63,1.57,8.6,8.6,0,0,0-.2,1.85,7.9,7.9,0,0,0,.21,1.8,4.9,4.9,0,0,0,.68,1.6,3.74,3.74,0,0,0,1.17,1.14,3.15,3.15,0,0,0,1.69.44,3.4,3.4,0,0,0,1.76-.42,3.19,3.19,0,0,0,1.12-1.13,5,5,0,0,0,.6-1.6,9.46,9.46,0,0,0,.18-1.86A9.29,9.29,0,0,0,2107.05,805.09Z"/><path d="M2126.94,799.23v2h.06a4.69,4.69,0,0,1,2-1.83,6.07,6.07,0,0,1,2.64-.57,6.72,6.72,0,0,1,3.15.69,6.5,6.5,0,0,1,2.19,1.83,7.7,7.7,0,0,1,1.29,2.65,11.83,11.83,0,0,1,.42,3.17,10.66,10.66,0,0,1-.42,3,7.63,7.63,0,0,1-1.27,2.55,6.32,6.32,0,0,1-2.13,1.77,6.43,6.43,0,0,1-3,.66,6,6,0,0,1-2.65-.59,5,5,0,0,1-2-1.72h-.06v7.35h-4.26V799.23Zm5.54,12.3a3.43,3.43,0,0,0,1.14-1.1,4.48,4.48,0,0,0,.61-1.57,9.31,9.31,0,0,0,.18-1.83,8.61,8.61,0,0,0-.19-1.83,4.91,4.91,0,0,0-.65-1.61,3.58,3.58,0,0,0-1.15-1.14,3.74,3.74,0,0,0-3.48,0,3.52,3.52,0,0,0-1.14,1.13,4.67,4.67,0,0,0-.62,1.59A9.46,9.46,0,0,0,2127,807a8.62,8.62,0,0,0,.2,1.83,4.7,4.7,0,0,0,.63,1.57,3.63,3.63,0,0,0,4.65,1.1Z"/><path d="M2151.72,814.74v-2.16h-.09a4.79,4.79,0,0,1-2.1,1.95,6.2,6.2,0,0,1-2.64.6,7.42,7.42,0,0,1-2.8-.45,4.07,4.07,0,0,1-1.73-1.28,5,5,0,0,1-.88-2,12.44,12.44,0,0,1-.26-2.62v-9.54h4.26V808a5.42,5.42,0,0,0,.6,2.86,2.33,2.33,0,0,0,2.13.95,3,3,0,0,0,2.52-1,5.74,5.74,0,0,0,.78-3.4v-8.13h4.26v15.51Z"/><path d="M2163.39,793.32v21.42h-4.26V793.32Z"/><path d="M2171.13,793.32v21.42h-4.26V793.32Z"/><path d="M1930.9,835.23v2.85h-3.12v7.68a1.44,1.44,0,0,0,1.8,1.8q.36,0,.69,0a6,6,0,0,0,.63-.09v3.3a10.14,10.14,0,0,1-1.2.12l-1.29,0a12.49,12.49,0,0,1-1.88-.14,4.42,4.42,0,0,1-1.56-.52,2.77,2.77,0,0,1-1.06-1.11,4,4,0,0,1-.39-1.89v-9.15h-2.58v-2.85h2.58v-4.65h4.26v4.65Z"/><path d="M1937.5,847a4.35,4.35,0,0,0,5,.28,2.67,2.67,0,0,0,1.14-1.36h3.75a7.12,7.12,0,0,1-2.76,4,8.12,8.12,0,0,1-4.5,1.2,8.86,8.86,0,0,1-3.3-.59,6.85,6.85,0,0,1-2.49-1.66,7.5,7.5,0,0,1-1.58-2.58,9.44,9.44,0,0,1-.55-3.3,9,9,0,0,1,.57-3.24,7.47,7.47,0,0,1,4.12-4.32,8.06,8.06,0,0,1,3.23-.63,7.37,7.37,0,0,1,3.45.76,6.88,6.88,0,0,1,2.41,2.06,8.45,8.45,0,0,1,1.37,2.94,11,11,0,0,1,.3,3.45h-11.19A4.26,4.26,0,0,0,1937.5,847Zm4.81-8.16A3,3,0,0,0,1940,838a3.73,3.73,0,0,0-1.7.34,3.24,3.24,0,0,0-1.08.86,3.13,3.13,0,0,0-.57,1.08,4.85,4.85,0,0,0-.19,1h6.93A4.93,4.93,0,0,0,1942.31,838.86Z"/><path d="M1954.21,835.23v2.16h.08a4.92,4.92,0,0,1,2.11-2,6,6,0,0,1,2.64-.61,7.22,7.22,0,0,1,2.8.46,4.08,4.08,0,0,1,1.72,1.29,4.87,4.87,0,0,1,.89,2,12.54,12.54,0,0,1,.26,2.63v9.54h-4.26V842a5.46,5.46,0,0,0-.6-2.87,2.33,2.33,0,0,0-2.13-.94,2.94,2.94,0,0,0-2.52,1,5.7,5.7,0,0,0-.78,3.41v8.13h-4.26V835.23Z"/><path d="M1971.53,846.88a2.48,2.48,0,0,0,.73.81,3.19,3.19,0,0,0,1,.47,4.83,4.83,0,0,0,1.21.15,4.62,4.62,0,0,0,1-.11,3.21,3.21,0,0,0,.9-.33,2,2,0,0,0,.67-.6,1.56,1.56,0,0,0,.27-.94c0-.64-.42-1.12-1.27-1.44a25.56,25.56,0,0,0-3.56-1c-.62-.14-1.22-.31-1.81-.5a6.24,6.24,0,0,1-1.58-.75,3.65,3.65,0,0,1-1.11-1.17,3.3,3.3,0,0,1-.42-1.72,4.67,4.67,0,0,1,.59-2.46,4.31,4.31,0,0,1,1.54-1.52,6.77,6.77,0,0,1,2.16-.78,13.32,13.32,0,0,1,2.46-.22,12.34,12.34,0,0,1,2.45.24,6.44,6.44,0,0,1,2.11.81,4.85,4.85,0,0,1,1.55,1.51,5.11,5.11,0,0,1,.73,2.39h-4.05a1.87,1.87,0,0,0-.93-1.67,4.25,4.25,0,0,0-2-.43,7.28,7.28,0,0,0-.78,0,2.57,2.57,0,0,0-.76.2,1.58,1.58,0,0,0-.59.43,1.29,1.29,0,0,0,.18,1.7,3.26,3.26,0,0,0,1.1.58,13.53,13.53,0,0,0,1.54.41l1.77.39a18.09,18.09,0,0,1,1.82.51,5.93,5.93,0,0,1,1.57.79,3.84,3.84,0,0,1,1.11,1.23,3.63,3.63,0,0,1,.42,1.82,4.7,4.7,0,0,1-2.22,4.23,6.55,6.55,0,0,1-2.26.88,13.25,13.25,0,0,1-2.6.26,12.85,12.85,0,0,1-2.64-.27,6.94,6.94,0,0,1-2.29-.9,5,5,0,0,1-2.36-4.26h4A2.32,2.32,0,0,0,1971.53,846.88Z"/><path d="M1984.17,832.83v-3.51h4.26v3.51Zm4.26,2.4v15.51h-4.26V835.23Z"/><path d="M1991.88,839.62a7.09,7.09,0,0,1,4.14-4.23,8.86,8.86,0,0,1,3.3-.58,9,9,0,0,1,3.32.58,7.07,7.07,0,0,1,4.15,4.23,9.55,9.55,0,0,1,.57,3.38,9.4,9.4,0,0,1-.57,3.36,7.27,7.27,0,0,1-1.62,2.56,7.05,7.05,0,0,1-2.53,1.64,9.21,9.21,0,0,1-3.32.57,9.07,9.07,0,0,1-3.3-.57,7.1,7.1,0,0,1-2.52-1.64,7.27,7.27,0,0,1-1.62-2.56,9.4,9.4,0,0,1-.57-3.36A9.55,9.55,0,0,1,1991.88,839.62Zm3.87,5.19a4.84,4.84,0,0,0,.62,1.59,3.28,3.28,0,0,0,1.15,1.13,3.53,3.53,0,0,0,1.8.42,3.63,3.63,0,0,0,1.82-.42,3.25,3.25,0,0,0,1.17-1.13,4.83,4.83,0,0,0,.61-1.59,9,9,0,0,0,.18-1.81,9.31,9.31,0,0,0-.18-1.83,4.66,4.66,0,0,0-.61-1.59,3.42,3.42,0,0,0-1.17-1.13,3.53,3.53,0,0,0-1.82-.43,3.23,3.23,0,0,0-3,1.56,4.67,4.67,0,0,0-.62,1.59,9.31,9.31,0,0,0-.18,1.83A9,9,0,0,0,1995.75,844.81Z"/><path d="M2014.17,835.23v2.16h.09a4.9,4.9,0,0,1,2.1-2,6.07,6.07,0,0,1,2.64-.61,7.27,7.27,0,0,1,2.81.46,4.14,4.14,0,0,1,1.72,1.29,5,5,0,0,1,.89,2,12.56,12.56,0,0,1,.25,2.63v9.54h-4.26V842a5.46,5.46,0,0,0-.6-2.87,2.32,2.32,0,0,0-2.13-.94,3,3,0,0,0-2.52,1,5.77,5.77,0,0,0-.78,3.41v8.13h-4.26V835.23Z"/><path d="M2043.66,838a3,3,0,0,0-1.71.46,3.68,3.68,0,0,0-1.12,1.2,5.19,5.19,0,0,0-.62,1.62,8.84,8.84,0,0,0-.18,1.76,8.43,8.43,0,0,0,.18,1.71,5.27,5.27,0,0,0,.59,1.57,3.36,3.36,0,0,0,1.09,1.16,3,3,0,0,0,1.68.45,3.14,3.14,0,0,0,2.36-.86,4,4,0,0,0,1-2.29h4.11a7,7,0,0,1-2.4,4.71,7.75,7.75,0,0,1-5.07,1.62,8.46,8.46,0,0,1-3.19-.59,7.09,7.09,0,0,1-2.48-1.63,7.47,7.47,0,0,1-1.59-2.51,8.66,8.66,0,0,1-.57-3.19,10.36,10.36,0,0,1,.53-3.35,7.52,7.52,0,0,1,1.54-2.67,7.06,7.06,0,0,1,2.49-1.75,8.46,8.46,0,0,1,3.36-.63,9.76,9.76,0,0,1,2.66.36,7.08,7.08,0,0,1,2.28,1.09,5.68,5.68,0,0,1,2.35,4.43h-4.17A2.86,2.86,0,0,0,2043.66,838Z"/><path d="M2057.85,829.32v21.42h-4.26V829.32Z"/><path d="M2061.33,832.83v-3.51h4.26v3.51Zm4.26,2.4v15.51h-4.26V835.23Z"/><path d="M2073,835.23v2h.06a4.69,4.69,0,0,1,2-1.83,6.07,6.07,0,0,1,2.64-.57,6.72,6.72,0,0,1,3.15.69,6.5,6.5,0,0,1,2.19,1.83,7.7,7.7,0,0,1,1.29,2.65,11.83,11.83,0,0,1,.42,3.17,10.66,10.66,0,0,1-.42,3,7.63,7.63,0,0,1-1.27,2.55,6.32,6.32,0,0,1-2.13,1.77,6.43,6.43,0,0,1-3,.66,6,6,0,0,1-2.65-.59,5,5,0,0,1-2-1.72h-.06v7.35H2069V835.23Zm5.54,12.3a3.43,3.43,0,0,0,1.14-1.1,4.48,4.48,0,0,0,.61-1.57,9.31,9.31,0,0,0,.18-1.83,8.61,8.61,0,0,0-.19-1.83,4.91,4.91,0,0,0-.65-1.61,3.58,3.58,0,0,0-1.15-1.14,3.74,3.74,0,0,0-3.48,0,3.52,3.52,0,0,0-1.14,1.13,4.67,4.67,0,0,0-.62,1.59,9.46,9.46,0,0,0-.18,1.86,8.62,8.62,0,0,0,.2,1.83,4.7,4.7,0,0,0,.63,1.57,3.63,3.63,0,0,0,4.65,1.1Z"/><path d="M2104.14,835.23v2.85H2101v7.68a1.44,1.44,0,0,0,1.8,1.8q.36,0,.69,0a6,6,0,0,0,.63-.09v3.3a10.14,10.14,0,0,1-1.2.12l-1.29,0a12.35,12.35,0,0,1-1.87-.14,4.42,4.42,0,0,1-1.56-.52,2.79,2.79,0,0,1-1.07-1.11,4,4,0,0,1-.39-1.89v-9.15h-2.58v-2.85h2.58v-4.65H2101v4.65Z"/><path d="M2110.44,829.32v8.07h.09a5,5,0,0,1,2.07-2,5.58,5.58,0,0,1,2.46-.61,7.27,7.27,0,0,1,2.81.46,4.14,4.14,0,0,1,1.72,1.29,5,5,0,0,1,.89,2,12.56,12.56,0,0,1,.25,2.63v9.54h-4.26V842a5.46,5.46,0,0,0-.6-2.87,2.32,2.32,0,0,0-2.13-.94,3,3,0,0,0-2.52,1,5.77,5.77,0,0,0-.78,3.41v8.13h-4.26V829.32Z"/><path d="M2128,835.23v2.88h.06a5.33,5.33,0,0,1,2-2.39,5.7,5.7,0,0,1,1.41-.67,5.09,5.09,0,0,1,1.56-.24,3.32,3.32,0,0,1,.93.15v4c-.2,0-.44-.08-.72-.11a7.57,7.57,0,0,0-.81,0,4.54,4.54,0,0,0-2,.39,3.4,3.4,0,0,0-1.3,1.06,4.3,4.3,0,0,0-.71,1.58,8.57,8.57,0,0,0-.21,2v7H2124V835.23Z"/><path d="M2135.19,839.62a7.09,7.09,0,0,1,4.14-4.23,8.86,8.86,0,0,1,3.3-.58,9,9,0,0,1,3.32.58,7.07,7.07,0,0,1,4.15,4.23,9.55,9.55,0,0,1,.57,3.38,9.4,9.4,0,0,1-.57,3.36,7.27,7.27,0,0,1-1.62,2.56,7.05,7.05,0,0,1-2.53,1.64,9.21,9.21,0,0,1-3.32.57,9.07,9.07,0,0,1-3.3-.57,7.1,7.1,0,0,1-2.52-1.64,7.27,7.27,0,0,1-1.62-2.56,9.4,9.4,0,0,1-.57-3.36A9.55,9.55,0,0,1,2135.19,839.62Zm3.87,5.19a4.84,4.84,0,0,0,.62,1.59,3.28,3.28,0,0,0,1.15,1.13,3.53,3.53,0,0,0,1.8.42,3.63,3.63,0,0,0,1.82-.42,3.25,3.25,0,0,0,1.17-1.13,4.83,4.83,0,0,0,.61-1.59,9,9,0,0,0,.18-1.81,9.31,9.31,0,0,0-.18-1.83,4.66,4.66,0,0,0-.61-1.59,3.42,3.42,0,0,0-1.17-1.13,3.53,3.53,0,0,0-1.82-.43,3.23,3.23,0,0,0-3,1.56,4.67,4.67,0,0,0-.62,1.59,9.31,9.31,0,0,0-.18,1.83A9,9,0,0,0,2139.06,844.81Z"/><path d="M2163.93,850.74v-2.16h-.09a4.79,4.79,0,0,1-2.1,1.95,6.2,6.2,0,0,1-2.64.6,7.42,7.42,0,0,1-2.8-.45,4.07,4.07,0,0,1-1.73-1.28,5,5,0,0,1-.88-2,12.44,12.44,0,0,1-.26-2.62v-9.54h4.26V844a5.42,5.42,0,0,0,.6,2.86,2.33,2.33,0,0,0,2.13.95,3,3,0,0,0,2.52-1,5.74,5.74,0,0,0,.78-3.4v-8.13H2168v15.51Z"/><path d="M2185.88,851.88a5.25,5.25,0,0,1-1.1,2.23,6.53,6.53,0,0,1-2.43,1.76,10.48,10.48,0,0,1-4.26.72,9.89,9.89,0,0,1-2.32-.29,7.38,7.38,0,0,1-2.16-.88,5.32,5.32,0,0,1-1.62-1.55,4.46,4.46,0,0,1-.74-2.26h4.23a2.42,2.42,0,0,0,1.17,1.66,4.2,4.2,0,0,0,2,.47,3.1,3.1,0,0,0,2.63-1.08,4.23,4.23,0,0,0,.79-2.73v-2H2182a4.2,4.2,0,0,1-2,1.81,6.39,6.39,0,0,1-2.69.59,6.78,6.78,0,0,1-3-.62,5.69,5.69,0,0,1-2.07-1.68,7,7,0,0,1-1.18-2.49,11.76,11.76,0,0,1-.38-3,9.7,9.7,0,0,1,.44-2.9,7.56,7.56,0,0,1,1.27-2.46,6.17,6.17,0,0,1,2.09-1.69,6.24,6.24,0,0,1,2.86-.63,6,6,0,0,1,2.69.57,4.62,4.62,0,0,1,1.93,1.92h.06v-2.07h4.05v14.52A10.35,10.35,0,0,1,2185.88,851.88Zm-5.84-5.16a3.33,3.33,0,0,0,1.14-1,4.29,4.29,0,0,0,.68-1.37,5.62,5.62,0,0,0,.22-1.6,8.85,8.85,0,0,0-.18-1.82,4.51,4.51,0,0,0-.6-1.51,3.11,3.11,0,0,0-1.11-1.05,3.5,3.5,0,0,0-1.74-.39,3.1,3.1,0,0,0-1.54.36,3.23,3.23,0,0,0-1.08,1,4.11,4.11,0,0,0-.63,1.41,7,7,0,0,0-.2,1.67,8.42,8.42,0,0,0,.17,1.66,4.53,4.53,0,0,0,.57,1.49,3.31,3.31,0,0,0,1.06,1.08,3,3,0,0,0,1.65.42A3.39,3.39,0,0,0,2180,846.72Z"/><path d="M2193.81,829.32v8.07h.09a5,5,0,0,1,2.07-2,5.58,5.58,0,0,1,2.46-.61,7.3,7.3,0,0,1,2.81.46,4.21,4.21,0,0,1,1.72,1.29,5.14,5.14,0,0,1,.89,2,13.27,13.27,0,0,1,.25,2.63v9.54h-4.26V842a5.46,5.46,0,0,0-.6-2.87,2.32,2.32,0,0,0-2.13-.94,3,3,0,0,0-2.52,1,5.77,5.77,0,0,0-.78,3.41v8.13h-4.26V829.32Z"/><path d="M2212.23,846.12v4.62h-4.71v-4.62Z"/><path d="M2478.57,799a4.71,4.71,0,0,0-1.05-1.18,4.87,4.87,0,0,0-3.09-1.08,5.5,5.5,0,0,0-2.7.61,5.1,5.1,0,0,0-1.8,1.65,7.27,7.27,0,0,0-1,2.36,11.72,11.72,0,0,0-.31,2.73,10.86,10.86,0,0,0,.31,2.62,7.13,7.13,0,0,0,1,2.3,5.14,5.14,0,0,0,1.8,1.63,5.5,5.5,0,0,0,2.7.62,4.35,4.35,0,0,0,3.37-1.32,6.11,6.11,0,0,0,1.49-3.48h4.56a10.89,10.89,0,0,1-.93,3.63,8.69,8.69,0,0,1-2,2.76,8.42,8.42,0,0,1-2.88,1.74,10.55,10.55,0,0,1-3.63.6,11,11,0,0,1-4.43-.86,9.45,9.45,0,0,1-3.31-2.35,10.45,10.45,0,0,1-2.07-3.53,12.91,12.91,0,0,1-.72-4.36,13.41,13.41,0,0,1,.72-4.46,10.68,10.68,0,0,1,2.07-3.58,9.45,9.45,0,0,1,3.31-2.4,11.49,11.49,0,0,1,7.77-.36,9,9,0,0,1,2.82,1.48,8.06,8.06,0,0,1,2.06,2.42,8.63,8.63,0,0,1,1,3.3h-4.56A3.87,3.87,0,0,0,2478.57,799Z"/><path d="M2486.7,803.62a7.09,7.09,0,0,1,4.14-4.23,8.86,8.86,0,0,1,3.3-.58,9,9,0,0,1,3.31.58,7.05,7.05,0,0,1,4.16,4.23,9.55,9.55,0,0,1,.57,3.38,9.4,9.4,0,0,1-.57,3.36,7.27,7.27,0,0,1-1.62,2.56,7.09,7.09,0,0,1-2.54,1.64,9.16,9.16,0,0,1-3.31.57,9.07,9.07,0,0,1-3.3-.57,7.1,7.1,0,0,1-2.52-1.64,7.27,7.27,0,0,1-1.62-2.56,9.4,9.4,0,0,1-.57-3.36A9.55,9.55,0,0,1,2486.7,803.62Zm3.87,5.19a4.83,4.83,0,0,0,.61,1.59,3.3,3.3,0,0,0,1.16,1.13,3.53,3.53,0,0,0,1.8.42,3.59,3.59,0,0,0,1.81-.42,3.25,3.25,0,0,0,1.17-1.13,4.84,4.84,0,0,0,.62-1.59,9,9,0,0,0,.18-1.81,9.31,9.31,0,0,0-.18-1.83,4.67,4.67,0,0,0-.62-1.59,3.42,3.42,0,0,0-1.17-1.13,3.49,3.49,0,0,0-1.81-.43,3.43,3.43,0,0,0-1.8.43,3.48,3.48,0,0,0-1.16,1.13,4.66,4.66,0,0,0-.61,1.59,9.31,9.31,0,0,0-.18,1.83A9,9,0,0,0,2490.57,808.81Z"/><path d="M2509,799.23v2.16h.09a4.9,4.9,0,0,1,2.1-2,6.07,6.07,0,0,1,2.64-.61,7.22,7.22,0,0,1,2.8.46,4.18,4.18,0,0,1,1.73,1.29,5,5,0,0,1,.88,2,12.54,12.54,0,0,1,.26,2.63v9.54h-4.26V806a5.46,5.46,0,0,0-.6-2.87,2.32,2.32,0,0,0-2.13-.94,3,3,0,0,0-2.52,1,5.77,5.77,0,0,0-.78,3.41v8.13h-4.26V799.23Z"/><path d="M2526.77,799.23v2.16h.09a4.9,4.9,0,0,1,2.1-2,6.1,6.1,0,0,1,2.64-.61,7.24,7.24,0,0,1,2.81.46,4.14,4.14,0,0,1,1.72,1.29,4.87,4.87,0,0,1,.89,2,12.56,12.56,0,0,1,.25,2.63v9.54H2533V806a5.55,5.55,0,0,0-.6-2.87,2.33,2.33,0,0,0-2.13-.94,2.92,2.92,0,0,0-2.52,1,5.69,5.69,0,0,0-.79,3.41v8.13h-4.25V799.23Z"/><path d="M2545.07,811a4.35,4.35,0,0,0,5,.28,2.67,2.67,0,0,0,1.14-1.36h3.75a7.12,7.12,0,0,1-2.76,4,8.12,8.12,0,0,1-4.5,1.2,8.86,8.86,0,0,1-3.3-.59,6.85,6.85,0,0,1-2.49-1.66,7.48,7.48,0,0,1-1.57-2.58,9.44,9.44,0,0,1-.56-3.3,9,9,0,0,1,.57-3.24,7.45,7.45,0,0,1,4.13-4.32,8,8,0,0,1,3.22-.63,7.37,7.37,0,0,1,3.45.76,6.92,6.92,0,0,1,2.42,2.06,8.44,8.44,0,0,1,1.36,2.94,11,11,0,0,1,.3,3.45H2544A4.31,4.31,0,0,0,2545.07,811Zm4.82-8.16a3,3,0,0,0-2.33-.84,3.69,3.69,0,0,0-1.69.34,3.24,3.24,0,0,0-1.08.86,3.13,3.13,0,0,0-.57,1.08,4.93,4.93,0,0,0-.2,1H2551A4.92,4.92,0,0,0,2549.89,802.86Z"/><path d="M2565.14,802a3,3,0,0,0-1.71.46,3.68,3.68,0,0,0-1.12,1.2,5.19,5.19,0,0,0-.62,1.62,8.84,8.84,0,0,0-.18,1.76,8.43,8.43,0,0,0,.18,1.71,5.27,5.27,0,0,0,.59,1.57,3.36,3.36,0,0,0,1.09,1.16,3,3,0,0,0,1.68.45,3.14,3.14,0,0,0,2.36-.86,4,4,0,0,0,1-2.29h4.11a7,7,0,0,1-2.4,4.71,7.75,7.75,0,0,1-5.07,1.62,8.46,8.46,0,0,1-3.19-.59,7.09,7.09,0,0,1-2.48-1.63,7.47,7.47,0,0,1-1.59-2.51,8.66,8.66,0,0,1-.57-3.19,10.36,10.36,0,0,1,.53-3.35,7.52,7.52,0,0,1,1.54-2.67,7.06,7.06,0,0,1,2.49-1.75,8.46,8.46,0,0,1,3.36-.63,9.76,9.76,0,0,1,2.66.36,7.08,7.08,0,0,1,2.28,1.09,5.68,5.68,0,0,1,2.35,4.43h-4.17A2.86,2.86,0,0,0,2565.14,802Z"/><path d="M2583.47,799.23v2.85h-3.12v7.68a1.44,1.44,0,0,0,1.8,1.8q.36,0,.69,0a6,6,0,0,0,.63-.09v3.3a10.14,10.14,0,0,1-1.2.12l-1.29,0a12.35,12.35,0,0,1-1.87-.14,4.42,4.42,0,0,1-1.56-.52,2.79,2.79,0,0,1-1.07-1.11,4,4,0,0,1-.39-1.89v-9.15h-2.58v-2.85h2.58v-4.65h4.26v4.65Z"/><path d="M2602.37,799.23v2.85h-3.12v7.68a1.44,1.44,0,0,0,1.8,1.8q.36,0,.69,0a6,6,0,0,0,.63-.09v3.3a10.14,10.14,0,0,1-1.2.12l-1.29,0a12.35,12.35,0,0,1-1.87-.14,4.42,4.42,0,0,1-1.56-.52,2.79,2.79,0,0,1-1.07-1.11,4,4,0,0,1-.39-1.89v-9.15h-2.58v-2.85H2595v-4.65h4.26v4.65Z"/><path d="M2609,811a4.35,4.35,0,0,0,5,.28,2.67,2.67,0,0,0,1.14-1.36h3.75a7.12,7.12,0,0,1-2.76,4,8.12,8.12,0,0,1-4.5,1.2,8.86,8.86,0,0,1-3.3-.59,6.85,6.85,0,0,1-2.49-1.66,7.48,7.48,0,0,1-1.57-2.58,9.44,9.44,0,0,1-.56-3.3,9,9,0,0,1,.57-3.24,7.45,7.45,0,0,1,4.13-4.32,8,8,0,0,1,3.22-.63,7.37,7.37,0,0,1,3.45.76,6.92,6.92,0,0,1,2.42,2.06,8.44,8.44,0,0,1,1.36,2.94,11,11,0,0,1,.3,3.45h-11.19A4.31,4.31,0,0,0,2609,811Zm4.82-8.16a3,3,0,0,0-2.33-.84,3.69,3.69,0,0,0-1.69.34,3.24,3.24,0,0,0-1.08.86,3.13,3.13,0,0,0-.57,1.08,4.93,4.93,0,0,0-.2,1h6.93A4.92,4.92,0,0,0,2613.79,802.86Z"/><path d="M2625.68,799.23v2.16h.09a4.9,4.9,0,0,1,2.1-2,6.07,6.07,0,0,1,2.64-.61,7.27,7.27,0,0,1,2.81.46,4.14,4.14,0,0,1,1.72,1.29,5,5,0,0,1,.89,2,12.56,12.56,0,0,1,.25,2.63v9.54h-4.26V806a5.46,5.46,0,0,0-.6-2.87,2.32,2.32,0,0,0-2.13-.94,3,3,0,0,0-2.52,1,5.77,5.77,0,0,0-.78,3.41v8.13h-4.26V799.23Z"/><path d="M2643,810.88a2.48,2.48,0,0,0,.73.81,3.19,3.19,0,0,0,1,.47,4.83,4.83,0,0,0,1.21.15,4.62,4.62,0,0,0,1-.11,3.21,3.21,0,0,0,.9-.33,2,2,0,0,0,.67-.6,1.56,1.56,0,0,0,.27-.94c0-.64-.42-1.12-1.27-1.44a25.56,25.56,0,0,0-3.56-1c-.62-.14-1.22-.31-1.81-.5a6.24,6.24,0,0,1-1.58-.75,3.65,3.65,0,0,1-1.11-1.17,3.3,3.3,0,0,1-.42-1.72,4.67,4.67,0,0,1,.59-2.46,4.31,4.31,0,0,1,1.54-1.52,6.77,6.77,0,0,1,2.16-.78,13.32,13.32,0,0,1,2.46-.22,12.34,12.34,0,0,1,2.45.24,6.44,6.44,0,0,1,2.11.81,4.85,4.85,0,0,1,1.55,1.51,5.11,5.11,0,0,1,.73,2.39h-4a1.87,1.87,0,0,0-.93-1.67,4.25,4.25,0,0,0-2-.43,7.28,7.28,0,0,0-.78,0,2.57,2.57,0,0,0-.76.2,1.58,1.58,0,0,0-.59.43,1.29,1.29,0,0,0,.18,1.7,3.26,3.26,0,0,0,1.1.58,13.53,13.53,0,0,0,1.54.41l1.77.39a18.09,18.09,0,0,1,1.82.51,5.93,5.93,0,0,1,1.57.79,3.84,3.84,0,0,1,1.11,1.23,3.63,3.63,0,0,1,.42,1.82,4.7,4.7,0,0,1-2.22,4.23,6.55,6.55,0,0,1-2.26.88,13.25,13.25,0,0,1-2.6.26,12.85,12.85,0,0,1-2.64-.27,6.94,6.94,0,0,1-2.29-.9,5,5,0,0,1-2.36-4.26h4A2.32,2.32,0,0,0,2643,810.88Z"/><path d="M2655.65,796.83v-3.51h4.26v3.51Zm4.26,2.4v15.51h-4.26V799.23Z"/><path d="M2663.36,803.62a7.09,7.09,0,0,1,4.14-4.23,8.86,8.86,0,0,1,3.3-.58,9,9,0,0,1,3.32.58,7.07,7.07,0,0,1,4.15,4.23,9.55,9.55,0,0,1,.57,3.38,9.4,9.4,0,0,1-.57,3.36,7.27,7.27,0,0,1-1.62,2.56,7.05,7.05,0,0,1-2.53,1.64,9.21,9.21,0,0,1-3.32.57,9.07,9.07,0,0,1-3.3-.57,7.1,7.1,0,0,1-2.52-1.64,7.27,7.27,0,0,1-1.62-2.56,9.4,9.4,0,0,1-.57-3.36A9.55,9.55,0,0,1,2663.36,803.62Zm3.87,5.19a4.84,4.84,0,0,0,.62,1.59,3.28,3.28,0,0,0,1.15,1.13,3.53,3.53,0,0,0,1.8.42,3.63,3.63,0,0,0,1.82-.42,3.25,3.25,0,0,0,1.17-1.13,4.83,4.83,0,0,0,.61-1.59,9,9,0,0,0,.18-1.81,9.31,9.31,0,0,0-.18-1.83,4.66,4.66,0,0,0-.61-1.59,3.42,3.42,0,0,0-1.17-1.13,3.53,3.53,0,0,0-1.82-.43,3.23,3.23,0,0,0-3,1.56,4.67,4.67,0,0,0-.62,1.59,9.31,9.31,0,0,0-.18,1.83A9,9,0,0,0,2667.23,808.81Z"/><path d="M2685.65,799.23v2.16h.09a4.9,4.9,0,0,1,2.1-2,6.07,6.07,0,0,1,2.64-.61,7.27,7.27,0,0,1,2.81.46,4.14,4.14,0,0,1,1.72,1.29,5,5,0,0,1,.89,2,12.56,12.56,0,0,1,.25,2.63v9.54h-4.26V806a5.46,5.46,0,0,0-.6-2.87,2.32,2.32,0,0,0-2.13-.94,3,3,0,0,0-2.52,1,5.77,5.77,0,0,0-.78,3.41v8.13h-4.26V799.23Z"/><path d="M2715.14,802a3,3,0,0,0-1.71.46,3.68,3.68,0,0,0-1.12,1.2,5.19,5.19,0,0,0-.62,1.62,8.84,8.84,0,0,0-.18,1.76,8.43,8.43,0,0,0,.18,1.71,5.27,5.27,0,0,0,.59,1.57,3.36,3.36,0,0,0,1.09,1.16,3,3,0,0,0,1.68.45,3.14,3.14,0,0,0,2.36-.86,4,4,0,0,0,1-2.29h4.11a7,7,0,0,1-2.4,4.71,7.75,7.75,0,0,1-5.07,1.62,8.46,8.46,0,0,1-3.19-.59,7.09,7.09,0,0,1-2.48-1.63,7.47,7.47,0,0,1-1.59-2.51,8.66,8.66,0,0,1-.57-3.19,10.36,10.36,0,0,1,.53-3.35,7.52,7.52,0,0,1,1.54-2.67,7.06,7.06,0,0,1,2.49-1.75,8.46,8.46,0,0,1,3.36-.63,9.76,9.76,0,0,1,2.66.36,7.08,7.08,0,0,1,2.28,1.09,5.68,5.68,0,0,1,2.35,4.43h-4.17A2.86,2.86,0,0,0,2715.14,802Z"/><path d="M2729.33,793.32v21.42h-4.26V793.32Z"/><path d="M2732.81,796.83v-3.51h4.26v3.51Zm4.26,2.4v15.51h-4.26V799.23Z"/><path d="M2744.48,799.23v2h.06a4.69,4.69,0,0,1,2-1.83,6.07,6.07,0,0,1,2.64-.57,6.72,6.72,0,0,1,3.15.69,6.5,6.5,0,0,1,2.19,1.83,7.7,7.7,0,0,1,1.29,2.65,11.83,11.83,0,0,1,.42,3.17,10.66,10.66,0,0,1-.42,3,7.82,7.82,0,0,1-1.27,2.55,6.18,6.18,0,0,1-5.12,2.43,6,6,0,0,1-2.65-.59,5,5,0,0,1-2-1.72h-.06v7.35h-4.26V799.23Zm5.54,12.3a3.63,3.63,0,0,0,1.14-1.1,4.68,4.68,0,0,0,.61-1.57A9.31,9.31,0,0,0,2752,807a8.62,8.62,0,0,0-.2-1.83,4.89,4.89,0,0,0-.64-1.61,3.68,3.68,0,0,0-1.15-1.14,3.74,3.74,0,0,0-3.48,0,3.45,3.45,0,0,0-1.15,1.13,4.66,4.66,0,0,0-.61,1.59,9.46,9.46,0,0,0-.18,1.86,8.61,8.61,0,0,0,.19,1.83,4.51,4.51,0,0,0,.64,1.57,3.28,3.28,0,0,0,1.15,1.1,3.86,3.86,0,0,0,3.5,0Z"/><path d="M2464.2,840a5,5,0,0,1,.75-2.49,5.11,5.11,0,0,1,1.68-1.59,7.3,7.3,0,0,1,2.29-.86,13.09,13.09,0,0,1,2.57-.25,17.37,17.37,0,0,1,2.37.16,7.25,7.25,0,0,1,2.19.65,4.3,4.3,0,0,1,1.62,1.33,3.75,3.75,0,0,1,.63,2.27v8.07a16.21,16.21,0,0,0,.12,2,3.63,3.63,0,0,0,.42,1.44h-4.32a6.21,6.21,0,0,1-.2-.74,6.31,6.31,0,0,1-.1-.76,5.55,5.55,0,0,1-2.4,1.47,9.63,9.63,0,0,1-2.82.42,7.62,7.62,0,0,1-2.07-.27,4.74,4.74,0,0,1-1.68-.84,3.92,3.92,0,0,1-1.13-1.44,4.87,4.87,0,0,1-.4-2.07,4.55,4.55,0,0,1,.46-2.18,3.87,3.87,0,0,1,1.2-1.36,5.39,5.39,0,0,1,1.68-.77,18,18,0,0,1,1.91-.4q1-.15,1.89-.24a11.37,11.37,0,0,0,1.65-.27,2.88,2.88,0,0,0,1.14-.53,1.14,1.14,0,0,0,.39-1,2.28,2.28,0,0,0-.23-1.1,1.65,1.65,0,0,0-.6-.63,2.36,2.36,0,0,0-.87-.3,7.07,7.07,0,0,0-1.06-.07,3.23,3.23,0,0,0-2,.54,2.41,2.41,0,0,0-.84,1.8Zm9.84,3.15a1.93,1.93,0,0,1-.68.37,6.88,6.88,0,0,1-.87.23c-.31.06-.63.11-1,.15l-1,.15a7.77,7.77,0,0,0-.95.24,2.79,2.79,0,0,0-.81.4,1.93,1.93,0,0,0-.55.65,2.07,2.07,0,0,0-.21,1,2,2,0,0,0,.21,1,1.6,1.6,0,0,0,.57.61,2.41,2.41,0,0,0,.84.32,5.36,5.36,0,0,0,1,.09,3.77,3.77,0,0,0,1.95-.42,2.82,2.82,0,0,0,1-1,3.18,3.18,0,0,0,.4-1.18,8.34,8.34,0,0,0,.08-1Z"/><path d="M2485.65,835.23v2.16h.09a4.9,4.9,0,0,1,2.1-2,6.07,6.07,0,0,1,2.64-.61,7.22,7.22,0,0,1,2.8.46,4.18,4.18,0,0,1,1.73,1.29,5,5,0,0,1,.88,2,12.54,12.54,0,0,1,.26,2.63v9.54h-4.26V842a5.46,5.46,0,0,0-.6-2.87,2.32,2.32,0,0,0-2.13-.94,3,3,0,0,0-2.52,1,5.77,5.77,0,0,0-.78,3.41v8.13h-4.26V835.23Z"/><path d="M2510.4,848.76a4.39,4.39,0,0,1-2,1.81,6.51,6.51,0,0,1-2.74.56,6.65,6.65,0,0,1-3.07-.68,6.13,6.13,0,0,1-2.17-1.83,8.28,8.28,0,0,1-1.29-2.65,11.14,11.14,0,0,1-.43-3.12,10.5,10.5,0,0,1,.43-3,7.81,7.81,0,0,1,1.29-2.56,6.25,6.25,0,0,1,5.15-2.46,6.1,6.1,0,0,1,2.62.58,4.6,4.6,0,0,1,2,1.73h.06v-7.8h4.26v21.42h-4.05v-2Zm-.18-7.67a4.52,4.52,0,0,0-.62-1.56,3.43,3.43,0,0,0-1.12-1.09,3.32,3.32,0,0,0-1.74-.42,3.44,3.44,0,0,0-1.77.42,3.34,3.34,0,0,0-1.16,1.11,4.88,4.88,0,0,0-.63,1.57A8.6,8.6,0,0,0,2503,843a7.9,7.9,0,0,0,.21,1.8,4.68,4.68,0,0,0,.67,1.6,3.74,3.74,0,0,0,1.17,1.14,3.19,3.19,0,0,0,1.7.44,3.36,3.36,0,0,0,1.75-.42,3.3,3.3,0,0,0,1.13-1.13,5,5,0,0,0,.6-1.6,10.29,10.29,0,0,0,.18-1.86A10.09,10.09,0,0,0,2510.22,841.09Z"/><path d="M2524.43,838.08v-2.85H2527V834a4.65,4.65,0,0,1,1.29-3.39,5.23,5.23,0,0,1,3.9-1.32c.38,0,.76,0,1.14,0l1.11.08v3.18a13.09,13.09,0,0,0-1.56-.09,1.62,1.62,0,0,0-1.24.4,2,2,0,0,0-.38,1.37v.93h2.94v2.85h-2.94v12.66H2527V838.08Z"/><path d="M2540.42,829.32v21.42h-4.26V829.32Z"/><path d="M2543.9,832.83v-3.51h4.26v3.51Zm4.26,2.4v15.51h-4.26V835.23Z"/><path d="M2555.57,835.23v2h.06a4.69,4.69,0,0,1,2-1.83,6.07,6.07,0,0,1,2.64-.57,6.72,6.72,0,0,1,3.15.69,6.5,6.5,0,0,1,2.19,1.83,7.7,7.7,0,0,1,1.29,2.65,11.83,11.83,0,0,1,.42,3.17,10.66,10.66,0,0,1-.42,3,7.63,7.63,0,0,1-1.27,2.55,6.32,6.32,0,0,1-2.13,1.77,6.43,6.43,0,0,1-3,.66,6,6,0,0,1-2.65-.59,5,5,0,0,1-2-1.72h-.06v7.35h-4.26V835.23Zm5.54,12.3a3.43,3.43,0,0,0,1.14-1.1,4.48,4.48,0,0,0,.61-1.57A9.31,9.31,0,0,0,2563,843a8.61,8.61,0,0,0-.19-1.83,4.91,4.91,0,0,0-.65-1.61,3.58,3.58,0,0,0-1.15-1.14,3.74,3.74,0,0,0-3.48,0,3.52,3.52,0,0,0-1.14,1.13,4.67,4.67,0,0,0-.62,1.59,9.46,9.46,0,0,0-.18,1.86,8.62,8.62,0,0,0,.2,1.83,4.7,4.7,0,0,0,.63,1.57,3.63,3.63,0,0,0,4.65,1.1Z"/><path d="M2581.78,846.88a2.48,2.48,0,0,0,.73.81,3.19,3.19,0,0,0,1,.47,4.83,4.83,0,0,0,1.21.15,4.62,4.62,0,0,0,.95-.11,3.21,3.21,0,0,0,.9-.33,2,2,0,0,0,.67-.6,1.56,1.56,0,0,0,.27-.94c0-.64-.42-1.12-1.27-1.44a25.56,25.56,0,0,0-3.56-1c-.62-.14-1.22-.31-1.81-.5a6.24,6.24,0,0,1-1.58-.75,3.65,3.65,0,0,1-1.11-1.17,3.3,3.3,0,0,1-.42-1.72,4.67,4.67,0,0,1,.59-2.46,4.31,4.31,0,0,1,1.54-1.52,6.77,6.77,0,0,1,2.16-.78,13.32,13.32,0,0,1,2.46-.22,12.34,12.34,0,0,1,2.45.24,6.44,6.44,0,0,1,2.11.81,4.85,4.85,0,0,1,1.55,1.51,5.11,5.11,0,0,1,.73,2.39h-4a1.87,1.87,0,0,0-.93-1.67,4.25,4.25,0,0,0-2-.43,7.28,7.28,0,0,0-.78,0,2.57,2.57,0,0,0-.76.2,1.58,1.58,0,0,0-.59.43,1.29,1.29,0,0,0,.18,1.7,3.26,3.26,0,0,0,1.1.58,13.53,13.53,0,0,0,1.54.41l1.77.39a18.09,18.09,0,0,1,1.82.51,5.93,5.93,0,0,1,1.57.79,3.84,3.84,0,0,1,1.11,1.23,3.63,3.63,0,0,1,.42,1.82,4.7,4.7,0,0,1-2.22,4.23,6.55,6.55,0,0,1-2.26.88,13.25,13.25,0,0,1-2.6.26,12.85,12.85,0,0,1-2.64-.27,6.94,6.94,0,0,1-2.29-.9,5,5,0,0,1-2.36-4.26h4A2.32,2.32,0,0,0,2581.78,846.88Z"/><path d="M2602.82,835.23v2.85h-3.12v7.68a1.44,1.44,0,0,0,1.8,1.8q.36,0,.69,0a6,6,0,0,0,.63-.09v3.3a10.14,10.14,0,0,1-1.2.12l-1.29,0a12.35,12.35,0,0,1-1.87-.14,4.42,4.42,0,0,1-1.56-.52,2.79,2.79,0,0,1-1.07-1.11,4,4,0,0,1-.39-1.89v-9.15h-2.58v-2.85h2.58v-4.65h4.26v4.65Z"/><path d="M2605,839.62a7.09,7.09,0,0,1,4.14-4.23,8.86,8.86,0,0,1,3.3-.58,9,9,0,0,1,3.32.58,7.07,7.07,0,0,1,4.15,4.23,9.55,9.55,0,0,1,.57,3.38,9.4,9.4,0,0,1-.57,3.36,7.27,7.27,0,0,1-1.62,2.56,7.05,7.05,0,0,1-2.53,1.64,9.21,9.21,0,0,1-3.32.57,9.07,9.07,0,0,1-3.3-.57,7.1,7.1,0,0,1-2.52-1.64,7.27,7.27,0,0,1-1.62-2.56,9.4,9.4,0,0,1-.57-3.36A9.55,9.55,0,0,1,2605,839.62Zm3.87,5.19a4.84,4.84,0,0,0,.62,1.59,3.28,3.28,0,0,0,1.15,1.13,3.53,3.53,0,0,0,1.8.42,3.63,3.63,0,0,0,1.82-.42,3.25,3.25,0,0,0,1.17-1.13,4.83,4.83,0,0,0,.61-1.59,9,9,0,0,0,.18-1.81,9.31,9.31,0,0,0-.18-1.83,4.66,4.66,0,0,0-.61-1.59,3.42,3.42,0,0,0-1.17-1.13,3.53,3.53,0,0,0-1.82-.43,3.23,3.23,0,0,0-2.95,1.56,4.67,4.67,0,0,0-.62,1.59,9.31,9.31,0,0,0-.18,1.83A9,9,0,0,0,2608.82,844.81Z"/><path d="M2623.28,839.62a7.09,7.09,0,0,1,4.14-4.23,8.86,8.86,0,0,1,3.3-.58,9,9,0,0,1,3.32.58,7.07,7.07,0,0,1,4.15,4.23,9.55,9.55,0,0,1,.57,3.38,9.4,9.4,0,0,1-.57,3.36,7.27,7.27,0,0,1-1.62,2.56,7.05,7.05,0,0,1-2.53,1.64,9.21,9.21,0,0,1-3.32.57,9.07,9.07,0,0,1-3.3-.57,7.1,7.1,0,0,1-2.52-1.64,7.27,7.27,0,0,1-1.62-2.56,9.4,9.4,0,0,1-.57-3.36A9.55,9.55,0,0,1,2623.28,839.62Zm3.87,5.19a4.84,4.84,0,0,0,.62,1.59,3.28,3.28,0,0,0,1.15,1.13,3.53,3.53,0,0,0,1.8.42,3.63,3.63,0,0,0,1.82-.42,3.25,3.25,0,0,0,1.17-1.13,4.83,4.83,0,0,0,.61-1.59,9,9,0,0,0,.18-1.81,9.31,9.31,0,0,0-.18-1.83,4.66,4.66,0,0,0-.61-1.59,3.42,3.42,0,0,0-1.17-1.13,3.53,3.53,0,0,0-1.82-.43,3.23,3.23,0,0,0-2.95,1.56,4.67,4.67,0,0,0-.62,1.59A9.31,9.31,0,0,0,2627,843,9,9,0,0,0,2627.15,844.81Z"/><path d="M2645.9,829.32v21.42h-4.26V829.32Z"/><path d="M2654.15,846.12v4.62h-4.71v-4.62Z"/><text class="cls-6" transform="translate(229.58 816.27)">1</text><circle class="cls-7" cx="237.39" cy="808.47" r="21.67"/><circle class="cls-7" cx="822.11" cy="807.48" r="21.67"/><text class="cls-6" transform="translate(814.31 816.3)">2</text><circle class="cls-7" cx="1343.31" cy="803.54" r="21.67"/><text class="cls-6" transform="translate(1335.5 812.35)">3</text><circle class="cls-7" cx="1870.52" cy="803.54" r="21.67"/><text class="cls-6" transform="translate(1862.7 812.35)">4</text><circle class="cls-7" cx="2407" cy="803.54" r="21.67"/><text class="cls-6" transform="translate(2399.19 812.35)">5</text><line class="cls-2" x1="2603.65" y1="561.26" x2="2601.44" y2="562.54"/><path class="cls-8" d="M2621.06,579l4.53.51c.11,0,.08-.09,0-.16a1.74,1.74,0,0,0-.11-.18,4.19,4.19,0,0,0-.26-.33,3,3,0,0,0-.62-.55l-22.55-14.81"/><path class="cls-2" d="M2601.44,562.54a.1.1,0,0,0-.06.05.09.09,0,0,0,0,.07.22.22,0,0,0,0,.08.42.42,0,0,0,0,.1.44.44,0,0,0,.08.11l.11.12.15.13a1.09,1.09,0,0,0,.17.13l.19.14"/><line class="cls-2" x1="2621.06" y1="578.99" x2="2602.1" y2="563.47"/><path class="cls-2" d="M2596.86,552.68h0"/><path class="cls-2" d="M2596.53,551.45s0,.07,0,.1"/><line class="cls-2" x1="2592.08" y1="561.09" x2="2591.09" y2="558.97"/><path class="cls-8" d="M2590.59,561.69l-34.57,6a1.82,1.82,0,0,0-.8.33c-.28.21-.45.54,0,.62l9.49,1.66"/><path class="cls-2" d="M2590.59,561.69l.3-.06.28-.06.26-.07.22-.07.18-.07.13-.07.08-.07a.13.13,0,0,0,0-.07.06.06,0,0,0,0-.06"/><path class="cls-2" d="M2565.06,570s0,0,0,.06v0s0,0,0,0a.05.05,0,0,1,0,0l-.05,0h-.31"/><path class="cls-2" d="M2596.86,552.68h0"/><path class="cls-8" d="M2601.44,562.54l-.61-.32a12.18,12.18,0,0,0-4.28-1.24,17.13,17.13,0,0,0-4.47.11"/><line class="cls-8" x1="2620.99" y1="578.9" x2="2601.44" y2="562.89"/><line class="cls-8" x1="2591.74" y1="561.39" x2="2565.03" y2="570.25"/><path class="cls-2" d="M2638.59,273c1.39-.81,1.85-2.19.52-3.3a5.33,5.33,0,0,0-2.51-1l-3-.47-12.06-1.86L2599.72,263l-21.82-3.37c-.46-.07-3.28-.52-3.76-.55a6.69,6.69,0,0,0-3.59.72,2.19,2.19,0,0,0-1.35,2,3.7,3.7,0,0,0,.43,1.09l.5,1.09,4,8.7q4.64,10,9.29,20l1.85,4,.47,1a2.71,2.71,0,0,0,.64.94,5.19,5.19,0,0,0,2.86,1.16,7.38,7.38,0,0,0,3.45-.38c.47-.19,2.13-1.17,2.57-1.42l5.06-2.92Q2619.47,284,2638.59,273Z"/><path class="cls-9" d="M2736.48,269.41a5.53,5.53,0,0,0,2.36-2.4,3.12,3.12,0,0,0,.26-1.35"/><path class="cls-2" d="M2736.48,260.27a5.5,5.5,0,0,0,2.36-2.41,3.17,3.17,0,0,0-.42-3.23c-1.31-1.83-4-2.71-6-3"/><path class="cls-2" d="M2732.46,251.61l-225.81-34.93"/><path d="M2493.87,230.35l1.5-8.85,1.5,8.85a1.52,1.52,0,0,1-3,.51A1.46,1.46,0,0,1,2493.87,230.35Z"/><path class="cls-9" d="M2495.37,230.35v.29a2.71,2.71,0,0,0,.3,1.52l60.51,130.37"/><path class="cls-2" d="M2506.65,216.68a14.66,14.66,0,0,0-7.39.73,7.42,7.42,0,0,0-3.07,2.09,3.25,3.25,0,0,0-.52,3.51"/><path class="cls-2" d="M2495.67,223l60.51,130.38"/><path class="cls-9" d="M2556.18,362.53c1.15,2.48,4.72,3.5,7,3.75a13.73,13.73,0,0,0,8-1.43"/><path class="cls-2" d="M2556.18,353.39c1.15,2.48,4.72,3.49,7,3.74a13.72,13.72,0,0,0,8-1.42"/><path class="cls-9" d="M2736.48,269.41l-6.17,3.56-2.58,1.49-.45.26-156.11,90.13"/><path class="cls-2" d="M2571.17,355.71l165.31-95.44"/><path d="M2737.61,265.66l1.5-9.48,1.5,9.48a1.52,1.52,0,1,1-3,.47A1.24,1.24,0,0,1,2737.61,265.66Z"/><line class="cls-9" x1="2623.64" y1="577.61" x2="2598.05" y2="556.67"/><polyline class="cls-9" points="2625.53 579.16 2625.53 579.16 2680.75 624.34"/><line class="cls-8" x1="2598.05" y1="556.67" x2="2562.85" y2="366.24"/><line class="cls-8" x1="2680.75" y1="624.34" x2="2563.62" y2="366.32"/><line class="cls-9" x1="2730.31" y1="272.97" x2="2680.75" y2="624.34"/><line class="cls-2" x1="2503.15" y1="239.12" x2="2503.15" y2="239.11"/><polyline class="cls-9" points="2574.5 564.47 2574.5 564.47 2591.09 558.98 2598.05 556.67"/><line class="cls-9" x1="2559.64" y1="569.38" x2="2485.07" y2="594.07"/><line class="cls-9" x1="2500.02" y1="241.51" x2="2485.07" y2="594.07"/><line class="cls-8" x1="2561.51" y1="365.99" x2="2485.07" y2="594.07"/><line class="cls-8" x1="2072.09" y1="308.34" x2="2072.09" y2="230.13"/><line class="cls-8" x1="2080.05" y1="309.49" x2="2080.05" y2="233.95"/><line class="cls-10" x1="2020.21" y1="300.32" x2="2031.11" y2="242.4"/><line class="cls-9" x1="2031.11" y1="242.4" x2="1949.69" y2="289.41"/><line class="cls-2" x1="1949.69" y1="289.41" x2="1984.1" y2="492.04"/><polyline class="cls-9" points="2172.14 323.82 2084.74 310.3 2078.41 309.32 2072.09 308.34 2060.91 306.62"/><line class="cls-2" x1="2172.14" y1="323.82" x2="2046" y2="615.18"/><line class="cls-11" x1="2043.71" y1="620.47" x2="2060.91" y2="306.62"/><line class="cls-10" x1="2072.09" y1="288.82" x2="2064.16" y2="307.12"/><polyline class="cls-2" points="2082.4 264.99 2091.47 244.04 2091.47 244.04"/><polyline class="cls-2" points="2112.53 195.39 2096.39 232.68 2096.39 232.68"/><line class="cls-10" x1="2147.94" y1="320.08" x2="2112.53" y2="195.39"/><line class="cls-9" x1="2142.34" y1="259.61" x2="2112.53" y2="195.39"/><line class="cls-10" x1="2157.23" y1="321.52" x2="2142.34" y2="259.61"/><line class="cls-9" x1="2142.34" y1="259.61" x2="2172.14" y2="323.82"/><line class="cls-2" x1="2172.14" y1="323.82" x2="2206.55" y2="526.45"/><line class="cls-10" x1="2020.21" y1="300.32" x2="2031.11" y2="242.4"/><line class="cls-9" x1="2112.53" y1="195.39" x2="2096.6" y2="204.59"/><polyline class="cls-9" points="2073.77 217.58 2059.67 225.96 2059.66 225.96"/><line class="cls-2" x1="2074.92" y1="217.11" x2="2074.92" y2="217.11"/><line class="cls-9" x1="2033.36" y1="241.1" x2="2031.11" y2="242.4"/><polyline class="cls-10" points="2080.05 270.43 2091.47 244.04 2091.47 244.04"/><polyline class="cls-10" points="2112.53 195.39 2096.39 232.68 2096.39 232.68"/><polyline class="cls-2" points="2042.03 614.56 2042.03 614.55 1949.69 289.41"/><line class="cls-9" x1="1988.4" y1="501.3" x2="1984.1" y2="492.04"/><line class="cls-9" x1="2043.71" y1="620.47" x2="1988.4" y2="501.3"/><line class="cls-9" x1="1984.1" y1="492.04" x2="1949.69" y2="289.41"/><line class="cls-9" x1="2172.14" y1="323.82" x2="2206.55" y2="526.45"/><line class="cls-9" x1="2182.35" y1="540.42" x2="2043.71" y2="620.47"/><line class="cls-9" x1="2206.55" y1="526.45" x2="2182.35" y2="540.42"/><line class="cls-2" x1="2172.14" y1="323.82" x2="2046" y2="615.18"/><polyline class="cls-2" points="2045.78 619.27 2046 615.18 2062.91 306.73 2060.91 306.62 2058.92 306.51 2042.03 614.56 2041.92 616.61"/><line class="cls-9" x1="2060.91" y1="306.62" x2="1949.69" y2="289.41"/><polyline class="cls-2" points="2042.03 614.56 2042.03 614.55 1949.69 289.41"/><path class="cls-2" d="M2050.56,622a13.24,13.24,0,0,1-7.71,1.37c-2.19-.24-5.63-1.22-6.74-3.61"/><path class="cls-2" d="M2036.11,619.72,1977.8,494.08"/><path class="cls-2" d="M1977.8,494.08a3.12,3.12,0,0,1,.5-3.39,7.17,7.17,0,0,1,3-2,12.15,12.15,0,0,1,2.18-.63"/><path class="cls-2" d="M1977.8,502.89a2.85,2.85,0,0,1-.29-1.43"/><path class="cls-2" d="M2206,521.64c1.94.3,4.49,1.15,5.75,2.91a3.07,3.07,0,0,1,.4,3.11,5.3,5.3,0,0,1-2.27,2.32"/><path class="cls-2" d="M2209.88,530l-159.32,92"/><path d="M1976.58,503.83l-.1-.33-.1-.32-.1-1.47,0-.25,1.24-8.81,1.25,8.81,0-.25.5,1.39-.11-.32.19.29a1.51,1.51,0,0,1-2.54,1.65A1.53,1.53,0,0,1,1976.58,503.83Z"/><path class="cls-9" d="M2206.62,540.67l-156.06,90.1a13.16,13.16,0,0,1-7.71,1.38c-2.19-.24-5.63-1.22-6.74-3.61L1977.94,503.2"/><path d="M2212.41,526l.75,8.82a.68.68,0,0,1-.53.72l-.12,0h0l.64-.85a4,4,0,0,1-.6,3,7.06,7.06,0,0,1-2.06,2,1.16,1.16,0,0,1-1.61-.29,1.17,1.17,0,0,1,0-1.34l.11-.16h0l1.47,1.79-3.09,2.16a1.51,1.51,0,0,1-1.73-2.47,1.67,1.67,0,0,1,.23-.12l3.42-1.61.18-.08a1.16,1.16,0,0,1,1.54.55,1.19,1.19,0,0,1-.24,1.33h0l-1.48-1.8c1.28-.57,2.38-1.56,2.34-2.8v-.15a.69.69,0,0,1,.65-.71h0l-.65.75Z"/><line class="cls-11" x1="2078.18" y1="231.72" x2="2097.24" y2="238.13"/><line class="cls-2" x1="2102.68" y1="234.98" x2="2097.24" y2="238.13"/><path class="cls-2" d="M2103.65,235.21l10.74,8.22a1.55,1.55,0,0,1,.5.55c.15.34-.29.21-.52.1l-14.46-7.49"/><path class="cls-2" d="M2083.62,228.58a.16.16,0,0,1,.09,0l.12,0,.16,0a1.13,1.13,0,0,1,.18,0l.21.06.23.08.25.1c.09,0,.34.11.42.15s.16,0,.24.06"/><path class="cls-2" d="M2103.65,235.21l-.12-.08a.41.41,0,0,0-.11-.07l-.12-.06-.12,0-.12,0h-.21l-.09,0-.08,0"/><path class="cls-2" d="M2078.82,232.85l-.19-.17-.16-.17-.14-.16-.12-.15s-.05-.09-.07-.14a.25.25,0,0,1,0-.11.38.38,0,0,1,0-.1.13.13,0,0,1,0-.08s0,0,.06-.05"/><path class="cls-2" d="M2097.24,238.13a.18.18,0,0,0-.07.05l-.06.06-.05.08,0,.09s0,.07,0,.11v.11s0,.08,0,.12l0,.12a.56.56,0,0,0,0,.12"/><path class="cls-2" d="M2078.82,232.85l21.72,19.21a.52.52,0,0,0,.83-.2,1.15,1.15,0,0,0,.08-1L2097.09,239"/><line class="cls-11" x1="2097.09" y1="238.99" x2="2078.82" y2="232.85"/><path class="cls-2" d="M2040.36,225.42l-11.48,4.79a.77.77,0,0,0-.34.22c-.12.14-.14.25,0,.37a1.16,1.16,0,0,0,.79.13l13.46-1.86"/><path class="cls-2" d="M2069.15,230.33a.13.13,0,0,1,0,.06.25.25,0,0,1,0,.07l-.08.09-.13.09-.17.09-.21.1-.25.11-.27.1-.29.09"/><line class="cls-2" x1="2042.76" y1="230.59" x2="2067.72" y2="231.13"/><path class="cls-2" d="M2042.76,230.59l.09-.1a.76.76,0,0,0,.08-.11.61.61,0,0,0,.07-.1l.06-.11a.42.42,0,0,0,0-.1l0-.09s0-.06,0-.09a.17.17,0,0,0,0-.07.14.14,0,0,0,0-.06"/><path class="cls-2" d="M2067.16,226a.12.12,0,0,0,0-.05l-.09,0-.14,0-.18,0h-.22"/><path class="cls-2" d="M2041.12,225.46l0-.05,0,0-.07,0-.08,0h-.19l-.11,0-.11,0-.12,0"/><line class="cls-11" x1="2080.74" y1="202.59" x2="2073.76" y2="222.22"/><line class="cls-11" x1="2081.2" y1="223.37" x2="2088.18" y2="203.74"/><line class="cls-2" x1="2080.74" y1="202.59" x2="2088.18" y2="203.74"/><path class="cls-2" d="M2073.76,222.22l-.09,0-.09-.05-.07-.07a.41.41,0,0,1-.05-.09.76.76,0,0,1,0-.11.68.68,0,0,1,0-.14.33.33,0,0,1,0-.14.92.92,0,0,1,0-.16l0-.16"/><path class="cls-2" d="M2073.44,221.27c.3-1.27.6-2.55.91-3.83q1.7-7.23,3.41-14.47a4.27,4.27,0,0,1,.31-.77c.07-.12.13-.24.21-.36a1.74,1.74,0,0,1,.11-.18s.11-.15.15-.13l1.59.92"/><polyline class="cls-11" points="2080.13 202.45 2074.92 217.11 2074.92 217.11 2073.44 221.27"/><path class="cls-2" d="M2080.13,202.45l0,0h.09l.06,0h.07l.09,0h.09l.09,0,.1,0"/><path class="cls-2" d="M2082.4,222.66a.86.86,0,0,1-.13.14l-.14.14-.14.12-.15.11-.14.08-.14.07-.13,0h-.23"/><path class="cls-2" d="M2088.18,203.74h.1l.11,0h.11l.11,0h.48"/><line class="cls-12" x1="2089.09" y1="203.84" x2="2082.48" y2="222.43"/><path class="cls-13" d="M2082.48,222.43l-.08.23,14.25-16.77a1.12,1.12,0,0,0,.1-.91c-.05-.22-.23-.7-.54-.72l-7.12-.42"/><line class="cls-2" x1="2103.12" y1="234.94" x2="2084.27" y2="228.61"/><path class="cls-13" d="M2042.76,230.59l-9.15,9.82a.84.84,0,0,0,.8,1.42l33.31-10.7"/><path class="cls-13" d="M2069.15,230.33h0l-2-4.3a14,14,0,0,0,3.78-1.14,7.24,7.24,0,0,0,1.64-1.1,5,5,0,0,0,1.18-1.57l7.44,1.15a3.25,3.25,0,0,0,0,2.79,5.21,5.21,0,0,0,1.95,2.08l.52.34-5.44,3.14a12,12,0,0,0-4.39-1.45,15.69,15.69,0,0,0-4.64.06"/><line class="cls-14" x1="2043.11" y1="229.76" x2="2068.99" y2="230.32"/><polyline class="cls-13" points="2066.6 225.87 2040.85 225.31 2041.12 225.46 2043.11 229.76"/><polyline class="cls-2" points="210.17 393.34 208.26 394.44 269.29 429.68 391.34 500.14 452.37 535.38 513.39 570.61 574.42 605.84 757.5 500.14"/><path class="cls-2" d="M279.83,277.33a61.48,61.48,0,0,0,.68,10.78c2.67,17.86,12.42,36.66,25.34,50"/><path class="cls-2" d="M280.09,273.47c.06-.51.12-1,.2-1.52.16-1.11.36-2.22.62-3.32a29.18,29.18,0,0,0-11.18-1.31,20.61,20.61,0,0,0-8.15,2.47l0,0a20,20,0,0,0-5.77,4.89,30.22,30.22,0,0,0-6,14.86,56.15,56.15,0,0,0,.23,16.17c2.66,17.86,12.41,36.66,25.34,50"/><path class="cls-2" d="M290.2,253.38h0a20.13,20.13,0,0,1,10-3.67,32.24,32.24,0,0,1,15.77,3c3.72-2.16,7.44-4.3,11.17-6.45L346.4,283.9l-66.57-6.57-5.49-.54,5.75-3.32,5.41-3.13a42,42,0,0,0-4.59-1.71"/><line class="cls-2" x1="290.21" y1="253.38" x2="261.55" y2="269.81"/><line class="cls-8" x1="391.34" y1="288.74" x2="376.1" y2="297.54"/><polyline class="cls-11" points="755.7 496.9 637.24 428.51 635.45 429.67 633 432.49 513.39 570.61 752.62 501.55 757.5 500.14 755.7 496.9 750.96 498.27 518.78 565.29 634.88 431.25 637.24 428.51"/><line class="cls-2" x1="454.27" y1="536.48" x2="511.38" y2="569.45"/><line class="cls-2" x1="625.6" y1="437.56" x2="511.38" y2="569.45"/><line class="cls-11" x1="454.27" y1="536.48" x2="454.27" y2="534.27"/><line class="cls-11" x1="454.27" y1="534.27" x2="620.21" y2="438.47"/><line class="cls-11" x1="454.27" y1="534.27" x2="509.59" y2="566.21"/><path class="cls-11" d="M620.21,438.47l5.39-.91"/><path class="cls-11" d="M509.59,566.21c.59,1.08,1.19,2.16,1.79,3.24"/><line class="cls-11" x1="509.59" y1="566.21" x2="620.21" y2="438.47"/><line class="cls-2" x1="572.51" y1="604.74" x2="743.84" y2="505.83"/><line class="cls-2" x1="572.51" y1="604.74" x2="515.4" y2="571.77"/><line class="cls-11" x1="572.51" y1="604.74" x2="572.51" y2="602.54"/><line class="cls-11" x1="572.51" y1="602.54" x2="738.45" y2="506.74"/><line class="cls-11" x1="572.51" y1="602.54" x2="517.2" y2="570.6"/><path class="cls-11" d="M515.4,571.77l1.8-1.17"/><line class="cls-11" x1="517.2" y1="570.6" x2="738.45" y2="506.74"/><line class="cls-2" x1="450.46" y1="534.27" x2="621.79" y2="435.36"/><line class="cls-2" x1="450.46" y1="534.27" x2="393.35" y2="501.3"/><line class="cls-11" x1="450.46" y1="534.27" x2="450.46" y2="532.07"/><line class="cls-11" x1="450.46" y1="532.07" x2="616.4" y2="436.27"/><line class="cls-11" x1="450.46" y1="532.07" x2="395.15" y2="500.14"/><path class="cls-11" d="M621.79,435.36l-5.39.91"/><path class="cls-11" d="M393.35,501.3l1.8-1.16"/><line class="cls-11" x1="395.15" y1="500.14" x2="616.4" y2="436.27"/><line class="cls-2" x1="332.22" y1="466.01" x2="389.33" y2="498.98"/><line class="cls-2" x1="503.55" y1="367.09" x2="389.33" y2="498.98"/><line class="cls-11" x1="332.22" y1="466.01" x2="332.22" y2="463.81"/><line class="cls-11" x1="332.22" y1="463.81" x2="498.16" y2="368"/><line class="cls-11" x1="332.22" y1="463.81" x2="387.53" y2="495.74"/><path class="cls-11" d="M498.16,368l5.39-.91"/><path class="cls-11" d="M387.53,495.74l1.8,3.24"/><line class="cls-11" x1="387.53" y1="495.74" x2="498.16" y2="368"/><polyline class="cls-11" points="635.45 429.67 633.65 426.43 628.91 427.8 396.73 494.83 512.82 360.78 515.19 358.04"/><polyline class="cls-2" points="391.34 500.14 630.56 431.08 635.45 429.67"/><polyline class="cls-11" points="633.65 426.43 515.19 358.04 513.39 359.21 510.95 362.02 391.34 500.14"/><polyline class="cls-11" points="511.6 355.97 393.14 287.57 391.34 288.74 388.9 291.56 269.29 429.67 508.51 360.62 513.39 359.21 511.6 355.97 506.86 357.33 274.68 424.36 390.77 290.31 393.14 287.57"/><line class="cls-2" x1="210.17" y1="395.54" x2="267.28" y2="428.51"/><line class="cls-2" x1="381.5" y1="296.63" x2="267.28" y2="428.51"/><line class="cls-11" x1="210.17" y1="395.54" x2="210.17" y2="393.34"/><path class="cls-11" d="M376.1,297.54l5.4-.91"/><path class="cls-11" d="M265.48,425.27l1.8,3.24"/><polygon class="cls-14" points="210.17 393.34 376.1 297.54 265.48 425.27 210.17 393.34"/><line class="cls-2" x1="328.41" y1="463.81" x2="499.73" y2="364.89"/><line class="cls-2" x1="328.41" y1="463.81" x2="271.3" y2="430.83"/><line class="cls-11" x1="328.41" y1="463.81" x2="328.41" y2="461.6"/><line class="cls-11" x1="328.41" y1="461.6" x2="494.34" y2="365.8"/><line class="cls-11" x1="328.41" y1="461.6" x2="273.1" y2="429.67"/><path class="cls-11" d="M499.73,364.89l-5.39.91"/><path class="cls-11" d="M271.3,430.83l1.8-1.16"/><line class="cls-11" x1="273.1" y1="429.67" x2="494.34" y2="365.8"/><line class="cls-2" x1="513.39" y1="570.61" x2="757.5" y2="500.14"/><line class="cls-2" x1="513.63" y1="570.34" x2="513.39" y2="570.61"/><line class="cls-2" x1="269.29" y1="429.68" x2="513.39" y2="359.21"/><line class="cls-11" x1="391.34" y1="288.74" x2="269.29" y2="429.68"/><line class="cls-2" x1="509.06" y1="356.7" x2="509.05" y2="356.7"/><line class="cls-2" x1="454.27" y1="534.27" x2="452.37" y2="535.37"/><line class="cls-2" x1="635.45" y1="429.67" x2="620.21" y2="438.47"/><line class="cls-2" x1="332.22" y1="463.81" x2="330.31" y2="464.91"/><line class="cls-2" x1="513.39" y1="359.21" x2="498.16" y2="368"/><line class="cls-2" x1="509.06" y1="356.7" x2="509.05" y2="356.7"/><line class="cls-2" x1="269.49" y1="429.48" x2="269.29" y2="429.68"/><line class="cls-11" x1="274.68" y1="424.36" x2="269.49" y2="429.48"/><line class="cls-11" x1="396.73" y1="494.83" x2="391.34" y2="500.14"/><line class="cls-11" x1="518.79" y1="565.29" x2="513.39" y2="570.61"/><line class="cls-8" x1="1560.72" y1="361.4" x2="1560.72" y2="337.02"/><line class="cls-8" x1="1548.83" y1="368.27" x2="1548.83" y2="343.89"/><line class="cls-2" x1="1433.78" y1="592.8" x2="1466.13" y2="262.95"/><line class="cls-9" x1="1466.13" y1="262.95" x2="1522.15" y2="383.67"/><line class="cls-2" x1="1522.15" y1="383.67" x2="1433.78" y2="592.8"/><line class="cls-9" x1="1433.78" y1="592.8" x2="1466.13" y2="262.95"/><line class="cls-2" x1="1522.15" y1="383.67" x2="1538.33" y2="608.98"/><line class="cls-9" x1="1538.33" y1="608.98" x2="1642.87" y2="625.15"/><line class="cls-2" x1="1642.87" y1="625.15" x2="1522.15" y2="383.67"/><line class="cls-9" x1="1538.33" y1="608.98" x2="1433.78" y2="592.8"/><line class="cls-8" x1="1433.78" y1="592.8" x2="1522.15" y2="383.67"/><line class="cls-2" x1="1522.15" y1="383.67" x2="1538.33" y2="608.98"/><line class="cls-2" x1="1642.87" y1="625.15" x2="1675.21" y2="295.3"/><line class="cls-15" x1="1642.87" y1="625.15" x2="1522.15" y2="383.67"/><line class="cls-9" x1="1522.15" y1="383.67" x2="1675.21" y2="295.3"/><line class="cls-9" x1="1675.21" y1="295.3" x2="1642.87" y2="625.15"/><polyline class="cls-2" points="1531.79 273.11 1531.71 273.1 1531.71 273.1"/><line class="cls-9" x1="1473.53" y1="264.1" x2="1466.13" y2="262.95"/><polyline class="cls-2" points="1576.41 280.01 1576.41 280.01 1576.62 280.05"/><line class="cls-9" x1="1675.22" y1="295.3" x2="1641.91" y2="290.15"/><line class="cls-2" x1="1630.6" y1="288.4" x2="1630.59" y2="288.4"/><path class="cls-2" d="M1531.79,273.11l-.48-1-3.66-7.88c-.15-.32-.3-.65-.46-1a3.44,3.44,0,0,1-.38-1s0-.07,0-.1a1.93,1.93,0,0,0,0,.24,3.39,3.39,0,0,0,.38,1c.16.33.31.65.46,1l3.66,7.88.4.88h0l8,17.26,1.68,3.62.42.9a2.78,2.78,0,0,0,.58.86,4.84,4.84,0,0,0,2.59,1.05,6.67,6.67,0,0,0,3.13-.35c.43-.17,1.93-1.06,2.33-1.29l4.58-2.64,21.58-12.46,13.05-7.54a2,2,0,0,0,1.19-1.76,2.07,2.07,0,0,1-1.19,1.61L1576.41,280h0"/><path class="cls-9" d="M1678.34,269.12a5,5,0,0,0,2.14-2.18,2.92,2.92,0,0,0,.24-1.14"/><path class="cls-8" d="M1678.34,260.83a5,5,0,0,0,2.14-2.18,2.9,2.9,0,0,0-.38-2.93c-1.19-1.65-3.58-2.45-5.4-2.73"/><path class="cls-8" d="M1674.7,253l-204.56-31.65"/><path class="cls-8" d="M1470.14,221.34a13.27,13.27,0,0,0-6.69.67,6.79,6.79,0,0,0-2.78,1.9,2.93,2.93,0,0,0-.47,3.17"/><path class="cls-8" d="M1460.2,227.08,1515,345.19"/><path class="cls-9" d="M1515,353.47c1,2.25,4.28,3.17,6.34,3.39a12.32,12.32,0,0,0,7.24-1.29"/><path class="cls-8" d="M1515,345.19c1,2.24,4.28,3.16,6.34,3.39a12.48,12.48,0,0,0,7.24-1.29"/><path class="cls-9" d="M1528.59,355.57l149.75-86.45"/><path class="cls-8" d="M1528.59,347.29l149.75-86.46"/><path class="cls-2" d="M1531.79,273.11l7.93,17.1,1.68,3.62.42.9a2.78,2.78,0,0,0,.58.86,4.84,4.84,0,0,0,2.59,1.05,6.55,6.55,0,0,0,3.13-.35c.43-.17,1.93-1.06,2.33-1.29l4.58-2.64L1576.41,280"/><path class="cls-2" d="M1590.85,270.75a1.75,1.75,0,0,0-.72-1.22,4.75,4.75,0,0,0-2.27-.94l-2.73-.42-10.92-1.69-19.76-3.05-19.76-3.06c-.42-.07-3-.47-3.41-.5a6.14,6.14,0,0,0-3.25.65,2.13,2.13,0,0,0-1.23,1.61,2,2,0,0,1,1.23-1.76,6.14,6.14,0,0,1,3.25-.65c.44,0,3,.43,3.41.5l19.76,3.06,19.76,3.05,10.92,1.69,2.73.42a4.84,4.84,0,0,1,2.27.93A1.73,1.73,0,0,1,1590.85,270.75Z"/><path d="M1680.72,257.33l1.5,8.51a1.52,1.52,0,0,1-3,.53,1.57,1.57,0,0,1,0-.53Z"/><path d="M1460.54,239.65,1460,238c-.16-.56-.34-1.2-.46-1.8a17,17,0,0,1-.34-3.68c0-1.24.2-2.39.31-3.55l.37-3.48.38,3.48c.14,1.16.21,2.34.43,3.42a15.13,15.13,0,0,0,1,3.14c.22.51.46,1,.74,1.47l.84,1.54a1.51,1.51,0,1,1-2.65,1.44A1.57,1.57,0,0,1,1460.54,239.65Z"/><path class="cls-9" d="M1515,353.47q-26.54-57.2-53.09-114.39"/><line class="cls-2" x1="925.23" y1="581.02" x2="1020.63" y2="355.25"/><line class="cls-11" x1="1020.63" y1="355.25" x2="1038.09" y2="598.48"/><line class="cls-16" x1="1120.7" y1="550.78" x2="1150.94" y2="615.94"/><line class="cls-2" x1="1150.94" y1="615.94" x2="1185.86" y2="259.86"/><line class="cls-2" x1="1150.94" y1="615.94" x2="1020.63" y2="355.25"/><line class="cls-2" x1="960.15" y1="224.94" x2="1024.25" y2="353.16"/><line class="cls-2" x1="925.23" y1="581.02" x2="960.15" y2="224.94"/><line class="cls-8" x1="1020.63" y1="355.25" x2="925.23" y2="581.02"/><polyline class="cls-2" points="1018.89 359.37 1036.06 598.63 1040.11 598.34 1023 360 1023 360"/><polyline class="cls-9" points="960.14 224.94 1020.62 355.25 1185.86 259.85"/><polyline class="cls-9" points="1098.21 607.78 1150.94 615.94 1185.86 259.85 960.14 224.94 925.22 581.02 1038.08 598.48 1065.66 602.75"/><line class="cls-8" x1="1150.94" y1="615.94" x2="1020.63" y2="355.25"/><line class="cls-2" x1="1024.25" y1="353.16" x2="960.15" y2="224.94"/><path class="cls-2" d="M2683,608.68l9-5.19c8.13,8.23,18.23,16,29.24,20.2a51.91,51.91,0,0,0,7,2.16"/><path class="cls-2" d="M2670.44,615.91q-8.25,4.76-16.49,9.52c8.13,8.23,18.23,16,29.24,20.2s23.92,5.3,34-2.71c5.54-4.39,9-10.53,10.95-17.07a58.89,58.89,0,0,0,2.35-15c.39-11.81-2.12-24.08-5.94-35.11"/><path class="cls-2" d="M2762.59,553.81c3.82,11,6.33,23.3,5.94,35.11-.37,11.27-3.57,24.34-13.29,32.05a26.91,26.91,0,0,1-6.84,3.95"/><polyline class="cls-2" points="2762.59 553.81 2776.5 545.78 2718.1 491.19 2710.68 583.78 2724.59 575.75"/><line class="cls-2" x1="2755.24" y1="620.97" x2="2717.23" y2="642.92"/><polyline class="cls-2" points="1456.86 357.45 1438.97 358.08 1438.97 240.5 1403.04 241.77 1403.04 359.35 1379.51 360.18 1421.01 417.5 1455.95 366.76"/><polygon class="cls-2" points="1096.9 577.2 1118.17 579.56 1079.19 521.04 1043.14 571.23 1064.42 573.59 1067.36 642.3 1099.85 645.91 1096.9 577.2"/></g></svg>