<svg id="Layer_1" data-name="Layer 1" xmlns="http://www.w3.org/2000/svg" xmlns:xlink="http://www.w3.org/1999/xlink" viewBox="0 0 420.22 193"><defs><style>.cls-1,.cls-10,.cls-2,.cls-3,.cls-7,.cls-9{fill:#fff;}.cls-1,.cls-10,.cls-11,.cls-12,.cls-13,.cls-14,.cls-19,.cls-2,.cls-3,.cls-7,.cls-8,.cls-9{stroke-miterlimit:10;}.cls-1,.cls-10,.cls-11,.cls-12,.cls-13,.cls-14,.cls-19,.cls-2,.cls-3,.cls-8,.cls-9{stroke-width:2px;}.cls-1{stroke:url(#linear-gradient);}.cls-2{stroke:url(#linear-gradient-2);}.cls-3{stroke:url(#linear-gradient-3);}.cls-4{fill:url(#radial-gradient);}.cls-5{fill:url(#radial-gradient-2);}.cls-6{fill:url(#radial-gradient-3);}.cls-7{stroke:#000;}.cls-11,.cls-12,.cls-13,.cls-14,.cls-19,.cls-8{fill:none;}.cls-8{stroke:#0071bc;}.cls-9{stroke:#39b54a;}.cls-10{stroke:url(#linear-gradient-4);}.cls-11{stroke:url(#linear-gradient-5);}.cls-12{stroke:url(#linear-gradient-6);}.cls-13{stroke:url(#linear-gradient-7);}.cls-14{stroke:#f0f;}.cls-15{fill:url(#radial-gradient-4);}.cls-16{fill:url(#radial-gradient-5);}.cls-17{fill:url(#radial-gradient-6);}.cls-18{fill:url(#radial-gradient-7);}.cls-19{stroke:url(#linear-gradient-8);}.cls-20{fill:url(#radial-gradient-8);}.cls-21{fill:url(#radial-gradient-9);}.cls-22{fill:url(#radial-gradient-10);}.cls-23{fill:url(#radial-gradient-11);}</style><linearGradient id="linear-gradient" y1="100" x2="67.22" y2="100" gradientUnits="userSpaceOnUse"><stop offset="0" stop-color="#fff" stop-opacity="0"/><stop offset="1" stop-color="#b3b3b3"/></linearGradient><linearGradient id="linear-gradient-2" x1="283.5" y1="218" x2="441.5" y2="218" gradientUnits="userSpaceOnUse"><stop offset="0" stop-color="#f0f"/><stop offset="1" stop-color="#662d91"/></linearGradient><linearGradient id="linear-gradient-3" x1="276.5" y1="248" x2="379.5" y2="248" xlink:href="#linear-gradient-2"/><radialGradient id="radial-gradient" cx="361.22" cy="9" r="9" gradientUnits="userSpaceOnUse"><stop offset="0.1" stop-color="#fff"/><stop offset="1" stop-color="#662d91"/></radialGradient><radialGradient id="radial-gradient-2" cx="331.22" cy="40" r="6" xlink:href="#radial-gradient"/><radialGradient id="radial-gradient-3" cx="299.22" cy="69" r="7" xlink:href="#radial-gradient"/><linearGradient id="linear-gradient-4" x1="189.22" y1="40" x2="325.72" y2="40" xlink:href="#linear-gradient-2"/><linearGradient id="linear-gradient-5" x1="334.5" y1="279.5" x2="489.5" y2="279.5" gradientUnits="userSpaceOnUse"><stop offset="0" stop-color="#39b54a"/><stop offset="1" stop-color="#f15a24"/></linearGradient><linearGradient id="linear-gradient-6" y1="315" x2="448.5" y2="315" xlink:href="#linear-gradient-5"/><linearGradient id="linear-gradient-7" x1="288.5" y1="363.5" x2="405.5" y2="363.5" gradientUnits="userSpaceOnUse"><stop offset="0" stop-color="#0071bc"/><stop offset="1" stop-color="#fcee21"/></linearGradient><radialGradient id="radial-gradient-4" cx="67.22" cy="100" r="6" gradientUnits="userSpaceOnUse"><stop offset="0.12" stop-color="#fff"/><stop offset="1" stop-color="#b3b3b3"/></radialGradient><radialGradient id="radial-gradient-5" cx="243.22" cy="100" r="4" gradientUnits="userSpaceOnUse"><stop offset="0.09" stop-color="#fff"/><stop offset="1" stop-color="#39b54a"/></radialGradient><radialGradient id="radial-gradient-6" cx="411.22" cy="72" r="9" gradientUnits="userSpaceOnUse"><stop offset="0.1" stop-color="#fff"/><stop offset="1" stop-color="#f15a24"/></radialGradient><radialGradient id="radial-gradient-7" cx="189.22" cy="40" r="5" gradientUnits="userSpaceOnUse"><stop offset="0.2" stop-color="#fff"/><stop offset="1" stop-color="#f0f"/></radialGradient><linearGradient id="linear-gradient-8" y1="341" x2="355.5" y2="341" xlink:href="#linear-gradient-7"/><radialGradient id="radial-gradient-8" cx="318.22" cy="185" r="8" gradientUnits="userSpaceOnUse"><stop offset="0.09" stop-color="#fff"/><stop offset="1" stop-color="#fcee21"/></radialGradient><radialGradient id="radial-gradient-9" cx="365.22" cy="143" r="6" xlink:href="#radial-gradient-6"/><radialGradient id="radial-gradient-10" cx="275.22" cy="140" r="7" xlink:href="#radial-gradient-8"/><radialGradient id="radial-gradient-11" cx="201.22" cy="155" r="6" gradientUnits="userSpaceOnUse"><stop offset="0.15" stop-color="#fff"/><stop offset="1" stop-color="#0071bc"/></radialGradient></defs><line class="cls-1" x1="67.22" y1="100" y2="100"/><path class="cls-2" d="M283.5,233.5c64,0,80-31,158-31" transform="translate(-87.28 -193.5)"/><path class="cls-3" d="M379.5,262.5c-36,0-36-29-103-29" transform="translate(-87.28 -193.5)"/><circle class="cls-4" cx="361.22" cy="9" r="9"/><circle class="cls-5" cx="331.22" cy="40" r="6"/><circle class="cls-6" cx="299.22" cy="69" r="7"/><path class="cls-7" d="M147.5,293.5" transform="translate(-87.28 -193.5)"/><path class="cls-8" d="M154.5,293.5c76,0,59,55,134,55" transform="translate(-87.28 -193.5)"/><line class="cls-9" x1="67.22" y1="100" x2="243.72" y2="100"/><line class="cls-10" x1="189.22" y1="40" x2="325.72" y2="40"/><path class="cls-11" d="M334.5,293.5c87,0,81-28,155-28" transform="translate(-87.28 -193.5)"/><path class="cls-12" d="M334.5,293.5c63,0,63,43,114,43" transform="translate(-87.28 -193.5)"/><path class="cls-13" d="M288.5,348.5c57,0,70,30,117,30" transform="translate(-87.28 -193.5)"/><path class="cls-14" d="M154.5,293.5c58,0,53-60,118-60" transform="translate(-87.28 -193.5)"/><circle class="cls-15" cx="67.22" cy="100" r="6"/><circle class="cls-16" cx="243.22" cy="100" r="4"/><circle class="cls-17" cx="411.22" cy="72" r="9"/><circle class="cls-18" cx="189.22" cy="40" r="5"/><path class="cls-19" d="M288.5,348.5c38,0,36-15,67-15" transform="translate(-87.28 -193.5)"/><circle class="cls-20" cx="318.22" cy="185" r="8"/><circle class="cls-21" cx="365.22" cy="143" r="6"/><circle class="cls-22" cx="275.22" cy="140" r="7"/><circle class="cls-23" cx="201.22" cy="155" r="6"/></svg>